<?xml version="1.0" encoding="utf-8" standalone="no"?>
<!DOCTYPE svg PUBLIC "-//W3C//DTD SVG 1.1//EN"
  "http://www.w3.org/Graphics/SVG/1.1/DTD/svg11.dtd">
<svg xmlns:xlink="http://www.w3.org/1999/xlink" width="460.8pt" height="345.6pt" viewBox="0 0 460.8 345.6" xmlns="http://www.w3.org/2000/svg" version="1.1">
 <metadata>
  <rdf:RDF xmlns:dc="http://purl.org/dc/elements/1.1/" xmlns:cc="http://creativecommons.org/ns#" xmlns:rdf="http://www.w3.org/1999/02/22-rdf-syntax-ns#">
   <cc:Work>
    <dc:type rdf:resource="http://purl.org/dc/dcmitype/StillImage"/>
    <dc:date>2023-07-23T18:09:11.225254</dc:date>
    <dc:format>image/svg+xml</dc:format>
    <dc:creator>
     <cc:Agent>
      <dc:title>Matplotlib v3.5.3, https://matplotlib.org/</dc:title>
     </cc:Agent>
    </dc:creator>
   </cc:Work>
  </rdf:RDF>
 </metadata>
 <defs>
  <style type="text/css">*{stroke-linejoin: round; stroke-linecap: butt}</style>
 </defs>
 <g id="figure_1">
  <g id="patch_1">
   <path d="M 0 345.6 
L 460.8 345.6 
L 460.8 0 
L 0 0 
z
" style="fill: #ffffff"/>
  </g>
  <g id="axes_1">
   <g id="patch_2">
    <path d="M 57.6 307.584 
L 414.72 307.584 
L 414.72 41.472 
L 57.6 41.472 
z
" style="fill: #ffffff"/>
   </g>
   <g id="matplotlib.axis_1">
    <g id="xtick_1">
     <g id="line2d_1">
      <defs>
       <path id="m4d5ca16651" d="M 0 0 
L 0 3.5 
" style="stroke: #000000; stroke-width: 0.8"/>
      </defs>
      <g>
       <use xlink:href="#m4d5ca16651" x="73.832727" y="307.584" style="stroke: #000000; stroke-width: 0.8"/>
      </g>
     </g>
     <g id="text_1">
      <!-- 0.0 -->
      <g transform="translate(63.20429 323.702125)scale(0.12 -0.12)">
       <defs>
        <path id="DejaVuSans-Bold-30" d="M 2944 2338 
Q 2944 3213 2780 3570 
Q 2616 3928 2228 3928 
Q 1841 3928 1675 3570 
Q 1509 3213 1509 2338 
Q 1509 1453 1675 1090 
Q 1841 728 2228 728 
Q 2613 728 2778 1090 
Q 2944 1453 2944 2338 
z
M 4147 2328 
Q 4147 1169 3647 539 
Q 3147 -91 2228 -91 
Q 1306 -91 806 539 
Q 306 1169 306 2328 
Q 306 3491 806 4120 
Q 1306 4750 2228 4750 
Q 3147 4750 3647 4120 
Q 4147 3491 4147 2328 
z
" transform="scale(0.015625)"/>
        <path id="DejaVuSans-Bold-2e" d="M 653 1209 
L 1778 1209 
L 1778 0 
L 653 0 
L 653 1209 
z
" transform="scale(0.015625)"/>
       </defs>
       <use xlink:href="#DejaVuSans-Bold-30"/>
       <use xlink:href="#DejaVuSans-Bold-2e" x="69.580078"/>
       <use xlink:href="#DejaVuSans-Bold-30" x="107.568359"/>
      </g>
     </g>
    </g>
    <g id="xtick_2">
     <g id="line2d_2">
      <g>
       <use xlink:href="#m4d5ca16651" x="127.941818" y="307.584" style="stroke: #000000; stroke-width: 0.8"/>
      </g>
     </g>
     <g id="text_2">
      <!-- 5.0 -->
      <g transform="translate(117.313381 323.702125)scale(0.12 -0.12)">
       <defs>
        <path id="DejaVuSans-Bold-35" d="M 678 4666 
L 3669 4666 
L 3669 3781 
L 1638 3781 
L 1638 3059 
Q 1775 3097 1914 3117 
Q 2053 3138 2203 3138 
Q 3056 3138 3531 2711 
Q 4006 2284 4006 1522 
Q 4006 766 3489 337 
Q 2972 -91 2053 -91 
Q 1656 -91 1267 -14 
Q 878 63 494 219 
L 494 1166 
Q 875 947 1217 837 
Q 1559 728 1863 728 
Q 2300 728 2551 942 
Q 2803 1156 2803 1522 
Q 2803 1891 2551 2103 
Q 2300 2316 1863 2316 
Q 1603 2316 1309 2248 
Q 1016 2181 678 2041 
L 678 4666 
z
" transform="scale(0.015625)"/>
       </defs>
       <use xlink:href="#DejaVuSans-Bold-35"/>
       <use xlink:href="#DejaVuSans-Bold-2e" x="69.580078"/>
       <use xlink:href="#DejaVuSans-Bold-30" x="107.568359"/>
      </g>
     </g>
    </g>
    <g id="xtick_3">
     <g id="line2d_3">
      <g>
       <use xlink:href="#m4d5ca16651" x="182.050909" y="307.584" style="stroke: #000000; stroke-width: 0.8"/>
      </g>
     </g>
     <g id="text_3">
      <!-- 10.0 -->
      <g transform="translate(167.247784 323.702125)scale(0.12 -0.12)">
       <defs>
        <path id="DejaVuSans-Bold-31" d="M 750 831 
L 1813 831 
L 1813 3847 
L 722 3622 
L 722 4441 
L 1806 4666 
L 2950 4666 
L 2950 831 
L 4013 831 
L 4013 0 
L 750 0 
L 750 831 
z
" transform="scale(0.015625)"/>
       </defs>
       <use xlink:href="#DejaVuSans-Bold-31"/>
       <use xlink:href="#DejaVuSans-Bold-30" x="69.580078"/>
       <use xlink:href="#DejaVuSans-Bold-2e" x="139.160156"/>
       <use xlink:href="#DejaVuSans-Bold-30" x="177.148438"/>
      </g>
     </g>
    </g>
    <g id="xtick_4">
     <g id="line2d_4">
      <g>
       <use xlink:href="#m4d5ca16651" x="236.16" y="307.584" style="stroke: #000000; stroke-width: 0.8"/>
      </g>
     </g>
     <g id="text_4">
      <!-- 15.0 -->
      <g transform="translate(221.356875 323.702125)scale(0.12 -0.12)">
       <use xlink:href="#DejaVuSans-Bold-31"/>
       <use xlink:href="#DejaVuSans-Bold-35" x="69.580078"/>
       <use xlink:href="#DejaVuSans-Bold-2e" x="139.160156"/>
       <use xlink:href="#DejaVuSans-Bold-30" x="177.148438"/>
      </g>
     </g>
    </g>
    <g id="xtick_5">
     <g id="line2d_5">
      <g>
       <use xlink:href="#m4d5ca16651" x="290.269091" y="307.584" style="stroke: #000000; stroke-width: 0.8"/>
      </g>
     </g>
     <g id="text_5">
      <!-- 20.0 -->
      <g transform="translate(275.465966 323.702125)scale(0.12 -0.12)">
       <defs>
        <path id="DejaVuSans-Bold-32" d="M 1844 884 
L 3897 884 
L 3897 0 
L 506 0 
L 506 884 
L 2209 2388 
Q 2438 2594 2547 2791 
Q 2656 2988 2656 3200 
Q 2656 3528 2436 3728 
Q 2216 3928 1850 3928 
Q 1569 3928 1234 3808 
Q 900 3688 519 3450 
L 519 4475 
Q 925 4609 1322 4679 
Q 1719 4750 2100 4750 
Q 2938 4750 3402 4381 
Q 3866 4013 3866 3353 
Q 3866 2972 3669 2642 
Q 3472 2313 2841 1759 
L 1844 884 
z
" transform="scale(0.015625)"/>
       </defs>
       <use xlink:href="#DejaVuSans-Bold-32"/>
       <use xlink:href="#DejaVuSans-Bold-30" x="69.580078"/>
       <use xlink:href="#DejaVuSans-Bold-2e" x="139.160156"/>
       <use xlink:href="#DejaVuSans-Bold-30" x="177.148438"/>
      </g>
     </g>
    </g>
    <g id="xtick_6">
     <g id="line2d_6">
      <g>
       <use xlink:href="#m4d5ca16651" x="344.378182" y="307.584" style="stroke: #000000; stroke-width: 0.8"/>
      </g>
     </g>
     <g id="text_6">
      <!-- 25.0 -->
      <g transform="translate(329.575057 323.702125)scale(0.12 -0.12)">
       <use xlink:href="#DejaVuSans-Bold-32"/>
       <use xlink:href="#DejaVuSans-Bold-35" x="69.580078"/>
       <use xlink:href="#DejaVuSans-Bold-2e" x="139.160156"/>
       <use xlink:href="#DejaVuSans-Bold-30" x="177.148438"/>
      </g>
     </g>
    </g>
    <g id="xtick_7">
     <g id="line2d_7">
      <g>
       <use xlink:href="#m4d5ca16651" x="398.487273" y="307.584" style="stroke: #000000; stroke-width: 0.8"/>
      </g>
     </g>
     <g id="text_7">
      <!-- 30.0 -->
      <g transform="translate(383.684148 323.702125)scale(0.12 -0.12)">
       <defs>
        <path id="DejaVuSans-Bold-33" d="M 2981 2516 
Q 3453 2394 3698 2092 
Q 3944 1791 3944 1325 
Q 3944 631 3412 270 
Q 2881 -91 1863 -91 
Q 1503 -91 1142 -33 
Q 781 25 428 141 
L 428 1069 
Q 766 900 1098 814 
Q 1431 728 1753 728 
Q 2231 728 2486 893 
Q 2741 1059 2741 1369 
Q 2741 1688 2480 1852 
Q 2219 2016 1709 2016 
L 1228 2016 
L 1228 2791 
L 1734 2791 
Q 2188 2791 2409 2933 
Q 2631 3075 2631 3366 
Q 2631 3634 2415 3781 
Q 2200 3928 1806 3928 
Q 1516 3928 1219 3862 
Q 922 3797 628 3669 
L 628 4550 
Q 984 4650 1334 4700 
Q 1684 4750 2022 4750 
Q 2931 4750 3382 4451 
Q 3834 4153 3834 3553 
Q 3834 3144 3618 2883 
Q 3403 2622 2981 2516 
z
" transform="scale(0.015625)"/>
       </defs>
       <use xlink:href="#DejaVuSans-Bold-33"/>
       <use xlink:href="#DejaVuSans-Bold-30" x="69.580078"/>
       <use xlink:href="#DejaVuSans-Bold-2e" x="139.160156"/>
       <use xlink:href="#DejaVuSans-Bold-30" x="177.148438"/>
      </g>
     </g>
    </g>
    <g id="text_8">
     <!-- Epoch -->
     <g transform="translate(212.425625 340.835562)scale(0.14 -0.14)">
      <defs>
       <path id="DejaVuSans-Bold-45" d="M 588 4666 
L 3834 4666 
L 3834 3756 
L 1791 3756 
L 1791 2888 
L 3713 2888 
L 3713 1978 
L 1791 1978 
L 1791 909 
L 3903 909 
L 3903 0 
L 588 0 
L 588 4666 
z
" transform="scale(0.015625)"/>
       <path id="DejaVuSans-Bold-70" d="M 1656 506 
L 1656 -1331 
L 538 -1331 
L 538 3500 
L 1656 3500 
L 1656 2988 
Q 1888 3294 2169 3439 
Q 2450 3584 2816 3584 
Q 3463 3584 3878 3070 
Q 4294 2556 4294 1747 
Q 4294 938 3878 423 
Q 3463 -91 2816 -91 
Q 2450 -91 2169 54 
Q 1888 200 1656 506 
z
M 2400 2772 
Q 2041 2772 1848 2508 
Q 1656 2244 1656 1747 
Q 1656 1250 1848 986 
Q 2041 722 2400 722 
Q 2759 722 2948 984 
Q 3138 1247 3138 1747 
Q 3138 2247 2948 2509 
Q 2759 2772 2400 2772 
z
" transform="scale(0.015625)"/>
       <path id="DejaVuSans-Bold-6f" d="M 2203 2784 
Q 1831 2784 1636 2517 
Q 1441 2250 1441 1747 
Q 1441 1244 1636 976 
Q 1831 709 2203 709 
Q 2569 709 2762 976 
Q 2956 1244 2956 1747 
Q 2956 2250 2762 2517 
Q 2569 2784 2203 2784 
z
M 2203 3584 
Q 3106 3584 3614 3096 
Q 4122 2609 4122 1747 
Q 4122 884 3614 396 
Q 3106 -91 2203 -91 
Q 1297 -91 786 396 
Q 275 884 275 1747 
Q 275 2609 786 3096 
Q 1297 3584 2203 3584 
z
" transform="scale(0.015625)"/>
       <path id="DejaVuSans-Bold-63" d="M 3366 3391 
L 3366 2478 
Q 3138 2634 2908 2709 
Q 2678 2784 2431 2784 
Q 1963 2784 1702 2511 
Q 1441 2238 1441 1747 
Q 1441 1256 1702 982 
Q 1963 709 2431 709 
Q 2694 709 2930 787 
Q 3166 866 3366 1019 
L 3366 103 
Q 3103 6 2833 -42 
Q 2563 -91 2291 -91 
Q 1344 -91 809 395 
Q 275 881 275 1747 
Q 275 2613 809 3098 
Q 1344 3584 2291 3584 
Q 2566 3584 2833 3536 
Q 3100 3488 3366 3391 
z
" transform="scale(0.015625)"/>
       <path id="DejaVuSans-Bold-68" d="M 4056 2131 
L 4056 0 
L 2931 0 
L 2931 347 
L 2931 1625 
Q 2931 2084 2911 2256 
Q 2891 2428 2841 2509 
Q 2775 2619 2662 2680 
Q 2550 2741 2406 2741 
Q 2056 2741 1856 2470 
Q 1656 2200 1656 1722 
L 1656 0 
L 538 0 
L 538 4863 
L 1656 4863 
L 1656 2988 
Q 1909 3294 2193 3439 
Q 2478 3584 2822 3584 
Q 3428 3584 3742 3212 
Q 4056 2841 4056 2131 
z
" transform="scale(0.015625)"/>
      </defs>
      <use xlink:href="#DejaVuSans-Bold-45"/>
      <use xlink:href="#DejaVuSans-Bold-70" x="68.310547"/>
      <use xlink:href="#DejaVuSans-Bold-6f" x="139.892578"/>
      <use xlink:href="#DejaVuSans-Bold-63" x="208.59375"/>
      <use xlink:href="#DejaVuSans-Bold-68" x="267.871094"/>
     </g>
    </g>
   </g>
   <g id="matplotlib.axis_2">
    <g id="ytick_1">
     <g id="line2d_8">
      <defs>
       <path id="m44b4f65777" d="M 0 0 
L -3.5 0 
" style="stroke: #000000; stroke-width: 0.8"/>
      </defs>
      <g>
       <use xlink:href="#m44b4f65777" x="57.6" y="260.550492" style="stroke: #000000; stroke-width: 0.8"/>
      </g>
     </g>
     <g id="text_9">
      <!-- 0.0035 -->
      <g transform="translate(4.295 265.109555)scale(0.12 -0.12)">
       <use xlink:href="#DejaVuSans-Bold-30"/>
       <use xlink:href="#DejaVuSans-Bold-2e" x="69.580078"/>
       <use xlink:href="#DejaVuSans-Bold-30" x="107.568359"/>
       <use xlink:href="#DejaVuSans-Bold-30" x="177.148438"/>
       <use xlink:href="#DejaVuSans-Bold-33" x="246.728516"/>
       <use xlink:href="#DejaVuSans-Bold-35" x="316.308594"/>
      </g>
     </g>
    </g>
    <g id="ytick_2">
     <g id="line2d_9">
      <g>
       <use xlink:href="#m44b4f65777" x="57.6" y="210.659767" style="stroke: #000000; stroke-width: 0.8"/>
      </g>
     </g>
     <g id="text_10">
      <!-- 0.004 -->
      <g transform="translate(12.644375 215.218829)scale(0.12 -0.12)">
       <defs>
        <path id="DejaVuSans-Bold-34" d="M 2356 3675 
L 1038 1722 
L 2356 1722 
L 2356 3675 
z
M 2156 4666 
L 3494 4666 
L 3494 1722 
L 4159 1722 
L 4159 850 
L 3494 850 
L 3494 0 
L 2356 0 
L 2356 850 
L 288 850 
L 288 1881 
L 2156 4666 
z
" transform="scale(0.015625)"/>
       </defs>
       <use xlink:href="#DejaVuSans-Bold-30"/>
       <use xlink:href="#DejaVuSans-Bold-2e" x="69.580078"/>
       <use xlink:href="#DejaVuSans-Bold-30" x="107.568359"/>
       <use xlink:href="#DejaVuSans-Bold-30" x="177.148438"/>
       <use xlink:href="#DejaVuSans-Bold-34" x="246.728516"/>
      </g>
     </g>
    </g>
    <g id="ytick_3">
     <g id="line2d_10">
      <g>
       <use xlink:href="#m44b4f65777" x="57.6" y="160.769041" style="stroke: #000000; stroke-width: 0.8"/>
      </g>
     </g>
     <g id="text_11">
      <!-- 0.0045 -->
      <g transform="translate(4.295 165.328103)scale(0.12 -0.12)">
       <use xlink:href="#DejaVuSans-Bold-30"/>
       <use xlink:href="#DejaVuSans-Bold-2e" x="69.580078"/>
       <use xlink:href="#DejaVuSans-Bold-30" x="107.568359"/>
       <use xlink:href="#DejaVuSans-Bold-30" x="177.148438"/>
       <use xlink:href="#DejaVuSans-Bold-34" x="246.728516"/>
       <use xlink:href="#DejaVuSans-Bold-35" x="316.308594"/>
      </g>
     </g>
    </g>
    <g id="ytick_4">
     <g id="line2d_11">
      <g>
       <use xlink:href="#m44b4f65777" x="57.6" y="110.878315" style="stroke: #000000; stroke-width: 0.8"/>
      </g>
     </g>
     <g id="text_12">
      <!-- 0.005 -->
      <g transform="translate(12.644375 115.437378)scale(0.12 -0.12)">
       <use xlink:href="#DejaVuSans-Bold-30"/>
       <use xlink:href="#DejaVuSans-Bold-2e" x="69.580078"/>
       <use xlink:href="#DejaVuSans-Bold-30" x="107.568359"/>
       <use xlink:href="#DejaVuSans-Bold-30" x="177.148438"/>
       <use xlink:href="#DejaVuSans-Bold-35" x="246.728516"/>
      </g>
     </g>
    </g>
    <g id="ytick_5">
     <g id="line2d_12">
      <g>
       <use xlink:href="#m44b4f65777" x="57.6" y="60.98759" style="stroke: #000000; stroke-width: 0.8"/>
      </g>
     </g>
     <g id="text_13">
      <!-- 0.0055 -->
      <g transform="translate(4.295 65.546652)scale(0.12 -0.12)">
       <use xlink:href="#DejaVuSans-Bold-30"/>
       <use xlink:href="#DejaVuSans-Bold-2e" x="69.580078"/>
       <use xlink:href="#DejaVuSans-Bold-30" x="107.568359"/>
       <use xlink:href="#DejaVuSans-Bold-30" x="177.148438"/>
       <use xlink:href="#DejaVuSans-Bold-35" x="246.728516"/>
       <use xlink:href="#DejaVuSans-Bold-35" x="316.308594"/>
      </g>
     </g>
    </g>
    <g id="text_14">
     <!-- Error (a.u.) -->
     <g transform="translate(-2.616563 218.334875)rotate(-90)scale(0.14 -0.14)">
      <defs>
       <path id="DejaVuSans-Bold-72" d="M 3138 2547 
Q 2991 2616 2845 2648 
Q 2700 2681 2553 2681 
Q 2122 2681 1889 2404 
Q 1656 2128 1656 1613 
L 1656 0 
L 538 0 
L 538 3500 
L 1656 3500 
L 1656 2925 
Q 1872 3269 2151 3426 
Q 2431 3584 2822 3584 
Q 2878 3584 2943 3579 
Q 3009 3575 3134 3559 
L 3138 2547 
z
" transform="scale(0.015625)"/>
       <path id="DejaVuSans-Bold-20" transform="scale(0.015625)"/>
       <path id="DejaVuSans-Bold-28" d="M 2413 -844 
L 1484 -844 
Q 1006 -72 778 623 
Q 550 1319 550 2003 
Q 550 2688 779 3389 
Q 1009 4091 1484 4856 
L 2413 4856 
Q 2013 4116 1813 3408 
Q 1613 2700 1613 2009 
Q 1613 1319 1811 609 
Q 2009 -100 2413 -844 
z
" transform="scale(0.015625)"/>
       <path id="DejaVuSans-Bold-61" d="M 2106 1575 
Q 1756 1575 1579 1456 
Q 1403 1338 1403 1106 
Q 1403 894 1545 773 
Q 1688 653 1941 653 
Q 2256 653 2472 879 
Q 2688 1106 2688 1447 
L 2688 1575 
L 2106 1575 
z
M 3816 1997 
L 3816 0 
L 2688 0 
L 2688 519 
Q 2463 200 2181 54 
Q 1900 -91 1497 -91 
Q 953 -91 614 226 
Q 275 544 275 1050 
Q 275 1666 698 1953 
Q 1122 2241 2028 2241 
L 2688 2241 
L 2688 2328 
Q 2688 2594 2478 2717 
Q 2269 2841 1825 2841 
Q 1466 2841 1156 2769 
Q 847 2697 581 2553 
L 581 3406 
Q 941 3494 1303 3539 
Q 1666 3584 2028 3584 
Q 2975 3584 3395 3211 
Q 3816 2838 3816 1997 
z
" transform="scale(0.015625)"/>
       <path id="DejaVuSans-Bold-75" d="M 500 1363 
L 500 3500 
L 1625 3500 
L 1625 3150 
Q 1625 2866 1622 2436 
Q 1619 2006 1619 1863 
Q 1619 1441 1641 1255 
Q 1663 1069 1716 984 
Q 1784 875 1895 815 
Q 2006 756 2150 756 
Q 2500 756 2700 1025 
Q 2900 1294 2900 1772 
L 2900 3500 
L 4019 3500 
L 4019 0 
L 2900 0 
L 2900 506 
Q 2647 200 2364 54 
Q 2081 -91 1741 -91 
Q 1134 -91 817 281 
Q 500 653 500 1363 
z
" transform="scale(0.015625)"/>
       <path id="DejaVuSans-Bold-29" d="M 513 -844 
Q 913 -100 1113 609 
Q 1313 1319 1313 2009 
Q 1313 2700 1113 3408 
Q 913 4116 513 4856 
L 1441 4856 
Q 1916 4091 2145 3389 
Q 2375 2688 2375 2003 
Q 2375 1319 2147 623 
Q 1919 -72 1441 -844 
L 513 -844 
z
" transform="scale(0.015625)"/>
      </defs>
      <use xlink:href="#DejaVuSans-Bold-45"/>
      <use xlink:href="#DejaVuSans-Bold-72" x="68.310547"/>
      <use xlink:href="#DejaVuSans-Bold-72" x="117.626953"/>
      <use xlink:href="#DejaVuSans-Bold-6f" x="166.943359"/>
      <use xlink:href="#DejaVuSans-Bold-72" x="235.644531"/>
      <use xlink:href="#DejaVuSans-Bold-20" x="284.960938"/>
      <use xlink:href="#DejaVuSans-Bold-28" x="319.775391"/>
      <use xlink:href="#DejaVuSans-Bold-61" x="365.478516"/>
      <use xlink:href="#DejaVuSans-Bold-2e" x="432.958984"/>
      <use xlink:href="#DejaVuSans-Bold-75" x="470.947266"/>
      <use xlink:href="#DejaVuSans-Bold-2e" x="542.138672"/>
      <use xlink:href="#DejaVuSans-Bold-29" x="580.126953"/>
     </g>
    </g>
   </g>
   <g id="line2d_13">
    <path d="M 73.832727 63.248773 
L 74.013191 53.568 
L 74.193655 66.486624 
L 74.374119 68.234966 
L 74.915511 81.058439 
L 75.095975 79.95678 
L 75.276438 89.628839 
L 75.456902 120.771371 
L 75.81783 114.156617 
L 75.998294 119.282164 
L 76.178758 121.176534 
L 76.359222 128.899113 
L 76.539686 129.924602 
L 76.72015 133.226193 
L 76.900613 140.120254 
L 77.081077 135.349516 
L 77.261541 141.227419 
L 77.442005 151.066494 
L 77.622469 148.215 
L 77.802933 156.868275 
L 78.163861 145.452559 
L 78.344325 163.367662 
L 78.524789 165.979419 
L 78.705252 174.316217 
L 78.885716 163.654294 
L 79.06618 173.489249 
L 79.246644 160.579816 
L 79.427108 174.343783 
L 79.607572 177.539339 
L 79.788036 174.41096 
L 79.9685 167.335544 
L 80.329427 185.135762 
L 80.509891 172.12948 
L 80.690355 183.079038 
L 80.870819 184.31242 
L 81.051283 172.897239 
L 81.231747 197.124514 
L 81.412211 182.539014 
L 81.592675 180.905073 
L 81.773139 183.903212 
L 81.953603 189.927128 
L 82.31453 182.302533 
L 82.494994 190.39983 
L 82.855922 194.184122 
L 83.036386 184.192211 
L 83.21685 200.377032 
L 83.397314 196.625581 
L 83.577778 203.572142 
L 83.758241 189.259201 
L 83.938705 200.423796 
L 84.119169 198.811932 
L 84.299633 198.903691 
L 84.660561 206.762757 
L 84.841025 204.707984 
L 85.021489 213.148956 
L 85.201953 211.034608 
L 85.382416 205.453491 
L 85.56288 208.746913 
L 85.743344 205.59769 
L 85.923808 198.180536 
L 86.104272 201.801669 
L 86.284736 221.424208 
L 86.4652 215.911152 
L 86.645664 206.916752 
L 86.826128 210.869834 
L 87.006592 206.214977 
L 87.187055 210.546664 
L 87.547983 211.378282 
L 87.728447 211.834571 
L 87.908911 207.488943 
L 88.089375 210.310836 
L 88.269839 219.660609 
L 88.450303 213.137 
L 88.630767 222.010693 
L 88.991694 208.073578 
L 89.172158 220.789881 
L 89.352622 222.082993 
L 89.533086 229.277929 
L 89.71355 217.507153 
L 89.894014 226.256932 
L 90.074478 213.980649 
L 90.254942 226.159615 
L 90.435406 227.19637 
L 90.615869 224.065377 
L 90.796333 217.3555 
L 90.976797 229.724146 
L 91.157261 233.45929 
L 91.337725 220.415436 
L 91.518189 229.103684 
L 91.698653 228.93002 
L 91.879117 216.94131 
L 92.059581 238.958245 
L 92.240044 222.674176 
L 92.420508 221.436578 
L 92.600972 224.130176 
L 92.781436 229.518527 
L 93.142364 219.766272 
L 93.503292 231.332128 
L 93.683756 227.31266 
L 93.86422 220.312337 
L 94.044683 232.843453 
L 94.225147 232.33405 
L 94.405611 237.333322 
L 94.586075 222.273786 
L 94.766539 233.560329 
L 94.947003 229.188833 
L 95.127467 229.094925 
L 95.488395 233.737141 
L 95.668858 234.047104 
L 95.849322 242.199989 
L 96.029786 239.261297 
L 96.21025 233.350369 
L 96.390714 236.795269 
L 96.751642 226.117986 
L 96.932106 229.071487 
L 97.11257 247.034679 
L 97.293034 243.78992 
L 97.473497 234.528958 
L 97.653961 237.481366 
L 97.834425 234.117469 
L 98.014889 236.961703 
L 98.195353 235.910925 
L 98.375817 236.457578 
L 98.556281 234.156936 
L 98.736745 233.927011 
L 98.917209 234.939401 
L 99.097672 242.045805 
L 99.278136 236.664288 
L 99.4586 244.037607 
L 99.819528 231.275833 
L 99.999992 243.395278 
L 100.180456 242.331706 
L 100.36092 250.927767 
L 100.541384 238.949796 
L 100.721847 248.425079 
L 100.902311 234.511814 
L 101.082775 246.128919 
L 101.263239 247.286206 
L 101.624167 236.917937 
L 101.804631 248.689621 
L 101.985095 251.065476 
L 102.165559 239.823003 
L 102.346023 247.165498 
L 102.526486 246.485397 
L 102.70695 234.121068 
L 102.887414 256.052733 
L 103.067878 239.221148 
L 103.248342 236.167299 
L 103.60927 246.650224 
L 103.970198 237.222417 
L 104.150661 244.733497 
L 104.331125 247.552482 
L 104.511589 243.899543 
L 104.692053 235.993535 
L 104.872517 249.331719 
L 105.052981 247.658696 
L 105.233445 253.339577 
L 105.413909 239.198487 
L 105.594373 250.114176 
L 105.774837 245.214334 
L 105.9553 244.945173 
L 106.316228 249.136472 
L 106.496692 249.236105 
L 106.677156 255.042066 
L 106.85762 255.456099 
L 107.038084 248.090155 
L 107.218548 250.76109 
L 107.399012 247.237707 
L 107.579475 239.832647 
L 107.759939 243.047038 
L 107.940403 261.20655 
L 108.120867 256.663055 
L 108.301331 247.642773 
L 108.481795 249.594372 
L 108.662259 246.108996 
L 108.842723 249.118255 
L 109.023187 247.84939 
L 109.203651 248.934607 
L 109.564578 246.362914 
L 109.745042 245.889531 
L 109.925506 253.88761 
L 110.10597 248.147007 
L 110.286434 255.518426 
L 110.647362 243.820227 
L 110.827826 253.57446 
L 111.008289 255.135545 
L 111.188753 261.690454 
L 111.369217 250.325243 
L 111.549681 258.666935 
L 111.730145 245.91162 
L 111.910609 257.884072 
L 112.091073 259.13194 
L 112.452001 248.076527 
L 112.632465 260.306055 
L 112.812928 260.899166 
L 112.993392 251.099812 
L 113.173856 255.889277 
L 113.35432 256.65597 
L 113.534784 244.851222 
L 113.715248 266.408669 
L 113.895712 249.692902 
L 114.076176 249.088083 
L 114.437103 256.03355 
L 114.617567 249.257601 
L 114.798031 247.325856 
L 115.158959 257.599218 
L 115.339423 253.958311 
L 115.519887 247.224207 
L 115.700351 258.287463 
L 115.880815 257.72553 
L 116.061278 261.241849 
L 116.241742 248.545044 
L 116.422206 258.057385 
L 116.783134 254.094563 
L 116.963598 257.206675 
L 117.144062 258.132962 
L 117.324526 256.787814 
L 117.50499 264.292999 
L 117.685454 264.577487 
L 117.865917 257.467046 
L 118.046381 259.362737 
L 118.407309 249.669123 
L 118.587773 252.473533 
L 118.768237 268.843534 
L 118.948701 265.105307 
L 119.129165 255.862553 
L 119.309629 259.186724 
L 119.490092 253.673229 
L 119.670556 256.91051 
L 119.85102 256.327321 
L 120.031484 256.775447 
L 120.211948 254.68215 
L 120.392412 253.92085 
L 120.572876 253.980146 
L 120.75334 261.502726 
L 120.933804 255.818755 
L 121.114268 263.450701 
L 121.294731 254.96055 
L 121.475195 252.419933 
L 121.655659 261.789715 
L 121.836123 263.475629 
L 122.016587 269.488313 
L 122.197051 258.47394 
L 122.377515 266.378176 
L 122.557979 254.573442 
L 122.738443 264.595028 
L 122.918906 265.183955 
L 123.279834 255.66549 
L 123.460298 267.279555 
L 123.640762 267.766395 
L 123.821226 256.413043 
L 124.182154 264.989231 
L 124.362618 253.388785 
L 124.543082 273.274469 
L 124.723545 256.724231 
L 124.904009 254.737545 
L 125.264937 262.635372 
L 125.445401 255.759582 
L 125.625865 254.722759 
L 125.986793 263.306168 
L 126.167257 260.260633 
L 126.34772 252.634918 
L 126.528184 264.3027 
L 126.708648 263.126627 
L 126.889112 266.691701 
L 127.069576 254.115394 
L 127.25004 263.058746 
L 127.610968 259.724013 
L 127.971895 264.25028 
L 128.152359 262.563514 
L 128.332823 270.770284 
L 128.513287 269.207363 
L 128.693751 262.826042 
L 128.874215 265.889874 
L 129.235143 254.222552 
L 129.415607 257.570592 
L 129.596071 273.994934 
L 129.776534 270.43405 
L 129.956998 261.316949 
L 130.137462 265.063269 
L 130.317926 260.08276 
L 130.49839 260.918229 
L 130.678854 261.157356 
L 130.859318 260.571492 
L 131.039782 257.841762 
L 131.400709 258.430721 
L 131.581173 264.954554 
L 131.761637 261.226533 
L 131.942101 267.858611 
L 132.122565 259.499704 
L 132.303029 256.451652 
L 132.483493 266.578889 
L 132.844421 273.750879 
L 133.024885 260.609958 
L 133.205348 270.021719 
L 133.385812 258.623387 
L 133.566276 268.227326 
L 133.74674 269.069436 
L 134.107668 259.001166 
L 134.288132 271.489664 
L 134.468596 271.262514 
L 134.64906 260.964003 
L 134.829523 266.832227 
L 135.009987 268.700588 
L 135.190451 256.807954 
L 135.370915 276.977393 
L 135.551379 260.387449 
L 135.731843 259.511332 
L 136.092771 265.943623 
L 136.453699 258.510437 
L 136.814626 266.729831 
L 136.99509 263.293407 
L 137.175554 255.767509 
L 137.356018 266.94286 
L 137.536482 266.792581 
L 137.716946 268.738159 
L 137.89741 257.564651 
L 138.077874 266.697082 
L 138.258337 265.119928 
L 138.438801 262.354632 
L 138.799729 266.904046 
L 138.980193 266.354105 
L 139.160657 274.388361 
L 139.341121 272.976696 
L 139.521585 267.361028 
L 139.702049 267.974449 
L 140.062976 258.370673 
L 140.24344 260.304138 
L 140.423904 277.959576 
L 140.604368 273.376407 
L 140.784832 264.838606 
L 140.965296 267.150222 
L 141.14576 263.285631 
L 141.326224 264.747466 
L 141.506688 265.155674 
L 141.867615 261.735085 
L 142.048079 260.788442 
L 142.228543 262.193093 
L 142.409007 268.641037 
L 142.589471 263.53096 
L 142.769935 271.221352 
L 143.130863 258.91248 
L 143.311326 270.115956 
L 143.49179 271.176289 
L 143.672254 276.903617 
L 143.852718 263.416472 
L 144.033182 273.399783 
L 144.213646 262.097387 
L 144.39411 273.589538 
L 144.574574 272.04031 
L 144.935502 261.940853 
L 145.115965 273.691255 
L 145.296429 274.18421 
L 145.476893 264.286111 
L 145.837821 271.879625 
L 146.018285 259.971261 
L 146.198749 279.324124 
L 146.379213 262.235604 
L 146.559677 261.041823 
L 146.920604 268.633265 
L 147.281532 261.86091 
L 147.461996 267.985187 
L 147.64246 269.919006 
L 148.003388 259.81044 
L 148.183852 270.399475 
L 148.364316 269.58529 
L 148.544779 271.968467 
L 148.725243 259.875837 
L 148.905707 268.802299 
L 149.086171 268.215483 
L 149.266635 265.450047 
L 149.447099 268.705841 
L 149.808027 270.398114 
L 149.988491 276.333001 
L 150.168954 275.541576 
L 150.349418 269.015716 
L 150.529882 270.709426 
L 150.89081 260.174389 
L 151.071274 262.807707 
L 151.251738 279.362667 
L 151.432202 276.941826 
L 151.612666 266.649779 
L 151.79313 270.114667 
L 151.973593 266.563045 
L 152.334521 268.662713 
L 152.875913 264.403048 
L 153.056377 264.454617 
L 153.236841 270.807664 
L 153.417305 266.641941 
L 153.597768 273.945145 
L 153.958696 260.947136 
L 154.13916 273.950916 
L 154.319624 274.156214 
L 154.500088 279.498735 
L 154.680552 266.78765 
L 154.861016 275.948608 
L 155.04148 264.524074 
L 155.221944 275.37926 
L 155.402407 274.969656 
L 155.763335 264.580908 
L 155.943799 275.219263 
L 156.124263 276.517373 
L 156.304727 266.016958 
L 156.485191 272.927393 
L 156.665655 274.366806 
L 156.846119 261.598322 
L 157.026582 280.703182 
L 157.207046 265.224241 
L 157.38751 263.22717 
L 157.748438 271.800719 
L 157.928902 265.52771 
L 158.109366 263.9757 
L 158.470294 271.996258 
L 158.650757 268.7425 
L 158.831221 261.539605 
L 159.011685 273.676997 
L 159.192149 271.369749 
L 159.372613 274.091627 
L 159.553077 263.166892 
L 159.733541 270.845321 
L 159.914005 270.419141 
L 160.094469 267.853779 
L 160.274933 270.479992 
L 160.455396 271.320671 
L 160.63586 271.226288 
L 160.816324 278.448166 
L 160.996788 277.374688 
L 161.177252 271.8281 
L 161.357716 273.646151 
L 161.718644 261.316975 
L 161.899108 264.977789 
L 162.079571 282.523272 
L 162.260035 277.980148 
L 162.440499 270.086405 
L 162.620963 271.591323 
L 162.801427 268.067316 
L 162.981891 269.601765 
L 163.162355 269.151972 
L 163.342819 269.49664 
L 163.88421 265.351665 
L 164.064674 273.749318 
L 164.245138 268.208043 
L 164.425602 275.035179 
L 164.78653 262.915995 
L 164.966994 275.424496 
L 165.147458 275.92732 
L 165.327922 281.861301 
L 165.508385 269.095778 
L 165.688849 277.873342 
L 165.869313 265.465009 
L 166.049777 276.745825 
L 166.230241 275.822082 
L 166.591169 265.032882 
L 166.771633 276.925602 
L 166.952097 277.497944 
L 167.132561 267.065867 
L 167.313024 274.275595 
L 167.493488 275.509811 
L 167.673952 263.733963 
L 167.854416 282.459302 
L 168.03488 266.327354 
L 168.215344 264.432655 
L 168.576272 273.556409 
L 168.937199 264.897577 
L 169.298127 272.82573 
L 169.478591 270.288718 
L 169.659055 263.038499 
L 169.839519 274.579755 
L 170.019983 274.07309 
L 170.200447 275.077377 
L 170.380911 265.000546 
L 170.561375 273.739176 
L 170.741838 271.892377 
L 170.922302 268.560786 
L 171.102766 271.860646 
L 171.28323 272.603609 
L 171.463694 272.294392 
L 171.644158 280.214111 
L 171.824622 279.280255 
L 172.005086 273.415694 
L 172.18555 274.365939 
L 172.366013 270.402597 
L 172.546477 262.626126 
L 172.726941 266.159825 
L 172.907405 283.96157 
L 173.087869 279.010973 
L 173.268333 270.737302 
L 173.448797 274.370024 
L 173.629261 270.025511 
L 173.809725 271.897823 
L 173.990188 271.636041 
L 174.170652 270.738289 
L 174.53158 267.440595 
L 174.712044 266.698856 
L 174.892508 275.289046 
L 175.072972 268.442412 
L 175.253436 276.731226 
L 175.614364 264.090018 
L 175.794827 276.041019 
L 175.975291 276.824942 
L 176.155755 283.032572 
L 176.336219 270.616539 
L 176.516683 279.862745 
L 176.697147 268.061351 
L 176.877611 278.512847 
L 177.058075 277.906617 
L 177.419002 266.043006 
L 177.599466 278.720621 
L 177.77993 279.317507 
L 177.960394 268.65385 
L 178.140858 274.285453 
L 178.321322 275.625859 
L 178.501786 264.311558 
L 178.68225 283.926805 
L 178.862714 268.403482 
L 179.043178 265.957667 
L 179.404105 274.701419 
L 179.584569 267.900934 
L 179.765033 266.608088 
L 179.945497 272.230094 
L 180.125961 274.358388 
L 180.306425 273.217345 
L 180.486889 264.724445 
L 180.667353 275.80606 
L 180.847816 274.538335 
L 181.02828 276.840514 
L 181.208744 266.431332 
L 181.389208 275.273249 
L 181.750136 271.315294 
L 181.9306 271.925317 
L 182.111064 273.996252 
L 182.291528 274.231521 
L 182.471992 281.574019 
L 182.652455 280.910447 
L 182.832919 275.261357 
L 183.013383 276.510678 
L 183.193847 272.257905 
L 183.374311 264.237533 
L 183.554775 267.851977 
L 183.735239 284.878397 
L 183.915703 280.946572 
L 184.096167 272.221724 
L 184.27663 275.825204 
L 184.457094 270.825066 
L 184.637558 273.698811 
L 184.818022 273.466304 
L 185.359414 269.545298 
L 185.539878 268.970676 
L 185.720342 276.949904 
L 185.900805 270.649469 
L 186.081269 277.990377 
L 186.261733 269.399584 
L 186.442197 267.469314 
L 186.622661 279.086449 
L 186.803125 278.856051 
L 186.983589 285.565174 
L 187.164053 272.933072 
L 187.344517 282.234129 
L 187.524981 270.20188 
L 187.705444 280.70018 
L 187.885908 279.347466 
L 188.246836 267.471114 
L 188.4273 281.007738 
L 188.607764 280.530607 
L 188.788228 270.215398 
L 189.149156 278.204189 
L 189.329619 265.233832 
L 189.510083 285.429713 
L 189.690547 270.380082 
L 189.871011 268.34741 
L 190.231939 276.59587 
L 190.592867 267.649177 
L 190.953795 277.055378 
L 191.134258 275.301375 
L 191.314722 266.783263 
L 191.495186 277.901478 
L 191.67565 276.840961 
L 191.856114 279.911235 
L 192.036578 269.232454 
L 192.217042 277.379948 
L 192.397506 276.067438 
L 192.57797 272.862722 
L 192.758433 275.409408 
L 193.119361 276.378153 
L 193.299825 283.43607 
L 193.480289 282.776769 
L 193.660753 277.514862 
L 193.841217 277.212103 
L 194.021681 273.916069 
L 194.202145 265.955519 
L 194.382609 269.271841 
L 194.563072 286.861412 
L 194.924 273.211609 
L 195.104464 275.960054 
L 195.284928 273.543457 
L 195.645856 275.231889 
L 195.82632 272.435725 
L 196.006784 271.780265 
L 196.187247 270.427668 
L 196.367711 270.020668 
L 196.548175 277.553857 
L 196.728639 272.101982 
L 196.909103 279.074422 
L 197.270031 268.862409 
L 197.450495 280.127773 
L 197.630959 279.209072 
L 197.811423 285.69777 
L 197.991886 273.828694 
L 198.17235 283.017568 
L 198.352814 271.496987 
L 198.533278 281.542904 
L 198.713742 280.764636 
L 199.07467 271.158625 
L 199.255134 282.257189 
L 199.435598 281.298393 
L 199.616061 272.438046 
L 199.796525 277.629017 
L 199.976989 279.600195 
L 200.157453 267.989541 
L 200.337917 287.226438 
L 200.518381 270.974624 
L 200.698845 268.513697 
L 201.059773 277.212645 
L 201.240236 271.297885 
L 201.4207 269.316543 
L 201.781628 278.884268 
L 201.962092 276.97165 
L 202.142556 268.339252 
L 202.32302 279.539992 
L 202.503484 278.600759 
L 202.683948 281.529292 
L 202.864412 269.723443 
L 203.044875 277.797266 
L 203.225339 276.412647 
L 203.405803 273.547056 
L 203.586267 275.98869 
L 203.766731 276.070236 
L 203.947195 276.759351 
L 204.127659 284.003078 
L 204.308123 283.44125 
L 204.488587 278.529514 
L 204.66905 279.109453 
L 204.849514 275.739938 
L 205.029978 266.092164 
L 205.210442 270.927362 
L 205.390906 287.366557 
L 205.751834 273.819642 
L 205.932298 276.964058 
L 206.112762 273.689702 
L 206.473689 275.431831 
L 206.834617 272.888912 
L 207.015081 271.484489 
L 207.195545 271.12815 
L 207.376009 278.372122 
L 207.556473 272.67882 
L 207.736937 279.49547 
L 207.917401 271.595334 
L 208.097864 269.702502 
L 208.278328 280.786492 
L 208.458792 279.758545 
L 208.639256 286.625653 
L 208.81972 275.11529 
L 209.000184 284.641473 
L 209.180648 273.011093 
L 209.361112 282.705397 
L 209.541576 281.857617 
L 209.902503 271.073602 
L 210.082967 282.52387 
L 210.263431 282.139391 
L 210.443895 272.865277 
L 210.804823 279.564974 
L 210.985287 268.685673 
L 211.165751 288.814497 
L 211.346215 271.75645 
L 211.526678 269.874536 
L 211.887606 278.28532 
L 212.06807 271.880132 
L 212.248534 270.009131 
L 212.609462 278.815221 
L 212.789926 277.665469 
L 212.97039 268.193472 
L 213.150854 281.29662 
L 213.331317 279.526916 
L 213.511781 282.218119 
L 213.692245 270.546926 
L 213.872709 278.858055 
L 214.233637 274.383391 
L 214.594565 276.23593 
L 214.775029 277.656204 
L 214.955492 285.179417 
L 215.135956 284.155745 
L 215.31642 279.926292 
L 215.496884 279.772009 
L 215.677348 276.055271 
L 215.857812 267.800892 
L 216.038276 271.168114 
L 216.21874 288.418158 
L 216.579667 274.170605 
L 216.760131 279.038908 
L 216.940595 275.511227 
L 217.121059 276.188558 
L 217.301523 275.992501 
L 217.481987 273.820515 
L 217.662451 273.391366 
L 217.842915 271.321532 
L 218.023379 271.296023 
L 218.203843 278.846984 
L 218.384306 273.253945 
L 218.56477 280.401834 
L 218.745234 271.971372 
L 218.925698 270.673743 
L 219.106162 282.487312 
L 219.286626 279.785885 
L 219.46709 287.43658 
L 219.647554 275.55196 
L 219.828018 285.199057 
L 220.008481 272.745586 
L 220.188945 283.001061 
L 220.369409 282.209288 
L 220.730337 272.011815 
L 220.910801 283.632062 
L 221.091265 283.607652 
L 221.271729 272.845942 
L 221.452193 279.070389 
L 221.632657 279.987734 
L 221.81312 269.160342 
L 221.993584 288.749201 
L 222.174048 272.666028 
L 222.354512 269.820771 
L 222.71544 279.029958 
L 222.895904 272.42043 
L 223.076368 272.290359 
L 223.437295 280.144082 
L 223.617759 277.679078 
L 223.798223 269.098532 
L 223.978687 282.252531 
L 224.159151 279.046362 
L 224.339615 282.21198 
L 224.520079 270.800767 
L 224.700543 279.425437 
L 225.061471 275.781604 
L 225.241934 275.922467 
L 225.422398 278.039922 
L 225.602862 278.491232 
L 225.783326 285.796245 
L 225.96379 284.515154 
L 226.144254 280.697377 
L 226.324718 280.364194 
L 226.505182 275.990487 
L 226.685646 268.80695 
L 226.866109 272.094978 
L 227.046573 288.621417 
L 227.227037 283.927517 
L 227.407501 274.77401 
L 227.587965 279.513304 
L 227.768429 276.186223 
L 227.948893 276.756188 
L 228.129357 278.155462 
L 228.309821 275.081518 
L 228.490285 275.030928 
L 228.670748 272.773967 
L 228.851212 272.573482 
L 229.031676 279.24107 
L 229.21214 274.242374 
L 229.392604 282.027942 
L 229.573068 273.297947 
L 229.753532 271.461268 
L 229.933996 284.340129 
L 230.11446 281.81221 
L 230.294923 288.182471 
L 230.475387 276.444707 
L 230.655851 285.30817 
L 230.836315 273.462369 
L 231.016779 283.616647 
L 231.197243 283.168313 
L 231.558171 272.834196 
L 231.738635 284.930382 
L 231.919098 284.387237 
L 232.099562 274.174755 
L 232.280026 279.24437 
L 232.46049 280.625126 
L 232.640954 269.387406 
L 232.821418 289.870707 
L 233.001882 274.429178 
L 233.182346 271.759114 
L 233.543274 279.68206 
L 233.723737 274.07525 
L 233.904201 273.187826 
L 234.265129 280.010638 
L 234.445593 277.542859 
L 234.626057 269.461267 
L 234.806521 283.018771 
L 234.986985 280.952676 
L 235.167449 284.137812 
L 235.347912 271.615643 
L 235.528376 280.890529 
L 235.70884 278.018736 
L 235.889304 277.208691 
L 236.069768 277.394066 
L 236.430696 279.366549 
L 236.61116 287.391635 
L 237.152551 281.842013 
L 237.333015 277.172286 
L 237.513479 269.289323 
L 237.693943 272.859551 
L 237.874407 289.828389 
L 238.054871 284.271545 
L 238.235335 275.086188 
L 238.415799 280.521437 
L 238.596263 276.884323 
L 238.776726 277.97974 
L 238.95719 278.04746 
L 239.498582 273.48362 
L 239.679046 273.343509 
L 239.85951 279.749317 
L 240.039974 274.960557 
L 240.220438 282.46843 
L 240.400902 273.543888 
L 240.581365 272.640724 
L 240.761829 284.634421 
L 240.942293 281.750243 
L 241.122757 288.864578 
L 241.303221 277.082101 
L 241.483685 285.296271 
L 241.664149 273.826602 
L 241.844613 284.045206 
L 242.025077 283.89456 
L 242.386004 273.607536 
L 242.566468 285.442325 
L 242.746932 284.666191 
L 242.927396 274.694105 
L 243.10786 280.34074 
L 243.288324 282.011709 
L 243.468788 271.077752 
L 243.649252 291.211014 
L 243.829715 275.256426 
L 244.010179 272.667883 
L 244.371107 280.257847 
L 244.551571 274.105459 
L 244.732035 274.839956 
L 245.092963 281.874724 
L 245.273427 279.029479 
L 245.453891 269.810327 
L 245.634354 283.298995 
L 245.814818 280.980095 
L 245.995282 283.771852 
L 246.175746 272.682263 
L 246.35621 281.052088 
L 246.717138 276.570967 
L 247.078066 280.244459 
L 247.258529 279.368015 
L 247.438993 287.419676 
L 247.619457 285.480795 
L 248.160849 277.300595 
L 248.341313 270.04659 
L 248.521777 273.488352 
L 248.702241 289.898928 
L 249.063168 275.344175 
L 249.243632 281.021486 
L 249.424096 276.655645 
L 249.785024 278.908632 
L 249.965488 275.627341 
L 250.145952 275.612724 
L 250.326416 273.842074 
L 250.50688 273.911314 
L 250.687343 279.717939 
L 250.867807 275.159599 
L 251.048271 282.953432 
L 251.228735 274.28249 
L 251.409199 273.013313 
L 251.589663 284.245006 
L 251.770127 282.816498 
L 251.950591 288.128471 
L 252.131055 276.988544 
L 252.311519 285.261235 
L 252.491982 274.260668 
L 252.672446 284.23589 
L 252.85291 284.052053 
L 253.213838 273.468807 
L 253.394302 286.026721 
L 253.574766 284.071099 
L 253.75523 275.268174 
L 253.935694 280.823378 
L 254.116157 281.226194 
L 254.296621 270.480521 
L 254.477085 290.072395 
L 254.657549 274.248069 
L 254.838013 272.02206 
L 255.198941 280.600514 
L 255.379405 274.596235 
L 255.559869 275.009942 
L 255.920796 282.326026 
L 256.10126 278.135019 
L 256.281724 269.723901 
L 256.462188 282.705442 
L 256.642652 281.785037 
L 256.823116 283.994581 
L 257.00358 272.083507 
L 257.184044 281.274412 
L 257.544971 277.340168 
L 257.725435 277.805488 
L 258.086363 281.058236 
L 258.266827 288.196214 
L 258.988683 278.151051 
L 259.169146 270.71152 
L 259.34961 273.776429 
L 259.530074 291.224221 
L 259.891002 277.018525 
L 260.071466 281.859022 
L 260.25193 276.914004 
L 260.432394 278.672479 
L 260.612858 279.209817 
L 260.793322 276.578853 
L 260.973785 277.499023 
L 261.154249 274.384266 
L 261.334713 273.404147 
L 261.515177 281.163562 
L 261.695641 276.335459 
L 261.876105 283.778626 
L 262.056569 274.632403 
L 262.237033 273.129624 
L 262.417497 284.649721 
L 262.59796 283.114741 
L 262.778424 288.675784 
L 262.958888 277.714277 
L 263.139352 285.163339 
L 263.319816 275.211092 
L 263.50028 284.996692 
L 263.680744 284.011127 
L 264.041672 273.592659 
L 264.222136 286.37177 
L 264.402599 285.327411 
L 264.583063 276.413239 
L 264.763527 282.439732 
L 264.943991 282.605882 
L 265.124455 270.688555 
L 265.304919 291.13926 
L 265.485383 274.794597 
L 265.665847 272.415981 
L 266.026774 280.906462 
L 266.207238 274.656705 
L 266.387702 275.428654 
L 266.74863 283.041135 
L 266.929094 279.848824 
L 267.109558 270.448854 
L 267.290022 282.559572 
L 267.470486 282.155445 
L 267.65095 284.471454 
L 267.831413 273.499441 
L 268.011877 281.890918 
L 268.372805 276.684235 
L 268.553269 278.332868 
L 268.733733 281.047451 
L 268.914197 281.101083 
L 269.094661 288.736839 
L 269.275125 286.247798 
L 269.455588 282.101755 
L 269.636052 283.18317 
L 269.99698 270.272413 
L 270.177444 273.869587 
L 270.357908 290.71613 
L 270.538372 286.17327 
L 270.718836 278.131089 
L 270.8993 282.986543 
L 271.079764 277.498202 
L 271.440691 278.929602 
L 271.621155 276.389948 
L 271.801619 276.450948 
L 271.982083 275.064346 
L 272.162547 274.957129 
L 272.343011 281.492427 
L 272.523475 276.817494 
L 272.703939 283.816252 
L 272.884402 275.820217 
L 273.064866 273.461256 
L 273.24533 284.480944 
L 273.425794 282.577594 
L 273.606258 289.106557 
L 273.786722 279.091706 
L 273.967186 286.174337 
L 274.14765 275.642291 
L 274.328114 284.756126 
L 274.508577 284.412662 
L 274.869505 275.091671 
L 275.049969 287.041391 
L 275.230433 286.104836 
L 275.410897 276.519457 
L 275.591361 282.100583 
L 275.771825 283.098856 
L 275.952289 271.140622 
L 276.132753 292.491594 
L 276.313216 275.703384 
L 276.49368 273.135509 
L 276.854608 281.488781 
L 277.035072 275.476718 
L 277.215536 275.38524 
L 277.576464 283.237682 
L 277.756928 279.66719 
L 277.937391 270.517786 
L 278.117855 283.55704 
L 278.298319 282.349217 
L 278.478783 285.270334 
L 278.659247 273.301269 
L 278.839711 282.426223 
L 279.200639 276.943003 
L 279.561567 281.795712 
L 279.74203 281.10725 
L 279.922494 289.755855 
L 280.283422 282.409473 
L 280.463886 283.263154 
L 280.64435 278.57369 
L 280.824814 270.505266 
L 281.005278 274.430902 
L 281.185742 290.911236 
L 281.366205 287.975077 
L 281.546669 278.875402 
L 281.727133 282.227883 
L 281.907597 277.646923 
L 282.088061 279.325265 
L 282.268525 278.790926 
L 282.448989 277.57871 
L 282.629453 277.493119 
L 282.809917 275.38277 
L 282.990381 274.954493 
L 283.170844 281.36497 
L 283.351308 276.711018 
L 283.531772 284.36555 
L 283.712236 275.778929 
L 283.8927 273.920248 
L 284.073164 285.056262 
L 284.253628 283.526164 
L 284.434092 290.539263 
L 284.614556 279.927364 
L 284.795019 287.209876 
L 284.975483 276.747777 
L 285.155947 284.850013 
L 285.336411 284.445232 
L 285.697339 276.008515 
L 285.877803 288.495519 
L 286.058267 286.827071 
L 286.238731 277.600023 
L 286.419195 282.23592 
L 286.599658 283.689415 
L 286.780122 271.503623 
L 286.960586 292.752317 
L 287.14105 275.753496 
L 287.321514 273.778459 
L 287.682442 281.012097 
L 287.862906 275.611169 
L 288.04337 276.139416 
L 288.404297 283.658099 
L 288.584761 281.45856 
L 288.765225 271.979792 
L 288.945689 284.950597 
L 289.126153 283.960333 
L 289.306617 286.517332 
L 289.487081 274.077548 
L 289.667545 283.062674 
L 290.028472 277.345489 
L 290.3894 282.030361 
L 290.569864 282.273114 
L 290.750328 289.864112 
L 291.111256 282.474294 
L 291.29172 283.498989 
L 291.652647 271.813404 
L 291.833111 275.587354 
L 292.013575 291.955672 
L 292.194039 287.859964 
L 292.374503 278.355774 
L 292.554967 283.085888 
L 292.735431 278.869792 
L 292.915895 279.861316 
L 293.096359 279.833274 
L 293.276822 278.280364 
L 293.457286 278.151611 
L 293.63775 275.828064 
L 293.818214 276.169889 
L 293.998678 281.601633 
L 294.179142 277.116619 
L 294.359606 285.555772 
L 294.54007 277.035823 
L 294.720534 275.268858 
L 294.900998 285.796231 
L 295.081461 284.642468 
L 295.261925 290.198442 
L 295.442389 280.728754 
L 295.622853 287.676646 
L 295.803317 276.721029 
L 295.983781 285.118141 
L 296.164245 285.030596 
L 296.525173 276.626976 
L 296.705636 289.06498 
L 296.8861 286.9334 
L 297.066564 277.012625 
L 297.427492 284.715007 
L 297.607956 271.857099 
L 297.78842 293.599568 
L 297.968884 275.883085 
L 298.149348 274.539844 
L 298.510275 282.407993 
L 298.690739 276.755022 
L 298.871203 276.249396 
L 299.051667 279.144214 
L 299.232131 283.909632 
L 299.412595 281.477356 
L 299.593059 271.427195 
L 299.773523 284.936196 
L 299.953987 283.51603 
L 300.13445 287.064346 
L 300.314914 274.645737 
L 300.495378 284.146094 
L 300.856306 277.421956 
L 301.217234 282.044601 
L 301.397698 281.060944 
L 301.578162 290.061406 
L 301.939089 282.957383 
L 302.119553 283.437985 
L 302.480481 270.813509 
L 302.660945 274.846221 
L 302.841409 291.556005 
L 303.021873 288.475193 
L 303.202337 278.757948 
L 303.382801 283.574385 
L 303.563264 278.577693 
L 303.924192 281.006626 
L 304.104656 278.988035 
L 304.28512 278.311724 
L 304.465584 276.292079 
L 304.646048 276.416927 
L 304.826512 282.709904 
L 305.006976 277.796794 
L 305.187439 286.222797 
L 305.367903 277.147874 
L 305.548367 275.131623 
L 305.728831 285.927719 
L 305.909295 285.163162 
L 306.089759 290.280736 
L 306.270223 282.015009 
L 306.450687 289.031533 
L 306.631151 277.47324 
L 306.811615 286.425163 
L 306.992078 286.18628 
L 307.353006 276.94737 
L 307.53347 289.348169 
L 307.713934 287.235167 
L 307.894398 277.850422 
L 308.255326 284.718136 
L 308.43579 271.97101 
L 308.616253 294.146422 
L 308.796717 276.657602 
L 308.977181 274.326822 
L 309.338109 282.679906 
L 309.518573 275.752913 
L 309.699037 276.2181 
L 309.879501 279.114873 
L 310.059965 284.136619 
L 310.240429 281.077229 
L 310.420892 271.915911 
L 310.601356 285.592688 
L 310.78182 284.793199 
L 310.962284 287.555426 
L 311.142748 275.397141 
L 311.323212 284.180505 
L 311.68414 277.889026 
L 312.045067 282.609408 
L 312.225531 282.528641 
L 312.405995 289.437756 
L 312.766923 284.4339 
L 312.947387 284.644486 
L 313.308315 271.283948 
L 313.488779 276.605033 
L 313.669243 292.10044 
L 313.849706 288.972378 
L 314.03017 279.720928 
L 314.210634 283.3697 
L 314.391098 278.678809 
L 314.752026 280.879425 
L 314.93249 278.562085 
L 315.473881 276.277563 
L 315.654345 282.699591 
L 315.834809 278.207085 
L 316.015273 286.837666 
L 316.376201 275.557316 
L 316.556665 286.111409 
L 316.737129 286.430167 
L 316.917593 292.077095 
L 317.098056 282.310047 
L 317.27852 289.369902 
L 317.458984 278.00213 
L 317.639448 287.135255 
L 317.819912 286.874945 
L 318.18084 277.775517 
L 318.361304 289.417815 
L 318.541768 288.484246 
L 318.722232 277.705135 
L 319.083159 284.485471 
L 319.263623 272.88032 
L 319.444087 294.889109 
L 319.624551 276.731383 
L 319.805015 275.887106 
L 319.985479 277.656799 
L 320.165943 283.320922 
L 320.346407 276.232201 
L 320.52687 277.119577 
L 320.887798 284.013501 
L 321.068262 281.104934 
L 321.248726 271.926268 
L 321.42919 286.068318 
L 321.609654 283.793127 
L 321.790118 288.34787 
L 321.970582 275.647331 
L 322.151046 284.27569 
L 322.511973 279.130466 
L 322.872901 283.087974 
L 323.053365 282.662709 
L 323.233829 290.674729 
L 323.594757 285.7031 
L 323.775221 285.089398 
L 324.136148 273.253495 
L 324.316612 277.101171 
L 324.497076 292.623185 
L 324.67754 290.035121 
L 324.858004 280.828301 
L 325.038468 284.42999 
L 325.218932 279.313368 
L 325.399396 281.040569 
L 325.57986 281.45458 
L 325.760323 279.730216 
L 325.940787 279.296219 
L 326.121251 276.570185 
L 326.301715 275.661118 
L 326.482179 282.755384 
L 326.662643 278.092282 
L 326.843107 286.600019 
L 327.023571 278.30807 
L 327.204035 276.266313 
L 327.384498 286.682658 
L 327.564962 286.022406 
L 327.745426 292.760872 
L 327.92589 282.453114 
L 328.106354 289.657711 
L 328.286818 278.272682 
L 328.467282 287.638791 
L 328.647746 286.40318 
L 329.008674 277.871145 
L 329.189137 290.587641 
L 329.369601 289.467442 
L 329.550065 278.613451 
L 329.730529 283.812495 
L 329.910993 285.518067 
L 330.091457 273.719459 
L 330.271921 294.736255 
L 330.452385 277.403177 
L 330.632849 276.273894 
L 330.813312 278.659579 
L 330.993776 283.911926 
L 331.17424 277.548672 
L 331.354704 277.823209 
L 331.715632 284.572711 
L 331.896096 280.684429 
L 332.07656 272.643671 
L 332.257024 285.903859 
L 332.437487 283.672481 
L 332.617951 289.13544 
L 332.798415 276.412731 
L 332.978879 285.793104 
L 333.339807 280.126634 
L 333.881199 283.110799 
L 334.061663 290.955928 
L 334.42259 285.16933 
L 334.603054 284.955583 
L 334.963982 273.048161 
L 335.144446 276.979049 
L 335.32491 293.206496 
L 335.505374 289.583017 
L 335.685838 281.742872 
L 335.866301 284.161768 
L 336.046765 279.659073 
L 336.227229 281.075292 
L 336.407693 281.318239 
L 336.588157 279.476689 
L 336.768621 279.123429 
L 337.129549 276.642014 
L 337.310013 284.429072 
L 337.490477 278.533794 
L 337.67094 287.169802 
L 337.851404 279.272867 
L 338.031868 276.505225 
L 338.212332 286.691701 
L 338.392796 286.789134 
L 338.57326 292.188143 
L 338.753724 282.553297 
L 338.934188 289.687168 
L 339.114652 278.624925 
L 339.295115 286.890761 
L 339.475579 287.03993 
L 339.836507 278.651724 
L 340.016971 290.755987 
L 340.197435 289.202297 
L 340.377899 278.291724 
L 340.738827 285.86117 
L 340.919291 273.965733 
L 341.099754 294.36262 
L 341.280218 277.794505 
L 341.460682 276.205248 
L 341.641146 279.086621 
L 341.82161 283.908382 
L 342.002074 277.036354 
L 342.182538 277.794384 
L 342.543466 284.373651 
L 342.723929 281.85354 
L 342.904393 273.221156 
L 343.084857 286.164619 
L 343.265321 284.214465 
L 343.445785 288.347336 
L 343.626249 276.364085 
L 343.806713 285.96025 
L 344.167641 280.494842 
L 344.348105 281.724762 
L 344.528568 284.685355 
L 344.709032 283.962851 
L 344.889496 291.989526 
L 345.250424 285.836016 
L 345.430888 284.779479 
L 345.791816 273.129996 
L 345.97228 277.837234 
L 346.152743 292.796187 
L 346.333207 289.28547 
L 346.513671 280.437572 
L 346.694135 284.445725 
L 346.874599 279.56531 
L 347.235527 281.795472 
L 347.415991 280.062164 
L 347.596455 279.60937 
L 347.776918 277.476314 
L 347.957382 277.368667 
L 348.137846 283.220362 
L 348.31831 278.878554 
L 348.498774 287.995127 
L 348.859702 275.144506 
L 349.040166 287.196328 
L 349.22063 286.871235 
L 349.401094 292.678278 
L 349.581557 282.414896 
L 349.762021 290.603624 
L 349.942485 278.44803 
L 350.122949 287.742837 
L 350.303413 287.132781 
L 350.483877 284.371859 
L 350.664341 278.122246 
L 350.844805 291.622526 
L 351.025269 289.183507 
L 351.205732 278.588425 
L 351.386196 284.37572 
L 351.56666 285.936737 
L 351.747124 274.409842 
L 351.927588 294.322928 
L 352.108052 279.181345 
L 352.288516 277.312275 
L 352.46898 279.467164 
L 352.649444 283.699146 
L 352.829908 276.493099 
L 353.010371 277.933384 
L 353.371299 284.452876 
L 353.551763 281.674501 
L 353.732227 272.937063 
L 353.912691 287.044228 
L 354.093155 284.380347 
L 354.273619 289.005154 
L 354.454083 276.299141 
L 354.634546 285.159411 
L 354.995474 280.114491 
L 355.356402 283.885792 
L 355.536866 283.360772 
L 355.71733 291.882676 
L 355.897794 290.463022 
L 356.078258 287.036893 
L 356.258722 286.602417 
L 356.619649 274.261123 
L 356.800113 278.284283 
L 356.980577 293.423835 
L 357.161041 290.474104 
L 357.341505 281.748297 
L 357.521969 285.19731 
L 357.702433 280.306326 
L 357.882897 281.068882 
L 358.06336 282.351308 
L 358.243824 280.236852 
L 358.424288 280.588309 
L 358.604752 278.00319 
L 358.785216 277.807649 
L 358.96568 284.010128 
L 359.146144 278.978706 
L 359.326608 288.756873 
L 359.687535 275.443763 
L 359.867999 287.256299 
L 360.048463 287.190188 
L 360.228927 294.00123 
L 360.409391 283.038356 
L 360.589855 291.337838 
L 360.770319 279.583292 
L 360.950783 287.243271 
L 361.131247 286.757654 
L 361.311711 284.627956 
L 361.492174 278.877193 
L 361.672638 291.361217 
L 361.853102 289.707604 
L 362.033566 278.869401 
L 362.394494 286.290827 
L 362.574958 274.051434 
L 362.755422 295.488 
L 362.935886 279.580802 
L 363.116349 276.365609 
L 363.477277 284.876733 
L 363.657741 278.087093 
L 363.838205 279.054463 
L 364.199133 284.844637 
L 364.379597 280.71221 
L 364.560061 273.575199 
L 364.740525 287.006306 
L 364.920988 285.734775 
L 365.101452 290.404065 
L 365.281916 277.634184 
L 365.46238 285.615257 
L 365.642844 284.201813 
L 365.823308 281.391069 
L 366.184236 285.177646 
L 366.3647 284.118307 
L 366.545163 292.003598 
L 366.725627 290.025294 
L 366.906091 286.175227 
L 367.086555 285.480479 
L 367.447483 273.61771 
L 367.627947 277.735741 
L 367.808411 293.382094 
L 367.988875 290.637681 
L 368.169339 282.429242 
L 368.349802 285.178785 
L 368.530266 280.169699 
L 368.891194 282.218348 
L 369.071658 280.253751 
L 369.252122 280.523071 
L 369.432586 278.130184 
L 369.61305 278.328203 
L 369.793514 284.732753 
L 369.973977 279.509314 
L 370.154441 287.92928 
L 370.515369 276.753475 
L 370.695833 287.78977 
L 370.876297 286.252514 
L 371.056761 292.916342 
L 371.237225 281.725266 
L 371.417689 290.51578 
L 371.598153 279.546008 
L 371.778616 287.007359 
L 371.95908 286.496989 
L 372.139544 283.903472 
L 372.320008 279.438303 
L 372.500472 290.995407 
L 372.680936 291.141256 
L 372.8614 280.045581 
L 373.222328 286.730283 
L 373.402791 274.219936 
L 373.583255 295.221894 
L 373.763719 280.086619 
L 373.944183 275.646142 
L 374.305111 284.719149 
L 374.485575 278.027828 
L 374.666039 279.16553 
L 375.026966 284.299952 
L 375.20743 280.545005 
L 375.387894 274.106529 
L 375.568358 287.471371 
L 375.748822 284.193561 
L 375.929286 289.917274 
L 376.10975 276.740555 
L 376.290214 285.386628 
L 376.651142 280.138645 
L 377.012069 285.967612 
L 377.192533 283.838829 
L 377.372997 292.335964 
L 377.553461 290.343178 
L 377.733925 286.301199 
L 377.914389 286.659621 
L 378.275317 274.176154 
L 378.45578 279.499374 
L 378.636244 293.541711 
L 378.816708 290.470543 
L 378.997172 281.719226 
L 379.177636 285.564836 
L 379.3581 280.318802 
L 379.719028 282.714607 
L 379.899492 279.967696 
L 380.079956 280.463366 
L 380.260419 278.408382 
L 380.440883 278.026042 
L 380.621347 285.002166 
L 380.801811 279.514725 
L 380.982275 288.711888 
L 381.343203 276.587342 
L 381.523667 288.462759 
L 381.704131 286.788234 
L 381.884594 294.043704 
L 382.065058 282.338051 
L 382.245522 291.048356 
L 382.425986 280.010157 
L 382.60645 288.00464 
L 382.967378 284.203928 
L 383.147842 279.360606 
L 383.328306 291.423471 
L 383.50877 290.782997 
L 383.689233 278.958672 
L 383.869697 284.517749 
L 384.050161 285.962422 
L 384.230625 274.260647 
L 384.411089 294.367969 
L 384.591553 279.985261 
L 384.772017 276.245755 
L 385.132945 284.348986 
L 385.313408 277.781286 
L 385.8548 284.537924 
L 386.035264 281.631628 
L 386.215728 274.403239 
L 386.396192 286.604784 
L 386.576656 285.3715 
L 386.75712 290.013797 
L 386.937584 276.995784 
L 387.118047 285.976098 
L 387.478975 281.16663 
L 387.839903 285.97438 
L 388.020367 285.069807 
L 388.200831 292.575401 
L 388.561759 286.017839 
L 388.742222 286.406487 
L 389.10315 275.476945 
L 389.283614 279.506737 
L 389.464078 293.856035 
L 389.644542 291.068841 
L 389.825006 282.15228 
L 390.00547 286.979745 
L 390.185934 279.786044 
L 390.366397 282.094234 
L 390.546861 282.88152 
L 390.727325 280.872089 
L 390.907789 280.788127 
L 391.088253 278.18275 
L 391.268717 277.89012 
L 391.449181 284.694528 
L 391.629645 279.599849 
L 391.810109 287.374507 
L 392.171036 276.417804 
L 392.3515 287.376388 
L 392.531964 287.087222 
L 392.712428 293.529119 
L 392.892892 282.384343 
L 393.073356 291.541297 
L 393.25382 279.814108 
L 393.434284 288.670978 
L 393.614748 287.437158 
L 393.795211 284.733461 
L 393.975675 279.252392 
L 394.156139 292.337375 
L 394.336603 291.104283 
L 394.517067 280.331528 
L 394.697531 285.356674 
L 394.877995 286.787 
L 395.058459 274.400703 
L 395.238923 294.670267 
L 395.419387 279.085236 
L 395.59985 277.855854 
L 395.960778 284.990013 
L 396.141242 277.448117 
L 396.321706 279.250159 
L 396.682634 284.99775 
L 396.863098 281.431092 
L 397.043562 274.349502 
L 397.224025 286.88859 
L 397.404489 285.514817 
L 397.584953 289.823997 
L 397.765417 276.976347 
L 397.945881 286.039485 
L 398.306809 281.689426 
L 398.487273 283.130213 
L 398.487273 283.130213 
" clip-path="url(#p0af0afe4cf)" style="fill: none; stroke: #1f77b4; stroke-width: 3; stroke-linecap: square"/>
   </g>
   <g id="patch_3">
    <path d="M 57.6 307.584 
L 57.6 41.472 
" style="fill: none; stroke: #000000; stroke-width: 3; stroke-linejoin: miter; stroke-linecap: square"/>
   </g>
   <g id="patch_4">
    <path d="M 414.72 307.584 
L 414.72 41.472 
" style="fill: none; stroke: #000000; stroke-width: 3; stroke-linejoin: miter; stroke-linecap: square"/>
   </g>
   <g id="patch_5">
    <path d="M 57.6 307.584 
L 414.72 307.584 
" style="fill: none; stroke: #000000; stroke-width: 3; stroke-linejoin: miter; stroke-linecap: square"/>
   </g>
   <g id="patch_6">
    <path d="M 57.6 41.472 
L 414.72 41.472 
" style="fill: none; stroke: #000000; stroke-width: 3; stroke-linejoin: miter; stroke-linecap: square"/>
   </g>
   <g id="text_15">
    <!-- Error plot sparsity:70 batchsize:1000 -->
    <g transform="translate(68.07875 35.472)scale(0.16 -0.16)">
     <defs>
      <path id="DejaVuSans-Bold-6c" d="M 538 4863 
L 1656 4863 
L 1656 0 
L 538 0 
L 538 4863 
z
" transform="scale(0.015625)"/>
      <path id="DejaVuSans-Bold-74" d="M 1759 4494 
L 1759 3500 
L 2913 3500 
L 2913 2700 
L 1759 2700 
L 1759 1216 
Q 1759 972 1856 886 
Q 1953 800 2241 800 
L 2816 800 
L 2816 0 
L 1856 0 
Q 1194 0 917 276 
Q 641 553 641 1216 
L 641 2700 
L 84 2700 
L 84 3500 
L 641 3500 
L 641 4494 
L 1759 4494 
z
" transform="scale(0.015625)"/>
      <path id="DejaVuSans-Bold-73" d="M 3272 3391 
L 3272 2541 
Q 2913 2691 2578 2766 
Q 2244 2841 1947 2841 
Q 1628 2841 1473 2761 
Q 1319 2681 1319 2516 
Q 1319 2381 1436 2309 
Q 1553 2238 1856 2203 
L 2053 2175 
Q 2913 2066 3209 1816 
Q 3506 1566 3506 1031 
Q 3506 472 3093 190 
Q 2681 -91 1863 -91 
Q 1516 -91 1145 -36 
Q 775 19 384 128 
L 384 978 
Q 719 816 1070 734 
Q 1422 653 1784 653 
Q 2113 653 2278 743 
Q 2444 834 2444 1013 
Q 2444 1163 2330 1236 
Q 2216 1309 1875 1350 
L 1678 1375 
Q 931 1469 631 1722 
Q 331 1975 331 2491 
Q 331 3047 712 3315 
Q 1094 3584 1881 3584 
Q 2191 3584 2531 3537 
Q 2872 3491 3272 3391 
z
" transform="scale(0.015625)"/>
      <path id="DejaVuSans-Bold-69" d="M 538 3500 
L 1656 3500 
L 1656 0 
L 538 0 
L 538 3500 
z
M 538 4863 
L 1656 4863 
L 1656 3950 
L 538 3950 
L 538 4863 
z
" transform="scale(0.015625)"/>
      <path id="DejaVuSans-Bold-79" d="M 78 3500 
L 1197 3500 
L 2138 1125 
L 2938 3500 
L 4056 3500 
L 2584 -331 
Q 2363 -916 2067 -1148 
Q 1772 -1381 1288 -1381 
L 641 -1381 
L 641 -647 
L 991 -647 
Q 1275 -647 1404 -556 
Q 1534 -466 1606 -231 
L 1638 -134 
L 78 3500 
z
" transform="scale(0.015625)"/>
      <path id="DejaVuSans-Bold-3a" d="M 716 3500 
L 1844 3500 
L 1844 2291 
L 716 2291 
L 716 3500 
z
M 716 1209 
L 1844 1209 
L 1844 0 
L 716 0 
L 716 1209 
z
" transform="scale(0.015625)"/>
      <path id="DejaVuSans-Bold-37" d="M 428 4666 
L 3944 4666 
L 3944 3988 
L 2125 0 
L 953 0 
L 2675 3781 
L 428 3781 
L 428 4666 
z
" transform="scale(0.015625)"/>
      <path id="DejaVuSans-Bold-62" d="M 2400 722 
Q 2759 722 2948 984 
Q 3138 1247 3138 1747 
Q 3138 2247 2948 2509 
Q 2759 2772 2400 2772 
Q 2041 2772 1848 2508 
Q 1656 2244 1656 1747 
Q 1656 1250 1848 986 
Q 2041 722 2400 722 
z
M 1656 2988 
Q 1888 3294 2169 3439 
Q 2450 3584 2816 3584 
Q 3463 3584 3878 3070 
Q 4294 2556 4294 1747 
Q 4294 938 3878 423 
Q 3463 -91 2816 -91 
Q 2450 -91 2169 54 
Q 1888 200 1656 506 
L 1656 0 
L 538 0 
L 538 4863 
L 1656 4863 
L 1656 2988 
z
" transform="scale(0.015625)"/>
      <path id="DejaVuSans-Bold-7a" d="M 366 3500 
L 3419 3500 
L 3419 2719 
L 1575 800 
L 3419 800 
L 3419 0 
L 288 0 
L 288 781 
L 2131 2700 
L 366 2700 
L 366 3500 
z
" transform="scale(0.015625)"/>
      <path id="DejaVuSans-Bold-65" d="M 4031 1759 
L 4031 1441 
L 1416 1441 
Q 1456 1047 1700 850 
Q 1944 653 2381 653 
Q 2734 653 3104 758 
Q 3475 863 3866 1075 
L 3866 213 
Q 3469 63 3072 -14 
Q 2675 -91 2278 -91 
Q 1328 -91 801 392 
Q 275 875 275 1747 
Q 275 2603 792 3093 
Q 1309 3584 2216 3584 
Q 3041 3584 3536 3087 
Q 4031 2591 4031 1759 
z
M 2881 2131 
Q 2881 2450 2695 2645 
Q 2509 2841 2209 2841 
Q 1884 2841 1681 2658 
Q 1478 2475 1428 2131 
L 2881 2131 
z
" transform="scale(0.015625)"/>
     </defs>
     <use xlink:href="#DejaVuSans-Bold-45"/>
     <use xlink:href="#DejaVuSans-Bold-72" x="68.310547"/>
     <use xlink:href="#DejaVuSans-Bold-72" x="117.626953"/>
     <use xlink:href="#DejaVuSans-Bold-6f" x="166.943359"/>
     <use xlink:href="#DejaVuSans-Bold-72" x="235.644531"/>
     <use xlink:href="#DejaVuSans-Bold-20" x="284.960938"/>
     <use xlink:href="#DejaVuSans-Bold-70" x="319.775391"/>
     <use xlink:href="#DejaVuSans-Bold-6c" x="391.357422"/>
     <use xlink:href="#DejaVuSans-Bold-6f" x="425.634766"/>
     <use xlink:href="#DejaVuSans-Bold-74" x="494.335938"/>
     <use xlink:href="#DejaVuSans-Bold-20" x="542.138672"/>
     <use xlink:href="#DejaVuSans-Bold-73" x="576.953125"/>
     <use xlink:href="#DejaVuSans-Bold-70" x="636.474609"/>
     <use xlink:href="#DejaVuSans-Bold-61" x="708.056641"/>
     <use xlink:href="#DejaVuSans-Bold-72" x="775.537109"/>
     <use xlink:href="#DejaVuSans-Bold-73" x="824.853516"/>
     <use xlink:href="#DejaVuSans-Bold-69" x="884.375"/>
     <use xlink:href="#DejaVuSans-Bold-74" x="918.652344"/>
     <use xlink:href="#DejaVuSans-Bold-79" x="966.455078"/>
     <use xlink:href="#DejaVuSans-Bold-3a" x="1031.640625"/>
     <use xlink:href="#DejaVuSans-Bold-37" x="1071.630859"/>
     <use xlink:href="#DejaVuSans-Bold-30" x="1141.210938"/>
     <use xlink:href="#DejaVuSans-Bold-20" x="1210.791016"/>
     <use xlink:href="#DejaVuSans-Bold-62" x="1245.605469"/>
     <use xlink:href="#DejaVuSans-Bold-61" x="1317.1875"/>
     <use xlink:href="#DejaVuSans-Bold-74" x="1384.667969"/>
     <use xlink:href="#DejaVuSans-Bold-63" x="1432.470703"/>
     <use xlink:href="#DejaVuSans-Bold-68" x="1491.748047"/>
     <use xlink:href="#DejaVuSans-Bold-73" x="1562.939453"/>
     <use xlink:href="#DejaVuSans-Bold-69" x="1622.460938"/>
     <use xlink:href="#DejaVuSans-Bold-7a" x="1656.738281"/>
     <use xlink:href="#DejaVuSans-Bold-65" x="1714.941406"/>
     <use xlink:href="#DejaVuSans-Bold-3a" x="1782.763672"/>
     <use xlink:href="#DejaVuSans-Bold-31" x="1822.753906"/>
     <use xlink:href="#DejaVuSans-Bold-30" x="1892.333984"/>
     <use xlink:href="#DejaVuSans-Bold-30" x="1961.914062"/>
     <use xlink:href="#DejaVuSans-Bold-30" x="2031.494141"/>
    </g>
   </g>
  </g>
 </g>
 <defs>
  <clipPath id="p0af0afe4cf">
   <rect x="57.6" y="41.472" width="357.12" height="266.112"/>
  </clipPath>
 </defs>
</svg>
