<?xml version="1.0" encoding="utf-8" standalone="no"?>
<!DOCTYPE svg PUBLIC "-//W3C//DTD SVG 1.1//EN"
  "http://www.w3.org/Graphics/SVG/1.1/DTD/svg11.dtd">
<svg xmlns:xlink="http://www.w3.org/1999/xlink" width="460.8pt" height="345.6pt" viewBox="0 0 460.8 345.6" xmlns="http://www.w3.org/2000/svg" version="1.1">
 <metadata>
  <rdf:RDF xmlns:dc="http://purl.org/dc/elements/1.1/" xmlns:cc="http://creativecommons.org/ns#" xmlns:rdf="http://www.w3.org/1999/02/22-rdf-syntax-ns#">
   <cc:Work>
    <dc:type rdf:resource="http://purl.org/dc/dcmitype/StillImage"/>
    <dc:date>2023-07-23T18:44:46.373382</dc:date>
    <dc:format>image/svg+xml</dc:format>
    <dc:creator>
     <cc:Agent>
      <dc:title>Matplotlib v3.5.3, https://matplotlib.org/</dc:title>
     </cc:Agent>
    </dc:creator>
   </cc:Work>
  </rdf:RDF>
 </metadata>
 <defs>
  <style type="text/css">*{stroke-linejoin: round; stroke-linecap: butt}</style>
 </defs>
 <g id="figure_1">
  <g id="patch_1">
   <path d="M 0 345.6 
L 460.8 345.6 
L 460.8 0 
L 0 0 
z
" style="fill: #ffffff"/>
  </g>
  <g id="axes_1">
   <g id="patch_2">
    <path d="M 57.6 307.584 
L 414.72 307.584 
L 414.72 41.472 
L 57.6 41.472 
z
" style="fill: #ffffff"/>
   </g>
   <g id="matplotlib.axis_1">
    <g id="xtick_1">
     <g id="line2d_1">
      <defs>
       <path id="m8e4aae7cc1" d="M 0 0 
L 0 3.5 
" style="stroke: #000000; stroke-width: 0.8"/>
      </defs>
      <g>
       <use xlink:href="#m8e4aae7cc1" x="73.832727" y="307.584" style="stroke: #000000; stroke-width: 0.8"/>
      </g>
     </g>
     <g id="text_1">
      <!-- 0.0 -->
      <g transform="translate(63.20429 323.702125)scale(0.12 -0.12)">
       <defs>
        <path id="DejaVuSans-Bold-30" d="M 2944 2338 
Q 2944 3213 2780 3570 
Q 2616 3928 2228 3928 
Q 1841 3928 1675 3570 
Q 1509 3213 1509 2338 
Q 1509 1453 1675 1090 
Q 1841 728 2228 728 
Q 2613 728 2778 1090 
Q 2944 1453 2944 2338 
z
M 4147 2328 
Q 4147 1169 3647 539 
Q 3147 -91 2228 -91 
Q 1306 -91 806 539 
Q 306 1169 306 2328 
Q 306 3491 806 4120 
Q 1306 4750 2228 4750 
Q 3147 4750 3647 4120 
Q 4147 3491 4147 2328 
z
" transform="scale(0.015625)"/>
        <path id="DejaVuSans-Bold-2e" d="M 653 1209 
L 1778 1209 
L 1778 0 
L 653 0 
L 653 1209 
z
" transform="scale(0.015625)"/>
       </defs>
       <use xlink:href="#DejaVuSans-Bold-30"/>
       <use xlink:href="#DejaVuSans-Bold-2e" x="69.580078"/>
       <use xlink:href="#DejaVuSans-Bold-30" x="107.568359"/>
      </g>
     </g>
    </g>
    <g id="xtick_2">
     <g id="line2d_2">
      <g>
       <use xlink:href="#m8e4aae7cc1" x="127.941818" y="307.584" style="stroke: #000000; stroke-width: 0.8"/>
      </g>
     </g>
     <g id="text_2">
      <!-- 5.0 -->
      <g transform="translate(117.313381 323.702125)scale(0.12 -0.12)">
       <defs>
        <path id="DejaVuSans-Bold-35" d="M 678 4666 
L 3669 4666 
L 3669 3781 
L 1638 3781 
L 1638 3059 
Q 1775 3097 1914 3117 
Q 2053 3138 2203 3138 
Q 3056 3138 3531 2711 
Q 4006 2284 4006 1522 
Q 4006 766 3489 337 
Q 2972 -91 2053 -91 
Q 1656 -91 1267 -14 
Q 878 63 494 219 
L 494 1166 
Q 875 947 1217 837 
Q 1559 728 1863 728 
Q 2300 728 2551 942 
Q 2803 1156 2803 1522 
Q 2803 1891 2551 2103 
Q 2300 2316 1863 2316 
Q 1603 2316 1309 2248 
Q 1016 2181 678 2041 
L 678 4666 
z
" transform="scale(0.015625)"/>
       </defs>
       <use xlink:href="#DejaVuSans-Bold-35"/>
       <use xlink:href="#DejaVuSans-Bold-2e" x="69.580078"/>
       <use xlink:href="#DejaVuSans-Bold-30" x="107.568359"/>
      </g>
     </g>
    </g>
    <g id="xtick_3">
     <g id="line2d_3">
      <g>
       <use xlink:href="#m8e4aae7cc1" x="182.050909" y="307.584" style="stroke: #000000; stroke-width: 0.8"/>
      </g>
     </g>
     <g id="text_3">
      <!-- 10.0 -->
      <g transform="translate(167.247784 323.702125)scale(0.12 -0.12)">
       <defs>
        <path id="DejaVuSans-Bold-31" d="M 750 831 
L 1813 831 
L 1813 3847 
L 722 3622 
L 722 4441 
L 1806 4666 
L 2950 4666 
L 2950 831 
L 4013 831 
L 4013 0 
L 750 0 
L 750 831 
z
" transform="scale(0.015625)"/>
       </defs>
       <use xlink:href="#DejaVuSans-Bold-31"/>
       <use xlink:href="#DejaVuSans-Bold-30" x="69.580078"/>
       <use xlink:href="#DejaVuSans-Bold-2e" x="139.160156"/>
       <use xlink:href="#DejaVuSans-Bold-30" x="177.148438"/>
      </g>
     </g>
    </g>
    <g id="xtick_4">
     <g id="line2d_4">
      <g>
       <use xlink:href="#m8e4aae7cc1" x="236.16" y="307.584" style="stroke: #000000; stroke-width: 0.8"/>
      </g>
     </g>
     <g id="text_4">
      <!-- 15.0 -->
      <g transform="translate(221.356875 323.702125)scale(0.12 -0.12)">
       <use xlink:href="#DejaVuSans-Bold-31"/>
       <use xlink:href="#DejaVuSans-Bold-35" x="69.580078"/>
       <use xlink:href="#DejaVuSans-Bold-2e" x="139.160156"/>
       <use xlink:href="#DejaVuSans-Bold-30" x="177.148438"/>
      </g>
     </g>
    </g>
    <g id="xtick_5">
     <g id="line2d_5">
      <g>
       <use xlink:href="#m8e4aae7cc1" x="290.269091" y="307.584" style="stroke: #000000; stroke-width: 0.8"/>
      </g>
     </g>
     <g id="text_5">
      <!-- 20.0 -->
      <g transform="translate(275.465966 323.702125)scale(0.12 -0.12)">
       <defs>
        <path id="DejaVuSans-Bold-32" d="M 1844 884 
L 3897 884 
L 3897 0 
L 506 0 
L 506 884 
L 2209 2388 
Q 2438 2594 2547 2791 
Q 2656 2988 2656 3200 
Q 2656 3528 2436 3728 
Q 2216 3928 1850 3928 
Q 1569 3928 1234 3808 
Q 900 3688 519 3450 
L 519 4475 
Q 925 4609 1322 4679 
Q 1719 4750 2100 4750 
Q 2938 4750 3402 4381 
Q 3866 4013 3866 3353 
Q 3866 2972 3669 2642 
Q 3472 2313 2841 1759 
L 1844 884 
z
" transform="scale(0.015625)"/>
       </defs>
       <use xlink:href="#DejaVuSans-Bold-32"/>
       <use xlink:href="#DejaVuSans-Bold-30" x="69.580078"/>
       <use xlink:href="#DejaVuSans-Bold-2e" x="139.160156"/>
       <use xlink:href="#DejaVuSans-Bold-30" x="177.148438"/>
      </g>
     </g>
    </g>
    <g id="xtick_6">
     <g id="line2d_6">
      <g>
       <use xlink:href="#m8e4aae7cc1" x="344.378182" y="307.584" style="stroke: #000000; stroke-width: 0.8"/>
      </g>
     </g>
     <g id="text_6">
      <!-- 25.0 -->
      <g transform="translate(329.575057 323.702125)scale(0.12 -0.12)">
       <use xlink:href="#DejaVuSans-Bold-32"/>
       <use xlink:href="#DejaVuSans-Bold-35" x="69.580078"/>
       <use xlink:href="#DejaVuSans-Bold-2e" x="139.160156"/>
       <use xlink:href="#DejaVuSans-Bold-30" x="177.148438"/>
      </g>
     </g>
    </g>
    <g id="xtick_7">
     <g id="line2d_7">
      <g>
       <use xlink:href="#m8e4aae7cc1" x="398.487273" y="307.584" style="stroke: #000000; stroke-width: 0.8"/>
      </g>
     </g>
     <g id="text_7">
      <!-- 30.0 -->
      <g transform="translate(383.684148 323.702125)scale(0.12 -0.12)">
       <defs>
        <path id="DejaVuSans-Bold-33" d="M 2981 2516 
Q 3453 2394 3698 2092 
Q 3944 1791 3944 1325 
Q 3944 631 3412 270 
Q 2881 -91 1863 -91 
Q 1503 -91 1142 -33 
Q 781 25 428 141 
L 428 1069 
Q 766 900 1098 814 
Q 1431 728 1753 728 
Q 2231 728 2486 893 
Q 2741 1059 2741 1369 
Q 2741 1688 2480 1852 
Q 2219 2016 1709 2016 
L 1228 2016 
L 1228 2791 
L 1734 2791 
Q 2188 2791 2409 2933 
Q 2631 3075 2631 3366 
Q 2631 3634 2415 3781 
Q 2200 3928 1806 3928 
Q 1516 3928 1219 3862 
Q 922 3797 628 3669 
L 628 4550 
Q 984 4650 1334 4700 
Q 1684 4750 2022 4750 
Q 2931 4750 3382 4451 
Q 3834 4153 3834 3553 
Q 3834 3144 3618 2883 
Q 3403 2622 2981 2516 
z
" transform="scale(0.015625)"/>
       </defs>
       <use xlink:href="#DejaVuSans-Bold-33"/>
       <use xlink:href="#DejaVuSans-Bold-30" x="69.580078"/>
       <use xlink:href="#DejaVuSans-Bold-2e" x="139.160156"/>
       <use xlink:href="#DejaVuSans-Bold-30" x="177.148438"/>
      </g>
     </g>
    </g>
    <g id="text_8">
     <!-- Epoch -->
     <g transform="translate(212.425625 340.835562)scale(0.14 -0.14)">
      <defs>
       <path id="DejaVuSans-Bold-45" d="M 588 4666 
L 3834 4666 
L 3834 3756 
L 1791 3756 
L 1791 2888 
L 3713 2888 
L 3713 1978 
L 1791 1978 
L 1791 909 
L 3903 909 
L 3903 0 
L 588 0 
L 588 4666 
z
" transform="scale(0.015625)"/>
       <path id="DejaVuSans-Bold-70" d="M 1656 506 
L 1656 -1331 
L 538 -1331 
L 538 3500 
L 1656 3500 
L 1656 2988 
Q 1888 3294 2169 3439 
Q 2450 3584 2816 3584 
Q 3463 3584 3878 3070 
Q 4294 2556 4294 1747 
Q 4294 938 3878 423 
Q 3463 -91 2816 -91 
Q 2450 -91 2169 54 
Q 1888 200 1656 506 
z
M 2400 2772 
Q 2041 2772 1848 2508 
Q 1656 2244 1656 1747 
Q 1656 1250 1848 986 
Q 2041 722 2400 722 
Q 2759 722 2948 984 
Q 3138 1247 3138 1747 
Q 3138 2247 2948 2509 
Q 2759 2772 2400 2772 
z
" transform="scale(0.015625)"/>
       <path id="DejaVuSans-Bold-6f" d="M 2203 2784 
Q 1831 2784 1636 2517 
Q 1441 2250 1441 1747 
Q 1441 1244 1636 976 
Q 1831 709 2203 709 
Q 2569 709 2762 976 
Q 2956 1244 2956 1747 
Q 2956 2250 2762 2517 
Q 2569 2784 2203 2784 
z
M 2203 3584 
Q 3106 3584 3614 3096 
Q 4122 2609 4122 1747 
Q 4122 884 3614 396 
Q 3106 -91 2203 -91 
Q 1297 -91 786 396 
Q 275 884 275 1747 
Q 275 2609 786 3096 
Q 1297 3584 2203 3584 
z
" transform="scale(0.015625)"/>
       <path id="DejaVuSans-Bold-63" d="M 3366 3391 
L 3366 2478 
Q 3138 2634 2908 2709 
Q 2678 2784 2431 2784 
Q 1963 2784 1702 2511 
Q 1441 2238 1441 1747 
Q 1441 1256 1702 982 
Q 1963 709 2431 709 
Q 2694 709 2930 787 
Q 3166 866 3366 1019 
L 3366 103 
Q 3103 6 2833 -42 
Q 2563 -91 2291 -91 
Q 1344 -91 809 395 
Q 275 881 275 1747 
Q 275 2613 809 3098 
Q 1344 3584 2291 3584 
Q 2566 3584 2833 3536 
Q 3100 3488 3366 3391 
z
" transform="scale(0.015625)"/>
       <path id="DejaVuSans-Bold-68" d="M 4056 2131 
L 4056 0 
L 2931 0 
L 2931 347 
L 2931 1625 
Q 2931 2084 2911 2256 
Q 2891 2428 2841 2509 
Q 2775 2619 2662 2680 
Q 2550 2741 2406 2741 
Q 2056 2741 1856 2470 
Q 1656 2200 1656 1722 
L 1656 0 
L 538 0 
L 538 4863 
L 1656 4863 
L 1656 2988 
Q 1909 3294 2193 3439 
Q 2478 3584 2822 3584 
Q 3428 3584 3742 3212 
Q 4056 2841 4056 2131 
z
" transform="scale(0.015625)"/>
      </defs>
      <use xlink:href="#DejaVuSans-Bold-45"/>
      <use xlink:href="#DejaVuSans-Bold-70" x="68.310547"/>
      <use xlink:href="#DejaVuSans-Bold-6f" x="139.892578"/>
      <use xlink:href="#DejaVuSans-Bold-63" x="208.59375"/>
      <use xlink:href="#DejaVuSans-Bold-68" x="267.871094"/>
     </g>
    </g>
   </g>
   <g id="matplotlib.axis_2">
    <g id="ytick_1">
     <g id="line2d_8">
      <defs>
       <path id="m442b5f938d" d="M 0 0 
L -3.5 0 
" style="stroke: #000000; stroke-width: 0.8"/>
      </defs>
      <g>
       <use xlink:href="#m442b5f938d" x="57.6" y="305.78785" style="stroke: #000000; stroke-width: 0.8"/>
      </g>
     </g>
     <g id="text_9">
      <!-- 0.0025 -->
      <g transform="translate(4.295 310.346913)scale(0.12 -0.12)">
       <use xlink:href="#DejaVuSans-Bold-30"/>
       <use xlink:href="#DejaVuSans-Bold-2e" x="69.580078"/>
       <use xlink:href="#DejaVuSans-Bold-30" x="107.568359"/>
       <use xlink:href="#DejaVuSans-Bold-30" x="177.148438"/>
       <use xlink:href="#DejaVuSans-Bold-32" x="246.728516"/>
       <use xlink:href="#DejaVuSans-Bold-35" x="316.308594"/>
      </g>
     </g>
    </g>
    <g id="ytick_2">
     <g id="line2d_9">
      <g>
       <use xlink:href="#m442b5f938d" x="57.6" y="263.240938" style="stroke: #000000; stroke-width: 0.8"/>
      </g>
     </g>
     <g id="text_10">
      <!-- 0.003 -->
      <g transform="translate(12.644375 267.8)scale(0.12 -0.12)">
       <use xlink:href="#DejaVuSans-Bold-30"/>
       <use xlink:href="#DejaVuSans-Bold-2e" x="69.580078"/>
       <use xlink:href="#DejaVuSans-Bold-30" x="107.568359"/>
       <use xlink:href="#DejaVuSans-Bold-30" x="177.148438"/>
       <use xlink:href="#DejaVuSans-Bold-33" x="246.728516"/>
      </g>
     </g>
    </g>
    <g id="ytick_3">
     <g id="line2d_10">
      <g>
       <use xlink:href="#m442b5f938d" x="57.6" y="220.694025" style="stroke: #000000; stroke-width: 0.8"/>
      </g>
     </g>
     <g id="text_11">
      <!-- 0.0035 -->
      <g transform="translate(4.295 225.253087)scale(0.12 -0.12)">
       <use xlink:href="#DejaVuSans-Bold-30"/>
       <use xlink:href="#DejaVuSans-Bold-2e" x="69.580078"/>
       <use xlink:href="#DejaVuSans-Bold-30" x="107.568359"/>
       <use xlink:href="#DejaVuSans-Bold-30" x="177.148438"/>
       <use xlink:href="#DejaVuSans-Bold-33" x="246.728516"/>
       <use xlink:href="#DejaVuSans-Bold-35" x="316.308594"/>
      </g>
     </g>
    </g>
    <g id="ytick_4">
     <g id="line2d_11">
      <g>
       <use xlink:href="#m442b5f938d" x="57.6" y="178.147112" style="stroke: #000000; stroke-width: 0.8"/>
      </g>
     </g>
     <g id="text_12">
      <!-- 0.004 -->
      <g transform="translate(12.644375 182.706174)scale(0.12 -0.12)">
       <defs>
        <path id="DejaVuSans-Bold-34" d="M 2356 3675 
L 1038 1722 
L 2356 1722 
L 2356 3675 
z
M 2156 4666 
L 3494 4666 
L 3494 1722 
L 4159 1722 
L 4159 850 
L 3494 850 
L 3494 0 
L 2356 0 
L 2356 850 
L 288 850 
L 288 1881 
L 2156 4666 
z
" transform="scale(0.015625)"/>
       </defs>
       <use xlink:href="#DejaVuSans-Bold-30"/>
       <use xlink:href="#DejaVuSans-Bold-2e" x="69.580078"/>
       <use xlink:href="#DejaVuSans-Bold-30" x="107.568359"/>
       <use xlink:href="#DejaVuSans-Bold-30" x="177.148438"/>
       <use xlink:href="#DejaVuSans-Bold-34" x="246.728516"/>
      </g>
     </g>
    </g>
    <g id="ytick_5">
     <g id="line2d_12">
      <g>
       <use xlink:href="#m442b5f938d" x="57.6" y="135.600199" style="stroke: #000000; stroke-width: 0.8"/>
      </g>
     </g>
     <g id="text_13">
      <!-- 0.0045 -->
      <g transform="translate(4.295 140.159262)scale(0.12 -0.12)">
       <use xlink:href="#DejaVuSans-Bold-30"/>
       <use xlink:href="#DejaVuSans-Bold-2e" x="69.580078"/>
       <use xlink:href="#DejaVuSans-Bold-30" x="107.568359"/>
       <use xlink:href="#DejaVuSans-Bold-30" x="177.148438"/>
       <use xlink:href="#DejaVuSans-Bold-34" x="246.728516"/>
       <use xlink:href="#DejaVuSans-Bold-35" x="316.308594"/>
      </g>
     </g>
    </g>
    <g id="ytick_6">
     <g id="line2d_13">
      <g>
       <use xlink:href="#m442b5f938d" x="57.6" y="93.053286" style="stroke: #000000; stroke-width: 0.8"/>
      </g>
     </g>
     <g id="text_14">
      <!-- 0.005 -->
      <g transform="translate(12.644375 97.612349)scale(0.12 -0.12)">
       <use xlink:href="#DejaVuSans-Bold-30"/>
       <use xlink:href="#DejaVuSans-Bold-2e" x="69.580078"/>
       <use xlink:href="#DejaVuSans-Bold-30" x="107.568359"/>
       <use xlink:href="#DejaVuSans-Bold-30" x="177.148438"/>
       <use xlink:href="#DejaVuSans-Bold-35" x="246.728516"/>
      </g>
     </g>
    </g>
    <g id="ytick_7">
     <g id="line2d_14">
      <g>
       <use xlink:href="#m442b5f938d" x="57.6" y="50.506374" style="stroke: #000000; stroke-width: 0.8"/>
      </g>
     </g>
     <g id="text_15">
      <!-- 0.0055 -->
      <g transform="translate(4.295 55.065436)scale(0.12 -0.12)">
       <use xlink:href="#DejaVuSans-Bold-30"/>
       <use xlink:href="#DejaVuSans-Bold-2e" x="69.580078"/>
       <use xlink:href="#DejaVuSans-Bold-30" x="107.568359"/>
       <use xlink:href="#DejaVuSans-Bold-30" x="177.148438"/>
       <use xlink:href="#DejaVuSans-Bold-35" x="246.728516"/>
       <use xlink:href="#DejaVuSans-Bold-35" x="316.308594"/>
      </g>
     </g>
    </g>
    <g id="text_16">
     <!-- Error (a.u.) -->
     <g transform="translate(-2.616563 218.334875)rotate(-90)scale(0.14 -0.14)">
      <defs>
       <path id="DejaVuSans-Bold-72" d="M 3138 2547 
Q 2991 2616 2845 2648 
Q 2700 2681 2553 2681 
Q 2122 2681 1889 2404 
Q 1656 2128 1656 1613 
L 1656 0 
L 538 0 
L 538 3500 
L 1656 3500 
L 1656 2925 
Q 1872 3269 2151 3426 
Q 2431 3584 2822 3584 
Q 2878 3584 2943 3579 
Q 3009 3575 3134 3559 
L 3138 2547 
z
" transform="scale(0.015625)"/>
       <path id="DejaVuSans-Bold-20" transform="scale(0.015625)"/>
       <path id="DejaVuSans-Bold-28" d="M 2413 -844 
L 1484 -844 
Q 1006 -72 778 623 
Q 550 1319 550 2003 
Q 550 2688 779 3389 
Q 1009 4091 1484 4856 
L 2413 4856 
Q 2013 4116 1813 3408 
Q 1613 2700 1613 2009 
Q 1613 1319 1811 609 
Q 2009 -100 2413 -844 
z
" transform="scale(0.015625)"/>
       <path id="DejaVuSans-Bold-61" d="M 2106 1575 
Q 1756 1575 1579 1456 
Q 1403 1338 1403 1106 
Q 1403 894 1545 773 
Q 1688 653 1941 653 
Q 2256 653 2472 879 
Q 2688 1106 2688 1447 
L 2688 1575 
L 2106 1575 
z
M 3816 1997 
L 3816 0 
L 2688 0 
L 2688 519 
Q 2463 200 2181 54 
Q 1900 -91 1497 -91 
Q 953 -91 614 226 
Q 275 544 275 1050 
Q 275 1666 698 1953 
Q 1122 2241 2028 2241 
L 2688 2241 
L 2688 2328 
Q 2688 2594 2478 2717 
Q 2269 2841 1825 2841 
Q 1466 2841 1156 2769 
Q 847 2697 581 2553 
L 581 3406 
Q 941 3494 1303 3539 
Q 1666 3584 2028 3584 
Q 2975 3584 3395 3211 
Q 3816 2838 3816 1997 
z
" transform="scale(0.015625)"/>
       <path id="DejaVuSans-Bold-75" d="M 500 1363 
L 500 3500 
L 1625 3500 
L 1625 3150 
Q 1625 2866 1622 2436 
Q 1619 2006 1619 1863 
Q 1619 1441 1641 1255 
Q 1663 1069 1716 984 
Q 1784 875 1895 815 
Q 2006 756 2150 756 
Q 2500 756 2700 1025 
Q 2900 1294 2900 1772 
L 2900 3500 
L 4019 3500 
L 4019 0 
L 2900 0 
L 2900 506 
Q 2647 200 2364 54 
Q 2081 -91 1741 -91 
Q 1134 -91 817 281 
Q 500 653 500 1363 
z
" transform="scale(0.015625)"/>
       <path id="DejaVuSans-Bold-29" d="M 513 -844 
Q 913 -100 1113 609 
Q 1313 1319 1313 2009 
Q 1313 2700 1113 3408 
Q 913 4116 513 4856 
L 1441 4856 
Q 1916 4091 2145 3389 
Q 2375 2688 2375 2003 
Q 2375 1319 2147 623 
Q 1919 -72 1441 -844 
L 513 -844 
z
" transform="scale(0.015625)"/>
      </defs>
      <use xlink:href="#DejaVuSans-Bold-45"/>
      <use xlink:href="#DejaVuSans-Bold-72" x="68.310547"/>
      <use xlink:href="#DejaVuSans-Bold-72" x="117.626953"/>
      <use xlink:href="#DejaVuSans-Bold-6f" x="166.943359"/>
      <use xlink:href="#DejaVuSans-Bold-72" x="235.644531"/>
      <use xlink:href="#DejaVuSans-Bold-20" x="284.960938"/>
      <use xlink:href="#DejaVuSans-Bold-28" x="319.775391"/>
      <use xlink:href="#DejaVuSans-Bold-61" x="365.478516"/>
      <use xlink:href="#DejaVuSans-Bold-2e" x="432.958984"/>
      <use xlink:href="#DejaVuSans-Bold-75" x="470.947266"/>
      <use xlink:href="#DejaVuSans-Bold-2e" x="542.138672"/>
      <use xlink:href="#DejaVuSans-Bold-29" x="580.126953"/>
     </g>
    </g>
   </g>
   <g id="line2d_15">
    <path d="M 73.832727 53.568 
L 74.374722 78.332124 
L 74.916716 81.336367 
L 75.45871 106.736615 
L 76.000704 109.947669 
L 76.542698 119.237654 
L 77.084693 126.495907 
L 77.626687 137.218296 
L 78.168681 141.77002 
L 78.710675 154.940148 
L 79.25267 154.997311 
L 80.878652 171.176109 
L 81.420647 172.384768 
L 82.504635 181.617774 
L 83.046629 183.518845 
L 84.130618 191.512986 
L 84.672612 199.763475 
L 85.214606 199.509288 
L 85.7566 195.78544 
L 86.298595 208.439005 
L 86.840589 205.686777 
L 87.924577 207.629622 
L 88.466572 210.624816 
L 89.008566 210.704282 
L 89.55056 218.792486 
L 90.092554 216.427887 
L 90.634548 217.734754 
L 91.718537 221.827716 
L 92.260531 220.510557 
L 92.802525 222.146805 
L 93.34452 224.949392 
L 93.886514 223.880503 
L 94.428508 226.14065 
L 94.970502 227.304116 
L 95.512497 232.781785 
L 96.054491 232.214341 
L 96.596485 226.947499 
L 97.138479 237.29023 
L 97.680474 233.665495 
L 98.764462 232.954929 
L 99.306456 234.96108 
L 99.84845 234.671214 
L 100.390445 241.068145 
L 100.932439 238.728018 
L 101.474433 238.768396 
L 102.016427 239.571109 
L 102.558422 240.901579 
L 103.100416 238.128895 
L 104.184404 241.747032 
L 104.726399 240.316375 
L 105.268393 242.876276 
L 105.810387 242.790666 
L 106.352381 247.508903 
L 106.894375 247.204148 
L 107.43637 241.207732 
L 107.978364 250.854024 
L 108.520358 246.391764 
L 109.062352 245.94487 
L 109.604347 245.145417 
L 110.146341 247.210979 
L 110.688335 247.182911 
L 111.230329 252.153643 
L 111.772324 250.015137 
L 112.314318 249.306011 
L 112.856312 249.920219 
L 113.398306 251.3442 
L 113.940301 247.631015 
L 114.482295 249.821675 
L 115.024289 251.273822 
L 115.566283 249.490674 
L 116.108277 251.854378 
L 116.650272 251.380136 
L 117.192266 255.154284 
L 117.73426 255.618547 
L 118.276254 249.128407 
L 118.818249 258.60086 
L 119.360243 254.257133 
L 119.902237 253.278656 
L 120.444231 252.7966 
L 120.986226 254.754302 
L 121.52822 254.974906 
L 122.070214 259.558806 
L 122.612208 257.004215 
L 123.154202 256.418759 
L 124.238191 258.464104 
L 124.780185 254.554743 
L 125.864174 258.40014 
L 126.406168 257.474249 
L 126.948162 258.753561 
L 127.490156 257.841054 
L 128.032151 261.953674 
L 128.574145 262.685349 
L 129.116139 256.702691 
L 129.658133 265.184609 
L 130.200127 261.168792 
L 130.742122 260.336722 
L 131.284116 259.849168 
L 131.82611 261.303615 
L 132.368104 261.434908 
L 132.910099 266.346001 
L 133.452093 263.013117 
L 133.994087 263.210825 
L 135.078076 264.936606 
L 135.62007 261.086877 
L 136.162064 263.159675 
L 136.704058 264.632022 
L 137.246053 263.929828 
L 137.788047 265.45388 
L 138.330041 264.57383 
L 138.872035 268.210899 
L 139.414029 269.190453 
L 139.956024 263.181299 
L 140.498018 271.317711 
L 141.040012 267.506445 
L 141.582006 266.309973 
L 142.124001 266.35432 
L 142.665995 267.733922 
L 143.207989 267.529422 
L 143.749983 272.978591 
L 144.291978 269.084789 
L 144.833972 269.953996 
L 145.375966 270.303063 
L 145.91796 271.440988 
L 146.459954 267.114083 
L 147.001949 268.492443 
L 147.543943 270.282588 
L 148.085937 269.745851 
L 148.627931 271.116148 
L 149.169926 270.342604 
L 149.71192 273.83775 
L 150.253914 273.935364 
L 150.795908 268.394009 
L 151.337903 276.375907 
L 151.879897 272.400737 
L 152.421891 271.250336 
L 152.963885 271.301051 
L 153.505879 272.786016 
L 154.047874 272.258885 
L 154.589868 276.99984 
L 155.131862 273.359961 
L 155.673856 274.44067 
L 156.215851 274.685901 
L 156.757845 276.103944 
L 157.299839 270.94383 
L 158.383828 273.775418 
L 158.925822 273.312233 
L 159.467816 274.753423 
L 160.00981 274.198639 
L 160.551805 277.539787 
L 161.093799 277.442367 
L 161.635793 271.941884 
L 162.177787 279.911123 
L 162.719781 276.181369 
L 163.261776 274.703214 
L 163.80377 274.635501 
L 164.345764 275.847372 
L 164.887758 275.532935 
L 165.429753 279.889326 
L 165.971747 276.291022 
L 166.513741 277.261019 
L 167.055735 277.818754 
L 167.59773 279.031733 
L 168.139724 273.67191 
L 168.681718 275.257211 
L 169.223712 276.486349 
L 169.765706 276.165786 
L 170.307701 277.360019 
L 170.849695 276.860525 
L 171.391689 279.909406 
L 171.933683 279.810703 
L 172.475678 274.095266 
L 173.017672 282.134431 
L 173.559666 278.534381 
L 174.10166 276.682105 
L 174.643655 276.586154 
L 175.185649 277.735613 
L 175.727643 277.470292 
L 176.269637 281.907726 
L 176.811632 277.956439 
L 177.353626 279.103361 
L 177.89562 279.47914 
L 178.437614 280.740968 
L 178.979608 275.584953 
L 180.063597 278.496463 
L 180.605591 278.023145 
L 181.147585 279.009506 
L 181.68958 278.351163 
L 182.231574 281.546572 
L 182.773568 281.390928 
L 183.315562 275.776846 
L 183.857557 283.572782 
L 184.399551 280.051293 
L 184.941545 278.255397 
L 185.483539 278.080432 
L 186.025533 279.265757 
L 186.567528 279.051959 
L 187.109522 283.344742 
L 187.651516 279.547791 
L 188.19351 280.8893 
L 188.735505 281.016932 
L 189.277499 282.469293 
L 189.819493 276.972944 
L 190.903482 280.245351 
L 191.445476 279.688448 
L 191.98747 280.410367 
L 192.529464 279.80865 
L 193.071458 283.000412 
L 193.613453 282.979607 
L 194.155447 277.336258 
L 194.697441 285.431803 
L 195.239435 281.530725 
L 195.78143 279.59675 
L 196.323424 279.576399 
L 196.865418 280.476841 
L 197.407412 280.31025 
L 197.949407 284.768354 
L 198.491401 280.73071 
L 199.033395 282.357185 
L 199.575389 282.476913 
L 200.117384 283.975699 
L 200.659378 278.388962 
L 201.743366 281.764762 
L 202.28536 281.229934 
L 202.827355 281.798905 
L 203.369349 281.314 
L 203.911343 284.483754 
L 204.453337 284.4914 
L 204.995332 279.2074 
L 205.537326 286.81088 
L 206.07932 282.91542 
L 206.621314 281.337251 
L 207.163309 281.143444 
L 207.705303 281.926451 
L 208.247297 281.738144 
L 208.789291 286.265015 
L 209.331285 282.254203 
L 209.87328 283.885934 
L 210.415274 283.813333 
L 210.957268 285.450535 
L 211.499262 280.011445 
L 212.583251 283.183553 
L 213.125245 282.617043 
L 213.667239 282.928125 
L 214.209234 282.728115 
L 214.751228 285.661513 
L 215.293222 285.818062 
L 215.835216 280.520171 
L 216.377211 288.09849 
L 216.919205 284.225336 
L 217.461199 282.632729 
L 218.003193 282.470776 
L 218.545187 283.122523 
L 219.087182 282.722853 
L 219.629176 287.347443 
L 220.17117 283.473177 
L 220.713164 285.002959 
L 221.255159 284.657059 
L 221.797153 286.496448 
L 222.339147 281.179563 
L 223.423136 284.170998 
L 223.96513 283.738157 
L 224.507124 283.951991 
L 225.049118 283.764604 
L 225.591112 286.814085 
L 226.133107 286.724062 
L 226.675101 281.643759 
L 227.217095 289.089895 
L 227.759089 285.18147 
L 228.301084 283.766282 
L 228.843078 283.409659 
L 229.385072 284.015873 
L 229.927066 283.342065 
L 230.469061 288.275121 
L 231.011055 284.122732 
L 231.553049 285.859023 
L 232.095043 285.455067 
L 232.637037 287.447202 
L 233.179032 282.203526 
L 233.721026 283.355052 
L 234.26302 285.016342 
L 234.805014 284.332052 
L 235.347009 284.743424 
L 235.889003 284.826688 
L 236.430997 287.682241 
L 236.972991 287.25559 
L 237.514986 282.457752 
L 238.05698 290.074797 
L 238.598974 285.871038 
L 239.140968 284.367667 
L 239.682963 284.199199 
L 240.224957 284.921115 
L 240.766951 284.222322 
L 241.308945 289.1572 
L 241.850939 284.930877 
L 242.392934 286.61068 
L 242.934928 286.098308 
L 243.476922 288.226534 
L 244.018916 283.109426 
L 245.102905 285.942415 
L 245.644899 285.125047 
L 246.186893 285.494656 
L 246.728888 285.468246 
L 247.270882 288.216283 
L 247.812876 288.136198 
L 248.35487 283.146715 
L 248.896864 290.845205 
L 249.438859 286.516288 
L 249.980853 285.110569 
L 250.522847 284.937887 
L 251.064841 285.763275 
L 251.606836 285.009998 
L 252.14883 289.939612 
L 252.690824 285.660203 
L 253.232818 287.393283 
L 253.774813 286.842711 
L 254.316807 288.955084 
L 254.858801 283.793455 
L 255.400795 285.483212 
L 255.942789 286.409596 
L 256.484784 285.976597 
L 257.026778 286.300095 
L 257.568772 286.276569 
L 258.110766 288.927169 
L 258.652761 288.946009 
L 259.194755 283.848985 
L 259.736749 291.356063 
L 260.278743 287.279665 
L 260.820738 285.883344 
L 261.362732 285.507582 
L 261.904726 286.537006 
L 262.44672 285.9667 
L 262.988715 290.66589 
L 263.530709 286.527075 
L 264.072703 288.140412 
L 264.614697 287.338184 
L 265.156691 289.576845 
L 265.698686 284.300237 
L 266.24068 286.095687 
L 266.782674 287.045868 
L 267.324668 286.296302 
L 267.866663 286.901896 
L 268.408657 286.632192 
L 268.950651 289.456981 
L 269.492645 289.345248 
L 270.03464 284.398406 
L 270.576634 291.802139 
L 271.118628 287.992557 
L 271.660622 286.49573 
L 272.202616 286.10761 
L 272.744611 286.952328 
L 273.286605 286.594974 
L 273.828599 290.973764 
L 274.370593 287.109036 
L 274.912588 288.682302 
L 275.454582 287.736405 
L 275.996576 290.272908 
L 276.53857 284.793165 
L 277.080565 286.595136 
L 277.622559 287.500899 
L 278.164553 286.756108 
L 278.706547 287.241485 
L 279.248542 287.28874 
L 279.790536 289.997392 
L 280.33253 290.056378 
L 280.874524 284.847689 
L 281.416518 292.140051 
L 281.958513 288.464804 
L 282.500507 286.831664 
L 283.042501 286.616345 
L 283.584495 287.151091 
L 284.12649 286.912882 
L 284.668484 291.43427 
L 285.210478 287.618491 
L 285.752472 289.150264 
L 286.294467 288.249914 
L 286.836461 290.541761 
L 287.378455 285.06376 
L 287.920449 287.070994 
L 288.462443 287.731188 
L 289.004438 287.053698 
L 290.088426 287.786045 
L 290.63042 290.403331 
L 291.172415 290.520726 
L 291.714409 285.429625 
L 292.256403 292.735328 
L 292.798397 288.845276 
L 293.340392 287.383847 
L 293.882386 287.053869 
L 294.42438 287.488131 
L 294.966374 287.465443 
L 295.508368 291.828778 
L 296.050363 288.248726 
L 296.592357 289.652593 
L 297.134351 288.706987 
L 297.676345 290.933693 
L 298.21834 285.360596 
L 298.760334 287.547863 
L 299.302328 288.302747 
L 299.844322 287.514893 
L 300.386317 287.791216 
L 300.928311 288.302736 
L 301.470305 290.807403 
L 302.012299 291.019699 
L 302.554294 286.034627 
L 303.096288 293.119971 
L 303.638282 289.27247 
L 304.180276 287.936371 
L 304.72227 287.592608 
L 305.806259 288.004641 
L 306.348253 292.254412 
L 306.890247 288.546295 
L 307.432242 290.078167 
L 307.974236 289.039021 
L 308.51623 291.28018 
L 309.058224 285.772588 
L 309.600219 288.003574 
L 310.142213 288.745702 
L 310.684207 287.986958 
L 311.226201 288.270782 
L 311.768195 288.785873 
L 312.31019 291.239345 
L 312.852184 291.50435 
L 313.394178 286.378683 
L 313.936172 293.551112 
L 314.478167 289.715947 
L 315.020161 288.380202 
L 315.562155 288.037146 
L 316.646144 288.393225 
L 317.188138 292.730015 
L 317.730132 288.961289 
L 318.272126 290.375937 
L 318.814121 289.40199 
L 319.356115 291.772667 
L 319.898109 286.177324 
L 320.440103 288.476428 
L 320.982097 289.084149 
L 321.524092 288.412126 
L 322.066086 288.623572 
L 322.60808 289.056204 
L 323.150074 291.575961 
L 323.692069 292.005111 
L 324.234063 286.961579 
L 324.776057 294.030451 
L 325.318051 290.226971 
L 325.860046 288.858964 
L 326.40204 288.605928 
L 326.944034 288.823882 
L 327.486028 288.868306 
L 328.028022 293.083173 
L 328.570017 289.227712 
L 329.112011 290.769161 
L 329.654005 289.865304 
L 330.195999 292.075386 
L 330.737994 286.447192 
L 331.279988 288.932374 
L 331.821982 289.451784 
L 332.363976 288.776271 
L 332.905971 288.94681 
L 333.447965 289.421619 
L 333.989959 291.966663 
L 334.531953 292.452407 
L 335.073947 287.325873 
L 335.615942 294.275651 
L 336.157936 290.81702 
L 336.69993 289.330651 
L 337.241924 288.905753 
L 337.783919 288.96812 
L 338.325913 289.359769 
L 338.867907 293.574241 
L 339.409901 289.595291 
L 339.951896 291.266962 
L 340.49389 290.209058 
L 341.035884 292.360745 
L 341.577878 286.64722 
L 342.119873 289.306897 
L 342.661867 289.759037 
L 343.203861 289.176992 
L 343.745855 289.394046 
L 344.287849 289.798124 
L 344.829844 292.233612 
L 345.371838 292.731801 
L 345.913832 287.743812 
L 346.455826 294.645399 
L 346.997821 291.20596 
L 347.539815 289.63463 
L 348.081809 289.261999 
L 349.165798 289.650586 
L 349.707792 293.762352 
L 350.249786 289.9234 
L 350.79178 291.590368 
L 351.333774 290.473537 
L 351.875769 292.654725 
L 352.417763 286.967109 
L 352.959757 289.516561 
L 353.501751 290.045527 
L 354.043746 289.412033 
L 355.127734 290.100958 
L 355.669728 292.549181 
L 356.211723 293.024736 
L 356.753717 287.881124 
L 357.295711 294.750539 
L 357.837705 291.483119 
L 358.379699 289.891518 
L 358.921694 289.699751 
L 360.005682 290.090951 
L 360.547676 294.231723 
L 361.089671 290.282988 
L 361.631665 291.844792 
L 362.173659 290.789652 
L 362.715653 292.995522 
L 363.257648 287.211983 
L 363.799642 289.922477 
L 364.341636 290.26573 
L 364.88363 289.588868 
L 365.425625 290.064543 
L 365.967619 290.194971 
L 366.509613 292.592605 
L 367.051607 293.099458 
L 367.593601 288.232267 
L 368.135596 295.059938 
L 368.67759 291.875036 
L 369.219584 290.02761 
L 370.303573 290.07557 
L 370.845567 290.347285 
L 371.387561 294.365545 
L 371.929555 290.541125 
L 372.47155 291.982174 
L 373.013544 291.003695 
L 373.555538 293.227615 
L 374.097532 287.480398 
L 374.639526 290.014221 
L 375.181521 290.457314 
L 375.723515 289.797713 
L 376.265509 290.233938 
L 376.807503 290.455213 
L 377.349498 292.994144 
L 377.891492 293.412891 
L 378.433486 288.404388 
L 378.97548 295.284993 
L 379.517475 292.19108 
L 380.059469 290.331904 
L 380.601463 290.199179 
L 381.143457 290.187172 
L 381.685452 290.547385 
L 382.227446 294.52019 
L 382.76944 290.813373 
L 383.311434 292.320095 
L 383.853428 291.40215 
L 384.395423 293.50563 
L 384.937417 287.722614 
L 385.479411 290.296768 
L 386.021405 291.039374 
L 386.5634 290.195352 
L 387.647388 290.785595 
L 388.189382 293.195168 
L 388.731377 293.601893 
L 389.273371 288.573364 
L 389.815365 295.488 
L 390.357359 292.343796 
L 390.899353 290.476682 
L 391.441348 290.494889 
L 391.983342 290.647192 
L 392.525336 291.05178 
L 393.06733 294.838547 
L 393.609325 291.085 
L 394.151319 292.464993 
L 394.693313 291.533892 
L 395.235307 293.831688 
L 395.777302 288.055793 
L 396.319296 290.419404 
L 396.86129 291.170126 
L 397.403284 290.280975 
L 397.945278 290.652744 
L 398.487273 290.886784 
L 398.487273 290.886784 
" clip-path="url(#p3269deaa17)" style="fill: none; stroke: #1f77b4; stroke-width: 3; stroke-linecap: square"/>
   </g>
   <g id="patch_3">
    <path d="M 57.6 307.584 
L 57.6 41.472 
" style="fill: none; stroke: #000000; stroke-width: 3; stroke-linejoin: miter; stroke-linecap: square"/>
   </g>
   <g id="patch_4">
    <path d="M 414.72 307.584 
L 414.72 41.472 
" style="fill: none; stroke: #000000; stroke-width: 3; stroke-linejoin: miter; stroke-linecap: square"/>
   </g>
   <g id="patch_5">
    <path d="M 57.6 307.584 
L 414.72 307.584 
" style="fill: none; stroke: #000000; stroke-width: 3; stroke-linejoin: miter; stroke-linecap: square"/>
   </g>
   <g id="patch_6">
    <path d="M 57.6 41.472 
L 414.72 41.472 
" style="fill: none; stroke: #000000; stroke-width: 3; stroke-linejoin: miter; stroke-linecap: square"/>
   </g>
   <g id="text_17">
    <!-- Error plot sparsity:70 batchsize:3000 -->
    <g transform="translate(68.07875 35.472)scale(0.16 -0.16)">
     <defs>
      <path id="DejaVuSans-Bold-6c" d="M 538 4863 
L 1656 4863 
L 1656 0 
L 538 0 
L 538 4863 
z
" transform="scale(0.015625)"/>
      <path id="DejaVuSans-Bold-74" d="M 1759 4494 
L 1759 3500 
L 2913 3500 
L 2913 2700 
L 1759 2700 
L 1759 1216 
Q 1759 972 1856 886 
Q 1953 800 2241 800 
L 2816 800 
L 2816 0 
L 1856 0 
Q 1194 0 917 276 
Q 641 553 641 1216 
L 641 2700 
L 84 2700 
L 84 3500 
L 641 3500 
L 641 4494 
L 1759 4494 
z
" transform="scale(0.015625)"/>
      <path id="DejaVuSans-Bold-73" d="M 3272 3391 
L 3272 2541 
Q 2913 2691 2578 2766 
Q 2244 2841 1947 2841 
Q 1628 2841 1473 2761 
Q 1319 2681 1319 2516 
Q 1319 2381 1436 2309 
Q 1553 2238 1856 2203 
L 2053 2175 
Q 2913 2066 3209 1816 
Q 3506 1566 3506 1031 
Q 3506 472 3093 190 
Q 2681 -91 1863 -91 
Q 1516 -91 1145 -36 
Q 775 19 384 128 
L 384 978 
Q 719 816 1070 734 
Q 1422 653 1784 653 
Q 2113 653 2278 743 
Q 2444 834 2444 1013 
Q 2444 1163 2330 1236 
Q 2216 1309 1875 1350 
L 1678 1375 
Q 931 1469 631 1722 
Q 331 1975 331 2491 
Q 331 3047 712 3315 
Q 1094 3584 1881 3584 
Q 2191 3584 2531 3537 
Q 2872 3491 3272 3391 
z
" transform="scale(0.015625)"/>
      <path id="DejaVuSans-Bold-69" d="M 538 3500 
L 1656 3500 
L 1656 0 
L 538 0 
L 538 3500 
z
M 538 4863 
L 1656 4863 
L 1656 3950 
L 538 3950 
L 538 4863 
z
" transform="scale(0.015625)"/>
      <path id="DejaVuSans-Bold-79" d="M 78 3500 
L 1197 3500 
L 2138 1125 
L 2938 3500 
L 4056 3500 
L 2584 -331 
Q 2363 -916 2067 -1148 
Q 1772 -1381 1288 -1381 
L 641 -1381 
L 641 -647 
L 991 -647 
Q 1275 -647 1404 -556 
Q 1534 -466 1606 -231 
L 1638 -134 
L 78 3500 
z
" transform="scale(0.015625)"/>
      <path id="DejaVuSans-Bold-3a" d="M 716 3500 
L 1844 3500 
L 1844 2291 
L 716 2291 
L 716 3500 
z
M 716 1209 
L 1844 1209 
L 1844 0 
L 716 0 
L 716 1209 
z
" transform="scale(0.015625)"/>
      <path id="DejaVuSans-Bold-37" d="M 428 4666 
L 3944 4666 
L 3944 3988 
L 2125 0 
L 953 0 
L 2675 3781 
L 428 3781 
L 428 4666 
z
" transform="scale(0.015625)"/>
      <path id="DejaVuSans-Bold-62" d="M 2400 722 
Q 2759 722 2948 984 
Q 3138 1247 3138 1747 
Q 3138 2247 2948 2509 
Q 2759 2772 2400 2772 
Q 2041 2772 1848 2508 
Q 1656 2244 1656 1747 
Q 1656 1250 1848 986 
Q 2041 722 2400 722 
z
M 1656 2988 
Q 1888 3294 2169 3439 
Q 2450 3584 2816 3584 
Q 3463 3584 3878 3070 
Q 4294 2556 4294 1747 
Q 4294 938 3878 423 
Q 3463 -91 2816 -91 
Q 2450 -91 2169 54 
Q 1888 200 1656 506 
L 1656 0 
L 538 0 
L 538 4863 
L 1656 4863 
L 1656 2988 
z
" transform="scale(0.015625)"/>
      <path id="DejaVuSans-Bold-7a" d="M 366 3500 
L 3419 3500 
L 3419 2719 
L 1575 800 
L 3419 800 
L 3419 0 
L 288 0 
L 288 781 
L 2131 2700 
L 366 2700 
L 366 3500 
z
" transform="scale(0.015625)"/>
      <path id="DejaVuSans-Bold-65" d="M 4031 1759 
L 4031 1441 
L 1416 1441 
Q 1456 1047 1700 850 
Q 1944 653 2381 653 
Q 2734 653 3104 758 
Q 3475 863 3866 1075 
L 3866 213 
Q 3469 63 3072 -14 
Q 2675 -91 2278 -91 
Q 1328 -91 801 392 
Q 275 875 275 1747 
Q 275 2603 792 3093 
Q 1309 3584 2216 3584 
Q 3041 3584 3536 3087 
Q 4031 2591 4031 1759 
z
M 2881 2131 
Q 2881 2450 2695 2645 
Q 2509 2841 2209 2841 
Q 1884 2841 1681 2658 
Q 1478 2475 1428 2131 
L 2881 2131 
z
" transform="scale(0.015625)"/>
     </defs>
     <use xlink:href="#DejaVuSans-Bold-45"/>
     <use xlink:href="#DejaVuSans-Bold-72" x="68.310547"/>
     <use xlink:href="#DejaVuSans-Bold-72" x="117.626953"/>
     <use xlink:href="#DejaVuSans-Bold-6f" x="166.943359"/>
     <use xlink:href="#DejaVuSans-Bold-72" x="235.644531"/>
     <use xlink:href="#DejaVuSans-Bold-20" x="284.960938"/>
     <use xlink:href="#DejaVuSans-Bold-70" x="319.775391"/>
     <use xlink:href="#DejaVuSans-Bold-6c" x="391.357422"/>
     <use xlink:href="#DejaVuSans-Bold-6f" x="425.634766"/>
     <use xlink:href="#DejaVuSans-Bold-74" x="494.335938"/>
     <use xlink:href="#DejaVuSans-Bold-20" x="542.138672"/>
     <use xlink:href="#DejaVuSans-Bold-73" x="576.953125"/>
     <use xlink:href="#DejaVuSans-Bold-70" x="636.474609"/>
     <use xlink:href="#DejaVuSans-Bold-61" x="708.056641"/>
     <use xlink:href="#DejaVuSans-Bold-72" x="775.537109"/>
     <use xlink:href="#DejaVuSans-Bold-73" x="824.853516"/>
     <use xlink:href="#DejaVuSans-Bold-69" x="884.375"/>
     <use xlink:href="#DejaVuSans-Bold-74" x="918.652344"/>
     <use xlink:href="#DejaVuSans-Bold-79" x="966.455078"/>
     <use xlink:href="#DejaVuSans-Bold-3a" x="1031.640625"/>
     <use xlink:href="#DejaVuSans-Bold-37" x="1071.630859"/>
     <use xlink:href="#DejaVuSans-Bold-30" x="1141.210938"/>
     <use xlink:href="#DejaVuSans-Bold-20" x="1210.791016"/>
     <use xlink:href="#DejaVuSans-Bold-62" x="1245.605469"/>
     <use xlink:href="#DejaVuSans-Bold-61" x="1317.1875"/>
     <use xlink:href="#DejaVuSans-Bold-74" x="1384.667969"/>
     <use xlink:href="#DejaVuSans-Bold-63" x="1432.470703"/>
     <use xlink:href="#DejaVuSans-Bold-68" x="1491.748047"/>
     <use xlink:href="#DejaVuSans-Bold-73" x="1562.939453"/>
     <use xlink:href="#DejaVuSans-Bold-69" x="1622.460938"/>
     <use xlink:href="#DejaVuSans-Bold-7a" x="1656.738281"/>
     <use xlink:href="#DejaVuSans-Bold-65" x="1714.941406"/>
     <use xlink:href="#DejaVuSans-Bold-3a" x="1782.763672"/>
     <use xlink:href="#DejaVuSans-Bold-33" x="1822.753906"/>
     <use xlink:href="#DejaVuSans-Bold-30" x="1892.333984"/>
     <use xlink:href="#DejaVuSans-Bold-30" x="1961.914062"/>
     <use xlink:href="#DejaVuSans-Bold-30" x="2031.494141"/>
    </g>
   </g>
  </g>
 </g>
 <defs>
  <clipPath id="p3269deaa17">
   <rect x="57.6" y="41.472" width="357.12" height="266.112"/>
  </clipPath>
 </defs>
</svg>
