<?xml version="1.0" encoding="utf-8" standalone="no"?>
<!DOCTYPE svg PUBLIC "-//W3C//DTD SVG 1.1//EN"
  "http://www.w3.org/Graphics/SVG/1.1/DTD/svg11.dtd">
<svg xmlns:xlink="http://www.w3.org/1999/xlink" width="460.8pt" height="345.6pt" viewBox="0 0 460.8 345.6" xmlns="http://www.w3.org/2000/svg" version="1.1">
 <metadata>
  <rdf:RDF xmlns:dc="http://purl.org/dc/elements/1.1/" xmlns:cc="http://creativecommons.org/ns#" xmlns:rdf="http://www.w3.org/1999/02/22-rdf-syntax-ns#">
   <cc:Work>
    <dc:type rdf:resource="http://purl.org/dc/dcmitype/StillImage"/>
    <dc:date>2023-07-23T20:45:41.214127</dc:date>
    <dc:format>image/svg+xml</dc:format>
    <dc:creator>
     <cc:Agent>
      <dc:title>Matplotlib v3.5.3, https://matplotlib.org/</dc:title>
     </cc:Agent>
    </dc:creator>
   </cc:Work>
  </rdf:RDF>
 </metadata>
 <defs>
  <style type="text/css">*{stroke-linejoin: round; stroke-linecap: butt}</style>
 </defs>
 <g id="figure_1">
  <g id="patch_1">
   <path d="M 0 345.6 
L 460.8 345.6 
L 460.8 0 
L 0 0 
z
" style="fill: #ffffff"/>
  </g>
  <g id="axes_1">
   <g id="patch_2">
    <path d="M 57.6 307.584 
L 414.72 307.584 
L 414.72 41.472 
L 57.6 41.472 
z
" style="fill: #ffffff"/>
   </g>
   <g id="matplotlib.axis_1">
    <g id="xtick_1">
     <g id="line2d_1">
      <defs>
       <path id="mc954a9cbbc" d="M 0 0 
L 0 3.5 
" style="stroke: #000000; stroke-width: 0.8"/>
      </defs>
      <g>
       <use xlink:href="#mc954a9cbbc" x="73.832727" y="307.584" style="stroke: #000000; stroke-width: 0.8"/>
      </g>
     </g>
     <g id="text_1">
      <!-- 0.0 -->
      <g transform="translate(63.20429 323.702125)scale(0.12 -0.12)">
       <defs>
        <path id="DejaVuSans-Bold-30" d="M 2944 2338 
Q 2944 3213 2780 3570 
Q 2616 3928 2228 3928 
Q 1841 3928 1675 3570 
Q 1509 3213 1509 2338 
Q 1509 1453 1675 1090 
Q 1841 728 2228 728 
Q 2613 728 2778 1090 
Q 2944 1453 2944 2338 
z
M 4147 2328 
Q 4147 1169 3647 539 
Q 3147 -91 2228 -91 
Q 1306 -91 806 539 
Q 306 1169 306 2328 
Q 306 3491 806 4120 
Q 1306 4750 2228 4750 
Q 3147 4750 3647 4120 
Q 4147 3491 4147 2328 
z
" transform="scale(0.015625)"/>
        <path id="DejaVuSans-Bold-2e" d="M 653 1209 
L 1778 1209 
L 1778 0 
L 653 0 
L 653 1209 
z
" transform="scale(0.015625)"/>
       </defs>
       <use xlink:href="#DejaVuSans-Bold-30"/>
       <use xlink:href="#DejaVuSans-Bold-2e" x="69.580078"/>
       <use xlink:href="#DejaVuSans-Bold-30" x="107.568359"/>
      </g>
     </g>
    </g>
    <g id="xtick_2">
     <g id="line2d_2">
      <g>
       <use xlink:href="#mc954a9cbbc" x="127.941818" y="307.584" style="stroke: #000000; stroke-width: 0.8"/>
      </g>
     </g>
     <g id="text_2">
      <!-- 5.0 -->
      <g transform="translate(117.313381 323.702125)scale(0.12 -0.12)">
       <defs>
        <path id="DejaVuSans-Bold-35" d="M 678 4666 
L 3669 4666 
L 3669 3781 
L 1638 3781 
L 1638 3059 
Q 1775 3097 1914 3117 
Q 2053 3138 2203 3138 
Q 3056 3138 3531 2711 
Q 4006 2284 4006 1522 
Q 4006 766 3489 337 
Q 2972 -91 2053 -91 
Q 1656 -91 1267 -14 
Q 878 63 494 219 
L 494 1166 
Q 875 947 1217 837 
Q 1559 728 1863 728 
Q 2300 728 2551 942 
Q 2803 1156 2803 1522 
Q 2803 1891 2551 2103 
Q 2300 2316 1863 2316 
Q 1603 2316 1309 2248 
Q 1016 2181 678 2041 
L 678 4666 
z
" transform="scale(0.015625)"/>
       </defs>
       <use xlink:href="#DejaVuSans-Bold-35"/>
       <use xlink:href="#DejaVuSans-Bold-2e" x="69.580078"/>
       <use xlink:href="#DejaVuSans-Bold-30" x="107.568359"/>
      </g>
     </g>
    </g>
    <g id="xtick_3">
     <g id="line2d_3">
      <g>
       <use xlink:href="#mc954a9cbbc" x="182.050909" y="307.584" style="stroke: #000000; stroke-width: 0.8"/>
      </g>
     </g>
     <g id="text_3">
      <!-- 10.0 -->
      <g transform="translate(167.247784 323.702125)scale(0.12 -0.12)">
       <defs>
        <path id="DejaVuSans-Bold-31" d="M 750 831 
L 1813 831 
L 1813 3847 
L 722 3622 
L 722 4441 
L 1806 4666 
L 2950 4666 
L 2950 831 
L 4013 831 
L 4013 0 
L 750 0 
L 750 831 
z
" transform="scale(0.015625)"/>
       </defs>
       <use xlink:href="#DejaVuSans-Bold-31"/>
       <use xlink:href="#DejaVuSans-Bold-30" x="69.580078"/>
       <use xlink:href="#DejaVuSans-Bold-2e" x="139.160156"/>
       <use xlink:href="#DejaVuSans-Bold-30" x="177.148438"/>
      </g>
     </g>
    </g>
    <g id="xtick_4">
     <g id="line2d_4">
      <g>
       <use xlink:href="#mc954a9cbbc" x="236.16" y="307.584" style="stroke: #000000; stroke-width: 0.8"/>
      </g>
     </g>
     <g id="text_4">
      <!-- 15.0 -->
      <g transform="translate(221.356875 323.702125)scale(0.12 -0.12)">
       <use xlink:href="#DejaVuSans-Bold-31"/>
       <use xlink:href="#DejaVuSans-Bold-35" x="69.580078"/>
       <use xlink:href="#DejaVuSans-Bold-2e" x="139.160156"/>
       <use xlink:href="#DejaVuSans-Bold-30" x="177.148438"/>
      </g>
     </g>
    </g>
    <g id="xtick_5">
     <g id="line2d_5">
      <g>
       <use xlink:href="#mc954a9cbbc" x="290.269091" y="307.584" style="stroke: #000000; stroke-width: 0.8"/>
      </g>
     </g>
     <g id="text_5">
      <!-- 20.0 -->
      <g transform="translate(275.465966 323.702125)scale(0.12 -0.12)">
       <defs>
        <path id="DejaVuSans-Bold-32" d="M 1844 884 
L 3897 884 
L 3897 0 
L 506 0 
L 506 884 
L 2209 2388 
Q 2438 2594 2547 2791 
Q 2656 2988 2656 3200 
Q 2656 3528 2436 3728 
Q 2216 3928 1850 3928 
Q 1569 3928 1234 3808 
Q 900 3688 519 3450 
L 519 4475 
Q 925 4609 1322 4679 
Q 1719 4750 2100 4750 
Q 2938 4750 3402 4381 
Q 3866 4013 3866 3353 
Q 3866 2972 3669 2642 
Q 3472 2313 2841 1759 
L 1844 884 
z
" transform="scale(0.015625)"/>
       </defs>
       <use xlink:href="#DejaVuSans-Bold-32"/>
       <use xlink:href="#DejaVuSans-Bold-30" x="69.580078"/>
       <use xlink:href="#DejaVuSans-Bold-2e" x="139.160156"/>
       <use xlink:href="#DejaVuSans-Bold-30" x="177.148438"/>
      </g>
     </g>
    </g>
    <g id="xtick_6">
     <g id="line2d_6">
      <g>
       <use xlink:href="#mc954a9cbbc" x="344.378182" y="307.584" style="stroke: #000000; stroke-width: 0.8"/>
      </g>
     </g>
     <g id="text_6">
      <!-- 25.0 -->
      <g transform="translate(329.575057 323.702125)scale(0.12 -0.12)">
       <use xlink:href="#DejaVuSans-Bold-32"/>
       <use xlink:href="#DejaVuSans-Bold-35" x="69.580078"/>
       <use xlink:href="#DejaVuSans-Bold-2e" x="139.160156"/>
       <use xlink:href="#DejaVuSans-Bold-30" x="177.148438"/>
      </g>
     </g>
    </g>
    <g id="xtick_7">
     <g id="line2d_7">
      <g>
       <use xlink:href="#mc954a9cbbc" x="398.487273" y="307.584" style="stroke: #000000; stroke-width: 0.8"/>
      </g>
     </g>
     <g id="text_7">
      <!-- 30.0 -->
      <g transform="translate(383.684148 323.702125)scale(0.12 -0.12)">
       <defs>
        <path id="DejaVuSans-Bold-33" d="M 2981 2516 
Q 3453 2394 3698 2092 
Q 3944 1791 3944 1325 
Q 3944 631 3412 270 
Q 2881 -91 1863 -91 
Q 1503 -91 1142 -33 
Q 781 25 428 141 
L 428 1069 
Q 766 900 1098 814 
Q 1431 728 1753 728 
Q 2231 728 2486 893 
Q 2741 1059 2741 1369 
Q 2741 1688 2480 1852 
Q 2219 2016 1709 2016 
L 1228 2016 
L 1228 2791 
L 1734 2791 
Q 2188 2791 2409 2933 
Q 2631 3075 2631 3366 
Q 2631 3634 2415 3781 
Q 2200 3928 1806 3928 
Q 1516 3928 1219 3862 
Q 922 3797 628 3669 
L 628 4550 
Q 984 4650 1334 4700 
Q 1684 4750 2022 4750 
Q 2931 4750 3382 4451 
Q 3834 4153 3834 3553 
Q 3834 3144 3618 2883 
Q 3403 2622 2981 2516 
z
" transform="scale(0.015625)"/>
       </defs>
       <use xlink:href="#DejaVuSans-Bold-33"/>
       <use xlink:href="#DejaVuSans-Bold-30" x="69.580078"/>
       <use xlink:href="#DejaVuSans-Bold-2e" x="139.160156"/>
       <use xlink:href="#DejaVuSans-Bold-30" x="177.148438"/>
      </g>
     </g>
    </g>
    <g id="text_8">
     <!-- Epoch -->
     <g transform="translate(212.425625 340.835562)scale(0.14 -0.14)">
      <defs>
       <path id="DejaVuSans-Bold-45" d="M 588 4666 
L 3834 4666 
L 3834 3756 
L 1791 3756 
L 1791 2888 
L 3713 2888 
L 3713 1978 
L 1791 1978 
L 1791 909 
L 3903 909 
L 3903 0 
L 588 0 
L 588 4666 
z
" transform="scale(0.015625)"/>
       <path id="DejaVuSans-Bold-70" d="M 1656 506 
L 1656 -1331 
L 538 -1331 
L 538 3500 
L 1656 3500 
L 1656 2988 
Q 1888 3294 2169 3439 
Q 2450 3584 2816 3584 
Q 3463 3584 3878 3070 
Q 4294 2556 4294 1747 
Q 4294 938 3878 423 
Q 3463 -91 2816 -91 
Q 2450 -91 2169 54 
Q 1888 200 1656 506 
z
M 2400 2772 
Q 2041 2772 1848 2508 
Q 1656 2244 1656 1747 
Q 1656 1250 1848 986 
Q 2041 722 2400 722 
Q 2759 722 2948 984 
Q 3138 1247 3138 1747 
Q 3138 2247 2948 2509 
Q 2759 2772 2400 2772 
z
" transform="scale(0.015625)"/>
       <path id="DejaVuSans-Bold-6f" d="M 2203 2784 
Q 1831 2784 1636 2517 
Q 1441 2250 1441 1747 
Q 1441 1244 1636 976 
Q 1831 709 2203 709 
Q 2569 709 2762 976 
Q 2956 1244 2956 1747 
Q 2956 2250 2762 2517 
Q 2569 2784 2203 2784 
z
M 2203 3584 
Q 3106 3584 3614 3096 
Q 4122 2609 4122 1747 
Q 4122 884 3614 396 
Q 3106 -91 2203 -91 
Q 1297 -91 786 396 
Q 275 884 275 1747 
Q 275 2609 786 3096 
Q 1297 3584 2203 3584 
z
" transform="scale(0.015625)"/>
       <path id="DejaVuSans-Bold-63" d="M 3366 3391 
L 3366 2478 
Q 3138 2634 2908 2709 
Q 2678 2784 2431 2784 
Q 1963 2784 1702 2511 
Q 1441 2238 1441 1747 
Q 1441 1256 1702 982 
Q 1963 709 2431 709 
Q 2694 709 2930 787 
Q 3166 866 3366 1019 
L 3366 103 
Q 3103 6 2833 -42 
Q 2563 -91 2291 -91 
Q 1344 -91 809 395 
Q 275 881 275 1747 
Q 275 2613 809 3098 
Q 1344 3584 2291 3584 
Q 2566 3584 2833 3536 
Q 3100 3488 3366 3391 
z
" transform="scale(0.015625)"/>
       <path id="DejaVuSans-Bold-68" d="M 4056 2131 
L 4056 0 
L 2931 0 
L 2931 347 
L 2931 1625 
Q 2931 2084 2911 2256 
Q 2891 2428 2841 2509 
Q 2775 2619 2662 2680 
Q 2550 2741 2406 2741 
Q 2056 2741 1856 2470 
Q 1656 2200 1656 1722 
L 1656 0 
L 538 0 
L 538 4863 
L 1656 4863 
L 1656 2988 
Q 1909 3294 2193 3439 
Q 2478 3584 2822 3584 
Q 3428 3584 3742 3212 
Q 4056 2841 4056 2131 
z
" transform="scale(0.015625)"/>
      </defs>
      <use xlink:href="#DejaVuSans-Bold-45"/>
      <use xlink:href="#DejaVuSans-Bold-70" x="68.310547"/>
      <use xlink:href="#DejaVuSans-Bold-6f" x="139.892578"/>
      <use xlink:href="#DejaVuSans-Bold-63" x="208.59375"/>
      <use xlink:href="#DejaVuSans-Bold-68" x="267.871094"/>
     </g>
    </g>
   </g>
   <g id="matplotlib.axis_2">
    <g id="ytick_1">
     <g id="line2d_8">
      <defs>
       <path id="md5eb044b86" d="M 0 0 
L -3.5 0 
" style="stroke: #000000; stroke-width: 0.8"/>
      </defs>
      <g>
       <use xlink:href="#md5eb044b86" x="57.6" y="282.577113" style="stroke: #000000; stroke-width: 0.8"/>
      </g>
     </g>
     <g id="text_9">
      <!-- 0.0035 -->
      <g transform="translate(4.295 287.136175)scale(0.12 -0.12)">
       <use xlink:href="#DejaVuSans-Bold-30"/>
       <use xlink:href="#DejaVuSans-Bold-2e" x="69.580078"/>
       <use xlink:href="#DejaVuSans-Bold-30" x="107.568359"/>
       <use xlink:href="#DejaVuSans-Bold-30" x="177.148438"/>
       <use xlink:href="#DejaVuSans-Bold-33" x="246.728516"/>
       <use xlink:href="#DejaVuSans-Bold-35" x="316.308594"/>
      </g>
     </g>
    </g>
    <g id="ytick_2">
     <g id="line2d_9">
      <g>
       <use xlink:href="#md5eb044b86" x="57.6" y="251.733274" style="stroke: #000000; stroke-width: 0.8"/>
      </g>
     </g>
     <g id="text_10">
      <!-- 0.004 -->
      <g transform="translate(12.644375 256.292336)scale(0.12 -0.12)">
       <defs>
        <path id="DejaVuSans-Bold-34" d="M 2356 3675 
L 1038 1722 
L 2356 1722 
L 2356 3675 
z
M 2156 4666 
L 3494 4666 
L 3494 1722 
L 4159 1722 
L 4159 850 
L 3494 850 
L 3494 0 
L 2356 0 
L 2356 850 
L 288 850 
L 288 1881 
L 2156 4666 
z
" transform="scale(0.015625)"/>
       </defs>
       <use xlink:href="#DejaVuSans-Bold-30"/>
       <use xlink:href="#DejaVuSans-Bold-2e" x="69.580078"/>
       <use xlink:href="#DejaVuSans-Bold-30" x="107.568359"/>
       <use xlink:href="#DejaVuSans-Bold-30" x="177.148438"/>
       <use xlink:href="#DejaVuSans-Bold-34" x="246.728516"/>
      </g>
     </g>
    </g>
    <g id="ytick_3">
     <g id="line2d_10">
      <g>
       <use xlink:href="#md5eb044b86" x="57.6" y="220.889435" style="stroke: #000000; stroke-width: 0.8"/>
      </g>
     </g>
     <g id="text_11">
      <!-- 0.0045 -->
      <g transform="translate(4.295 225.448498)scale(0.12 -0.12)">
       <use xlink:href="#DejaVuSans-Bold-30"/>
       <use xlink:href="#DejaVuSans-Bold-2e" x="69.580078"/>
       <use xlink:href="#DejaVuSans-Bold-30" x="107.568359"/>
       <use xlink:href="#DejaVuSans-Bold-30" x="177.148438"/>
       <use xlink:href="#DejaVuSans-Bold-34" x="246.728516"/>
       <use xlink:href="#DejaVuSans-Bold-35" x="316.308594"/>
      </g>
     </g>
    </g>
    <g id="ytick_4">
     <g id="line2d_11">
      <g>
       <use xlink:href="#md5eb044b86" x="57.6" y="190.045596" style="stroke: #000000; stroke-width: 0.8"/>
      </g>
     </g>
     <g id="text_12">
      <!-- 0.005 -->
      <g transform="translate(12.644375 194.604659)scale(0.12 -0.12)">
       <use xlink:href="#DejaVuSans-Bold-30"/>
       <use xlink:href="#DejaVuSans-Bold-2e" x="69.580078"/>
       <use xlink:href="#DejaVuSans-Bold-30" x="107.568359"/>
       <use xlink:href="#DejaVuSans-Bold-30" x="177.148438"/>
       <use xlink:href="#DejaVuSans-Bold-35" x="246.728516"/>
      </g>
     </g>
    </g>
    <g id="ytick_5">
     <g id="line2d_12">
      <g>
       <use xlink:href="#md5eb044b86" x="57.6" y="159.201757" style="stroke: #000000; stroke-width: 0.8"/>
      </g>
     </g>
     <g id="text_13">
      <!-- 0.0055 -->
      <g transform="translate(4.295 163.76082)scale(0.12 -0.12)">
       <use xlink:href="#DejaVuSans-Bold-30"/>
       <use xlink:href="#DejaVuSans-Bold-2e" x="69.580078"/>
       <use xlink:href="#DejaVuSans-Bold-30" x="107.568359"/>
       <use xlink:href="#DejaVuSans-Bold-30" x="177.148438"/>
       <use xlink:href="#DejaVuSans-Bold-35" x="246.728516"/>
       <use xlink:href="#DejaVuSans-Bold-35" x="316.308594"/>
      </g>
     </g>
    </g>
    <g id="ytick_6">
     <g id="line2d_13">
      <g>
       <use xlink:href="#md5eb044b86" x="57.6" y="128.357918" style="stroke: #000000; stroke-width: 0.8"/>
      </g>
     </g>
     <g id="text_14">
      <!-- 0.006 -->
      <g transform="translate(12.644375 132.916981)scale(0.12 -0.12)">
       <defs>
        <path id="DejaVuSans-Bold-36" d="M 2316 2303 
Q 2000 2303 1842 2098 
Q 1684 1894 1684 1484 
Q 1684 1075 1842 870 
Q 2000 666 2316 666 
Q 2634 666 2792 870 
Q 2950 1075 2950 1484 
Q 2950 1894 2792 2098 
Q 2634 2303 2316 2303 
z
M 3803 4544 
L 3803 3681 
Q 3506 3822 3243 3889 
Q 2981 3956 2731 3956 
Q 2194 3956 1894 3657 
Q 1594 3359 1544 2772 
Q 1750 2925 1990 3001 
Q 2231 3078 2516 3078 
Q 3231 3078 3670 2659 
Q 4109 2241 4109 1563 
Q 4109 813 3618 361 
Q 3128 -91 2303 -91 
Q 1394 -91 895 523 
Q 397 1138 397 2266 
Q 397 3422 980 4083 
Q 1563 4744 2578 4744 
Q 2900 4744 3203 4694 
Q 3506 4644 3803 4544 
z
" transform="scale(0.015625)"/>
       </defs>
       <use xlink:href="#DejaVuSans-Bold-30"/>
       <use xlink:href="#DejaVuSans-Bold-2e" x="69.580078"/>
       <use xlink:href="#DejaVuSans-Bold-30" x="107.568359"/>
       <use xlink:href="#DejaVuSans-Bold-30" x="177.148438"/>
       <use xlink:href="#DejaVuSans-Bold-36" x="246.728516"/>
      </g>
     </g>
    </g>
    <g id="ytick_7">
     <g id="line2d_14">
      <g>
       <use xlink:href="#md5eb044b86" x="57.6" y="97.514079" style="stroke: #000000; stroke-width: 0.8"/>
      </g>
     </g>
     <g id="text_15">
      <!-- 0.0065 -->
      <g transform="translate(4.295 102.073142)scale(0.12 -0.12)">
       <use xlink:href="#DejaVuSans-Bold-30"/>
       <use xlink:href="#DejaVuSans-Bold-2e" x="69.580078"/>
       <use xlink:href="#DejaVuSans-Bold-30" x="107.568359"/>
       <use xlink:href="#DejaVuSans-Bold-30" x="177.148438"/>
       <use xlink:href="#DejaVuSans-Bold-36" x="246.728516"/>
       <use xlink:href="#DejaVuSans-Bold-35" x="316.308594"/>
      </g>
     </g>
    </g>
    <g id="ytick_8">
     <g id="line2d_15">
      <g>
       <use xlink:href="#md5eb044b86" x="57.6" y="66.67024" style="stroke: #000000; stroke-width: 0.8"/>
      </g>
     </g>
     <g id="text_16">
      <!-- 0.007 -->
      <g transform="translate(12.644375 71.229303)scale(0.12 -0.12)">
       <defs>
        <path id="DejaVuSans-Bold-37" d="M 428 4666 
L 3944 4666 
L 3944 3988 
L 2125 0 
L 953 0 
L 2675 3781 
L 428 3781 
L 428 4666 
z
" transform="scale(0.015625)"/>
       </defs>
       <use xlink:href="#DejaVuSans-Bold-30"/>
       <use xlink:href="#DejaVuSans-Bold-2e" x="69.580078"/>
       <use xlink:href="#DejaVuSans-Bold-30" x="107.568359"/>
       <use xlink:href="#DejaVuSans-Bold-30" x="177.148438"/>
       <use xlink:href="#DejaVuSans-Bold-37" x="246.728516"/>
      </g>
     </g>
    </g>
    <g id="text_17">
     <!-- Error (a.u.) -->
     <g transform="translate(-2.616563 218.334875)rotate(-90)scale(0.14 -0.14)">
      <defs>
       <path id="DejaVuSans-Bold-72" d="M 3138 2547 
Q 2991 2616 2845 2648 
Q 2700 2681 2553 2681 
Q 2122 2681 1889 2404 
Q 1656 2128 1656 1613 
L 1656 0 
L 538 0 
L 538 3500 
L 1656 3500 
L 1656 2925 
Q 1872 3269 2151 3426 
Q 2431 3584 2822 3584 
Q 2878 3584 2943 3579 
Q 3009 3575 3134 3559 
L 3138 2547 
z
" transform="scale(0.015625)"/>
       <path id="DejaVuSans-Bold-20" transform="scale(0.015625)"/>
       <path id="DejaVuSans-Bold-28" d="M 2413 -844 
L 1484 -844 
Q 1006 -72 778 623 
Q 550 1319 550 2003 
Q 550 2688 779 3389 
Q 1009 4091 1484 4856 
L 2413 4856 
Q 2013 4116 1813 3408 
Q 1613 2700 1613 2009 
Q 1613 1319 1811 609 
Q 2009 -100 2413 -844 
z
" transform="scale(0.015625)"/>
       <path id="DejaVuSans-Bold-61" d="M 2106 1575 
Q 1756 1575 1579 1456 
Q 1403 1338 1403 1106 
Q 1403 894 1545 773 
Q 1688 653 1941 653 
Q 2256 653 2472 879 
Q 2688 1106 2688 1447 
L 2688 1575 
L 2106 1575 
z
M 3816 1997 
L 3816 0 
L 2688 0 
L 2688 519 
Q 2463 200 2181 54 
Q 1900 -91 1497 -91 
Q 953 -91 614 226 
Q 275 544 275 1050 
Q 275 1666 698 1953 
Q 1122 2241 2028 2241 
L 2688 2241 
L 2688 2328 
Q 2688 2594 2478 2717 
Q 2269 2841 1825 2841 
Q 1466 2841 1156 2769 
Q 847 2697 581 2553 
L 581 3406 
Q 941 3494 1303 3539 
Q 1666 3584 2028 3584 
Q 2975 3584 3395 3211 
Q 3816 2838 3816 1997 
z
" transform="scale(0.015625)"/>
       <path id="DejaVuSans-Bold-75" d="M 500 1363 
L 500 3500 
L 1625 3500 
L 1625 3150 
Q 1625 2866 1622 2436 
Q 1619 2006 1619 1863 
Q 1619 1441 1641 1255 
Q 1663 1069 1716 984 
Q 1784 875 1895 815 
Q 2006 756 2150 756 
Q 2500 756 2700 1025 
Q 2900 1294 2900 1772 
L 2900 3500 
L 4019 3500 
L 4019 0 
L 2900 0 
L 2900 506 
Q 2647 200 2364 54 
Q 2081 -91 1741 -91 
Q 1134 -91 817 281 
Q 500 653 500 1363 
z
" transform="scale(0.015625)"/>
       <path id="DejaVuSans-Bold-29" d="M 513 -844 
Q 913 -100 1113 609 
Q 1313 1319 1313 2009 
Q 1313 2700 1113 3408 
Q 913 4116 513 4856 
L 1441 4856 
Q 1916 4091 2145 3389 
Q 2375 2688 2375 2003 
Q 2375 1319 2147 623 
Q 1919 -72 1441 -844 
L 513 -844 
z
" transform="scale(0.015625)"/>
      </defs>
      <use xlink:href="#DejaVuSans-Bold-45"/>
      <use xlink:href="#DejaVuSans-Bold-72" x="68.310547"/>
      <use xlink:href="#DejaVuSans-Bold-72" x="117.626953"/>
      <use xlink:href="#DejaVuSans-Bold-6f" x="166.943359"/>
      <use xlink:href="#DejaVuSans-Bold-72" x="235.644531"/>
      <use xlink:href="#DejaVuSans-Bold-20" x="284.960938"/>
      <use xlink:href="#DejaVuSans-Bold-28" x="319.775391"/>
      <use xlink:href="#DejaVuSans-Bold-61" x="365.478516"/>
      <use xlink:href="#DejaVuSans-Bold-2e" x="432.958984"/>
      <use xlink:href="#DejaVuSans-Bold-75" x="470.947266"/>
      <use xlink:href="#DejaVuSans-Bold-2e" x="542.138672"/>
      <use xlink:href="#DejaVuSans-Bold-29" x="580.126953"/>
     </g>
    </g>
   </g>
   <g id="line2d_16">
    <path d="M 73.832727 53.568 
L 74.916716 94.6305 
L 75.45871 92.433641 
L 76.000704 115.356211 
L 76.542698 109.178206 
L 77.626687 131.93999 
L 78.168681 148.215525 
L 78.710675 146.491451 
L 79.25267 153.277043 
L 79.794664 157.210525 
L 80.336658 163.458713 
L 80.878652 172.365397 
L 81.420647 168.82707 
L 81.962641 186.58198 
L 82.504635 177.027633 
L 83.046629 183.632498 
L 83.588623 187.855135 
L 84.130618 188.842926 
L 84.672612 194.621973 
L 85.214606 197.413199 
L 85.7566 207.878931 
L 86.298595 200.713474 
L 86.840589 216.117524 
L 87.382583 205.69458 
L 88.466572 215.161813 
L 89.008566 223.784099 
L 89.55056 217.176393 
L 90.092554 219.764816 
L 90.634548 219.318022 
L 91.176543 222.144296 
L 91.718537 227.377516 
L 92.260531 221.227942 
L 92.802525 233.576672 
L 93.34452 222.125473 
L 93.886514 227.326124 
L 94.428508 228.39401 
L 94.970502 227.319504 
L 95.512497 230.917378 
L 96.054491 232.168072 
L 96.596485 239.580848 
L 97.138479 232.421478 
L 97.680474 245.185812 
L 98.222468 234.744202 
L 99.306456 241.554644 
L 99.84845 248.718281 
L 100.390445 242.124478 
L 100.932439 243.680757 
L 101.474433 242.326084 
L 102.016427 243.594761 
L 102.558422 247.807987 
L 103.100416 241.734852 
L 103.64241 252.754097 
L 104.184404 241.078253 
L 104.726399 245.534003 
L 105.268393 245.973434 
L 105.810387 244.981377 
L 106.352381 247.180965 
L 106.894375 248.553623 
L 107.43637 255.865208 
L 107.978364 247.749611 
L 108.520358 259.189196 
L 109.062352 248.793008 
L 110.146341 254.788562 
L 110.688335 261.373604 
L 111.230329 254.532004 
L 111.772324 255.552419 
L 112.314318 254.092717 
L 112.856312 255.022851 
L 113.398306 258.92729 
L 113.940301 252.73135 
L 114.482295 262.678012 
L 115.024289 251.699111 
L 115.566283 255.972096 
L 116.108277 255.756388 
L 116.650272 254.549277 
L 117.192266 256.389467 
L 117.73426 257.73908 
L 118.276254 264.392326 
L 118.818249 256.633258 
L 119.360243 267.899753 
L 119.902237 257.861594 
L 120.444231 259.736917 
L 120.986226 263.083761 
L 121.52822 269.291181 
L 122.070214 262.209525 
L 122.612208 262.812092 
L 123.154202 261.487935 
L 123.696197 262.527369 
L 124.238191 266.467746 
L 124.780185 259.914673 
L 125.322179 269.277521 
L 125.864174 258.765137 
L 126.406168 262.941273 
L 126.948162 262.642112 
L 127.490156 261.15317 
L 128.032151 262.46215 
L 128.574145 264.257392 
L 129.116139 270.523352 
L 129.658133 262.758859 
L 130.200127 273.622774 
L 130.742122 263.943952 
L 131.284116 265.393961 
L 131.82611 268.770143 
L 132.368104 274.97962 
L 132.910099 267.635718 
L 133.452093 268.329491 
L 133.994087 266.799904 
L 134.536081 267.616871 
L 135.078076 271.267868 
L 135.62007 264.742683 
L 136.162064 273.901023 
L 136.704058 263.513286 
L 137.246053 267.814621 
L 137.788047 267.059775 
L 138.330041 265.479308 
L 138.872035 266.67675 
L 139.414029 268.776314 
L 139.956024 274.435388 
L 140.498018 266.80263 
L 141.040012 277.373255 
L 141.582006 267.717145 
L 142.124001 268.92404 
L 142.665995 272.352388 
L 143.207989 278.568598 
L 143.749983 271.121991 
L 144.291978 272.073561 
L 144.833972 270.207469 
L 145.375966 270.952199 
L 145.91796 274.462859 
L 146.459954 267.88132 
L 147.001949 277.304994 
L 147.543943 266.773362 
L 148.085937 271.289748 
L 149.169926 268.715497 
L 149.71192 269.861286 
L 150.253914 271.760363 
L 150.795908 277.413651 
L 151.337903 269.912629 
L 151.879897 280.634096 
L 152.421891 270.864953 
L 152.963885 271.955311 
L 153.505879 275.409029 
L 154.047874 281.281435 
L 154.589868 273.954007 
L 155.131862 274.907527 
L 155.673856 273.033033 
L 156.215851 273.67511 
L 156.757845 277.087218 
L 157.299839 270.586951 
L 157.841833 279.780146 
L 158.383828 269.217436 
L 158.925822 273.711829 
L 159.467816 272.490216 
L 160.00981 270.810913 
L 160.551805 272.148403 
L 161.093799 274.173891 
L 161.635793 279.790215 
L 162.177787 272.259986 
L 162.719781 282.660905 
L 163.261776 272.826733 
L 163.80377 274.374117 
L 164.345764 277.587892 
L 164.887758 283.260529 
L 165.429753 276.045123 
L 165.971747 277.238423 
L 166.513741 275.601652 
L 167.055735 275.616905 
L 167.59773 279.036732 
L 168.139724 272.550427 
L 168.681718 281.98664 
L 169.223712 271.094299 
L 169.765706 275.973752 
L 170.849695 272.967106 
L 171.391689 274.229653 
L 171.933683 276.134722 
L 172.475678 281.691631 
L 173.017672 274.144616 
L 173.559666 284.800734 
L 174.10166 274.523974 
L 174.643655 276.009027 
L 175.185649 279.271121 
L 175.727643 285.054496 
L 176.269637 277.747805 
L 176.811632 278.999864 
L 177.353626 277.332101 
L 177.89562 277.455212 
L 178.437614 281.075918 
L 178.979608 274.267705 
L 179.521603 283.692226 
L 180.063597 272.88365 
L 180.605591 277.650511 
L 181.147585 275.76891 
L 181.68958 274.578854 
L 182.773568 277.454625 
L 183.315562 283.523043 
L 183.857557 275.487783 
L 184.399551 286.315842 
L 184.941545 276.248823 
L 185.483539 277.725417 
L 186.025533 280.863854 
L 186.567528 286.401497 
L 187.109522 279.120995 
L 187.651516 280.472939 
L 188.19351 279.002949 
L 188.735505 279.015671 
L 189.277499 282.208136 
L 189.819493 275.556996 
L 190.361487 285.049749 
L 190.903482 273.98287 
L 191.445476 279.28304 
L 191.98747 277.063987 
L 192.529464 275.956333 
L 193.613453 278.538515 
L 194.155447 284.7773 
L 194.697441 276.736288 
L 195.239435 287.387782 
L 195.78143 277.371451 
L 196.323424 278.813645 
L 196.865418 282.043019 
L 197.407412 287.519762 
L 197.949407 280.329252 
L 198.491401 281.838659 
L 199.033395 280.23217 
L 199.575389 280.305953 
L 200.117384 283.492972 
L 200.659378 276.772127 
L 201.201372 286.021893 
L 201.743366 275.136793 
L 202.28536 280.345787 
L 202.827355 278.167824 
L 203.369349 277.102791 
L 204.453337 279.716293 
L 204.995332 285.94274 
L 205.537326 277.874422 
L 206.07932 288.760932 
L 206.621314 278.644476 
L 207.163309 280.096646 
L 207.705303 283.377861 
L 208.247297 288.669982 
L 208.789291 281.560702 
L 209.331285 283.089076 
L 209.87328 281.35015 
L 210.415274 281.472325 
L 210.957268 284.665337 
L 211.499262 277.961589 
L 212.041257 287.188423 
L 212.583251 276.32088 
L 213.125245 281.309168 
L 213.667239 279.074555 
L 214.209234 278.251115 
L 214.751228 279.55549 
L 215.293222 280.56229 
L 215.835216 286.974448 
L 216.377211 278.831672 
L 216.919205 289.757582 
L 217.461199 279.719518 
L 218.003193 281.015029 
L 218.545187 284.634502 
L 219.087182 289.771131 
L 219.629176 282.694163 
L 220.17117 283.979862 
L 220.713164 282.488213 
L 221.255159 282.669668 
L 221.797153 285.843305 
L 222.339147 279.08577 
L 222.881141 288.161591 
L 223.423136 277.318561 
L 223.96513 282.255048 
L 224.507124 279.878415 
L 225.049118 279.141136 
L 226.133107 281.476183 
L 226.675101 287.59856 
L 227.217095 279.704572 
L 227.759089 290.671914 
L 228.301084 280.462631 
L 228.843078 281.885284 
L 229.385072 285.397514 
L 229.927066 290.477132 
L 230.469061 283.776496 
L 231.011055 284.718636 
L 231.553049 283.066001 
L 232.095043 283.383054 
L 232.637037 286.61795 
L 233.179032 279.851274 
L 233.721026 288.862554 
L 234.26302 278.092933 
L 234.805014 282.985747 
L 235.347009 280.748341 
L 235.889003 279.891629 
L 236.972991 282.224816 
L 237.514986 288.513059 
L 238.05698 280.430014 
L 238.598974 291.222073 
L 239.140968 281.102574 
L 239.682963 282.509564 
L 240.224957 285.877408 
L 240.766951 291.170601 
L 241.308945 284.460092 
L 241.850939 285.584893 
L 242.392934 283.505059 
L 242.934928 283.972633 
L 243.476922 287.325432 
L 244.018916 280.434669 
L 244.560911 289.39839 
L 245.102905 278.777168 
L 245.644899 283.606805 
L 246.186893 281.249423 
L 246.728888 280.686633 
L 247.812876 282.879454 
L 248.35487 289.265793 
L 248.896864 281.130676 
L 249.438859 291.722097 
L 249.980853 281.926569 
L 250.522847 283.116038 
L 251.064841 286.55367 
L 251.606836 291.845107 
L 252.14883 285.130345 
L 252.690824 286.269238 
L 253.232818 284.182815 
L 253.774813 284.532226 
L 254.316807 287.897922 
L 254.858801 280.899015 
L 255.400795 290.038518 
L 255.942789 279.57001 
L 256.484784 284.010353 
L 257.026778 281.976777 
L 257.568772 281.35049 
L 258.110766 282.675618 
L 258.652761 283.561056 
L 259.194755 289.93459 
L 259.736749 281.778826 
L 260.278743 292.385568 
L 260.820738 282.624095 
L 261.362732 283.716421 
L 261.904726 287.182225 
L 262.44672 292.42103 
L 262.988715 285.55133 
L 263.530709 286.739535 
L 264.072703 284.772492 
L 264.614697 285.177401 
L 265.156691 288.251634 
L 265.698686 281.413849 
L 266.24068 290.392711 
L 266.782674 280.065133 
L 267.324668 284.597632 
L 267.866663 282.569281 
L 268.408657 281.968611 
L 268.950651 283.153904 
L 269.492645 284.04653 
L 270.03464 290.330128 
L 270.576634 282.033782 
L 271.118628 292.876753 
L 271.660622 282.963915 
L 272.202616 284.233868 
L 272.744611 287.493496 
L 273.286605 292.769062 
L 273.828599 285.97529 
L 274.370593 287.251814 
L 274.912588 285.308694 
L 275.454582 285.373465 
L 275.996576 288.73929 
L 276.53857 281.823387 
L 277.080565 290.611 
L 277.622559 280.44118 
L 278.164553 284.9857 
L 278.706547 283.020007 
L 279.248542 282.418854 
L 279.790536 283.410861 
L 280.33253 284.156468 
L 280.874524 290.688959 
L 281.416518 282.392288 
L 281.958513 293.065975 
L 282.500507 283.213431 
L 283.042501 284.444744 
L 283.584495 287.935563 
L 284.12649 293.118018 
L 284.668484 286.398123 
L 285.210478 287.603931 
L 285.752472 285.517995 
L 286.294467 285.707437 
L 286.836461 289.008158 
L 287.378455 282.125037 
L 287.920449 291.095638 
L 288.462443 280.616625 
L 289.004438 285.203332 
L 289.546432 283.380421 
L 290.088426 282.643499 
L 290.63042 283.836946 
L 291.172415 284.57633 
L 291.714409 291.068137 
L 292.256403 282.699715 
L 292.798397 293.317626 
L 293.340392 283.630676 
L 293.882386 284.661485 
L 294.42438 288.222976 
L 294.966374 293.244007 
L 295.508368 286.87455 
L 296.050363 287.90601 
L 296.592357 285.9944 
L 297.134351 286.146437 
L 297.676345 289.467942 
L 298.21834 282.457844 
L 298.760334 291.444739 
L 299.302328 280.988848 
L 299.844322 285.623802 
L 300.386317 283.818341 
L 300.928311 282.874248 
L 301.470305 284.139952 
L 302.012299 285.049104 
L 302.554294 291.391627 
L 303.096288 283.041025 
L 303.638282 293.690171 
L 304.180276 284.155416 
L 304.72227 285.108799 
L 305.264265 288.556911 
L 305.806259 293.735159 
L 306.348253 287.043577 
L 306.890247 288.030242 
L 307.432242 286.276378 
L 307.974236 286.358694 
L 308.51623 289.565178 
L 309.058224 282.655437 
L 309.600219 291.605447 
L 310.142213 281.382149 
L 310.684207 285.837127 
L 311.226201 284.216662 
L 311.768195 283.018401 
L 312.31019 284.509657 
L 312.852184 285.329106 
L 313.394178 291.667006 
L 313.936172 283.30668 
L 314.478167 293.986189 
L 315.020161 284.385857 
L 315.562155 285.256155 
L 316.104149 288.590236 
L 316.646144 293.89234 
L 317.188138 287.132323 
L 317.730132 288.181504 
L 318.272126 286.499157 
L 318.814121 286.699796 
L 319.356115 289.958605 
L 319.898109 282.870592 
L 320.440103 291.939266 
L 320.982097 281.615194 
L 321.524092 286.2852 
L 322.066086 284.388108 
L 322.60808 283.208605 
L 323.150074 284.727732 
L 323.692069 285.508924 
L 324.234063 291.774805 
L 324.776057 283.641964 
L 325.318051 293.941328 
L 325.860046 284.673955 
L 326.40204 285.61215 
L 326.944034 288.800306 
L 327.486028 294.060809 
L 328.028022 287.436704 
L 328.570017 288.56 
L 329.112011 286.648041 
L 329.654005 286.838196 
L 330.195999 290.28266 
L 330.737994 283.328867 
L 331.279988 292.036064 
L 331.821982 282.084875 
L 332.363976 286.700244 
L 333.447965 283.492508 
L 333.989959 284.998765 
L 334.531953 285.832691 
L 335.073947 292.086928 
L 335.615942 283.653621 
L 336.157936 294.123569 
L 336.69993 285.044263 
L 337.241924 285.838684 
L 337.783919 289.101553 
L 338.325913 294.479526 
L 338.867907 287.688775 
L 339.409901 288.695368 
L 339.951896 287.04376 
L 340.49389 287.020227 
L 341.035884 290.659146 
L 341.577878 283.392294 
L 342.119873 292.424312 
L 342.661867 282.452027 
L 343.203861 286.777797 
L 343.745855 285.052705 
L 344.287849 283.836504 
L 344.829844 285.277102 
L 345.371838 286.187389 
L 345.913832 292.388459 
L 346.455826 284.010789 
L 346.997821 294.54789 
L 347.539815 285.446071 
L 348.081809 286.338448 
L 348.623803 289.232845 
L 349.165798 294.55664 
L 349.707792 287.988826 
L 350.249786 288.873549 
L 350.79178 287.13806 
L 351.333774 287.4313 
L 351.875769 290.886035 
L 352.417763 283.61178 
L 352.959757 292.533849 
L 353.501751 282.666094 
L 354.043746 286.863932 
L 354.58574 285.196907 
L 355.127734 283.948025 
L 355.669728 285.569329 
L 356.211723 286.625945 
L 356.753717 292.555397 
L 357.295711 284.257497 
L 357.837705 294.846465 
L 358.379699 285.528003 
L 358.921694 286.406109 
L 359.463688 289.609647 
L 360.005682 294.794074 
L 360.547676 288.097283 
L 361.089671 289.094451 
L 361.631665 287.310171 
L 362.173659 287.553967 
L 362.715653 290.9801 
L 363.257648 283.910647 
L 363.799642 292.883309 
L 364.341636 283.049709 
L 364.88363 287.431223 
L 365.425625 285.36739 
L 365.967619 284.362257 
L 366.509613 285.876595 
L 367.051607 286.824067 
L 367.593601 292.727025 
L 368.135596 284.270256 
L 368.67759 294.975449 
L 369.219584 285.740988 
L 369.761578 286.601537 
L 370.303573 289.795264 
L 370.845567 295.066587 
L 371.387561 288.375409 
L 371.929555 289.269188 
L 372.47155 287.455353 
L 373.013544 287.859659 
L 373.555538 291.435288 
L 374.097532 284.117932 
L 374.639526 293.137781 
L 375.181521 283.208326 
L 375.723515 287.655384 
L 376.265509 285.693616 
L 376.807503 284.508111 
L 377.349498 286.133998 
L 377.891492 287.018978 
L 378.433486 292.9141 
L 378.97548 284.346245 
L 379.517475 295.206036 
L 380.059469 285.966217 
L 380.601463 286.942959 
L 381.143457 290.181247 
L 381.685452 295.18337 
L 382.227446 288.496135 
L 382.76944 289.550528 
L 383.311434 287.991772 
L 383.853428 288.138025 
L 384.395423 291.477259 
L 384.937417 284.327665 
L 385.479411 293.421516 
L 386.021405 283.475473 
L 386.5634 287.754649 
L 387.105394 285.88958 
L 387.647388 284.834329 
L 388.189382 286.314501 
L 388.731377 287.260041 
L 389.273371 293.041725 
L 389.815365 284.501655 
L 390.357359 295.223248 
L 390.899353 286.073708 
L 391.441348 287.161923 
L 391.983342 290.504546 
L 392.525336 295.488 
L 393.06733 288.801331 
L 393.609325 289.712643 
L 394.151319 288.179723 
L 394.693313 288.375104 
L 395.235307 291.774723 
L 395.777302 284.613668 
L 396.319296 293.61825 
L 396.86129 283.817695 
L 397.403284 288.114976 
L 397.945278 286.161988 
L 398.487273 285.236184 
L 398.487273 285.236184 
" clip-path="url(#pb68f67d3c4)" style="fill: none; stroke: #1f77b4; stroke-width: 3; stroke-linecap: square"/>
   </g>
   <g id="patch_3">
    <path d="M 57.6 307.584 
L 57.6 41.472 
" style="fill: none; stroke: #000000; stroke-width: 3; stroke-linejoin: miter; stroke-linecap: square"/>
   </g>
   <g id="patch_4">
    <path d="M 414.72 307.584 
L 414.72 41.472 
" style="fill: none; stroke: #000000; stroke-width: 3; stroke-linejoin: miter; stroke-linecap: square"/>
   </g>
   <g id="patch_5">
    <path d="M 57.6 307.584 
L 414.72 307.584 
" style="fill: none; stroke: #000000; stroke-width: 3; stroke-linejoin: miter; stroke-linecap: square"/>
   </g>
   <g id="patch_6">
    <path d="M 57.6 41.472 
L 414.72 41.472 
" style="fill: none; stroke: #000000; stroke-width: 3; stroke-linejoin: miter; stroke-linecap: square"/>
   </g>
   <g id="text_18">
    <!-- Error plot sparsity:70 batchsize:3000 -->
    <g transform="translate(68.07875 35.472)scale(0.16 -0.16)">
     <defs>
      <path id="DejaVuSans-Bold-6c" d="M 538 4863 
L 1656 4863 
L 1656 0 
L 538 0 
L 538 4863 
z
" transform="scale(0.015625)"/>
      <path id="DejaVuSans-Bold-74" d="M 1759 4494 
L 1759 3500 
L 2913 3500 
L 2913 2700 
L 1759 2700 
L 1759 1216 
Q 1759 972 1856 886 
Q 1953 800 2241 800 
L 2816 800 
L 2816 0 
L 1856 0 
Q 1194 0 917 276 
Q 641 553 641 1216 
L 641 2700 
L 84 2700 
L 84 3500 
L 641 3500 
L 641 4494 
L 1759 4494 
z
" transform="scale(0.015625)"/>
      <path id="DejaVuSans-Bold-73" d="M 3272 3391 
L 3272 2541 
Q 2913 2691 2578 2766 
Q 2244 2841 1947 2841 
Q 1628 2841 1473 2761 
Q 1319 2681 1319 2516 
Q 1319 2381 1436 2309 
Q 1553 2238 1856 2203 
L 2053 2175 
Q 2913 2066 3209 1816 
Q 3506 1566 3506 1031 
Q 3506 472 3093 190 
Q 2681 -91 1863 -91 
Q 1516 -91 1145 -36 
Q 775 19 384 128 
L 384 978 
Q 719 816 1070 734 
Q 1422 653 1784 653 
Q 2113 653 2278 743 
Q 2444 834 2444 1013 
Q 2444 1163 2330 1236 
Q 2216 1309 1875 1350 
L 1678 1375 
Q 931 1469 631 1722 
Q 331 1975 331 2491 
Q 331 3047 712 3315 
Q 1094 3584 1881 3584 
Q 2191 3584 2531 3537 
Q 2872 3491 3272 3391 
z
" transform="scale(0.015625)"/>
      <path id="DejaVuSans-Bold-69" d="M 538 3500 
L 1656 3500 
L 1656 0 
L 538 0 
L 538 3500 
z
M 538 4863 
L 1656 4863 
L 1656 3950 
L 538 3950 
L 538 4863 
z
" transform="scale(0.015625)"/>
      <path id="DejaVuSans-Bold-79" d="M 78 3500 
L 1197 3500 
L 2138 1125 
L 2938 3500 
L 4056 3500 
L 2584 -331 
Q 2363 -916 2067 -1148 
Q 1772 -1381 1288 -1381 
L 641 -1381 
L 641 -647 
L 991 -647 
Q 1275 -647 1404 -556 
Q 1534 -466 1606 -231 
L 1638 -134 
L 78 3500 
z
" transform="scale(0.015625)"/>
      <path id="DejaVuSans-Bold-3a" d="M 716 3500 
L 1844 3500 
L 1844 2291 
L 716 2291 
L 716 3500 
z
M 716 1209 
L 1844 1209 
L 1844 0 
L 716 0 
L 716 1209 
z
" transform="scale(0.015625)"/>
      <path id="DejaVuSans-Bold-62" d="M 2400 722 
Q 2759 722 2948 984 
Q 3138 1247 3138 1747 
Q 3138 2247 2948 2509 
Q 2759 2772 2400 2772 
Q 2041 2772 1848 2508 
Q 1656 2244 1656 1747 
Q 1656 1250 1848 986 
Q 2041 722 2400 722 
z
M 1656 2988 
Q 1888 3294 2169 3439 
Q 2450 3584 2816 3584 
Q 3463 3584 3878 3070 
Q 4294 2556 4294 1747 
Q 4294 938 3878 423 
Q 3463 -91 2816 -91 
Q 2450 -91 2169 54 
Q 1888 200 1656 506 
L 1656 0 
L 538 0 
L 538 4863 
L 1656 4863 
L 1656 2988 
z
" transform="scale(0.015625)"/>
      <path id="DejaVuSans-Bold-7a" d="M 366 3500 
L 3419 3500 
L 3419 2719 
L 1575 800 
L 3419 800 
L 3419 0 
L 288 0 
L 288 781 
L 2131 2700 
L 366 2700 
L 366 3500 
z
" transform="scale(0.015625)"/>
      <path id="DejaVuSans-Bold-65" d="M 4031 1759 
L 4031 1441 
L 1416 1441 
Q 1456 1047 1700 850 
Q 1944 653 2381 653 
Q 2734 653 3104 758 
Q 3475 863 3866 1075 
L 3866 213 
Q 3469 63 3072 -14 
Q 2675 -91 2278 -91 
Q 1328 -91 801 392 
Q 275 875 275 1747 
Q 275 2603 792 3093 
Q 1309 3584 2216 3584 
Q 3041 3584 3536 3087 
Q 4031 2591 4031 1759 
z
M 2881 2131 
Q 2881 2450 2695 2645 
Q 2509 2841 2209 2841 
Q 1884 2841 1681 2658 
Q 1478 2475 1428 2131 
L 2881 2131 
z
" transform="scale(0.015625)"/>
     </defs>
     <use xlink:href="#DejaVuSans-Bold-45"/>
     <use xlink:href="#DejaVuSans-Bold-72" x="68.310547"/>
     <use xlink:href="#DejaVuSans-Bold-72" x="117.626953"/>
     <use xlink:href="#DejaVuSans-Bold-6f" x="166.943359"/>
     <use xlink:href="#DejaVuSans-Bold-72" x="235.644531"/>
     <use xlink:href="#DejaVuSans-Bold-20" x="284.960938"/>
     <use xlink:href="#DejaVuSans-Bold-70" x="319.775391"/>
     <use xlink:href="#DejaVuSans-Bold-6c" x="391.357422"/>
     <use xlink:href="#DejaVuSans-Bold-6f" x="425.634766"/>
     <use xlink:href="#DejaVuSans-Bold-74" x="494.335938"/>
     <use xlink:href="#DejaVuSans-Bold-20" x="542.138672"/>
     <use xlink:href="#DejaVuSans-Bold-73" x="576.953125"/>
     <use xlink:href="#DejaVuSans-Bold-70" x="636.474609"/>
     <use xlink:href="#DejaVuSans-Bold-61" x="708.056641"/>
     <use xlink:href="#DejaVuSans-Bold-72" x="775.537109"/>
     <use xlink:href="#DejaVuSans-Bold-73" x="824.853516"/>
     <use xlink:href="#DejaVuSans-Bold-69" x="884.375"/>
     <use xlink:href="#DejaVuSans-Bold-74" x="918.652344"/>
     <use xlink:href="#DejaVuSans-Bold-79" x="966.455078"/>
     <use xlink:href="#DejaVuSans-Bold-3a" x="1031.640625"/>
     <use xlink:href="#DejaVuSans-Bold-37" x="1071.630859"/>
     <use xlink:href="#DejaVuSans-Bold-30" x="1141.210938"/>
     <use xlink:href="#DejaVuSans-Bold-20" x="1210.791016"/>
     <use xlink:href="#DejaVuSans-Bold-62" x="1245.605469"/>
     <use xlink:href="#DejaVuSans-Bold-61" x="1317.1875"/>
     <use xlink:href="#DejaVuSans-Bold-74" x="1384.667969"/>
     <use xlink:href="#DejaVuSans-Bold-63" x="1432.470703"/>
     <use xlink:href="#DejaVuSans-Bold-68" x="1491.748047"/>
     <use xlink:href="#DejaVuSans-Bold-73" x="1562.939453"/>
     <use xlink:href="#DejaVuSans-Bold-69" x="1622.460938"/>
     <use xlink:href="#DejaVuSans-Bold-7a" x="1656.738281"/>
     <use xlink:href="#DejaVuSans-Bold-65" x="1714.941406"/>
     <use xlink:href="#DejaVuSans-Bold-3a" x="1782.763672"/>
     <use xlink:href="#DejaVuSans-Bold-33" x="1822.753906"/>
     <use xlink:href="#DejaVuSans-Bold-30" x="1892.333984"/>
     <use xlink:href="#DejaVuSans-Bold-30" x="1961.914062"/>
     <use xlink:href="#DejaVuSans-Bold-30" x="2031.494141"/>
    </g>
   </g>
  </g>
 </g>
 <defs>
  <clipPath id="pb68f67d3c4">
   <rect x="57.6" y="41.472" width="357.12" height="266.112"/>
  </clipPath>
 </defs>
</svg>
