<?xml version="1.0" encoding="utf-8" standalone="no"?>
<!DOCTYPE svg PUBLIC "-//W3C//DTD SVG 1.1//EN"
  "http://www.w3.org/Graphics/SVG/1.1/DTD/svg11.dtd">
<svg xmlns:xlink="http://www.w3.org/1999/xlink" width="460.8pt" height="345.6pt" viewBox="0 0 460.8 345.6" xmlns="http://www.w3.org/2000/svg" version="1.1">
 <metadata>
  <rdf:RDF xmlns:dc="http://purl.org/dc/elements/1.1/" xmlns:cc="http://creativecommons.org/ns#" xmlns:rdf="http://www.w3.org/1999/02/22-rdf-syntax-ns#">
   <cc:Work>
    <dc:type rdf:resource="http://purl.org/dc/dcmitype/StillImage"/>
    <dc:date>2023-08-16T13:00:20.824556</dc:date>
    <dc:format>image/svg+xml</dc:format>
    <dc:creator>
     <cc:Agent>
      <dc:title>Matplotlib v3.5.3, https://matplotlib.org/</dc:title>
     </cc:Agent>
    </dc:creator>
   </cc:Work>
  </rdf:RDF>
 </metadata>
 <defs>
  <style type="text/css">*{stroke-linejoin: round; stroke-linecap: butt}</style>
 </defs>
 <g id="figure_1">
  <g id="patch_1">
   <path d="M 0 345.6 
L 460.8 345.6 
L 460.8 0 
L 0 0 
z
" style="fill: #ffffff"/>
  </g>
  <g id="axes_1">
   <g id="patch_2">
    <path d="M 57.6 307.584 
L 414.72 307.584 
L 414.72 41.472 
L 57.6 41.472 
z
" style="fill: #ffffff"/>
   </g>
   <g id="matplotlib.axis_1">
    <g id="xtick_1">
     <g id="line2d_1">
      <defs>
       <path id="medc1f06dd9" d="M 0 0 
L 0 3.5 
" style="stroke: #000000; stroke-width: 0.8"/>
      </defs>
      <g>
       <use xlink:href="#medc1f06dd9" x="73.832727" y="307.584" style="stroke: #000000; stroke-width: 0.8"/>
      </g>
     </g>
     <g id="text_1">
      <!-- 0.0 -->
      <g transform="translate(63.20429 323.702125)scale(0.12 -0.12)">
       <defs>
        <path id="DejaVuSans-Bold-30" d="M 2944 2338 
Q 2944 3213 2780 3570 
Q 2616 3928 2228 3928 
Q 1841 3928 1675 3570 
Q 1509 3213 1509 2338 
Q 1509 1453 1675 1090 
Q 1841 728 2228 728 
Q 2613 728 2778 1090 
Q 2944 1453 2944 2338 
z
M 4147 2328 
Q 4147 1169 3647 539 
Q 3147 -91 2228 -91 
Q 1306 -91 806 539 
Q 306 1169 306 2328 
Q 306 3491 806 4120 
Q 1306 4750 2228 4750 
Q 3147 4750 3647 4120 
Q 4147 3491 4147 2328 
z
" transform="scale(0.015625)"/>
        <path id="DejaVuSans-Bold-2e" d="M 653 1209 
L 1778 1209 
L 1778 0 
L 653 0 
L 653 1209 
z
" transform="scale(0.015625)"/>
       </defs>
       <use xlink:href="#DejaVuSans-Bold-30"/>
       <use xlink:href="#DejaVuSans-Bold-2e" x="69.580078"/>
       <use xlink:href="#DejaVuSans-Bold-30" x="107.568359"/>
      </g>
     </g>
    </g>
    <g id="xtick_2">
     <g id="line2d_2">
      <g>
       <use xlink:href="#medc1f06dd9" x="127.941818" y="307.584" style="stroke: #000000; stroke-width: 0.8"/>
      </g>
     </g>
     <g id="text_2">
      <!-- 5.0 -->
      <g transform="translate(117.313381 323.702125)scale(0.12 -0.12)">
       <defs>
        <path id="DejaVuSans-Bold-35" d="M 678 4666 
L 3669 4666 
L 3669 3781 
L 1638 3781 
L 1638 3059 
Q 1775 3097 1914 3117 
Q 2053 3138 2203 3138 
Q 3056 3138 3531 2711 
Q 4006 2284 4006 1522 
Q 4006 766 3489 337 
Q 2972 -91 2053 -91 
Q 1656 -91 1267 -14 
Q 878 63 494 219 
L 494 1166 
Q 875 947 1217 837 
Q 1559 728 1863 728 
Q 2300 728 2551 942 
Q 2803 1156 2803 1522 
Q 2803 1891 2551 2103 
Q 2300 2316 1863 2316 
Q 1603 2316 1309 2248 
Q 1016 2181 678 2041 
L 678 4666 
z
" transform="scale(0.015625)"/>
       </defs>
       <use xlink:href="#DejaVuSans-Bold-35"/>
       <use xlink:href="#DejaVuSans-Bold-2e" x="69.580078"/>
       <use xlink:href="#DejaVuSans-Bold-30" x="107.568359"/>
      </g>
     </g>
    </g>
    <g id="xtick_3">
     <g id="line2d_3">
      <g>
       <use xlink:href="#medc1f06dd9" x="182.050909" y="307.584" style="stroke: #000000; stroke-width: 0.8"/>
      </g>
     </g>
     <g id="text_3">
      <!-- 10.0 -->
      <g transform="translate(167.247784 323.702125)scale(0.12 -0.12)">
       <defs>
        <path id="DejaVuSans-Bold-31" d="M 750 831 
L 1813 831 
L 1813 3847 
L 722 3622 
L 722 4441 
L 1806 4666 
L 2950 4666 
L 2950 831 
L 4013 831 
L 4013 0 
L 750 0 
L 750 831 
z
" transform="scale(0.015625)"/>
       </defs>
       <use xlink:href="#DejaVuSans-Bold-31"/>
       <use xlink:href="#DejaVuSans-Bold-30" x="69.580078"/>
       <use xlink:href="#DejaVuSans-Bold-2e" x="139.160156"/>
       <use xlink:href="#DejaVuSans-Bold-30" x="177.148438"/>
      </g>
     </g>
    </g>
    <g id="xtick_4">
     <g id="line2d_4">
      <g>
       <use xlink:href="#medc1f06dd9" x="236.16" y="307.584" style="stroke: #000000; stroke-width: 0.8"/>
      </g>
     </g>
     <g id="text_4">
      <!-- 15.0 -->
      <g transform="translate(221.356875 323.702125)scale(0.12 -0.12)">
       <use xlink:href="#DejaVuSans-Bold-31"/>
       <use xlink:href="#DejaVuSans-Bold-35" x="69.580078"/>
       <use xlink:href="#DejaVuSans-Bold-2e" x="139.160156"/>
       <use xlink:href="#DejaVuSans-Bold-30" x="177.148438"/>
      </g>
     </g>
    </g>
    <g id="xtick_5">
     <g id="line2d_5">
      <g>
       <use xlink:href="#medc1f06dd9" x="290.269091" y="307.584" style="stroke: #000000; stroke-width: 0.8"/>
      </g>
     </g>
     <g id="text_5">
      <!-- 20.0 -->
      <g transform="translate(275.465966 323.702125)scale(0.12 -0.12)">
       <defs>
        <path id="DejaVuSans-Bold-32" d="M 1844 884 
L 3897 884 
L 3897 0 
L 506 0 
L 506 884 
L 2209 2388 
Q 2438 2594 2547 2791 
Q 2656 2988 2656 3200 
Q 2656 3528 2436 3728 
Q 2216 3928 1850 3928 
Q 1569 3928 1234 3808 
Q 900 3688 519 3450 
L 519 4475 
Q 925 4609 1322 4679 
Q 1719 4750 2100 4750 
Q 2938 4750 3402 4381 
Q 3866 4013 3866 3353 
Q 3866 2972 3669 2642 
Q 3472 2313 2841 1759 
L 1844 884 
z
" transform="scale(0.015625)"/>
       </defs>
       <use xlink:href="#DejaVuSans-Bold-32"/>
       <use xlink:href="#DejaVuSans-Bold-30" x="69.580078"/>
       <use xlink:href="#DejaVuSans-Bold-2e" x="139.160156"/>
       <use xlink:href="#DejaVuSans-Bold-30" x="177.148438"/>
      </g>
     </g>
    </g>
    <g id="xtick_6">
     <g id="line2d_6">
      <g>
       <use xlink:href="#medc1f06dd9" x="344.378182" y="307.584" style="stroke: #000000; stroke-width: 0.8"/>
      </g>
     </g>
     <g id="text_6">
      <!-- 25.0 -->
      <g transform="translate(329.575057 323.702125)scale(0.12 -0.12)">
       <use xlink:href="#DejaVuSans-Bold-32"/>
       <use xlink:href="#DejaVuSans-Bold-35" x="69.580078"/>
       <use xlink:href="#DejaVuSans-Bold-2e" x="139.160156"/>
       <use xlink:href="#DejaVuSans-Bold-30" x="177.148438"/>
      </g>
     </g>
    </g>
    <g id="xtick_7">
     <g id="line2d_7">
      <g>
       <use xlink:href="#medc1f06dd9" x="398.487273" y="307.584" style="stroke: #000000; stroke-width: 0.8"/>
      </g>
     </g>
     <g id="text_7">
      <!-- 30.0 -->
      <g transform="translate(383.684148 323.702125)scale(0.12 -0.12)">
       <defs>
        <path id="DejaVuSans-Bold-33" d="M 2981 2516 
Q 3453 2394 3698 2092 
Q 3944 1791 3944 1325 
Q 3944 631 3412 270 
Q 2881 -91 1863 -91 
Q 1503 -91 1142 -33 
Q 781 25 428 141 
L 428 1069 
Q 766 900 1098 814 
Q 1431 728 1753 728 
Q 2231 728 2486 893 
Q 2741 1059 2741 1369 
Q 2741 1688 2480 1852 
Q 2219 2016 1709 2016 
L 1228 2016 
L 1228 2791 
L 1734 2791 
Q 2188 2791 2409 2933 
Q 2631 3075 2631 3366 
Q 2631 3634 2415 3781 
Q 2200 3928 1806 3928 
Q 1516 3928 1219 3862 
Q 922 3797 628 3669 
L 628 4550 
Q 984 4650 1334 4700 
Q 1684 4750 2022 4750 
Q 2931 4750 3382 4451 
Q 3834 4153 3834 3553 
Q 3834 3144 3618 2883 
Q 3403 2622 2981 2516 
z
" transform="scale(0.015625)"/>
       </defs>
       <use xlink:href="#DejaVuSans-Bold-33"/>
       <use xlink:href="#DejaVuSans-Bold-30" x="69.580078"/>
       <use xlink:href="#DejaVuSans-Bold-2e" x="139.160156"/>
       <use xlink:href="#DejaVuSans-Bold-30" x="177.148438"/>
      </g>
     </g>
    </g>
    <g id="text_8">
     <!-- Epoch -->
     <g transform="translate(212.425625 340.835562)scale(0.14 -0.14)">
      <defs>
       <path id="DejaVuSans-Bold-45" d="M 588 4666 
L 3834 4666 
L 3834 3756 
L 1791 3756 
L 1791 2888 
L 3713 2888 
L 3713 1978 
L 1791 1978 
L 1791 909 
L 3903 909 
L 3903 0 
L 588 0 
L 588 4666 
z
" transform="scale(0.015625)"/>
       <path id="DejaVuSans-Bold-70" d="M 1656 506 
L 1656 -1331 
L 538 -1331 
L 538 3500 
L 1656 3500 
L 1656 2988 
Q 1888 3294 2169 3439 
Q 2450 3584 2816 3584 
Q 3463 3584 3878 3070 
Q 4294 2556 4294 1747 
Q 4294 938 3878 423 
Q 3463 -91 2816 -91 
Q 2450 -91 2169 54 
Q 1888 200 1656 506 
z
M 2400 2772 
Q 2041 2772 1848 2508 
Q 1656 2244 1656 1747 
Q 1656 1250 1848 986 
Q 2041 722 2400 722 
Q 2759 722 2948 984 
Q 3138 1247 3138 1747 
Q 3138 2247 2948 2509 
Q 2759 2772 2400 2772 
z
" transform="scale(0.015625)"/>
       <path id="DejaVuSans-Bold-6f" d="M 2203 2784 
Q 1831 2784 1636 2517 
Q 1441 2250 1441 1747 
Q 1441 1244 1636 976 
Q 1831 709 2203 709 
Q 2569 709 2762 976 
Q 2956 1244 2956 1747 
Q 2956 2250 2762 2517 
Q 2569 2784 2203 2784 
z
M 2203 3584 
Q 3106 3584 3614 3096 
Q 4122 2609 4122 1747 
Q 4122 884 3614 396 
Q 3106 -91 2203 -91 
Q 1297 -91 786 396 
Q 275 884 275 1747 
Q 275 2609 786 3096 
Q 1297 3584 2203 3584 
z
" transform="scale(0.015625)"/>
       <path id="DejaVuSans-Bold-63" d="M 3366 3391 
L 3366 2478 
Q 3138 2634 2908 2709 
Q 2678 2784 2431 2784 
Q 1963 2784 1702 2511 
Q 1441 2238 1441 1747 
Q 1441 1256 1702 982 
Q 1963 709 2431 709 
Q 2694 709 2930 787 
Q 3166 866 3366 1019 
L 3366 103 
Q 3103 6 2833 -42 
Q 2563 -91 2291 -91 
Q 1344 -91 809 395 
Q 275 881 275 1747 
Q 275 2613 809 3098 
Q 1344 3584 2291 3584 
Q 2566 3584 2833 3536 
Q 3100 3488 3366 3391 
z
" transform="scale(0.015625)"/>
       <path id="DejaVuSans-Bold-68" d="M 4056 2131 
L 4056 0 
L 2931 0 
L 2931 347 
L 2931 1625 
Q 2931 2084 2911 2256 
Q 2891 2428 2841 2509 
Q 2775 2619 2662 2680 
Q 2550 2741 2406 2741 
Q 2056 2741 1856 2470 
Q 1656 2200 1656 1722 
L 1656 0 
L 538 0 
L 538 4863 
L 1656 4863 
L 1656 2988 
Q 1909 3294 2193 3439 
Q 2478 3584 2822 3584 
Q 3428 3584 3742 3212 
Q 4056 2841 4056 2131 
z
" transform="scale(0.015625)"/>
      </defs>
      <use xlink:href="#DejaVuSans-Bold-45"/>
      <use xlink:href="#DejaVuSans-Bold-70" x="68.310547"/>
      <use xlink:href="#DejaVuSans-Bold-6f" x="139.892578"/>
      <use xlink:href="#DejaVuSans-Bold-63" x="208.59375"/>
      <use xlink:href="#DejaVuSans-Bold-68" x="267.871094"/>
     </g>
    </g>
   </g>
   <g id="matplotlib.axis_2">
    <g id="ytick_1">
     <g id="line2d_8">
      <defs>
       <path id="mde23248646" d="M 0 0 
L -3.5 0 
" style="stroke: #000000; stroke-width: 0.8"/>
      </defs>
      <g>
       <use xlink:href="#mde23248646" x="57.6" y="282.528494" style="stroke: #000000; stroke-width: 0.8"/>
      </g>
     </g>
     <g id="text_9">
      <!-- 0.0035 -->
      <g transform="translate(4.295 287.087556)scale(0.12 -0.12)">
       <use xlink:href="#DejaVuSans-Bold-30"/>
       <use xlink:href="#DejaVuSans-Bold-2e" x="69.580078"/>
       <use xlink:href="#DejaVuSans-Bold-30" x="107.568359"/>
       <use xlink:href="#DejaVuSans-Bold-30" x="177.148438"/>
       <use xlink:href="#DejaVuSans-Bold-33" x="246.728516"/>
       <use xlink:href="#DejaVuSans-Bold-35" x="316.308594"/>
      </g>
     </g>
    </g>
    <g id="ytick_2">
     <g id="line2d_9">
      <g>
       <use xlink:href="#mde23248646" x="57.6" y="251.691203" style="stroke: #000000; stroke-width: 0.8"/>
      </g>
     </g>
     <g id="text_10">
      <!-- 0.004 -->
      <g transform="translate(12.644375 256.250266)scale(0.12 -0.12)">
       <defs>
        <path id="DejaVuSans-Bold-34" d="M 2356 3675 
L 1038 1722 
L 2356 1722 
L 2356 3675 
z
M 2156 4666 
L 3494 4666 
L 3494 1722 
L 4159 1722 
L 4159 850 
L 3494 850 
L 3494 0 
L 2356 0 
L 2356 850 
L 288 850 
L 288 1881 
L 2156 4666 
z
" transform="scale(0.015625)"/>
       </defs>
       <use xlink:href="#DejaVuSans-Bold-30"/>
       <use xlink:href="#DejaVuSans-Bold-2e" x="69.580078"/>
       <use xlink:href="#DejaVuSans-Bold-30" x="107.568359"/>
       <use xlink:href="#DejaVuSans-Bold-30" x="177.148438"/>
       <use xlink:href="#DejaVuSans-Bold-34" x="246.728516"/>
      </g>
     </g>
    </g>
    <g id="ytick_3">
     <g id="line2d_10">
      <g>
       <use xlink:href="#mde23248646" x="57.6" y="220.853912" style="stroke: #000000; stroke-width: 0.8"/>
      </g>
     </g>
     <g id="text_11">
      <!-- 0.0045 -->
      <g transform="translate(4.295 225.412975)scale(0.12 -0.12)">
       <use xlink:href="#DejaVuSans-Bold-30"/>
       <use xlink:href="#DejaVuSans-Bold-2e" x="69.580078"/>
       <use xlink:href="#DejaVuSans-Bold-30" x="107.568359"/>
       <use xlink:href="#DejaVuSans-Bold-30" x="177.148438"/>
       <use xlink:href="#DejaVuSans-Bold-34" x="246.728516"/>
       <use xlink:href="#DejaVuSans-Bold-35" x="316.308594"/>
      </g>
     </g>
    </g>
    <g id="ytick_4">
     <g id="line2d_11">
      <g>
       <use xlink:href="#mde23248646" x="57.6" y="190.016622" style="stroke: #000000; stroke-width: 0.8"/>
      </g>
     </g>
     <g id="text_12">
      <!-- 0.005 -->
      <g transform="translate(12.644375 194.575684)scale(0.12 -0.12)">
       <use xlink:href="#DejaVuSans-Bold-30"/>
       <use xlink:href="#DejaVuSans-Bold-2e" x="69.580078"/>
       <use xlink:href="#DejaVuSans-Bold-30" x="107.568359"/>
       <use xlink:href="#DejaVuSans-Bold-30" x="177.148438"/>
       <use xlink:href="#DejaVuSans-Bold-35" x="246.728516"/>
      </g>
     </g>
    </g>
    <g id="ytick_5">
     <g id="line2d_12">
      <g>
       <use xlink:href="#mde23248646" x="57.6" y="159.179331" style="stroke: #000000; stroke-width: 0.8"/>
      </g>
     </g>
     <g id="text_13">
      <!-- 0.0055 -->
      <g transform="translate(4.295 163.738393)scale(0.12 -0.12)">
       <use xlink:href="#DejaVuSans-Bold-30"/>
       <use xlink:href="#DejaVuSans-Bold-2e" x="69.580078"/>
       <use xlink:href="#DejaVuSans-Bold-30" x="107.568359"/>
       <use xlink:href="#DejaVuSans-Bold-30" x="177.148438"/>
       <use xlink:href="#DejaVuSans-Bold-35" x="246.728516"/>
       <use xlink:href="#DejaVuSans-Bold-35" x="316.308594"/>
      </g>
     </g>
    </g>
    <g id="ytick_6">
     <g id="line2d_13">
      <g>
       <use xlink:href="#mde23248646" x="57.6" y="128.34204" style="stroke: #000000; stroke-width: 0.8"/>
      </g>
     </g>
     <g id="text_14">
      <!-- 0.006 -->
      <g transform="translate(12.644375 132.901103)scale(0.12 -0.12)">
       <defs>
        <path id="DejaVuSans-Bold-36" d="M 2316 2303 
Q 2000 2303 1842 2098 
Q 1684 1894 1684 1484 
Q 1684 1075 1842 870 
Q 2000 666 2316 666 
Q 2634 666 2792 870 
Q 2950 1075 2950 1484 
Q 2950 1894 2792 2098 
Q 2634 2303 2316 2303 
z
M 3803 4544 
L 3803 3681 
Q 3506 3822 3243 3889 
Q 2981 3956 2731 3956 
Q 2194 3956 1894 3657 
Q 1594 3359 1544 2772 
Q 1750 2925 1990 3001 
Q 2231 3078 2516 3078 
Q 3231 3078 3670 2659 
Q 4109 2241 4109 1563 
Q 4109 813 3618 361 
Q 3128 -91 2303 -91 
Q 1394 -91 895 523 
Q 397 1138 397 2266 
Q 397 3422 980 4083 
Q 1563 4744 2578 4744 
Q 2900 4744 3203 4694 
Q 3506 4644 3803 4544 
z
" transform="scale(0.015625)"/>
       </defs>
       <use xlink:href="#DejaVuSans-Bold-30"/>
       <use xlink:href="#DejaVuSans-Bold-2e" x="69.580078"/>
       <use xlink:href="#DejaVuSans-Bold-30" x="107.568359"/>
       <use xlink:href="#DejaVuSans-Bold-30" x="177.148438"/>
       <use xlink:href="#DejaVuSans-Bold-36" x="246.728516"/>
      </g>
     </g>
    </g>
    <g id="ytick_7">
     <g id="line2d_14">
      <g>
       <use xlink:href="#mde23248646" x="57.6" y="97.504749" style="stroke: #000000; stroke-width: 0.8"/>
      </g>
     </g>
     <g id="text_15">
      <!-- 0.0065 -->
      <g transform="translate(4.295 102.063812)scale(0.12 -0.12)">
       <use xlink:href="#DejaVuSans-Bold-30"/>
       <use xlink:href="#DejaVuSans-Bold-2e" x="69.580078"/>
       <use xlink:href="#DejaVuSans-Bold-30" x="107.568359"/>
       <use xlink:href="#DejaVuSans-Bold-30" x="177.148438"/>
       <use xlink:href="#DejaVuSans-Bold-36" x="246.728516"/>
       <use xlink:href="#DejaVuSans-Bold-35" x="316.308594"/>
      </g>
     </g>
    </g>
    <g id="ytick_8">
     <g id="line2d_15">
      <g>
       <use xlink:href="#mde23248646" x="57.6" y="66.667459" style="stroke: #000000; stroke-width: 0.8"/>
      </g>
     </g>
     <g id="text_16">
      <!-- 0.007 -->
      <g transform="translate(12.644375 71.226521)scale(0.12 -0.12)">
       <defs>
        <path id="DejaVuSans-Bold-37" d="M 428 4666 
L 3944 4666 
L 3944 3988 
L 2125 0 
L 953 0 
L 2675 3781 
L 428 3781 
L 428 4666 
z
" transform="scale(0.015625)"/>
       </defs>
       <use xlink:href="#DejaVuSans-Bold-30"/>
       <use xlink:href="#DejaVuSans-Bold-2e" x="69.580078"/>
       <use xlink:href="#DejaVuSans-Bold-30" x="107.568359"/>
       <use xlink:href="#DejaVuSans-Bold-30" x="177.148438"/>
       <use xlink:href="#DejaVuSans-Bold-37" x="246.728516"/>
      </g>
     </g>
    </g>
    <g id="text_17">
     <!-- Error (a.u.) -->
     <g transform="translate(-2.616563 218.334875)rotate(-90)scale(0.14 -0.14)">
      <defs>
       <path id="DejaVuSans-Bold-72" d="M 3138 2547 
Q 2991 2616 2845 2648 
Q 2700 2681 2553 2681 
Q 2122 2681 1889 2404 
Q 1656 2128 1656 1613 
L 1656 0 
L 538 0 
L 538 3500 
L 1656 3500 
L 1656 2925 
Q 1872 3269 2151 3426 
Q 2431 3584 2822 3584 
Q 2878 3584 2943 3579 
Q 3009 3575 3134 3559 
L 3138 2547 
z
" transform="scale(0.015625)"/>
       <path id="DejaVuSans-Bold-20" transform="scale(0.015625)"/>
       <path id="DejaVuSans-Bold-28" d="M 2413 -844 
L 1484 -844 
Q 1006 -72 778 623 
Q 550 1319 550 2003 
Q 550 2688 779 3389 
Q 1009 4091 1484 4856 
L 2413 4856 
Q 2013 4116 1813 3408 
Q 1613 2700 1613 2009 
Q 1613 1319 1811 609 
Q 2009 -100 2413 -844 
z
" transform="scale(0.015625)"/>
       <path id="DejaVuSans-Bold-61" d="M 2106 1575 
Q 1756 1575 1579 1456 
Q 1403 1338 1403 1106 
Q 1403 894 1545 773 
Q 1688 653 1941 653 
Q 2256 653 2472 879 
Q 2688 1106 2688 1447 
L 2688 1575 
L 2106 1575 
z
M 3816 1997 
L 3816 0 
L 2688 0 
L 2688 519 
Q 2463 200 2181 54 
Q 1900 -91 1497 -91 
Q 953 -91 614 226 
Q 275 544 275 1050 
Q 275 1666 698 1953 
Q 1122 2241 2028 2241 
L 2688 2241 
L 2688 2328 
Q 2688 2594 2478 2717 
Q 2269 2841 1825 2841 
Q 1466 2841 1156 2769 
Q 847 2697 581 2553 
L 581 3406 
Q 941 3494 1303 3539 
Q 1666 3584 2028 3584 
Q 2975 3584 3395 3211 
Q 3816 2838 3816 1997 
z
" transform="scale(0.015625)"/>
       <path id="DejaVuSans-Bold-75" d="M 500 1363 
L 500 3500 
L 1625 3500 
L 1625 3150 
Q 1625 2866 1622 2436 
Q 1619 2006 1619 1863 
Q 1619 1441 1641 1255 
Q 1663 1069 1716 984 
Q 1784 875 1895 815 
Q 2006 756 2150 756 
Q 2500 756 2700 1025 
Q 2900 1294 2900 1772 
L 2900 3500 
L 4019 3500 
L 4019 0 
L 2900 0 
L 2900 506 
Q 2647 200 2364 54 
Q 2081 -91 1741 -91 
Q 1134 -91 817 281 
Q 500 653 500 1363 
z
" transform="scale(0.015625)"/>
       <path id="DejaVuSans-Bold-29" d="M 513 -844 
Q 913 -100 1113 609 
Q 1313 1319 1313 2009 
Q 1313 2700 1113 3408 
Q 913 4116 513 4856 
L 1441 4856 
Q 1916 4091 2145 3389 
Q 2375 2688 2375 2003 
Q 2375 1319 2147 623 
Q 1919 -72 1441 -844 
L 513 -844 
z
" transform="scale(0.015625)"/>
      </defs>
      <use xlink:href="#DejaVuSans-Bold-45"/>
      <use xlink:href="#DejaVuSans-Bold-72" x="68.310547"/>
      <use xlink:href="#DejaVuSans-Bold-72" x="117.626953"/>
      <use xlink:href="#DejaVuSans-Bold-6f" x="166.943359"/>
      <use xlink:href="#DejaVuSans-Bold-72" x="235.644531"/>
      <use xlink:href="#DejaVuSans-Bold-20" x="284.960938"/>
      <use xlink:href="#DejaVuSans-Bold-28" x="319.775391"/>
      <use xlink:href="#DejaVuSans-Bold-61" x="365.478516"/>
      <use xlink:href="#DejaVuSans-Bold-2e" x="432.958984"/>
      <use xlink:href="#DejaVuSans-Bold-75" x="470.947266"/>
      <use xlink:href="#DejaVuSans-Bold-2e" x="542.138672"/>
      <use xlink:href="#DejaVuSans-Bold-29" x="580.126953"/>
     </g>
    </g>
   </g>
   <g id="line2d_16">
    <path d="M 73.832727 53.568 
L 74.374722 75.973057 
L 74.916716 89.762954 
L 75.45871 88.664356 
L 76.000704 112.240949 
L 76.542698 106.807236 
L 77.626687 130.312196 
L 78.168681 146.410726 
L 78.710675 144.445024 
L 79.25267 151.542018 
L 79.794664 155.676701 
L 80.336658 162.285002 
L 80.878652 171.550822 
L 81.420647 167.800929 
L 81.962641 185.40413 
L 82.504635 175.569322 
L 83.046629 183.571211 
L 83.588623 187.719084 
L 84.130618 188.596315 
L 84.672612 193.58795 
L 85.214606 196.528374 
L 85.7566 206.380662 
L 86.298595 200.141542 
L 86.840589 215.779572 
L 87.382583 204.19085 
L 88.466572 213.67006 
L 89.008566 221.438765 
L 89.55056 215.220164 
L 90.092554 218.657092 
L 90.634548 217.85593 
L 91.176543 220.687035 
L 91.718537 225.156051 
L 92.260531 218.966841 
L 92.802525 231.783024 
L 93.34452 219.767753 
L 93.886514 226.250358 
L 94.428508 226.791454 
L 94.970502 225.763108 
L 95.512497 228.497119 
L 96.054491 230.28594 
L 96.596485 238.244877 
L 97.138479 231.773487 
L 97.680474 244.285335 
L 98.222468 232.867301 
L 99.306456 239.668693 
L 99.84845 246.493453 
L 100.390445 240.21109 
L 100.932439 242.273904 
L 101.474433 240.63393 
L 102.016427 242.909167 
L 102.558422 246.925151 
L 103.100416 240.647219 
L 103.64241 251.574119 
L 104.184404 239.831386 
L 104.726399 245.398151 
L 105.810387 244.252166 
L 106.352381 245.66194 
L 106.894375 247.57868 
L 107.43637 254.230157 
L 107.978364 247.343002 
L 108.520358 258.7954 
L 109.062352 248.926285 
L 109.604347 250.680888 
L 110.146341 254.516526 
L 110.688335 260.650511 
L 111.230329 253.202153 
L 111.772324 254.59939 
L 112.314318 252.968152 
L 112.856312 254.598085 
L 113.398306 258.690443 
L 113.940301 252.028401 
L 114.482295 262.384314 
L 115.024289 251.034745 
L 115.566283 255.350006 
L 116.108277 254.557334 
L 116.650272 253.420332 
L 117.192266 254.733503 
L 117.73426 256.668368 
L 118.276254 263.462325 
L 118.818249 255.975612 
L 119.360243 267.358298 
L 119.902237 257.376974 
L 120.444231 258.990638 
L 120.986226 262.881275 
L 121.52822 268.2919 
L 122.070214 260.932304 
L 122.612208 262.464664 
L 123.154202 260.671892 
L 123.696197 261.831427 
L 124.238191 266.140386 
L 124.780185 259.31281 
L 125.322179 269.064875 
L 125.864174 258.2806 
L 126.406168 262.914468 
L 126.948162 261.972757 
L 127.490156 260.535763 
L 128.032151 261.403803 
L 128.574145 263.412416 
L 129.116139 270.317004 
L 129.658133 262.049465 
L 130.200127 273.729049 
L 130.742122 263.746136 
L 131.284116 265.318187 
L 131.82611 268.544717 
L 132.368104 274.264132 
L 132.910099 266.766571 
L 133.452093 268.090156 
L 133.994087 266.041016 
L 134.536081 267.451405 
L 135.078076 270.922429 
L 135.62007 264.526808 
L 136.162064 274.219827 
L 136.704058 263.20744 
L 137.246053 267.72045 
L 138.330041 265.260072 
L 138.872035 265.855372 
L 139.414029 267.656167 
L 139.956024 274.691226 
L 140.498018 266.246462 
L 141.040012 277.913885 
L 141.582006 267.759411 
L 142.124001 269.19556 
L 142.665995 272.432068 
L 143.207989 278.217334 
L 143.749983 270.662332 
L 144.291978 272.126648 
L 144.833972 270.272407 
L 145.375966 271.617263 
L 145.91796 274.918539 
L 146.459954 268.41511 
L 147.001949 278.024831 
L 147.543943 267.081708 
L 148.085937 271.698407 
L 149.169926 269.136606 
L 149.71192 269.762407 
L 150.253914 271.740955 
L 150.795908 278.187446 
L 151.337903 269.861661 
L 151.879897 281.253959 
L 152.421891 271.20636 
L 152.963885 272.580985 
L 153.505879 276.147922 
L 154.047874 281.455859 
L 154.589868 274.11014 
L 155.131862 275.460691 
L 155.673856 273.757852 
L 156.215851 274.671369 
L 156.757845 278.077367 
L 157.299839 271.740381 
L 157.841833 281.138415 
L 158.383828 270.507713 
L 158.925822 274.674599 
L 159.467816 273.525791 
L 160.00981 271.991794 
L 160.551805 272.845713 
L 161.093799 274.628271 
L 161.635793 280.980857 
L 162.177787 272.423955 
L 162.719781 283.823708 
L 163.261776 273.853084 
L 163.80377 275.174604 
L 164.345764 278.459835 
L 164.887758 283.732765 
L 165.429753 276.536463 
L 165.971747 278.047676 
L 166.513741 276.065611 
L 167.055735 276.720495 
L 167.59773 280.40264 
L 168.139724 273.980546 
L 168.681718 283.312159 
L 169.223712 272.660164 
L 169.765706 276.701174 
L 170.307701 275.210346 
L 170.849695 274.084299 
L 171.391689 274.87904 
L 171.933683 276.520716 
L 172.475678 282.825828 
L 173.017672 274.059483 
L 173.559666 285.77132 
L 174.10166 275.651968 
L 174.643655 276.969564 
L 175.185649 279.982994 
L 175.727643 285.132912 
L 176.269637 278.253554 
L 176.811632 279.645573 
L 177.353626 277.727543 
L 177.89562 278.120445 
L 178.437614 282.143028 
L 178.979608 275.153344 
L 179.521603 284.95556 
L 180.063597 274.255449 
L 180.605591 278.136481 
L 181.68958 275.399437 
L 182.231574 276.094117 
L 182.773568 277.885614 
L 183.315562 284.18344 
L 183.857557 275.420273 
L 184.399551 286.765394 
L 184.941545 276.824761 
L 185.483539 278.10279 
L 186.025533 281.333758 
L 186.567528 286.26921 
L 187.109522 279.686357 
L 187.651516 280.851703 
L 188.19351 278.876131 
L 188.735505 279.466365 
L 189.277499 283.286488 
L 189.819493 276.178917 
L 190.361487 285.900807 
L 190.903482 275.324916 
L 191.445476 278.951783 
L 192.529464 276.468372 
L 193.071458 277.319831 
L 193.613453 278.977831 
L 194.155447 285.164255 
L 194.697441 276.498459 
L 195.239435 287.998131 
L 195.78143 277.956192 
L 196.323424 278.928706 
L 196.865418 282.292103 
L 197.407412 287.374741 
L 197.949407 280.910549 
L 198.491401 281.951202 
L 199.033395 279.750685 
L 199.575389 280.27301 
L 200.117384 284.37248 
L 200.659378 277.13099 
L 201.201372 286.783397 
L 201.743366 275.990413 
L 202.28536 279.622785 
L 203.369349 277.191975 
L 203.911343 278.180707 
L 204.453337 279.688706 
L 204.995332 285.824178 
L 205.537326 277.275745 
L 206.07932 288.495171 
L 206.621314 278.695788 
L 207.163309 279.945068 
L 207.705303 283.072742 
L 208.247297 288.044724 
L 208.789291 281.503152 
L 209.331285 282.752562 
L 209.87328 280.591526 
L 210.415274 281.026338 
L 210.957268 284.993455 
L 211.499262 277.482641 
L 212.041257 287.45804 
L 212.583251 276.76037 
L 213.125245 280.314019 
L 213.667239 279.219492 
L 214.209234 277.827491 
L 214.751228 278.957423 
L 215.293222 280.35981 
L 215.835216 286.714641 
L 216.377211 277.836709 
L 216.919205 289.49683 
L 217.461199 279.092233 
L 218.003193 280.577688 
L 218.545187 284.001256 
L 219.087182 288.870311 
L 219.629176 282.339283 
L 220.17117 283.379224 
L 220.713164 281.138925 
L 221.255159 281.658352 
L 221.797153 285.781746 
L 222.339147 278.218013 
L 222.881141 287.916787 
L 223.423136 277.235942 
L 223.96513 280.993432 
L 224.507124 279.912322 
L 225.049118 278.583186 
L 226.133107 281.250727 
L 226.675101 287.597778 
L 227.217095 278.754955 
L 227.759089 290.199188 
L 228.301084 279.672644 
L 228.843078 281.391282 
L 229.385072 284.723134 
L 229.927066 289.452148 
L 230.469061 282.744518 
L 231.011055 284.220315 
L 231.553049 282.096554 
L 232.095043 282.44259 
L 232.637037 286.543366 
L 233.179032 278.923751 
L 233.721026 288.808624 
L 234.26302 277.814964 
L 234.805014 281.837001 
L 235.889003 279.247912 
L 236.972991 282.076575 
L 237.514986 288.130974 
L 238.05698 279.209673 
L 238.598974 290.625272 
L 239.140968 280.390991 
L 239.682963 281.889337 
L 240.224957 285.241852 
L 240.766951 290.173323 
L 241.308945 283.452294 
L 241.850939 284.854051 
L 242.392934 282.633155 
L 242.934928 283.175832 
L 243.476922 287.194668 
L 244.018916 279.870468 
L 244.560911 289.337943 
L 245.102905 278.468052 
L 245.644899 282.239755 
L 246.186893 281.283172 
L 246.728888 279.689313 
L 247.270882 280.886503 
L 247.812876 282.74273 
L 248.35487 288.687624 
L 248.896864 279.796961 
L 249.438859 291.209489 
L 249.980853 280.922961 
L 250.522847 282.192726 
L 251.064841 285.583068 
L 251.606836 290.781925 
L 252.14883 283.839974 
L 252.690824 285.265309 
L 253.232818 283.138865 
L 253.774813 283.75469 
L 254.316807 287.595897 
L 254.858801 280.550651 
L 255.400795 289.860889 
L 255.942789 279.217564 
L 256.484784 282.786491 
L 257.026778 281.917115 
L 257.568772 280.092003 
L 258.652761 283.278195 
L 259.194755 289.15741 
L 259.736749 280.095119 
L 260.278743 291.758308 
L 260.820738 281.553238 
L 261.362732 282.875494 
L 261.904726 286.036733 
L 262.44672 291.630964 
L 262.988715 284.511801 
L 263.530709 285.72618 
L 264.072703 283.592174 
L 264.614697 284.391616 
L 265.156691 287.985502 
L 265.698686 281.114817 
L 266.24068 290.202489 
L 266.782674 279.936591 
L 267.324668 283.236551 
L 267.866663 282.407652 
L 268.408657 280.664908 
L 268.950651 281.944523 
L 269.492645 283.718359 
L 270.03464 289.862122 
L 270.576634 280.626303 
L 271.118628 292.112872 
L 271.660622 282.088786 
L 272.202616 283.367403 
L 272.744611 286.410795 
L 273.286605 292.059733 
L 273.828599 284.904108 
L 274.370593 286.218383 
L 274.912588 284.148065 
L 275.454582 284.841622 
L 275.996576 288.31601 
L 276.53857 281.626845 
L 277.080565 290.775921 
L 277.622559 280.326804 
L 278.164553 283.668426 
L 278.706547 282.850958 
L 279.248542 281.146353 
L 279.790536 282.454212 
L 280.33253 284.248636 
L 280.874524 290.27477 
L 281.416518 281.127484 
L 281.958513 292.470393 
L 282.500507 282.538358 
L 283.042501 283.540113 
L 283.584495 286.784148 
L 284.12649 292.429407 
L 284.668484 285.198877 
L 285.210478 286.630764 
L 285.752472 284.671679 
L 286.294467 285.150495 
L 286.836461 288.780028 
L 287.378455 282.151415 
L 287.920449 291.03712 
L 288.462443 281.005112 
L 289.004438 284.136976 
L 289.546432 283.246573 
L 290.088426 281.600306 
L 290.63042 282.860499 
L 291.172415 284.502781 
L 291.714409 290.643183 
L 292.256403 281.593364 
L 292.798397 292.99388 
L 293.340392 282.998852 
L 293.882386 284.203535 
L 294.42438 287.13933 
L 294.966374 292.753695 
L 295.508368 285.857446 
L 296.050363 286.889731 
L 296.592357 284.837217 
L 297.134351 285.648723 
L 297.676345 289.119335 
L 298.21834 282.622619 
L 298.760334 291.398548 
L 299.302328 281.440685 
L 299.844322 284.354924 
L 300.386317 283.514353 
L 300.928311 282.096078 
L 302.012299 285.090437 
L 302.554294 291.022969 
L 303.096288 281.99854 
L 303.638282 293.192496 
L 304.180276 283.260345 
L 304.72227 284.447446 
L 305.264265 287.531695 
L 305.806259 292.982924 
L 306.348253 286.291568 
L 306.890247 287.316594 
L 307.432242 285.465869 
L 307.974236 285.824679 
L 308.51623 289.4193 
L 309.058224 282.882854 
L 309.600219 291.62586 
L 310.142213 281.790495 
L 310.684207 284.918266 
L 311.226201 283.906387 
L 311.768195 282.509778 
L 312.31019 283.800857 
L 312.852184 285.386137 
L 313.394178 291.331986 
L 313.936172 282.281705 
L 314.478167 293.671792 
L 315.020161 283.690739 
L 315.562155 284.757656 
L 316.104149 287.922242 
L 316.646144 293.362382 
L 317.188138 286.535315 
L 317.730132 287.802673 
L 318.272126 285.869415 
L 318.814121 286.184362 
L 319.356115 289.644708 
L 319.898109 283.234402 
L 320.440103 291.901307 
L 320.982097 282.302601 
L 321.524092 285.166798 
L 322.066086 284.181956 
L 322.60808 282.851249 
L 323.150074 284.205364 
L 323.692069 285.880259 
L 324.234063 291.450039 
L 324.776057 282.522758 
L 325.318051 293.901757 
L 325.860046 284.046904 
L 326.40204 285.116086 
L 326.944034 288.080425 
L 327.486028 293.707792 
L 328.028022 286.786447 
L 328.570017 287.895236 
L 329.112011 286.19956 
L 329.654005 286.499056 
L 330.195999 289.958489 
L 330.737994 283.501229 
L 331.279988 292.104556 
L 331.821982 282.423408 
L 332.363976 285.359462 
L 333.447965 283.106708 
L 333.989959 284.336873 
L 334.531953 285.980301 
L 335.073947 291.821887 
L 335.615942 283.106218 
L 336.157936 294.322709 
L 336.69993 284.375898 
L 337.241924 285.533325 
L 337.783919 288.70249 
L 338.325913 293.971253 
L 338.867907 287.022183 
L 339.409901 288.11802 
L 339.951896 286.394195 
L 340.49389 286.70996 
L 341.035884 290.276926 
L 341.577878 283.760061 
L 342.119873 292.310289 
L 342.661867 282.800992 
L 343.203861 285.649576 
L 344.287849 283.403986 
L 345.371838 286.421899 
L 345.913832 292.082846 
L 346.455826 283.193139 
L 346.997821 294.587452 
L 347.539815 284.54271 
L 348.081809 285.979974 
L 348.623803 289.008283 
L 349.165798 294.30028 
L 349.707792 287.450081 
L 350.249786 288.470126 
L 350.79178 286.869394 
L 351.333774 287.039942 
L 351.875769 290.690344 
L 352.417763 284.137127 
L 352.959757 292.664638 
L 353.501751 283.227401 
L 354.043746 286.172966 
L 355.127734 283.668049 
L 356.211723 286.575105 
L 356.753717 292.259687 
L 357.295711 283.269326 
L 357.837705 294.695926 
L 358.379699 284.718831 
L 358.921694 286.102192 
L 359.463688 289.242546 
L 360.005682 294.434726 
L 360.547676 287.540097 
L 361.089671 288.594739 
L 361.631665 287.079129 
L 362.173659 287.130771 
L 362.715653 290.836895 
L 363.257648 284.180966 
L 363.799642 292.842015 
L 364.341636 283.315873 
L 364.88363 286.292247 
L 365.967619 283.799268 
L 367.051607 286.758294 
L 367.593601 292.491401 
L 368.135596 283.452967 
L 368.67759 294.933241 
L 369.219584 284.7586 
L 369.761578 286.5179 
L 370.303573 289.635676 
L 370.845567 294.695205 
L 371.387561 287.677149 
L 371.929555 288.833339 
L 372.47155 287.259841 
L 373.013544 287.330651 
L 373.555538 291.148011 
L 374.097532 284.334863 
L 374.639526 293.025532 
L 375.181521 283.492394 
L 375.723515 286.758344 
L 376.807503 283.992249 
L 377.891492 287.249738 
L 378.433486 292.704297 
L 378.97548 283.847482 
L 379.517475 295.228784 
L 380.059469 285.004279 
L 380.601463 286.651536 
L 381.143457 289.771803 
L 381.685452 295.051707 
L 382.227446 288.215172 
L 382.76944 288.944015 
L 383.311434 287.64878 
L 383.853428 287.487909 
L 384.395423 291.267476 
L 384.937417 284.627859 
L 385.479411 293.406621 
L 386.021405 283.877689 
L 386.5634 286.951613 
L 387.647388 284.166075 
L 388.189382 286.037506 
L 388.731377 287.44066 
L 389.273371 292.964412 
L 389.815365 284.010403 
L 390.357359 295.488 
L 390.899353 285.351892 
L 391.441348 286.755507 
L 391.983342 290.00933 
L 392.525336 295.246246 
L 393.06733 288.383157 
L 393.609325 289.23277 
L 394.151319 287.818764 
L 394.693313 287.632199 
L 395.235307 291.668219 
L 395.777302 284.733842 
L 396.319296 293.512006 
L 396.86129 283.962712 
L 397.403284 287.20053 
L 398.487273 284.364306 
L 398.487273 284.364306 
" clip-path="url(#p9c68a09dff)" style="fill: none; stroke: #1f77b4; stroke-width: 3; stroke-linecap: square"/>
   </g>
   <g id="patch_3">
    <path d="M 57.6 307.584 
L 57.6 41.472 
" style="fill: none; stroke: #000000; stroke-width: 3; stroke-linejoin: miter; stroke-linecap: square"/>
   </g>
   <g id="patch_4">
    <path d="M 414.72 307.584 
L 414.72 41.472 
" style="fill: none; stroke: #000000; stroke-width: 3; stroke-linejoin: miter; stroke-linecap: square"/>
   </g>
   <g id="patch_5">
    <path d="M 57.6 307.584 
L 414.72 307.584 
" style="fill: none; stroke: #000000; stroke-width: 3; stroke-linejoin: miter; stroke-linecap: square"/>
   </g>
   <g id="patch_6">
    <path d="M 57.6 41.472 
L 414.72 41.472 
" style="fill: none; stroke: #000000; stroke-width: 3; stroke-linejoin: miter; stroke-linecap: square"/>
   </g>
   <g id="text_18">
    <!-- Error plot sparsity:70 batchsize:3000_with_NesterovMomentum -->
    <g transform="translate(-51.1325 35.472)scale(0.16 -0.16)">
     <defs>
      <path id="DejaVuSans-Bold-6c" d="M 538 4863 
L 1656 4863 
L 1656 0 
L 538 0 
L 538 4863 
z
" transform="scale(0.015625)"/>
      <path id="DejaVuSans-Bold-74" d="M 1759 4494 
L 1759 3500 
L 2913 3500 
L 2913 2700 
L 1759 2700 
L 1759 1216 
Q 1759 972 1856 886 
Q 1953 800 2241 800 
L 2816 800 
L 2816 0 
L 1856 0 
Q 1194 0 917 276 
Q 641 553 641 1216 
L 641 2700 
L 84 2700 
L 84 3500 
L 641 3500 
L 641 4494 
L 1759 4494 
z
" transform="scale(0.015625)"/>
      <path id="DejaVuSans-Bold-73" d="M 3272 3391 
L 3272 2541 
Q 2913 2691 2578 2766 
Q 2244 2841 1947 2841 
Q 1628 2841 1473 2761 
Q 1319 2681 1319 2516 
Q 1319 2381 1436 2309 
Q 1553 2238 1856 2203 
L 2053 2175 
Q 2913 2066 3209 1816 
Q 3506 1566 3506 1031 
Q 3506 472 3093 190 
Q 2681 -91 1863 -91 
Q 1516 -91 1145 -36 
Q 775 19 384 128 
L 384 978 
Q 719 816 1070 734 
Q 1422 653 1784 653 
Q 2113 653 2278 743 
Q 2444 834 2444 1013 
Q 2444 1163 2330 1236 
Q 2216 1309 1875 1350 
L 1678 1375 
Q 931 1469 631 1722 
Q 331 1975 331 2491 
Q 331 3047 712 3315 
Q 1094 3584 1881 3584 
Q 2191 3584 2531 3537 
Q 2872 3491 3272 3391 
z
" transform="scale(0.015625)"/>
      <path id="DejaVuSans-Bold-69" d="M 538 3500 
L 1656 3500 
L 1656 0 
L 538 0 
L 538 3500 
z
M 538 4863 
L 1656 4863 
L 1656 3950 
L 538 3950 
L 538 4863 
z
" transform="scale(0.015625)"/>
      <path id="DejaVuSans-Bold-79" d="M 78 3500 
L 1197 3500 
L 2138 1125 
L 2938 3500 
L 4056 3500 
L 2584 -331 
Q 2363 -916 2067 -1148 
Q 1772 -1381 1288 -1381 
L 641 -1381 
L 641 -647 
L 991 -647 
Q 1275 -647 1404 -556 
Q 1534 -466 1606 -231 
L 1638 -134 
L 78 3500 
z
" transform="scale(0.015625)"/>
      <path id="DejaVuSans-Bold-3a" d="M 716 3500 
L 1844 3500 
L 1844 2291 
L 716 2291 
L 716 3500 
z
M 716 1209 
L 1844 1209 
L 1844 0 
L 716 0 
L 716 1209 
z
" transform="scale(0.015625)"/>
      <path id="DejaVuSans-Bold-62" d="M 2400 722 
Q 2759 722 2948 984 
Q 3138 1247 3138 1747 
Q 3138 2247 2948 2509 
Q 2759 2772 2400 2772 
Q 2041 2772 1848 2508 
Q 1656 2244 1656 1747 
Q 1656 1250 1848 986 
Q 2041 722 2400 722 
z
M 1656 2988 
Q 1888 3294 2169 3439 
Q 2450 3584 2816 3584 
Q 3463 3584 3878 3070 
Q 4294 2556 4294 1747 
Q 4294 938 3878 423 
Q 3463 -91 2816 -91 
Q 2450 -91 2169 54 
Q 1888 200 1656 506 
L 1656 0 
L 538 0 
L 538 4863 
L 1656 4863 
L 1656 2988 
z
" transform="scale(0.015625)"/>
      <path id="DejaVuSans-Bold-7a" d="M 366 3500 
L 3419 3500 
L 3419 2719 
L 1575 800 
L 3419 800 
L 3419 0 
L 288 0 
L 288 781 
L 2131 2700 
L 366 2700 
L 366 3500 
z
" transform="scale(0.015625)"/>
      <path id="DejaVuSans-Bold-65" d="M 4031 1759 
L 4031 1441 
L 1416 1441 
Q 1456 1047 1700 850 
Q 1944 653 2381 653 
Q 2734 653 3104 758 
Q 3475 863 3866 1075 
L 3866 213 
Q 3469 63 3072 -14 
Q 2675 -91 2278 -91 
Q 1328 -91 801 392 
Q 275 875 275 1747 
Q 275 2603 792 3093 
Q 1309 3584 2216 3584 
Q 3041 3584 3536 3087 
Q 4031 2591 4031 1759 
z
M 2881 2131 
Q 2881 2450 2695 2645 
Q 2509 2841 2209 2841 
Q 1884 2841 1681 2658 
Q 1478 2475 1428 2131 
L 2881 2131 
z
" transform="scale(0.015625)"/>
      <path id="DejaVuSans-Bold-5f" d="M 3200 -916 
L 3200 -1509 
L 0 -1509 
L 0 -916 
L 3200 -916 
z
" transform="scale(0.015625)"/>
      <path id="DejaVuSans-Bold-77" d="M 225 3500 
L 1313 3500 
L 1900 1088 
L 2491 3500 
L 3425 3500 
L 4013 1113 
L 4603 3500 
L 5691 3500 
L 4769 0 
L 3547 0 
L 2956 2406 
L 2369 0 
L 1147 0 
L 225 3500 
z
" transform="scale(0.015625)"/>
      <path id="DejaVuSans-Bold-4e" d="M 588 4666 
L 1931 4666 
L 3628 1466 
L 3628 4666 
L 4769 4666 
L 4769 0 
L 3425 0 
L 1728 3200 
L 1728 0 
L 588 0 
L 588 4666 
z
" transform="scale(0.015625)"/>
      <path id="DejaVuSans-Bold-76" d="M 97 3500 
L 1216 3500 
L 2088 1081 
L 2956 3500 
L 4078 3500 
L 2700 0 
L 1472 0 
L 97 3500 
z
" transform="scale(0.015625)"/>
      <path id="DejaVuSans-Bold-4d" d="M 588 4666 
L 2119 4666 
L 3181 2169 
L 4250 4666 
L 5778 4666 
L 5778 0 
L 4641 0 
L 4641 3413 
L 3566 897 
L 2803 897 
L 1728 3413 
L 1728 0 
L 588 0 
L 588 4666 
z
" transform="scale(0.015625)"/>
      <path id="DejaVuSans-Bold-6d" d="M 3781 2919 
Q 3994 3244 4286 3414 
Q 4578 3584 4928 3584 
Q 5531 3584 5847 3212 
Q 6163 2841 6163 2131 
L 6163 0 
L 5038 0 
L 5038 1825 
Q 5041 1866 5042 1909 
Q 5044 1953 5044 2034 
Q 5044 2406 4934 2573 
Q 4825 2741 4581 2741 
Q 4263 2741 4089 2478 
Q 3916 2216 3909 1719 
L 3909 0 
L 2784 0 
L 2784 1825 
Q 2784 2406 2684 2573 
Q 2584 2741 2328 2741 
Q 2006 2741 1831 2477 
Q 1656 2213 1656 1722 
L 1656 0 
L 531 0 
L 531 3500 
L 1656 3500 
L 1656 2988 
Q 1863 3284 2130 3434 
Q 2397 3584 2719 3584 
Q 3081 3584 3359 3409 
Q 3638 3234 3781 2919 
z
" transform="scale(0.015625)"/>
      <path id="DejaVuSans-Bold-6e" d="M 4056 2131 
L 4056 0 
L 2931 0 
L 2931 347 
L 2931 1631 
Q 2931 2084 2911 2256 
Q 2891 2428 2841 2509 
Q 2775 2619 2662 2680 
Q 2550 2741 2406 2741 
Q 2056 2741 1856 2470 
Q 1656 2200 1656 1722 
L 1656 0 
L 538 0 
L 538 3500 
L 1656 3500 
L 1656 2988 
Q 1909 3294 2193 3439 
Q 2478 3584 2822 3584 
Q 3428 3584 3742 3212 
Q 4056 2841 4056 2131 
z
" transform="scale(0.015625)"/>
     </defs>
     <use xlink:href="#DejaVuSans-Bold-45"/>
     <use xlink:href="#DejaVuSans-Bold-72" x="68.310547"/>
     <use xlink:href="#DejaVuSans-Bold-72" x="117.626953"/>
     <use xlink:href="#DejaVuSans-Bold-6f" x="166.943359"/>
     <use xlink:href="#DejaVuSans-Bold-72" x="235.644531"/>
     <use xlink:href="#DejaVuSans-Bold-20" x="284.960938"/>
     <use xlink:href="#DejaVuSans-Bold-70" x="319.775391"/>
     <use xlink:href="#DejaVuSans-Bold-6c" x="391.357422"/>
     <use xlink:href="#DejaVuSans-Bold-6f" x="425.634766"/>
     <use xlink:href="#DejaVuSans-Bold-74" x="494.335938"/>
     <use xlink:href="#DejaVuSans-Bold-20" x="542.138672"/>
     <use xlink:href="#DejaVuSans-Bold-73" x="576.953125"/>
     <use xlink:href="#DejaVuSans-Bold-70" x="636.474609"/>
     <use xlink:href="#DejaVuSans-Bold-61" x="708.056641"/>
     <use xlink:href="#DejaVuSans-Bold-72" x="775.537109"/>
     <use xlink:href="#DejaVuSans-Bold-73" x="824.853516"/>
     <use xlink:href="#DejaVuSans-Bold-69" x="884.375"/>
     <use xlink:href="#DejaVuSans-Bold-74" x="918.652344"/>
     <use xlink:href="#DejaVuSans-Bold-79" x="966.455078"/>
     <use xlink:href="#DejaVuSans-Bold-3a" x="1031.640625"/>
     <use xlink:href="#DejaVuSans-Bold-37" x="1071.630859"/>
     <use xlink:href="#DejaVuSans-Bold-30" x="1141.210938"/>
     <use xlink:href="#DejaVuSans-Bold-20" x="1210.791016"/>
     <use xlink:href="#DejaVuSans-Bold-62" x="1245.605469"/>
     <use xlink:href="#DejaVuSans-Bold-61" x="1317.1875"/>
     <use xlink:href="#DejaVuSans-Bold-74" x="1384.667969"/>
     <use xlink:href="#DejaVuSans-Bold-63" x="1432.470703"/>
     <use xlink:href="#DejaVuSans-Bold-68" x="1491.748047"/>
     <use xlink:href="#DejaVuSans-Bold-73" x="1562.939453"/>
     <use xlink:href="#DejaVuSans-Bold-69" x="1622.460938"/>
     <use xlink:href="#DejaVuSans-Bold-7a" x="1656.738281"/>
     <use xlink:href="#DejaVuSans-Bold-65" x="1714.941406"/>
     <use xlink:href="#DejaVuSans-Bold-3a" x="1782.763672"/>
     <use xlink:href="#DejaVuSans-Bold-33" x="1822.753906"/>
     <use xlink:href="#DejaVuSans-Bold-30" x="1892.333984"/>
     <use xlink:href="#DejaVuSans-Bold-30" x="1961.914062"/>
     <use xlink:href="#DejaVuSans-Bold-30" x="2031.494141"/>
     <use xlink:href="#DejaVuSans-Bold-5f" x="2101.074219"/>
     <use xlink:href="#DejaVuSans-Bold-77" x="2151.074219"/>
     <use xlink:href="#DejaVuSans-Bold-69" x="2243.457031"/>
     <use xlink:href="#DejaVuSans-Bold-74" x="2277.734375"/>
     <use xlink:href="#DejaVuSans-Bold-68" x="2325.537109"/>
     <use xlink:href="#DejaVuSans-Bold-5f" x="2396.728516"/>
     <use xlink:href="#DejaVuSans-Bold-4e" x="2446.728516"/>
     <use xlink:href="#DejaVuSans-Bold-65" x="2530.419922"/>
     <use xlink:href="#DejaVuSans-Bold-73" x="2598.242188"/>
     <use xlink:href="#DejaVuSans-Bold-74" x="2657.763672"/>
     <use xlink:href="#DejaVuSans-Bold-65" x="2705.566406"/>
     <use xlink:href="#DejaVuSans-Bold-72" x="2773.388672"/>
     <use xlink:href="#DejaVuSans-Bold-6f" x="2822.705078"/>
     <use xlink:href="#DejaVuSans-Bold-76" x="2891.40625"/>
     <use xlink:href="#DejaVuSans-Bold-4d" x="2956.591797"/>
     <use xlink:href="#DejaVuSans-Bold-6f" x="3056.103516"/>
     <use xlink:href="#DejaVuSans-Bold-6d" x="3124.804688"/>
     <use xlink:href="#DejaVuSans-Bold-65" x="3229.003906"/>
     <use xlink:href="#DejaVuSans-Bold-6e" x="3296.826172"/>
     <use xlink:href="#DejaVuSans-Bold-74" x="3368.017578"/>
     <use xlink:href="#DejaVuSans-Bold-75" x="3415.820312"/>
     <use xlink:href="#DejaVuSans-Bold-6d" x="3487.011719"/>
    </g>
   </g>
  </g>
 </g>
 <defs>
  <clipPath id="p9c68a09dff">
   <rect x="57.6" y="41.472" width="357.12" height="266.112"/>
  </clipPath>
 </defs>
</svg>
