<?xml version="1.0" encoding="utf-8" standalone="no"?>
<!DOCTYPE svg PUBLIC "-//W3C//DTD SVG 1.1//EN"
  "http://www.w3.org/Graphics/SVG/1.1/DTD/svg11.dtd">
<svg xmlns:xlink="http://www.w3.org/1999/xlink" width="460.8pt" height="345.6pt" viewBox="0 0 460.8 345.6" xmlns="http://www.w3.org/2000/svg" version="1.1">
 <metadata>
  <rdf:RDF xmlns:dc="http://purl.org/dc/elements/1.1/" xmlns:cc="http://creativecommons.org/ns#" xmlns:rdf="http://www.w3.org/1999/02/22-rdf-syntax-ns#">
   <cc:Work>
    <dc:type rdf:resource="http://purl.org/dc/dcmitype/StillImage"/>
    <dc:date>2023-07-23T22:01:52.907829</dc:date>
    <dc:format>image/svg+xml</dc:format>
    <dc:creator>
     <cc:Agent>
      <dc:title>Matplotlib v3.5.3, https://matplotlib.org/</dc:title>
     </cc:Agent>
    </dc:creator>
   </cc:Work>
  </rdf:RDF>
 </metadata>
 <defs>
  <style type="text/css">*{stroke-linejoin: round; stroke-linecap: butt}</style>
 </defs>
 <g id="figure_1">
  <g id="patch_1">
   <path d="M 0 345.6 
L 460.8 345.6 
L 460.8 0 
L 0 0 
z
" style="fill: #ffffff"/>
  </g>
  <g id="axes_1">
   <g id="patch_2">
    <path d="M 57.6 307.584 
L 414.72 307.584 
L 414.72 41.472 
L 57.6 41.472 
z
" style="fill: #ffffff"/>
   </g>
   <g id="matplotlib.axis_1">
    <g id="xtick_1">
     <g id="line2d_1">
      <defs>
       <path id="m201bbfa82f" d="M 0 0 
L 0 3.5 
" style="stroke: #000000; stroke-width: 0.8"/>
      </defs>
      <g>
       <use xlink:href="#m201bbfa82f" x="73.832727" y="307.584" style="stroke: #000000; stroke-width: 0.8"/>
      </g>
     </g>
     <g id="text_1">
      <!-- 0.0 -->
      <g transform="translate(63.20429 323.702125)scale(0.12 -0.12)">
       <defs>
        <path id="DejaVuSans-Bold-30" d="M 2944 2338 
Q 2944 3213 2780 3570 
Q 2616 3928 2228 3928 
Q 1841 3928 1675 3570 
Q 1509 3213 1509 2338 
Q 1509 1453 1675 1090 
Q 1841 728 2228 728 
Q 2613 728 2778 1090 
Q 2944 1453 2944 2338 
z
M 4147 2328 
Q 4147 1169 3647 539 
Q 3147 -91 2228 -91 
Q 1306 -91 806 539 
Q 306 1169 306 2328 
Q 306 3491 806 4120 
Q 1306 4750 2228 4750 
Q 3147 4750 3647 4120 
Q 4147 3491 4147 2328 
z
" transform="scale(0.015625)"/>
        <path id="DejaVuSans-Bold-2e" d="M 653 1209 
L 1778 1209 
L 1778 0 
L 653 0 
L 653 1209 
z
" transform="scale(0.015625)"/>
       </defs>
       <use xlink:href="#DejaVuSans-Bold-30"/>
       <use xlink:href="#DejaVuSans-Bold-2e" x="69.580078"/>
       <use xlink:href="#DejaVuSans-Bold-30" x="107.568359"/>
      </g>
     </g>
    </g>
    <g id="xtick_2">
     <g id="line2d_2">
      <g>
       <use xlink:href="#m201bbfa82f" x="127.941818" y="307.584" style="stroke: #000000; stroke-width: 0.8"/>
      </g>
     </g>
     <g id="text_2">
      <!-- 5.0 -->
      <g transform="translate(117.313381 323.702125)scale(0.12 -0.12)">
       <defs>
        <path id="DejaVuSans-Bold-35" d="M 678 4666 
L 3669 4666 
L 3669 3781 
L 1638 3781 
L 1638 3059 
Q 1775 3097 1914 3117 
Q 2053 3138 2203 3138 
Q 3056 3138 3531 2711 
Q 4006 2284 4006 1522 
Q 4006 766 3489 337 
Q 2972 -91 2053 -91 
Q 1656 -91 1267 -14 
Q 878 63 494 219 
L 494 1166 
Q 875 947 1217 837 
Q 1559 728 1863 728 
Q 2300 728 2551 942 
Q 2803 1156 2803 1522 
Q 2803 1891 2551 2103 
Q 2300 2316 1863 2316 
Q 1603 2316 1309 2248 
Q 1016 2181 678 2041 
L 678 4666 
z
" transform="scale(0.015625)"/>
       </defs>
       <use xlink:href="#DejaVuSans-Bold-35"/>
       <use xlink:href="#DejaVuSans-Bold-2e" x="69.580078"/>
       <use xlink:href="#DejaVuSans-Bold-30" x="107.568359"/>
      </g>
     </g>
    </g>
    <g id="xtick_3">
     <g id="line2d_3">
      <g>
       <use xlink:href="#m201bbfa82f" x="182.050909" y="307.584" style="stroke: #000000; stroke-width: 0.8"/>
      </g>
     </g>
     <g id="text_3">
      <!-- 10.0 -->
      <g transform="translate(167.247784 323.702125)scale(0.12 -0.12)">
       <defs>
        <path id="DejaVuSans-Bold-31" d="M 750 831 
L 1813 831 
L 1813 3847 
L 722 3622 
L 722 4441 
L 1806 4666 
L 2950 4666 
L 2950 831 
L 4013 831 
L 4013 0 
L 750 0 
L 750 831 
z
" transform="scale(0.015625)"/>
       </defs>
       <use xlink:href="#DejaVuSans-Bold-31"/>
       <use xlink:href="#DejaVuSans-Bold-30" x="69.580078"/>
       <use xlink:href="#DejaVuSans-Bold-2e" x="139.160156"/>
       <use xlink:href="#DejaVuSans-Bold-30" x="177.148438"/>
      </g>
     </g>
    </g>
    <g id="xtick_4">
     <g id="line2d_4">
      <g>
       <use xlink:href="#m201bbfa82f" x="236.16" y="307.584" style="stroke: #000000; stroke-width: 0.8"/>
      </g>
     </g>
     <g id="text_4">
      <!-- 15.0 -->
      <g transform="translate(221.356875 323.702125)scale(0.12 -0.12)">
       <use xlink:href="#DejaVuSans-Bold-31"/>
       <use xlink:href="#DejaVuSans-Bold-35" x="69.580078"/>
       <use xlink:href="#DejaVuSans-Bold-2e" x="139.160156"/>
       <use xlink:href="#DejaVuSans-Bold-30" x="177.148438"/>
      </g>
     </g>
    </g>
    <g id="xtick_5">
     <g id="line2d_5">
      <g>
       <use xlink:href="#m201bbfa82f" x="290.269091" y="307.584" style="stroke: #000000; stroke-width: 0.8"/>
      </g>
     </g>
     <g id="text_5">
      <!-- 20.0 -->
      <g transform="translate(275.465966 323.702125)scale(0.12 -0.12)">
       <defs>
        <path id="DejaVuSans-Bold-32" d="M 1844 884 
L 3897 884 
L 3897 0 
L 506 0 
L 506 884 
L 2209 2388 
Q 2438 2594 2547 2791 
Q 2656 2988 2656 3200 
Q 2656 3528 2436 3728 
Q 2216 3928 1850 3928 
Q 1569 3928 1234 3808 
Q 900 3688 519 3450 
L 519 4475 
Q 925 4609 1322 4679 
Q 1719 4750 2100 4750 
Q 2938 4750 3402 4381 
Q 3866 4013 3866 3353 
Q 3866 2972 3669 2642 
Q 3472 2313 2841 1759 
L 1844 884 
z
" transform="scale(0.015625)"/>
       </defs>
       <use xlink:href="#DejaVuSans-Bold-32"/>
       <use xlink:href="#DejaVuSans-Bold-30" x="69.580078"/>
       <use xlink:href="#DejaVuSans-Bold-2e" x="139.160156"/>
       <use xlink:href="#DejaVuSans-Bold-30" x="177.148438"/>
      </g>
     </g>
    </g>
    <g id="xtick_6">
     <g id="line2d_6">
      <g>
       <use xlink:href="#m201bbfa82f" x="344.378182" y="307.584" style="stroke: #000000; stroke-width: 0.8"/>
      </g>
     </g>
     <g id="text_6">
      <!-- 25.0 -->
      <g transform="translate(329.575057 323.702125)scale(0.12 -0.12)">
       <use xlink:href="#DejaVuSans-Bold-32"/>
       <use xlink:href="#DejaVuSans-Bold-35" x="69.580078"/>
       <use xlink:href="#DejaVuSans-Bold-2e" x="139.160156"/>
       <use xlink:href="#DejaVuSans-Bold-30" x="177.148438"/>
      </g>
     </g>
    </g>
    <g id="xtick_7">
     <g id="line2d_7">
      <g>
       <use xlink:href="#m201bbfa82f" x="398.487273" y="307.584" style="stroke: #000000; stroke-width: 0.8"/>
      </g>
     </g>
     <g id="text_7">
      <!-- 30.0 -->
      <g transform="translate(383.684148 323.702125)scale(0.12 -0.12)">
       <defs>
        <path id="DejaVuSans-Bold-33" d="M 2981 2516 
Q 3453 2394 3698 2092 
Q 3944 1791 3944 1325 
Q 3944 631 3412 270 
Q 2881 -91 1863 -91 
Q 1503 -91 1142 -33 
Q 781 25 428 141 
L 428 1069 
Q 766 900 1098 814 
Q 1431 728 1753 728 
Q 2231 728 2486 893 
Q 2741 1059 2741 1369 
Q 2741 1688 2480 1852 
Q 2219 2016 1709 2016 
L 1228 2016 
L 1228 2791 
L 1734 2791 
Q 2188 2791 2409 2933 
Q 2631 3075 2631 3366 
Q 2631 3634 2415 3781 
Q 2200 3928 1806 3928 
Q 1516 3928 1219 3862 
Q 922 3797 628 3669 
L 628 4550 
Q 984 4650 1334 4700 
Q 1684 4750 2022 4750 
Q 2931 4750 3382 4451 
Q 3834 4153 3834 3553 
Q 3834 3144 3618 2883 
Q 3403 2622 2981 2516 
z
" transform="scale(0.015625)"/>
       </defs>
       <use xlink:href="#DejaVuSans-Bold-33"/>
       <use xlink:href="#DejaVuSans-Bold-30" x="69.580078"/>
       <use xlink:href="#DejaVuSans-Bold-2e" x="139.160156"/>
       <use xlink:href="#DejaVuSans-Bold-30" x="177.148438"/>
      </g>
     </g>
    </g>
    <g id="text_8">
     <!-- Epoch -->
     <g transform="translate(212.425625 340.835562)scale(0.14 -0.14)">
      <defs>
       <path id="DejaVuSans-Bold-45" d="M 588 4666 
L 3834 4666 
L 3834 3756 
L 1791 3756 
L 1791 2888 
L 3713 2888 
L 3713 1978 
L 1791 1978 
L 1791 909 
L 3903 909 
L 3903 0 
L 588 0 
L 588 4666 
z
" transform="scale(0.015625)"/>
       <path id="DejaVuSans-Bold-70" d="M 1656 506 
L 1656 -1331 
L 538 -1331 
L 538 3500 
L 1656 3500 
L 1656 2988 
Q 1888 3294 2169 3439 
Q 2450 3584 2816 3584 
Q 3463 3584 3878 3070 
Q 4294 2556 4294 1747 
Q 4294 938 3878 423 
Q 3463 -91 2816 -91 
Q 2450 -91 2169 54 
Q 1888 200 1656 506 
z
M 2400 2772 
Q 2041 2772 1848 2508 
Q 1656 2244 1656 1747 
Q 1656 1250 1848 986 
Q 2041 722 2400 722 
Q 2759 722 2948 984 
Q 3138 1247 3138 1747 
Q 3138 2247 2948 2509 
Q 2759 2772 2400 2772 
z
" transform="scale(0.015625)"/>
       <path id="DejaVuSans-Bold-6f" d="M 2203 2784 
Q 1831 2784 1636 2517 
Q 1441 2250 1441 1747 
Q 1441 1244 1636 976 
Q 1831 709 2203 709 
Q 2569 709 2762 976 
Q 2956 1244 2956 1747 
Q 2956 2250 2762 2517 
Q 2569 2784 2203 2784 
z
M 2203 3584 
Q 3106 3584 3614 3096 
Q 4122 2609 4122 1747 
Q 4122 884 3614 396 
Q 3106 -91 2203 -91 
Q 1297 -91 786 396 
Q 275 884 275 1747 
Q 275 2609 786 3096 
Q 1297 3584 2203 3584 
z
" transform="scale(0.015625)"/>
       <path id="DejaVuSans-Bold-63" d="M 3366 3391 
L 3366 2478 
Q 3138 2634 2908 2709 
Q 2678 2784 2431 2784 
Q 1963 2784 1702 2511 
Q 1441 2238 1441 1747 
Q 1441 1256 1702 982 
Q 1963 709 2431 709 
Q 2694 709 2930 787 
Q 3166 866 3366 1019 
L 3366 103 
Q 3103 6 2833 -42 
Q 2563 -91 2291 -91 
Q 1344 -91 809 395 
Q 275 881 275 1747 
Q 275 2613 809 3098 
Q 1344 3584 2291 3584 
Q 2566 3584 2833 3536 
Q 3100 3488 3366 3391 
z
" transform="scale(0.015625)"/>
       <path id="DejaVuSans-Bold-68" d="M 4056 2131 
L 4056 0 
L 2931 0 
L 2931 347 
L 2931 1625 
Q 2931 2084 2911 2256 
Q 2891 2428 2841 2509 
Q 2775 2619 2662 2680 
Q 2550 2741 2406 2741 
Q 2056 2741 1856 2470 
Q 1656 2200 1656 1722 
L 1656 0 
L 538 0 
L 538 4863 
L 1656 4863 
L 1656 2988 
Q 1909 3294 2193 3439 
Q 2478 3584 2822 3584 
Q 3428 3584 3742 3212 
Q 4056 2841 4056 2131 
z
" transform="scale(0.015625)"/>
      </defs>
      <use xlink:href="#DejaVuSans-Bold-45"/>
      <use xlink:href="#DejaVuSans-Bold-70" x="68.310547"/>
      <use xlink:href="#DejaVuSans-Bold-6f" x="139.892578"/>
      <use xlink:href="#DejaVuSans-Bold-63" x="208.59375"/>
      <use xlink:href="#DejaVuSans-Bold-68" x="267.871094"/>
     </g>
    </g>
   </g>
   <g id="matplotlib.axis_2">
    <g id="ytick_1">
     <g id="line2d_8">
      <defs>
       <path id="m811fb28674" d="M 0 0 
L -3.5 0 
" style="stroke: #000000; stroke-width: 0.8"/>
      </defs>
      <g>
       <use xlink:href="#m811fb28674" x="57.6" y="299.284677" style="stroke: #000000; stroke-width: 0.8"/>
      </g>
     </g>
     <g id="text_9">
      <!-- 0.0045 -->
      <g transform="translate(4.295 303.843739)scale(0.12 -0.12)">
       <defs>
        <path id="DejaVuSans-Bold-34" d="M 2356 3675 
L 1038 1722 
L 2356 1722 
L 2356 3675 
z
M 2156 4666 
L 3494 4666 
L 3494 1722 
L 4159 1722 
L 4159 850 
L 3494 850 
L 3494 0 
L 2356 0 
L 2356 850 
L 288 850 
L 288 1881 
L 2156 4666 
z
" transform="scale(0.015625)"/>
       </defs>
       <use xlink:href="#DejaVuSans-Bold-30"/>
       <use xlink:href="#DejaVuSans-Bold-2e" x="69.580078"/>
       <use xlink:href="#DejaVuSans-Bold-30" x="107.568359"/>
       <use xlink:href="#DejaVuSans-Bold-30" x="177.148438"/>
       <use xlink:href="#DejaVuSans-Bold-34" x="246.728516"/>
       <use xlink:href="#DejaVuSans-Bold-35" x="316.308594"/>
      </g>
     </g>
    </g>
    <g id="ytick_2">
     <g id="line2d_9">
      <g>
       <use xlink:href="#m811fb28674" x="57.6" y="257.368197" style="stroke: #000000; stroke-width: 0.8"/>
      </g>
     </g>
     <g id="text_10">
      <!-- 0.005 -->
      <g transform="translate(12.644375 261.927259)scale(0.12 -0.12)">
       <use xlink:href="#DejaVuSans-Bold-30"/>
       <use xlink:href="#DejaVuSans-Bold-2e" x="69.580078"/>
       <use xlink:href="#DejaVuSans-Bold-30" x="107.568359"/>
       <use xlink:href="#DejaVuSans-Bold-30" x="177.148438"/>
       <use xlink:href="#DejaVuSans-Bold-35" x="246.728516"/>
      </g>
     </g>
    </g>
    <g id="ytick_3">
     <g id="line2d_10">
      <g>
       <use xlink:href="#m811fb28674" x="57.6" y="215.451717" style="stroke: #000000; stroke-width: 0.8"/>
      </g>
     </g>
     <g id="text_11">
      <!-- 0.0055 -->
      <g transform="translate(4.295 220.010779)scale(0.12 -0.12)">
       <use xlink:href="#DejaVuSans-Bold-30"/>
       <use xlink:href="#DejaVuSans-Bold-2e" x="69.580078"/>
       <use xlink:href="#DejaVuSans-Bold-30" x="107.568359"/>
       <use xlink:href="#DejaVuSans-Bold-30" x="177.148438"/>
       <use xlink:href="#DejaVuSans-Bold-35" x="246.728516"/>
       <use xlink:href="#DejaVuSans-Bold-35" x="316.308594"/>
      </g>
     </g>
    </g>
    <g id="ytick_4">
     <g id="line2d_11">
      <g>
       <use xlink:href="#m811fb28674" x="57.6" y="173.535236" style="stroke: #000000; stroke-width: 0.8"/>
      </g>
     </g>
     <g id="text_12">
      <!-- 0.006 -->
      <g transform="translate(12.644375 178.094299)scale(0.12 -0.12)">
       <defs>
        <path id="DejaVuSans-Bold-36" d="M 2316 2303 
Q 2000 2303 1842 2098 
Q 1684 1894 1684 1484 
Q 1684 1075 1842 870 
Q 2000 666 2316 666 
Q 2634 666 2792 870 
Q 2950 1075 2950 1484 
Q 2950 1894 2792 2098 
Q 2634 2303 2316 2303 
z
M 3803 4544 
L 3803 3681 
Q 3506 3822 3243 3889 
Q 2981 3956 2731 3956 
Q 2194 3956 1894 3657 
Q 1594 3359 1544 2772 
Q 1750 2925 1990 3001 
Q 2231 3078 2516 3078 
Q 3231 3078 3670 2659 
Q 4109 2241 4109 1563 
Q 4109 813 3618 361 
Q 3128 -91 2303 -91 
Q 1394 -91 895 523 
Q 397 1138 397 2266 
Q 397 3422 980 4083 
Q 1563 4744 2578 4744 
Q 2900 4744 3203 4694 
Q 3506 4644 3803 4544 
z
" transform="scale(0.015625)"/>
       </defs>
       <use xlink:href="#DejaVuSans-Bold-30"/>
       <use xlink:href="#DejaVuSans-Bold-2e" x="69.580078"/>
       <use xlink:href="#DejaVuSans-Bold-30" x="107.568359"/>
       <use xlink:href="#DejaVuSans-Bold-30" x="177.148438"/>
       <use xlink:href="#DejaVuSans-Bold-36" x="246.728516"/>
      </g>
     </g>
    </g>
    <g id="ytick_5">
     <g id="line2d_12">
      <g>
       <use xlink:href="#m811fb28674" x="57.6" y="131.618756" style="stroke: #000000; stroke-width: 0.8"/>
      </g>
     </g>
     <g id="text_13">
      <!-- 0.0065 -->
      <g transform="translate(4.295 136.177819)scale(0.12 -0.12)">
       <use xlink:href="#DejaVuSans-Bold-30"/>
       <use xlink:href="#DejaVuSans-Bold-2e" x="69.580078"/>
       <use xlink:href="#DejaVuSans-Bold-30" x="107.568359"/>
       <use xlink:href="#DejaVuSans-Bold-30" x="177.148438"/>
       <use xlink:href="#DejaVuSans-Bold-36" x="246.728516"/>
       <use xlink:href="#DejaVuSans-Bold-35" x="316.308594"/>
      </g>
     </g>
    </g>
    <g id="ytick_6">
     <g id="line2d_13">
      <g>
       <use xlink:href="#m811fb28674" x="57.6" y="89.702276" style="stroke: #000000; stroke-width: 0.8"/>
      </g>
     </g>
     <g id="text_14">
      <!-- 0.007 -->
      <g transform="translate(12.644375 94.261339)scale(0.12 -0.12)">
       <defs>
        <path id="DejaVuSans-Bold-37" d="M 428 4666 
L 3944 4666 
L 3944 3988 
L 2125 0 
L 953 0 
L 2675 3781 
L 428 3781 
L 428 4666 
z
" transform="scale(0.015625)"/>
       </defs>
       <use xlink:href="#DejaVuSans-Bold-30"/>
       <use xlink:href="#DejaVuSans-Bold-2e" x="69.580078"/>
       <use xlink:href="#DejaVuSans-Bold-30" x="107.568359"/>
       <use xlink:href="#DejaVuSans-Bold-30" x="177.148438"/>
       <use xlink:href="#DejaVuSans-Bold-37" x="246.728516"/>
      </g>
     </g>
    </g>
    <g id="ytick_7">
     <g id="line2d_14">
      <g>
       <use xlink:href="#m811fb28674" x="57.6" y="47.785796" style="stroke: #000000; stroke-width: 0.8"/>
      </g>
     </g>
     <g id="text_15">
      <!-- 0.0075 -->
      <g transform="translate(4.295 52.344859)scale(0.12 -0.12)">
       <use xlink:href="#DejaVuSans-Bold-30"/>
       <use xlink:href="#DejaVuSans-Bold-2e" x="69.580078"/>
       <use xlink:href="#DejaVuSans-Bold-30" x="107.568359"/>
       <use xlink:href="#DejaVuSans-Bold-30" x="177.148438"/>
       <use xlink:href="#DejaVuSans-Bold-37" x="246.728516"/>
       <use xlink:href="#DejaVuSans-Bold-35" x="316.308594"/>
      </g>
     </g>
    </g>
    <g id="text_16">
     <!-- Error (a.u.) -->
     <g transform="translate(-2.616563 218.334875)rotate(-90)scale(0.14 -0.14)">
      <defs>
       <path id="DejaVuSans-Bold-72" d="M 3138 2547 
Q 2991 2616 2845 2648 
Q 2700 2681 2553 2681 
Q 2122 2681 1889 2404 
Q 1656 2128 1656 1613 
L 1656 0 
L 538 0 
L 538 3500 
L 1656 3500 
L 1656 2925 
Q 1872 3269 2151 3426 
Q 2431 3584 2822 3584 
Q 2878 3584 2943 3579 
Q 3009 3575 3134 3559 
L 3138 2547 
z
" transform="scale(0.015625)"/>
       <path id="DejaVuSans-Bold-20" transform="scale(0.015625)"/>
       <path id="DejaVuSans-Bold-28" d="M 2413 -844 
L 1484 -844 
Q 1006 -72 778 623 
Q 550 1319 550 2003 
Q 550 2688 779 3389 
Q 1009 4091 1484 4856 
L 2413 4856 
Q 2013 4116 1813 3408 
Q 1613 2700 1613 2009 
Q 1613 1319 1811 609 
Q 2009 -100 2413 -844 
z
" transform="scale(0.015625)"/>
       <path id="DejaVuSans-Bold-61" d="M 2106 1575 
Q 1756 1575 1579 1456 
Q 1403 1338 1403 1106 
Q 1403 894 1545 773 
Q 1688 653 1941 653 
Q 2256 653 2472 879 
Q 2688 1106 2688 1447 
L 2688 1575 
L 2106 1575 
z
M 3816 1997 
L 3816 0 
L 2688 0 
L 2688 519 
Q 2463 200 2181 54 
Q 1900 -91 1497 -91 
Q 953 -91 614 226 
Q 275 544 275 1050 
Q 275 1666 698 1953 
Q 1122 2241 2028 2241 
L 2688 2241 
L 2688 2328 
Q 2688 2594 2478 2717 
Q 2269 2841 1825 2841 
Q 1466 2841 1156 2769 
Q 847 2697 581 2553 
L 581 3406 
Q 941 3494 1303 3539 
Q 1666 3584 2028 3584 
Q 2975 3584 3395 3211 
Q 3816 2838 3816 1997 
z
" transform="scale(0.015625)"/>
       <path id="DejaVuSans-Bold-75" d="M 500 1363 
L 500 3500 
L 1625 3500 
L 1625 3150 
Q 1625 2866 1622 2436 
Q 1619 2006 1619 1863 
Q 1619 1441 1641 1255 
Q 1663 1069 1716 984 
Q 1784 875 1895 815 
Q 2006 756 2150 756 
Q 2500 756 2700 1025 
Q 2900 1294 2900 1772 
L 2900 3500 
L 4019 3500 
L 4019 0 
L 2900 0 
L 2900 506 
Q 2647 200 2364 54 
Q 2081 -91 1741 -91 
Q 1134 -91 817 281 
Q 500 653 500 1363 
z
" transform="scale(0.015625)"/>
       <path id="DejaVuSans-Bold-29" d="M 513 -844 
Q 913 -100 1113 609 
Q 1313 1319 1313 2009 
Q 1313 2700 1113 3408 
Q 913 4116 513 4856 
L 1441 4856 
Q 1916 4091 2145 3389 
Q 2375 2688 2375 2003 
Q 2375 1319 2147 623 
Q 1919 -72 1441 -844 
L 513 -844 
z
" transform="scale(0.015625)"/>
      </defs>
      <use xlink:href="#DejaVuSans-Bold-45"/>
      <use xlink:href="#DejaVuSans-Bold-72" x="68.310547"/>
      <use xlink:href="#DejaVuSans-Bold-72" x="117.626953"/>
      <use xlink:href="#DejaVuSans-Bold-6f" x="166.943359"/>
      <use xlink:href="#DejaVuSans-Bold-72" x="235.644531"/>
      <use xlink:href="#DejaVuSans-Bold-20" x="284.960938"/>
      <use xlink:href="#DejaVuSans-Bold-28" x="319.775391"/>
      <use xlink:href="#DejaVuSans-Bold-61" x="365.478516"/>
      <use xlink:href="#DejaVuSans-Bold-2e" x="432.958984"/>
      <use xlink:href="#DejaVuSans-Bold-75" x="470.947266"/>
      <use xlink:href="#DejaVuSans-Bold-2e" x="542.138672"/>
      <use xlink:href="#DejaVuSans-Bold-29" x="580.126953"/>
     </g>
    </g>
   </g>
   <g id="line2d_15">
    <path d="M 73.832727 73.590782 
L 74.193655 53.568 
L 74.374119 60.158228 
L 74.554583 58.152477 
L 74.915511 96.28454 
L 75.276438 103.67349 
L 75.456902 98.628341 
L 75.637366 109.501691 
L 75.81783 102.543899 
L 75.998294 145.588296 
L 76.178758 137.186497 
L 76.359222 136.040935 
L 76.539686 122.104493 
L 76.72015 131.498592 
L 76.900613 134.419911 
L 77.081077 128.1381 
L 77.261541 154.822015 
L 77.442005 153.568296 
L 77.622469 156.193447 
L 77.802933 166.789058 
L 77.983397 154.789639 
L 78.163861 175.524455 
L 78.344325 174.347886 
L 78.524789 183.060984 
L 78.885716 165.765567 
L 79.246644 181.632203 
L 79.427108 170.546872 
L 79.607572 183.690293 
L 79.788036 176.237249 
L 79.9685 175.182181 
L 80.148964 186.472471 
L 80.329427 172.258941 
L 80.509891 193.159679 
L 80.690355 187.599615 
L 80.870819 210.455274 
L 81.051283 191.951926 
L 81.231747 190.300986 
L 81.412211 183.98188 
L 81.592675 193.240659 
L 81.773139 187.605803 
L 81.953603 209.050513 
L 82.134066 214.837206 
L 82.31453 212.618464 
L 82.494994 193.131942 
L 82.675458 186.896466 
L 83.036386 196.902252 
L 83.397314 208.613669 
L 83.577778 196.675158 
L 83.758241 206.796282 
L 83.938705 204.364153 
L 84.119169 192.74635 
L 84.299633 214.64717 
L 84.480097 205.86525 
L 84.660561 214.380392 
L 84.841025 212.811674 
L 85.021489 204.01687 
L 85.201953 208.558283 
L 85.382416 205.580626 
L 85.743344 230.389959 
L 85.923808 229.1268 
L 86.104272 224.666221 
L 86.284736 213.411387 
L 86.4652 222.719597 
L 86.645664 210.691896 
L 86.826128 245.50868 
L 87.006592 235.453534 
L 87.187055 232.382994 
L 87.367519 214.826106 
L 87.728447 224.109019 
L 87.908911 210.668475 
L 88.089375 235.946372 
L 88.269839 229.239535 
L 88.450303 229.024919 
L 88.630767 236.889944 
L 88.81123 225.640456 
L 88.991694 243.059682 
L 89.172158 237.447489 
L 89.352622 243.563984 
L 89.71355 224.208981 
L 90.074478 240.169217 
L 90.254942 226.136676 
L 90.435406 236.995913 
L 90.615869 226.992809 
L 90.796333 225.261228 
L 90.976797 234.550883 
L 91.157261 219.218413 
L 91.337725 240.848817 
L 91.518189 235.232691 
L 91.698653 255.148898 
L 91.879117 235.827108 
L 92.059581 233.576227 
L 92.240044 227.603334 
L 92.420508 235.781292 
L 92.600972 229.173128 
L 92.781436 246.193103 
L 92.9619 249.694893 
L 93.142364 249.106294 
L 93.322828 230.659205 
L 93.503292 226.434065 
L 93.683756 231.519071 
L 93.86422 231.055352 
L 94.225147 243.001556 
L 94.405611 228.673373 
L 94.586075 239.382161 
L 94.766539 236.749794 
L 94.947003 225.759114 
L 95.127467 244.097784 
L 95.307931 233.946958 
L 95.488395 243.101296 
L 95.668858 239.026083 
L 95.849322 232.002631 
L 96.029786 234.430222 
L 96.21025 233.049192 
L 96.571178 255.19997 
L 96.751642 253.714699 
L 96.932106 250.974989 
L 97.11257 237.896107 
L 97.293034 245.447061 
L 97.473497 234.895638 
L 97.653961 267.423136 
L 97.834425 256.087251 
L 98.014889 254.601605 
L 98.195353 235.467894 
L 98.556281 245.764646 
L 98.736745 232.721972 
L 98.917209 252.518846 
L 99.097672 249.339805 
L 99.278136 250.626623 
L 99.4586 258.227427 
L 99.639064 243.486426 
L 99.819528 261.147719 
L 99.999992 256.236751 
L 100.180456 262.054346 
L 100.541384 241.15069 
L 100.902311 255.834831 
L 101.082775 242.397994 
L 101.263239 252.621227 
L 101.443703 242.337062 
L 101.624167 238.519699 
L 101.804631 248.623127 
L 101.985095 233.682619 
L 102.165559 256.050471 
L 102.346023 248.538206 
L 102.526486 268.552774 
L 102.70695 248.26688 
L 102.887414 246.145362 
L 103.067878 241.126024 
L 103.248342 248.71607 
L 103.428806 240.025065 
L 103.60927 258.733208 
L 103.789734 262.720078 
L 103.970198 260.166868 
L 104.150661 240.685689 
L 104.331125 237.392307 
L 104.511589 242.185454 
L 104.692053 243.375988 
L 105.052981 255.200235 
L 105.233445 237.839869 
L 105.413909 249.277365 
L 105.594373 247.109238 
L 105.774837 235.323292 
L 105.9553 253.748185 
L 106.135764 244.502241 
L 106.316228 251.843704 
L 106.496692 250.256948 
L 106.677156 242.138221 
L 106.85762 245.046886 
L 107.038084 241.772651 
L 107.399012 263.335753 
L 107.759939 259.220384 
L 107.940403 246.842904 
L 108.120867 253.583761 
L 108.301331 244.293392 
L 108.481795 275.2162 
L 108.662259 263.656547 
L 108.842723 260.279916 
L 109.023187 244.428608 
L 109.384114 252.913042 
L 109.564578 239.373156 
L 109.745042 260.084713 
L 109.925506 254.670676 
L 110.10597 256.809981 
L 110.286434 265.590864 
L 110.466898 250.157228 
L 110.647362 267.903022 
L 110.827826 262.435692 
L 111.008289 267.719258 
L 111.369217 247.083596 
L 111.730145 264.266765 
L 111.910609 248.194717 
L 112.091073 259.837261 
L 112.271537 248.520407 
L 112.452001 245.378201 
L 112.632465 255.379207 
L 112.812928 239.948713 
L 112.993392 260.898217 
L 113.173856 254.879174 
L 113.35432 273.516207 
L 113.534784 253.776776 
L 113.715248 251.826582 
L 113.895712 247.024474 
L 114.076176 254.757724 
L 114.25664 246.905178 
L 114.437103 265.164719 
L 114.617567 267.782583 
L 114.798031 267.719384 
L 114.978495 248.586988 
L 115.158959 244.248126 
L 115.339423 248.947063 
L 115.519887 248.443951 
L 115.880815 259.319987 
L 116.061278 242.777888 
L 116.241742 252.784751 
L 116.422206 251.490096 
L 116.60267 240.861517 
L 116.783134 258.808624 
L 116.963598 248.330839 
L 117.144062 257.132305 
L 117.324526 254.940786 
L 117.50499 246.235229 
L 117.685454 248.777284 
L 117.865917 246.503471 
L 118.226845 266.973808 
L 118.587773 264.167846 
L 118.768237 250.464336 
L 118.948701 257.844788 
L 119.129165 248.064203 
L 119.309629 279.473362 
L 119.490092 268.092813 
L 119.670556 266.036238 
L 119.85102 248.900952 
L 120.031484 252.102395 
L 120.211948 258.257933 
L 120.392412 243.084258 
L 120.572876 265.72985 
L 120.75334 261.307648 
L 120.933804 260.674484 
L 121.114268 270.007783 
L 121.294731 255.87812 
L 121.475195 271.878925 
L 121.655659 266.441903 
L 121.836123 272.17328 
L 122.197051 251.808402 
L 122.557979 268.911411 
L 122.738443 253.117639 
L 122.918906 264.538873 
L 123.09937 252.772756 
L 123.279834 249.573329 
L 123.460298 260.710757 
L 123.640762 243.939263 
L 123.821226 265.880523 
L 124.00169 259.069241 
L 124.182154 276.377918 
L 124.362618 257.433529 
L 124.543082 256.304887 
L 124.723545 249.865343 
L 124.904009 257.517373 
L 125.084473 250.293527 
L 125.264937 267.844423 
L 125.445401 271.622926 
L 125.625865 270.970135 
L 125.806329 251.156404 
L 125.986793 245.340973 
L 126.167257 251.351466 
L 126.34772 251.726886 
L 126.708648 262.643427 
L 126.889112 246.203297 
L 127.069576 257.739074 
L 127.25004 254.559514 
L 127.430504 243.677106 
L 127.610968 262.069465 
L 127.791432 252.450846 
L 127.971895 259.82784 
L 128.152359 257.164811 
L 128.332823 248.674075 
L 128.513287 252.154157 
L 128.693751 251.402348 
L 129.054679 272.517262 
L 129.415607 266.314302 
L 129.596071 253.637561 
L 129.776534 260.311116 
L 129.956998 252.089414 
L 130.137462 282.688815 
L 130.317926 271.5661 
L 130.49839 268.581141 
L 130.678854 250.708651 
L 131.039782 260.845407 
L 131.220246 246.205047 
L 131.400709 269.197465 
L 131.581173 263.336496 
L 131.761637 265.768555 
L 131.942101 272.478446 
L 132.122565 258.418229 
L 132.303029 274.283781 
L 132.483493 268.037627 
L 132.663957 274.854294 
L 133.024885 255.713184 
L 133.385812 270.026446 
L 133.566276 254.568194 
L 133.74674 268.336828 
L 133.927204 255.982398 
L 134.107668 253.531951 
L 134.288132 263.77509 
L 134.468596 247.614332 
L 134.64906 268.138572 
L 134.829523 260.657524 
L 135.009987 280.17635 
L 135.190451 260.697885 
L 135.370915 258.472749 
L 135.551379 252.923338 
L 135.731843 260.593334 
L 135.912307 254.248713 
L 136.092771 271.106246 
L 136.453699 274.48049 
L 136.634162 255.154409 
L 136.814626 249.525899 
L 136.99509 254.568172 
L 137.175554 255.280631 
L 137.536482 265.125573 
L 137.716946 248.763934 
L 137.89741 261.179073 
L 138.077874 256.729627 
L 138.258337 247.569612 
L 138.438801 265.188543 
L 138.619265 255.435209 
L 138.799729 263.901507 
L 138.980193 259.995744 
L 139.160657 252.141384 
L 139.341121 253.945277 
L 139.521585 254.084572 
L 139.882513 274.66248 
L 140.24344 267.178531 
L 140.423904 255.861522 
L 140.604368 263.614741 
L 140.784832 253.478738 
L 140.965296 284.457118 
L 141.14576 273.126727 
L 141.326224 272.586732 
L 141.506688 254.98831 
L 141.867615 262.592351 
L 142.048079 250.42634 
L 142.228543 270.244394 
L 142.409007 266.587335 
L 142.589471 267.447126 
L 142.769935 275.383256 
L 142.950399 260.678316 
L 143.130863 275.316059 
L 143.311326 271.007946 
L 143.49179 276.86503 
L 143.852718 255.962692 
L 144.213646 272.441681 
L 144.39411 256.597999 
L 144.574574 269.772315 
L 144.755038 256.447243 
L 144.935502 255.632504 
L 145.115965 265.126207 
L 145.296429 247.884157 
L 145.476893 270.824469 
L 145.657357 262.392324 
L 145.837821 281.909719 
L 146.018285 262.789703 
L 146.198749 260.143833 
L 146.379213 254.814076 
L 146.559677 262.164256 
L 146.74014 254.686308 
L 146.920604 272.394975 
L 147.101068 276.071684 
L 147.281532 276.823256 
L 147.461996 257.474026 
L 147.64246 251.790946 
L 147.822924 256.479711 
L 148.003388 257.761616 
L 148.364316 266.867945 
L 148.544779 249.84504 
L 148.725243 264.073586 
L 148.905707 260.0798 
L 149.086171 248.716494 
L 149.266635 267.572989 
L 149.447099 256.430432 
L 149.627563 266.420375 
L 149.808027 261.761692 
L 149.988491 254.140157 
L 150.168954 257.843875 
L 150.349418 256.411466 
L 150.710346 274.928112 
L 151.071274 269.6001 
L 151.251738 257.357733 
L 151.432202 264.020653 
L 151.612666 254.779651 
L 151.79313 285.728021 
L 151.973593 275.115377 
L 152.154057 273.01818 
L 152.334521 256.904068 
L 152.695449 264.164067 
L 152.875913 251.078996 
L 153.056377 271.724159 
L 153.236841 267.378213 
L 153.417305 268.360763 
L 153.597768 276.28913 
L 153.778232 261.892322 
L 153.958696 279.976384 
L 154.13916 274.569075 
L 154.319624 279.374331 
L 154.680552 259.096066 
L 155.04148 273.413921 
L 155.221944 259.341108 
L 155.402407 271.273973 
L 155.582871 259.921179 
L 155.763335 257.535814 
L 155.943799 266.884995 
L 156.124263 250.444828 
L 156.304727 272.372649 
L 156.485191 264.15732 
L 156.665655 283.229636 
L 156.846119 263.716657 
L 157.026582 262.802798 
L 157.207046 256.485563 
L 157.38751 263.927767 
L 157.567974 255.755843 
L 157.748438 273.851205 
L 158.109366 277.88986 
L 158.28983 259.223742 
L 158.470294 252.354701 
L 159.192149 267.927521 
L 159.372613 252.61186 
L 159.553077 264.880382 
L 159.733541 262.182459 
L 159.914005 250.846688 
L 160.094469 269.119199 
L 160.274933 259.441627 
L 160.455396 267.057559 
L 160.63586 263.750958 
L 160.816324 256.598061 
L 160.996788 260.072223 
L 161.177252 258.39225 
L 161.53818 278.076037 
L 161.899108 273.294876 
L 162.079571 259.800337 
L 162.260035 266.748348 
L 162.440499 256.673715 
L 162.620963 288.431582 
L 162.801427 276.551607 
L 162.981891 274.333931 
L 163.162355 257.705234 
L 163.523283 265.233024 
L 163.703747 252.358142 
L 163.88421 272.944676 
L 164.064674 268.528935 
L 164.245138 269.175108 
L 164.425602 276.979553 
L 164.606066 263.091398 
L 164.78653 279.873264 
L 164.966994 274.610789 
L 165.147458 280.3819 
L 165.508385 260.048974 
L 165.869313 275.868982 
L 166.049777 260.25502 
L 166.230241 273.134235 
L 166.410705 261.307233 
L 166.591169 260.825277 
L 166.771633 268.717729 
L 166.952097 253.770103 
L 167.132561 273.136603 
L 167.313024 266.3848 
L 167.493488 284.82412 
L 167.673952 267.828098 
L 167.854416 264.107379 
L 168.03488 257.828721 
L 168.215344 263.728842 
L 168.395808 256.913296 
L 168.576272 274.40704 
L 168.937199 278.998259 
L 169.117663 259.104998 
L 169.298127 254.825273 
L 169.478591 258.590308 
L 169.659055 259.645385 
L 170.019983 269.892135 
L 170.200447 253.585997 
L 170.380911 265.597374 
L 170.561375 262.5801 
L 170.741838 251.280667 
L 170.922302 270.406626 
L 171.102766 260.214498 
L 171.28323 269.199228 
L 171.644158 257.652964 
L 171.824622 259.868799 
L 172.005086 257.098684 
L 172.366013 278.076706 
L 172.546477 276.133563 
L 172.726941 271.972616 
L 172.907405 259.181519 
L 173.087869 267.190151 
L 173.268333 258.079949 
L 173.448797 288.47989 
L 173.629261 277.98222 
L 173.809725 276.151938 
L 173.990188 258.410443 
L 174.351116 265.469255 
L 174.53158 253.616324 
L 174.712044 274.770195 
L 174.892508 270.352307 
L 175.072972 270.643048 
L 175.253436 277.186315 
L 175.4339 263.777236 
L 175.614364 279.735412 
L 175.794827 276.668854 
L 175.975291 280.298091 
L 176.336219 260.777234 
L 176.697147 276.70986 
L 176.877611 261.949329 
L 177.058075 274.416657 
L 177.238539 263.763346 
L 177.419002 260.64055 
L 177.599466 270.577018 
L 177.77993 254.105429 
L 177.960394 274.135531 
L 178.140858 266.426016 
L 178.321322 284.603191 
L 178.501786 267.456866 
L 178.68225 264.633962 
L 178.862714 258.603663 
L 179.043178 264.065674 
L 179.223641 257.148632 
L 179.404105 276.209719 
L 179.765033 279.360639 
L 179.945497 260.488274 
L 180.125961 254.801536 
L 180.306425 260.2821 
L 180.486889 260.375078 
L 180.847816 271.340747 
L 181.02828 254.346824 
L 181.208744 266.703031 
L 181.389208 263.451732 
L 181.569672 252.205821 
L 181.750136 272.322336 
L 181.9306 260.334134 
L 182.111064 270.160288 
L 182.291528 266.957078 
L 182.471992 258.013676 
L 182.652455 260.818393 
L 182.832919 258.100282 
L 183.193847 278.335528 
L 183.374311 276.832173 
L 183.554775 273.656649 
L 183.735239 261.280565 
L 183.915703 267.678695 
L 184.096167 258.884176 
L 184.27663 290.157893 
L 184.457094 278.457722 
L 184.637558 276.142419 
L 184.818022 259.555953 
L 185.17895 267.345343 
L 185.359414 254.191531 
L 185.539878 275.788143 
L 185.720342 271.385949 
L 185.900805 270.862045 
L 186.081269 278.642975 
L 186.261733 264.319919 
L 186.442197 280.607697 
L 186.622661 276.046629 
L 186.803125 282.340221 
L 187.164053 262.362702 
L 187.524981 278.541603 
L 187.705444 262.487638 
L 187.885908 274.772595 
L 188.066372 263.503282 
L 188.246836 260.73813 
L 188.4273 270.359068 
L 188.607764 254.513717 
L 188.788228 275.601299 
L 188.968692 267.668095 
L 189.149156 285.069464 
L 189.329619 267.180177 
L 189.510083 264.20948 
L 189.690547 258.092888 
L 189.871011 264.654312 
L 190.051475 257.69845 
L 190.231939 276.429472 
L 190.412403 277.742515 
L 190.592867 280.232215 
L 190.773331 260.373564 
L 190.953795 254.894078 
L 191.134258 261.013077 
L 191.314722 260.323736 
L 191.67565 270.696168 
L 191.856114 254.29504 
L 192.036578 266.959377 
L 192.217042 263.68269 
L 192.397506 251.798148 
L 192.57797 271.887358 
L 192.758433 260.303115 
L 192.938897 270.596315 
L 193.119361 268.013658 
L 193.299825 260.480688 
L 193.480289 261.400846 
L 193.660753 257.793084 
L 193.841217 273.117566 
L 194.021681 278.735385 
L 194.202145 277.743375 
L 194.382609 272.900508 
L 194.563072 260.958192 
L 194.743536 267.251382 
L 194.924 259.20642 
L 195.104464 289.423335 
L 195.284928 278.489678 
L 195.465392 276.7457 
L 195.645856 260.04025 
L 196.006784 267.218561 
L 196.187247 253.987055 
L 196.367711 275.820883 
L 196.548175 271.456061 
L 196.728639 272.005903 
L 196.909103 279.593774 
L 197.089567 265.332282 
L 197.270031 282.101028 
L 197.450495 277.096496 
L 197.630959 281.468932 
L 197.991886 263.527277 
L 198.352814 277.805525 
L 198.533278 263.306272 
L 198.713742 275.324248 
L 198.894206 261.982659 
L 199.07467 260.838318 
L 199.255134 270.46654 
L 199.435598 254.217755 
L 199.616061 275.014783 
L 199.796525 268.870033 
L 199.976989 286.498071 
L 200.157453 267.025765 
L 200.337917 265.39871 
L 200.518381 259.138405 
L 200.698845 265.530753 
L 200.879309 258.202923 
L 201.059773 277.470031 
L 201.4207 280.680081 
L 201.601164 260.94914 
L 201.781628 256.64943 
L 201.962092 261.082821 
L 202.142556 261.14236 
L 202.503484 271.645452 
L 202.683948 256.111966 
L 202.864412 269.270277 
L 203.044875 265.744092 
L 203.225339 254.348841 
L 203.405803 273.940318 
L 203.586267 260.312566 
L 203.766731 271.260444 
L 203.947195 267.11895 
L 204.127659 260.227054 
L 204.308123 262.326043 
L 204.488587 258.629972 
L 204.849514 281.561148 
L 205.210442 273.678026 
L 205.390906 260.363367 
L 205.57137 267.779156 
L 205.751834 260.069216 
L 205.932298 291.644201 
L 206.112762 280.449169 
L 206.293226 278.26578 
L 206.473689 262.502562 
L 206.834617 269.062067 
L 207.015081 254.397951 
L 207.195545 276.32753 
L 207.376009 272.341261 
L 207.556473 272.302866 
L 207.736937 281.081347 
L 207.917401 265.978367 
L 208.097864 281.923174 
L 208.278328 278.353511 
L 208.458792 283.825995 
L 208.81972 263.668324 
L 209.180648 278.290172 
L 209.361112 263.507707 
L 209.541576 275.402086 
L 209.72204 263.439731 
L 209.902503 261.175665 
L 210.082967 271.198115 
L 210.263431 256.01718 
L 210.443895 276.797865 
L 210.624359 268.11762 
L 210.804823 287.559785 
L 210.985287 267.985647 
L 211.165751 266.706507 
L 211.346215 260.903171 
L 211.526678 267.108716 
L 211.707142 259.244561 
L 211.887606 277.946949 
L 212.06807 281.454187 
L 212.248534 281.150258 
L 212.428998 262.444066 
L 212.609462 256.845258 
L 212.789926 262.562559 
L 212.97039 262.190241 
L 213.331317 273.735717 
L 213.511781 256.483058 
L 213.692245 270.959705 
L 213.872709 266.303925 
L 214.053173 254.508358 
L 214.233637 274.304459 
L 214.414101 261.631975 
L 214.594565 271.929738 
L 214.775029 268.048594 
L 214.955492 260.937006 
L 215.135956 262.411055 
L 215.31642 259.630789 
L 215.677348 282.773117 
L 216.038276 274.397482 
L 216.21874 262.652428 
L 216.399204 269.876357 
L 216.579667 261.808011 
L 216.760131 290.972735 
L 216.940595 280.569312 
L 217.121059 278.972531 
L 217.301523 263.580253 
L 217.481987 265.928485 
L 217.662451 269.903547 
L 217.842915 255.745567 
L 218.023379 277.779653 
L 218.203843 274.166061 
L 218.384306 272.8451 
L 218.56477 281.160595 
L 218.745234 267.504824 
L 218.925698 283.006025 
L 219.106162 279.41887 
L 219.286626 283.834145 
L 219.647554 263.869333 
L 220.008481 278.301009 
L 220.188945 265.658945 
L 220.369409 276.663626 
L 220.549873 265.770206 
L 220.730337 262.533839 
L 220.910801 271.502621 
L 221.091265 257.164141 
L 221.271729 277.249192 
L 221.452193 269.060962 
L 221.632657 287.922303 
L 221.81312 269.967879 
L 221.993584 267.696509 
L 222.174048 262.343825 
L 222.354512 268.583785 
L 222.534976 262.087488 
L 222.71544 278.7657 
L 222.895904 281.779167 
L 223.076368 281.975427 
L 223.256832 262.56643 
L 223.437295 258.271734 
L 223.617759 263.287684 
L 223.798223 263.086687 
L 224.159151 274.078168 
L 224.339615 256.839446 
L 224.520079 270.367636 
L 224.700543 266.19486 
L 224.881007 254.219217 
L 225.061471 275.695255 
L 225.241934 262.637037 
L 225.422398 273.366952 
L 225.602862 269.344814 
L 225.783326 260.432774 
L 225.96379 262.613941 
L 226.144254 259.675272 
L 226.324718 276.517324 
L 226.505182 282.793419 
L 226.685646 281.511866 
L 226.866109 276.402485 
L 227.046573 264.635844 
L 227.227037 271.85167 
L 227.407501 262.233134 
L 227.587965 292.982444 
L 227.768429 282.266397 
L 227.948893 278.856953 
L 228.129357 262.834242 
L 228.309821 265.648875 
L 228.490285 270.563541 
L 228.670748 255.850481 
L 228.851212 278.40082 
L 229.21214 274.033111 
L 229.392604 281.648918 
L 229.573068 268.942404 
L 229.753532 284.844401 
L 229.933996 280.288429 
L 230.11446 285.764616 
L 230.475387 265.117028 
L 230.836315 279.867102 
L 231.016779 266.689976 
L 231.197243 277.97582 
L 231.377707 266.581095 
L 231.558171 263.81512 
L 231.738635 272.43642 
L 231.919098 257.406547 
L 232.099562 278.897036 
L 232.280026 270.376862 
L 232.46049 288.773006 
L 232.640954 270.161171 
L 232.821418 268.715039 
L 233.001882 262.668191 
L 233.182346 269.139178 
L 233.36281 261.450954 
L 233.543274 279.786275 
L 233.904201 283.294176 
L 234.084665 263.992699 
L 234.265129 258.422327 
L 234.445593 264.011527 
L 234.626057 263.278758 
L 234.986985 274.259117 
L 235.167449 257.434302 
L 235.347912 270.018619 
L 235.528376 266.296335 
L 235.70884 254.406265 
L 235.889304 274.446203 
L 236.069768 262.025333 
L 236.250232 272.681252 
L 236.430696 269.558626 
L 236.61116 260.663391 
L 236.791624 263.654149 
L 236.972088 261.233275 
L 237.333015 282.641298 
L 237.693943 275.238364 
L 237.874407 266.153972 
L 238.054871 270.766031 
L 238.235335 262.861291 
L 238.415799 293.297833 
L 238.596263 280.785026 
L 238.776726 278.758208 
L 238.95719 263.361545 
L 239.318118 271.676361 
L 239.498582 256.55618 
L 239.679046 278.957868 
L 239.85951 275.400055 
L 240.039974 274.984767 
L 240.220438 281.528852 
L 240.400902 269.148399 
L 240.581365 284.902087 
L 240.761829 279.296366 
L 240.942293 286.734903 
L 241.303221 266.591561 
L 241.664149 279.928042 
L 241.844613 266.525685 
L 242.025077 276.979873 
L 242.20554 266.011703 
L 242.386004 264.135631 
L 242.566468 273.039253 
L 242.746932 257.415058 
L 242.927396 277.245763 
L 243.10786 270.720851 
L 243.288324 289.027747 
L 243.468788 268.910605 
L 243.649252 268.724172 
L 243.829715 262.549948 
L 244.010179 269.645827 
L 244.190643 262.909703 
L 244.371107 280.840285 
L 244.551571 282.198018 
L 244.732035 282.27485 
L 244.912499 263.81334 
L 245.092963 257.185878 
L 245.273427 263.564234 
L 245.453891 263.028407 
L 245.814818 274.758654 
L 245.995282 258.12562 
L 246.175746 271.041604 
L 246.35621 267.189275 
L 246.536674 254.477173 
L 246.717138 274.760491 
L 246.897602 261.543391 
L 247.078066 273.165781 
L 247.258529 269.419366 
L 247.438993 261.087146 
L 247.619457 263.24864 
L 247.799921 260.517161 
L 247.980385 276.893031 
L 248.160849 282.839804 
L 248.341313 278.736239 
L 248.521777 277.741334 
L 248.702241 264.557867 
L 248.882705 271.18999 
L 249.063168 261.836427 
L 249.243632 293.609123 
L 249.424096 282.272485 
L 249.60456 279.924906 
L 249.785024 264.135682 
L 250.145952 272.51636 
L 250.326416 258.107396 
L 250.50688 279.044622 
L 250.687343 275.449362 
L 250.867807 274.886325 
L 251.048271 282.832611 
L 251.228735 269.723443 
L 251.409199 285.967877 
L 251.589663 281.003466 
L 251.770127 286.855736 
L 252.131055 267.169624 
L 252.491982 280.192376 
L 252.672446 266.841021 
L 252.85291 277.54425 
L 253.033374 267.113961 
L 253.213838 263.985227 
L 253.394302 273.584237 
L 253.574766 257.940782 
L 253.75523 279.467475 
L 253.935694 272.00345 
L 254.116157 289.240536 
L 254.296621 271.326143 
L 254.477085 270.055848 
L 254.657549 262.767194 
L 254.838013 269.570209 
L 255.018477 263.157064 
L 255.198941 281.468671 
L 255.379405 282.667721 
L 255.559869 282.97078 
L 255.740333 263.67911 
L 255.920796 257.941422 
L 256.10126 264.612241 
L 256.281724 263.68893 
L 256.642652 275.784197 
L 256.823116 258.499293 
L 257.00358 271.628195 
L 257.184044 266.864831 
L 257.364508 254.769979 
L 257.544971 275.330961 
L 257.725435 262.614237 
L 257.905899 274.251257 
L 258.266827 262.214167 
L 258.447291 264.460692 
L 258.627755 261.417363 
L 258.988683 284.571818 
L 259.34961 277.127522 
L 259.530074 266.064914 
L 259.710538 271.263946 
L 259.891002 263.585495 
L 260.071466 293.735058 
L 260.25193 281.977141 
L 260.432394 279.636292 
L 260.612858 263.426555 
L 260.973785 271.713732 
L 261.154249 259.169403 
L 261.334713 279.088088 
L 261.515177 276.414245 
L 261.695641 276.269704 
L 261.876105 283.084157 
L 262.056569 269.797253 
L 262.237033 284.875941 
L 262.417497 280.687095 
L 262.59796 288.926949 
L 262.958888 265.73279 
L 263.319816 280.744786 
L 263.50028 267.053642 
L 263.680744 278.130538 
L 263.861208 268.105316 
L 264.041672 264.769193 
L 264.222136 274.246452 
L 264.402599 258.679163 
L 264.583063 279.920653 
L 264.763527 272.275628 
L 264.943991 289.243626 
L 265.124455 271.903936 
L 265.304919 269.746516 
L 265.485383 262.895973 
L 265.665847 270.276432 
L 265.846311 263.31204 
L 266.026774 281.037132 
L 266.207238 282.886069 
L 266.387702 283.358188 
L 266.568166 263.631065 
L 266.74863 258.507467 
L 266.929094 265.418556 
L 267.109558 264.659904 
L 267.470486 275.203254 
L 267.65095 259.280894 
L 267.831413 271.517098 
L 268.011877 268.0369 
L 268.192341 255.82861 
L 268.372805 275.703415 
L 268.553269 263.597008 
L 268.733733 274.771836 
L 268.914197 271.566318 
L 269.094661 262.589821 
L 269.275125 265.381679 
L 269.455588 262.030548 
L 269.816516 284.245696 
L 270.357908 265.884504 
L 270.538372 272.256468 
L 270.718836 264.605558 
L 270.8993 294.738667 
L 271.079764 283.311759 
L 271.260227 280.000518 
L 271.440691 263.942802 
L 271.801619 271.829711 
L 271.982083 257.356981 
L 272.162547 279.68334 
L 272.343011 276.494922 
L 272.523475 275.610664 
L 272.703939 282.421319 
L 272.884402 269.710313 
L 273.064866 285.717774 
L 273.24533 280.949199 
L 273.425794 287.280255 
L 273.786722 266.069069 
L 274.14765 279.519877 
L 274.328114 267.609706 
L 274.508577 278.953148 
L 274.689041 267.649303 
L 274.869505 265.520907 
L 275.049969 273.476943 
L 275.230433 259.367325 
L 275.410897 279.669521 
L 275.591361 271.479396 
L 275.771825 289.722294 
L 275.952289 271.273539 
L 276.132753 268.486661 
L 276.313216 263.799876 
L 276.49368 269.890203 
L 276.674144 263.505494 
L 276.854608 280.335016 
L 277.035072 282.445313 
L 277.215536 283.176632 
L 277.396 263.308638 
L 277.576464 258.639329 
L 277.756928 264.278989 
L 277.937391 264.70125 
L 278.298319 274.958168 
L 278.478783 258.096464 
L 278.659247 271.359898 
L 278.839711 267.869703 
L 279.020175 254.918482 
L 279.200639 275.205397 
L 279.381103 262.778808 
L 279.561567 273.381019 
L 279.74203 270.349989 
L 279.922494 262.383136 
L 280.102958 265.609062 
L 280.283422 262.840338 
L 280.463886 277.96174 
L 280.64435 283.023619 
L 281.005278 275.641612 
L 281.185742 265.357486 
L 281.366205 271.908568 
L 281.546669 263.277682 
L 281.727133 294.432087 
L 281.907597 282.866973 
L 282.088061 278.533347 
L 282.268525 263.458778 
L 282.629453 270.891659 
L 282.809917 257.570718 
L 282.990381 280.201349 
L 283.170844 276.361253 
L 283.351308 276.103012 
L 283.531772 283.90392 
L 283.712236 271.017634 
L 283.8927 284.187029 
L 284.073164 281.849445 
L 284.253628 287.141662 
L 284.614556 266.132348 
L 284.975483 279.935052 
L 285.155947 267.235009 
L 285.336411 278.351937 
L 285.697339 265.170316 
L 285.877803 273.606874 
L 286.058267 259.22818 
L 286.238731 278.95552 
L 286.419195 271.394638 
L 286.599658 288.761364 
L 286.780122 270.474824 
L 286.960586 269.377858 
L 287.14105 263.248492 
L 287.321514 269.176913 
L 287.501978 262.357722 
L 287.682442 280.973856 
L 288.04337 282.273297 
L 288.223833 262.897818 
L 288.404297 257.992961 
L 288.584761 264.620884 
L 288.765225 262.826811 
L 289.126153 276.39515 
L 289.306617 258.017873 
L 289.487081 271.48215 
L 289.667545 266.786956 
L 289.848008 256.910771 
L 290.028472 275.726976 
L 290.208936 264.380419 
L 290.3894 274.017483 
L 290.569864 270.583745 
L 290.750328 261.640414 
L 290.930792 264.74 
L 291.111256 263.597403 
L 291.472184 283.14363 
L 291.833111 276.095025 
L 292.013575 265.42634 
L 292.194039 271.935648 
L 292.374503 263.044147 
L 292.554967 293.912191 
L 292.735431 282.617223 
L 292.915895 279.399752 
L 293.096359 264.206023 
L 293.457286 270.882112 
L 293.63775 257.864893 
L 293.818214 279.218633 
L 294.179142 275.209853 
L 294.359606 283.351631 
L 294.54007 270.177574 
L 294.720534 285.473541 
L 294.900998 281.712139 
L 295.081461 286.609987 
L 295.442389 266.872155 
L 295.803317 280.128898 
L 295.983781 266.875172 
L 296.164245 278.240295 
L 296.344709 267.7669 
L 296.525173 266.088622 
L 296.705636 274.039882 
L 296.8861 259.800205 
L 297.066564 279.938202 
L 297.247028 272.502113 
L 297.427492 290.342173 
L 297.607956 273.126232 
L 297.78842 270.057729 
L 297.968884 263.928475 
L 298.149348 270.997721 
L 298.329812 264.164109 
L 298.510275 282.905352 
L 298.690739 282.776926 
L 298.871203 282.792594 
L 299.051667 264.939712 
L 299.232131 258.289037 
L 299.412595 263.866732 
L 299.593059 263.215339 
L 299.953987 276.477634 
L 300.13445 258.6802 
L 300.314914 270.973231 
L 300.495378 267.271155 
L 300.675842 254.306793 
L 300.856306 275.671007 
L 301.03677 262.777497 
L 301.217234 272.873292 
L 301.397698 269.769623 
L 301.578162 261.803719 
L 301.758625 264.182366 
L 301.939089 262.845264 
L 302.300017 283.357821 
L 302.660945 276.689403 
L 302.841409 265.213105 
L 303.021873 272.142049 
L 303.202337 264.08685 
L 303.382801 294.584347 
L 303.563264 282.913797 
L 303.743728 279.343621 
L 303.924192 264.472981 
L 304.28512 271.520034 
L 304.465584 258.699966 
L 304.646048 280.334316 
L 305.006976 275.259265 
L 305.187439 282.818222 
L 305.367903 269.804512 
L 305.548367 284.666848 
L 305.728831 281.020775 
L 305.909295 286.499438 
L 306.270223 265.398389 
L 306.631151 279.912886 
L 306.811615 265.906499 
L 306.992078 276.961197 
L 307.172542 267.074395 
L 307.353006 264.979853 
L 307.53347 273.980938 
L 307.713934 260.476666 
L 307.894398 280.83018 
L 308.074862 270.983561 
L 308.255326 289.164131 
L 308.43579 271.380526 
L 308.616253 268.593537 
L 308.796717 263.947217 
L 308.977181 270.240788 
L 309.157645 263.992713 
L 309.338109 281.435246 
L 309.518573 281.908867 
L 309.699037 282.70689 
L 309.879501 264.427905 
L 310.059965 260.000257 
L 310.240429 265.926079 
L 310.420892 265.893666 
L 310.78182 276.872408 
L 310.962284 258.354156 
L 311.142748 272.457304 
L 311.323212 267.599911 
L 311.503676 255.595539 
L 311.68414 275.12995 
L 311.864604 262.972684 
L 312.045067 272.684097 
L 312.225531 269.180014 
L 312.405995 260.668479 
L 312.586459 264.430043 
L 312.766923 261.010445 
L 313.127851 282.827276 
L 313.488779 277.572007 
L 313.669243 265.364308 
L 313.849706 271.11702 
L 314.03017 263.620904 
L 314.210634 294.51678 
L 314.391098 283.763735 
L 314.571562 281.067586 
L 314.752026 265.465963 
L 314.93249 269.660952 
L 315.112954 271.063702 
L 315.293418 258.048796 
L 315.473881 278.757365 
L 315.834809 274.718546 
L 316.015273 283.962797 
L 316.195737 270.807541 
L 316.376201 286.46156 
L 316.556665 280.619186 
L 316.737129 286.970549 
L 317.098056 265.611466 
L 317.458984 280.008356 
L 317.639448 266.348067 
L 317.819912 277.775036 
L 318.000376 267.636503 
L 318.18084 266.003881 
L 318.361304 273.145636 
L 318.541768 258.983897 
L 318.722232 279.998052 
L 318.902695 272.689918 
L 319.083159 288.975475 
L 319.263623 271.981709 
L 319.444087 269.006375 
L 319.624551 263.920254 
L 319.805015 271.449237 
L 319.985479 263.891844 
L 320.165943 281.641228 
L 320.52687 283.398977 
L 320.707334 265.141779 
L 320.887798 260.307879 
L 321.068262 266.212767 
L 321.248726 266.084143 
L 321.609654 277.196652 
L 321.790118 258.161595 
L 321.970582 272.384259 
L 322.151046 268.35984 
L 322.331509 255.907584 
L 322.511973 275.315728 
L 322.692437 262.947257 
L 322.872901 272.776705 
L 323.053365 269.527671 
L 323.233829 262.112944 
L 323.414293 263.805256 
L 323.594757 262.138002 
L 323.955684 283.753458 
L 324.316612 277.443727 
L 324.497076 265.928879 
L 324.67754 272.009411 
L 324.858004 262.885923 
L 325.038468 294.739564 
L 325.218932 284.596578 
L 325.399396 281.721184 
L 325.57986 265.537252 
L 325.940787 271.885533 
L 326.121251 257.959446 
L 326.301715 280.511323 
L 326.482179 276.056176 
L 326.662643 275.263912 
L 326.843107 284.122224 
L 327.023571 270.784106 
L 327.204035 286.199222 
L 327.384498 280.611129 
L 327.564962 286.082008 
L 327.92589 266.32586 
L 328.286818 280.524519 
L 328.467282 268.110887 
L 328.647746 279.054022 
L 328.82821 267.477282 
L 329.008674 264.094199 
L 329.189137 273.816364 
L 329.369601 258.246744 
L 329.550065 279.149831 
L 329.730529 272.206574 
L 329.910993 290.113603 
L 330.091457 272.765265 
L 330.271921 271.107078 
L 330.452385 263.894067 
L 330.632849 271.376332 
L 330.813312 263.143081 
L 330.993776 282.142863 
L 331.354704 283.843677 
L 331.535168 265.120763 
L 331.715632 260.060743 
L 331.896096 266.615592 
L 332.07656 265.414894 
L 332.437487 276.141341 
L 332.617951 259.019681 
L 332.798415 272.191662 
L 332.978879 267.766372 
L 333.159343 256.391941 
L 333.339807 276.116632 
L 333.520271 264.048932 
L 333.700735 274.408027 
L 334.061663 261.867473 
L 334.242126 263.969165 
L 334.42259 262.631915 
L 334.783518 284.867808 
L 335.144446 277.709043 
L 335.32491 265.609853 
L 335.505374 272.052627 
L 335.685838 263.562582 
L 335.866301 295.058857 
L 336.046765 283.990512 
L 336.227229 280.995038 
L 336.407693 267.056206 
L 336.768621 272.404543 
L 336.949085 259.419075 
L 337.129549 279.605439 
L 337.490477 275.251827 
L 337.67094 284.079108 
L 337.851404 270.823176 
L 338.031868 286.512486 
L 338.212332 282.246169 
L 338.392796 287.862714 
L 338.753724 267.694756 
L 339.114652 281.366512 
L 339.295115 267.82042 
L 339.475579 278.513716 
L 339.656043 267.902243 
L 339.836507 264.165546 
L 340.016971 274.001951 
L 340.197435 257.547272 
L 340.377899 279.043121 
L 340.558363 271.860836 
L 340.738827 290.935218 
L 340.919291 272.37127 
L 341.099754 271.025876 
L 341.280218 263.352488 
L 341.460682 271.429561 
L 341.641146 264.351212 
L 341.82161 283.071183 
L 342.002074 284.714463 
L 342.182538 285.131943 
L 342.363002 266.810391 
L 342.543466 260.818764 
L 342.723929 266.682186 
L 342.904393 264.737809 
L 343.265321 275.357592 
L 343.445785 259.228315 
L 343.626249 272.31083 
L 343.806713 267.340474 
L 343.987177 256.262824 
L 344.167641 274.649361 
L 344.348105 262.757111 
L 344.528568 273.989141 
L 344.709032 269.247266 
L 344.889496 261.268464 
L 345.06996 264.342981 
L 345.250424 263.268297 
L 345.611352 284.883069 
L 345.97228 277.607597 
L 346.152743 264.84085 
L 346.333207 271.104363 
L 346.513671 263.377645 
L 346.694135 293.812568 
L 346.874599 282.918505 
L 347.055063 279.79896 
L 347.235527 265.237644 
L 347.596455 271.808519 
L 347.776918 258.026471 
L 347.957382 279.38002 
L 348.31831 274.573498 
L 348.498774 284.029835 
L 348.679238 270.188799 
L 348.859702 286.337644 
L 349.040166 281.28936 
L 349.22063 286.412749 
L 349.581557 266.286676 
L 349.942485 281.399446 
L 350.122949 268.189729 
L 350.303413 278.064727 
L 350.664341 264.096348 
L 350.844805 273.761559 
L 351.025269 258.488161 
L 351.205732 279.539704 
L 351.386196 271.707949 
L 351.56666 289.858545 
L 351.747124 272.786428 
L 351.927588 269.621883 
L 352.108052 264.085429 
L 352.288516 270.995688 
L 352.46898 264.656493 
L 352.649444 281.811464 
L 353.010371 284.69569 
L 353.190835 265.5707 
L 353.371299 260.307084 
L 353.551763 267.135632 
L 353.732227 265.034433 
L 354.093155 275.210108 
L 354.273619 259.556655 
L 354.454083 272.878273 
L 354.634546 268.882991 
L 354.81501 256.515861 
L 354.995474 275.935308 
L 355.175938 263.93431 
L 355.356402 274.293497 
L 355.536866 269.633117 
L 355.71733 261.225683 
L 355.897794 264.413591 
L 356.078258 263.105776 
L 356.439185 284.174108 
L 356.800113 277.907118 
L 356.980577 266.246934 
L 357.161041 270.626495 
L 357.341505 264.325943 
L 357.521969 295.488 
L 357.702433 283.658176 
L 357.882897 279.630196 
L 358.06336 265.469983 
L 358.243824 270.584507 
L 358.424288 272.41422 
L 358.604752 259.062137 
L 358.785216 279.83052 
L 359.146144 274.8124 
L 359.326608 283.856473 
L 359.507072 270.550329 
L 359.687535 285.462386 
L 359.867999 280.989287 
L 360.048463 286.459381 
L 360.409391 265.555866 
L 360.770319 281.514956 
L 360.950783 267.742819 
L 361.131247 277.792131 
L 361.311711 266.853177 
L 361.492174 263.550402 
L 361.672638 273.522219 
L 361.853102 258.667416 
L 362.033566 279.935836 
L 362.21403 271.68712 
L 362.394494 290.386459 
L 362.574958 272.389578 
L 362.755422 270.17527 
L 362.935886 264.907601 
L 363.116349 271.857101 
L 363.296813 263.409665 
L 363.477277 281.751276 
L 363.657741 283.701423 
L 363.838205 284.304126 
L 364.018669 264.523915 
L 364.199133 259.631055 
L 364.379597 267.040277 
L 364.560061 265.286692 
L 364.920988 276.014118 
L 365.101452 259.42711 
L 365.281916 271.929527 
L 365.46238 266.853474 
L 365.642844 256.655487 
L 365.823308 275.448047 
L 366.003772 264.139166 
L 366.184236 274.20072 
L 366.3647 269.644897 
L 366.545163 260.967336 
L 366.725627 264.496241 
L 366.906091 262.4156 
L 367.267019 284.699056 
L 367.627947 277.131446 
L 367.808411 266.063225 
L 367.988875 270.612955 
L 368.169339 262.841566 
L 368.349802 294.406831 
L 368.530266 283.674826 
L 368.71073 280.277788 
L 368.891194 265.128975 
L 369.071658 269.804123 
L 369.252122 271.397986 
L 369.432586 257.733559 
L 369.61305 279.475153 
L 369.973977 274.84197 
L 370.154441 283.818204 
L 370.334905 270.833236 
L 370.515369 286.037751 
L 370.695833 280.406089 
L 370.876297 287.4563 
L 371.237225 267.878049 
L 371.598153 281.407519 
L 371.778616 267.898285 
L 371.95908 278.093397 
L 372.139544 268.031007 
L 372.320008 264.446141 
L 372.500472 273.14573 
L 372.680936 259.319476 
L 372.8614 279.279087 
L 373.041864 271.036502 
L 373.222328 290.841222 
L 373.402791 272.516662 
L 373.763719 265.556188 
L 373.944183 271.204524 
L 374.124647 263.933001 
L 374.305111 282.839773 
L 374.666039 284.39803 
L 374.846503 265.328897 
L 375.026966 258.826008 
L 375.20743 265.522881 
L 375.387894 264.640417 
L 375.748822 275.845114 
L 375.929286 258.898504 
L 376.10975 271.907546 
L 376.290214 267.477232 
L 376.470678 256.421911 
L 376.651142 275.643854 
L 376.831605 263.635811 
L 377.012069 275.254815 
L 377.372997 262.544376 
L 377.553461 264.976387 
L 377.733925 263.789656 
L 378.094853 283.960797 
L 378.45578 276.52506 
L 378.636244 264.946471 
L 378.816708 270.971333 
L 378.997172 264.290461 
L 379.177636 294.209594 
L 379.3581 283.485514 
L 379.538564 279.53013 
L 379.719028 265.319965 
L 379.899492 270.256973 
L 380.079956 270.955933 
L 380.260419 257.477414 
L 380.440883 280.366501 
L 380.621347 276.111021 
L 380.801811 275.993192 
L 380.982275 284.273835 
L 381.162739 271.268612 
L 381.343203 286.888869 
L 381.523667 280.951815 
L 381.704131 288.079205 
L 382.065058 267.538882 
L 382.425986 281.268055 
L 382.60645 267.143838 
L 382.786914 277.201948 
L 382.967378 267.185708 
L 383.147842 264.152898 
L 383.328306 273.263524 
L 383.50877 258.780027 
L 383.689233 280.430793 
L 383.869697 271.868417 
L 384.050161 290.552819 
L 384.230625 271.624531 
L 384.411089 269.806212 
L 384.591553 264.593184 
L 384.772017 270.948309 
L 384.952481 263.585114 
L 385.132945 282.002072 
L 385.313408 284.779105 
L 385.493872 283.78893 
L 385.674336 264.801453 
L 385.8548 258.118304 
L 386.035264 266.122389 
L 386.215728 265.270017 
L 386.576656 276.388408 
L 386.75712 258.953759 
L 386.937584 272.466973 
L 387.118047 267.780357 
L 387.298511 257.734864 
L 387.478975 275.327024 
L 387.659439 263.966743 
L 387.839903 274.417289 
L 388.020367 270.103198 
L 388.200831 262.1863 
L 388.381295 264.888197 
L 388.561759 263.377004 
L 388.922686 285.257338 
L 389.283614 278.344907 
L 389.464078 265.813092 
L 389.644542 271.3677 
L 389.825006 263.278705 
L 390.00547 295.187657 
L 390.185934 283.323805 
L 390.366397 279.561264 
L 390.546861 265.604308 
L 390.907789 271.332875 
L 391.088253 256.164746 
L 391.268717 279.118291 
L 391.449181 276.055892 
L 391.629645 275.954887 
L 391.810109 283.248518 
L 391.990573 270.113533 
L 392.171036 287.190615 
L 392.3515 280.578922 
L 392.531964 287.479663 
L 392.892892 267.779927 
L 393.25382 280.739665 
L 393.434284 268.357293 
L 393.614748 277.273087 
L 393.795211 267.181812 
L 393.975675 263.610911 
L 394.156139 273.959282 
L 394.336603 258.932055 
L 394.517067 279.798379 
L 394.697531 272.741202 
L 394.877995 290.601957 
L 395.058459 272.980772 
L 395.419387 264.475455 
L 395.59985 270.53552 
L 395.780314 263.612906 
L 395.960778 282.445052 
L 396.141242 284.336985 
L 396.321706 284.466938 
L 396.682634 258.362279 
L 396.863098 266.448916 
L 397.043562 265.541636 
L 397.224025 272.819882 
L 397.404489 274.704407 
L 397.584953 258.635909 
L 397.765417 272.10301 
L 397.945881 268.164932 
L 398.126345 257.580196 
L 398.306809 275.613335 
L 398.487273 262.842782 
L 398.487273 262.842782 
" clip-path="url(#pe7b377811d)" style="fill: none; stroke: #1f77b4; stroke-width: 3; stroke-linecap: square"/>
   </g>
   <g id="patch_3">
    <path d="M 57.6 307.584 
L 57.6 41.472 
" style="fill: none; stroke: #000000; stroke-width: 3; stroke-linejoin: miter; stroke-linecap: square"/>
   </g>
   <g id="patch_4">
    <path d="M 414.72 307.584 
L 414.72 41.472 
" style="fill: none; stroke: #000000; stroke-width: 3; stroke-linejoin: miter; stroke-linecap: square"/>
   </g>
   <g id="patch_5">
    <path d="M 57.6 307.584 
L 414.72 307.584 
" style="fill: none; stroke: #000000; stroke-width: 3; stroke-linejoin: miter; stroke-linecap: square"/>
   </g>
   <g id="patch_6">
    <path d="M 57.6 41.472 
L 414.72 41.472 
" style="fill: none; stroke: #000000; stroke-width: 3; stroke-linejoin: miter; stroke-linecap: square"/>
   </g>
   <g id="text_17">
    <!-- Error plot sparsity:70 batchsize:1000 -->
    <g transform="translate(68.07875 35.472)scale(0.16 -0.16)">
     <defs>
      <path id="DejaVuSans-Bold-6c" d="M 538 4863 
L 1656 4863 
L 1656 0 
L 538 0 
L 538 4863 
z
" transform="scale(0.015625)"/>
      <path id="DejaVuSans-Bold-74" d="M 1759 4494 
L 1759 3500 
L 2913 3500 
L 2913 2700 
L 1759 2700 
L 1759 1216 
Q 1759 972 1856 886 
Q 1953 800 2241 800 
L 2816 800 
L 2816 0 
L 1856 0 
Q 1194 0 917 276 
Q 641 553 641 1216 
L 641 2700 
L 84 2700 
L 84 3500 
L 641 3500 
L 641 4494 
L 1759 4494 
z
" transform="scale(0.015625)"/>
      <path id="DejaVuSans-Bold-73" d="M 3272 3391 
L 3272 2541 
Q 2913 2691 2578 2766 
Q 2244 2841 1947 2841 
Q 1628 2841 1473 2761 
Q 1319 2681 1319 2516 
Q 1319 2381 1436 2309 
Q 1553 2238 1856 2203 
L 2053 2175 
Q 2913 2066 3209 1816 
Q 3506 1566 3506 1031 
Q 3506 472 3093 190 
Q 2681 -91 1863 -91 
Q 1516 -91 1145 -36 
Q 775 19 384 128 
L 384 978 
Q 719 816 1070 734 
Q 1422 653 1784 653 
Q 2113 653 2278 743 
Q 2444 834 2444 1013 
Q 2444 1163 2330 1236 
Q 2216 1309 1875 1350 
L 1678 1375 
Q 931 1469 631 1722 
Q 331 1975 331 2491 
Q 331 3047 712 3315 
Q 1094 3584 1881 3584 
Q 2191 3584 2531 3537 
Q 2872 3491 3272 3391 
z
" transform="scale(0.015625)"/>
      <path id="DejaVuSans-Bold-69" d="M 538 3500 
L 1656 3500 
L 1656 0 
L 538 0 
L 538 3500 
z
M 538 4863 
L 1656 4863 
L 1656 3950 
L 538 3950 
L 538 4863 
z
" transform="scale(0.015625)"/>
      <path id="DejaVuSans-Bold-79" d="M 78 3500 
L 1197 3500 
L 2138 1125 
L 2938 3500 
L 4056 3500 
L 2584 -331 
Q 2363 -916 2067 -1148 
Q 1772 -1381 1288 -1381 
L 641 -1381 
L 641 -647 
L 991 -647 
Q 1275 -647 1404 -556 
Q 1534 -466 1606 -231 
L 1638 -134 
L 78 3500 
z
" transform="scale(0.015625)"/>
      <path id="DejaVuSans-Bold-3a" d="M 716 3500 
L 1844 3500 
L 1844 2291 
L 716 2291 
L 716 3500 
z
M 716 1209 
L 1844 1209 
L 1844 0 
L 716 0 
L 716 1209 
z
" transform="scale(0.015625)"/>
      <path id="DejaVuSans-Bold-62" d="M 2400 722 
Q 2759 722 2948 984 
Q 3138 1247 3138 1747 
Q 3138 2247 2948 2509 
Q 2759 2772 2400 2772 
Q 2041 2772 1848 2508 
Q 1656 2244 1656 1747 
Q 1656 1250 1848 986 
Q 2041 722 2400 722 
z
M 1656 2988 
Q 1888 3294 2169 3439 
Q 2450 3584 2816 3584 
Q 3463 3584 3878 3070 
Q 4294 2556 4294 1747 
Q 4294 938 3878 423 
Q 3463 -91 2816 -91 
Q 2450 -91 2169 54 
Q 1888 200 1656 506 
L 1656 0 
L 538 0 
L 538 4863 
L 1656 4863 
L 1656 2988 
z
" transform="scale(0.015625)"/>
      <path id="DejaVuSans-Bold-7a" d="M 366 3500 
L 3419 3500 
L 3419 2719 
L 1575 800 
L 3419 800 
L 3419 0 
L 288 0 
L 288 781 
L 2131 2700 
L 366 2700 
L 366 3500 
z
" transform="scale(0.015625)"/>
      <path id="DejaVuSans-Bold-65" d="M 4031 1759 
L 4031 1441 
L 1416 1441 
Q 1456 1047 1700 850 
Q 1944 653 2381 653 
Q 2734 653 3104 758 
Q 3475 863 3866 1075 
L 3866 213 
Q 3469 63 3072 -14 
Q 2675 -91 2278 -91 
Q 1328 -91 801 392 
Q 275 875 275 1747 
Q 275 2603 792 3093 
Q 1309 3584 2216 3584 
Q 3041 3584 3536 3087 
Q 4031 2591 4031 1759 
z
M 2881 2131 
Q 2881 2450 2695 2645 
Q 2509 2841 2209 2841 
Q 1884 2841 1681 2658 
Q 1478 2475 1428 2131 
L 2881 2131 
z
" transform="scale(0.015625)"/>
     </defs>
     <use xlink:href="#DejaVuSans-Bold-45"/>
     <use xlink:href="#DejaVuSans-Bold-72" x="68.310547"/>
     <use xlink:href="#DejaVuSans-Bold-72" x="117.626953"/>
     <use xlink:href="#DejaVuSans-Bold-6f" x="166.943359"/>
     <use xlink:href="#DejaVuSans-Bold-72" x="235.644531"/>
     <use xlink:href="#DejaVuSans-Bold-20" x="284.960938"/>
     <use xlink:href="#DejaVuSans-Bold-70" x="319.775391"/>
     <use xlink:href="#DejaVuSans-Bold-6c" x="391.357422"/>
     <use xlink:href="#DejaVuSans-Bold-6f" x="425.634766"/>
     <use xlink:href="#DejaVuSans-Bold-74" x="494.335938"/>
     <use xlink:href="#DejaVuSans-Bold-20" x="542.138672"/>
     <use xlink:href="#DejaVuSans-Bold-73" x="576.953125"/>
     <use xlink:href="#DejaVuSans-Bold-70" x="636.474609"/>
     <use xlink:href="#DejaVuSans-Bold-61" x="708.056641"/>
     <use xlink:href="#DejaVuSans-Bold-72" x="775.537109"/>
     <use xlink:href="#DejaVuSans-Bold-73" x="824.853516"/>
     <use xlink:href="#DejaVuSans-Bold-69" x="884.375"/>
     <use xlink:href="#DejaVuSans-Bold-74" x="918.652344"/>
     <use xlink:href="#DejaVuSans-Bold-79" x="966.455078"/>
     <use xlink:href="#DejaVuSans-Bold-3a" x="1031.640625"/>
     <use xlink:href="#DejaVuSans-Bold-37" x="1071.630859"/>
     <use xlink:href="#DejaVuSans-Bold-30" x="1141.210938"/>
     <use xlink:href="#DejaVuSans-Bold-20" x="1210.791016"/>
     <use xlink:href="#DejaVuSans-Bold-62" x="1245.605469"/>
     <use xlink:href="#DejaVuSans-Bold-61" x="1317.1875"/>
     <use xlink:href="#DejaVuSans-Bold-74" x="1384.667969"/>
     <use xlink:href="#DejaVuSans-Bold-63" x="1432.470703"/>
     <use xlink:href="#DejaVuSans-Bold-68" x="1491.748047"/>
     <use xlink:href="#DejaVuSans-Bold-73" x="1562.939453"/>
     <use xlink:href="#DejaVuSans-Bold-69" x="1622.460938"/>
     <use xlink:href="#DejaVuSans-Bold-7a" x="1656.738281"/>
     <use xlink:href="#DejaVuSans-Bold-65" x="1714.941406"/>
     <use xlink:href="#DejaVuSans-Bold-3a" x="1782.763672"/>
     <use xlink:href="#DejaVuSans-Bold-31" x="1822.753906"/>
     <use xlink:href="#DejaVuSans-Bold-30" x="1892.333984"/>
     <use xlink:href="#DejaVuSans-Bold-30" x="1961.914062"/>
     <use xlink:href="#DejaVuSans-Bold-30" x="2031.494141"/>
    </g>
   </g>
  </g>
 </g>
 <defs>
  <clipPath id="pe7b377811d">
   <rect x="57.6" y="41.472" width="357.12" height="266.112"/>
  </clipPath>
 </defs>
</svg>
