<?xml version="1.0" encoding="utf-8" standalone="no"?>
<!DOCTYPE svg PUBLIC "-//W3C//DTD SVG 1.1//EN"
  "http://www.w3.org/Graphics/SVG/1.1/DTD/svg11.dtd">
<svg xmlns:xlink="http://www.w3.org/1999/xlink" width="460.8pt" height="345.6pt" viewBox="0 0 460.8 345.6" xmlns="http://www.w3.org/2000/svg" version="1.1">
 <metadata>
  <rdf:RDF xmlns:dc="http://purl.org/dc/elements/1.1/" xmlns:cc="http://creativecommons.org/ns#" xmlns:rdf="http://www.w3.org/1999/02/22-rdf-syntax-ns#">
   <cc:Work>
    <dc:type rdf:resource="http://purl.org/dc/dcmitype/StillImage"/>
    <dc:date>2023-08-16T13:13:25.306566</dc:date>
    <dc:format>image/svg+xml</dc:format>
    <dc:creator>
     <cc:Agent>
      <dc:title>Matplotlib v3.5.3, https://matplotlib.org/</dc:title>
     </cc:Agent>
    </dc:creator>
   </cc:Work>
  </rdf:RDF>
 </metadata>
 <defs>
  <style type="text/css">*{stroke-linejoin: round; stroke-linecap: butt}</style>
 </defs>
 <g id="figure_1">
  <g id="patch_1">
   <path d="M 0 345.6 
L 460.8 345.6 
L 460.8 0 
L 0 0 
z
" style="fill: #ffffff"/>
  </g>
  <g id="axes_1">
   <g id="patch_2">
    <path d="M 57.6 307.584 
L 414.72 307.584 
L 414.72 41.472 
L 57.6 41.472 
z
" style="fill: #ffffff"/>
   </g>
   <g id="matplotlib.axis_1">
    <g id="xtick_1">
     <g id="line2d_1">
      <defs>
       <path id="mf1187c767f" d="M 0 0 
L 0 3.5 
" style="stroke: #000000; stroke-width: 0.8"/>
      </defs>
      <g>
       <use xlink:href="#mf1187c767f" x="73.832727" y="307.584" style="stroke: #000000; stroke-width: 0.8"/>
      </g>
     </g>
     <g id="text_1">
      <!-- 0.0 -->
      <g transform="translate(63.20429 323.702125)scale(0.12 -0.12)">
       <defs>
        <path id="DejaVuSans-Bold-30" d="M 2944 2338 
Q 2944 3213 2780 3570 
Q 2616 3928 2228 3928 
Q 1841 3928 1675 3570 
Q 1509 3213 1509 2338 
Q 1509 1453 1675 1090 
Q 1841 728 2228 728 
Q 2613 728 2778 1090 
Q 2944 1453 2944 2338 
z
M 4147 2328 
Q 4147 1169 3647 539 
Q 3147 -91 2228 -91 
Q 1306 -91 806 539 
Q 306 1169 306 2328 
Q 306 3491 806 4120 
Q 1306 4750 2228 4750 
Q 3147 4750 3647 4120 
Q 4147 3491 4147 2328 
z
" transform="scale(0.015625)"/>
        <path id="DejaVuSans-Bold-2e" d="M 653 1209 
L 1778 1209 
L 1778 0 
L 653 0 
L 653 1209 
z
" transform="scale(0.015625)"/>
       </defs>
       <use xlink:href="#DejaVuSans-Bold-30"/>
       <use xlink:href="#DejaVuSans-Bold-2e" x="69.580078"/>
       <use xlink:href="#DejaVuSans-Bold-30" x="107.568359"/>
      </g>
     </g>
    </g>
    <g id="xtick_2">
     <g id="line2d_2">
      <g>
       <use xlink:href="#mf1187c767f" x="127.941818" y="307.584" style="stroke: #000000; stroke-width: 0.8"/>
      </g>
     </g>
     <g id="text_2">
      <!-- 5.0 -->
      <g transform="translate(117.313381 323.702125)scale(0.12 -0.12)">
       <defs>
        <path id="DejaVuSans-Bold-35" d="M 678 4666 
L 3669 4666 
L 3669 3781 
L 1638 3781 
L 1638 3059 
Q 1775 3097 1914 3117 
Q 2053 3138 2203 3138 
Q 3056 3138 3531 2711 
Q 4006 2284 4006 1522 
Q 4006 766 3489 337 
Q 2972 -91 2053 -91 
Q 1656 -91 1267 -14 
Q 878 63 494 219 
L 494 1166 
Q 875 947 1217 837 
Q 1559 728 1863 728 
Q 2300 728 2551 942 
Q 2803 1156 2803 1522 
Q 2803 1891 2551 2103 
Q 2300 2316 1863 2316 
Q 1603 2316 1309 2248 
Q 1016 2181 678 2041 
L 678 4666 
z
" transform="scale(0.015625)"/>
       </defs>
       <use xlink:href="#DejaVuSans-Bold-35"/>
       <use xlink:href="#DejaVuSans-Bold-2e" x="69.580078"/>
       <use xlink:href="#DejaVuSans-Bold-30" x="107.568359"/>
      </g>
     </g>
    </g>
    <g id="xtick_3">
     <g id="line2d_3">
      <g>
       <use xlink:href="#mf1187c767f" x="182.050909" y="307.584" style="stroke: #000000; stroke-width: 0.8"/>
      </g>
     </g>
     <g id="text_3">
      <!-- 10.0 -->
      <g transform="translate(167.247784 323.702125)scale(0.12 -0.12)">
       <defs>
        <path id="DejaVuSans-Bold-31" d="M 750 831 
L 1813 831 
L 1813 3847 
L 722 3622 
L 722 4441 
L 1806 4666 
L 2950 4666 
L 2950 831 
L 4013 831 
L 4013 0 
L 750 0 
L 750 831 
z
" transform="scale(0.015625)"/>
       </defs>
       <use xlink:href="#DejaVuSans-Bold-31"/>
       <use xlink:href="#DejaVuSans-Bold-30" x="69.580078"/>
       <use xlink:href="#DejaVuSans-Bold-2e" x="139.160156"/>
       <use xlink:href="#DejaVuSans-Bold-30" x="177.148438"/>
      </g>
     </g>
    </g>
    <g id="xtick_4">
     <g id="line2d_4">
      <g>
       <use xlink:href="#mf1187c767f" x="236.16" y="307.584" style="stroke: #000000; stroke-width: 0.8"/>
      </g>
     </g>
     <g id="text_4">
      <!-- 15.0 -->
      <g transform="translate(221.356875 323.702125)scale(0.12 -0.12)">
       <use xlink:href="#DejaVuSans-Bold-31"/>
       <use xlink:href="#DejaVuSans-Bold-35" x="69.580078"/>
       <use xlink:href="#DejaVuSans-Bold-2e" x="139.160156"/>
       <use xlink:href="#DejaVuSans-Bold-30" x="177.148438"/>
      </g>
     </g>
    </g>
    <g id="xtick_5">
     <g id="line2d_5">
      <g>
       <use xlink:href="#mf1187c767f" x="290.269091" y="307.584" style="stroke: #000000; stroke-width: 0.8"/>
      </g>
     </g>
     <g id="text_5">
      <!-- 20.0 -->
      <g transform="translate(275.465966 323.702125)scale(0.12 -0.12)">
       <defs>
        <path id="DejaVuSans-Bold-32" d="M 1844 884 
L 3897 884 
L 3897 0 
L 506 0 
L 506 884 
L 2209 2388 
Q 2438 2594 2547 2791 
Q 2656 2988 2656 3200 
Q 2656 3528 2436 3728 
Q 2216 3928 1850 3928 
Q 1569 3928 1234 3808 
Q 900 3688 519 3450 
L 519 4475 
Q 925 4609 1322 4679 
Q 1719 4750 2100 4750 
Q 2938 4750 3402 4381 
Q 3866 4013 3866 3353 
Q 3866 2972 3669 2642 
Q 3472 2313 2841 1759 
L 1844 884 
z
" transform="scale(0.015625)"/>
       </defs>
       <use xlink:href="#DejaVuSans-Bold-32"/>
       <use xlink:href="#DejaVuSans-Bold-30" x="69.580078"/>
       <use xlink:href="#DejaVuSans-Bold-2e" x="139.160156"/>
       <use xlink:href="#DejaVuSans-Bold-30" x="177.148438"/>
      </g>
     </g>
    </g>
    <g id="xtick_6">
     <g id="line2d_6">
      <g>
       <use xlink:href="#mf1187c767f" x="344.378182" y="307.584" style="stroke: #000000; stroke-width: 0.8"/>
      </g>
     </g>
     <g id="text_6">
      <!-- 25.0 -->
      <g transform="translate(329.575057 323.702125)scale(0.12 -0.12)">
       <use xlink:href="#DejaVuSans-Bold-32"/>
       <use xlink:href="#DejaVuSans-Bold-35" x="69.580078"/>
       <use xlink:href="#DejaVuSans-Bold-2e" x="139.160156"/>
       <use xlink:href="#DejaVuSans-Bold-30" x="177.148438"/>
      </g>
     </g>
    </g>
    <g id="xtick_7">
     <g id="line2d_7">
      <g>
       <use xlink:href="#mf1187c767f" x="398.487273" y="307.584" style="stroke: #000000; stroke-width: 0.8"/>
      </g>
     </g>
     <g id="text_7">
      <!-- 30.0 -->
      <g transform="translate(383.684148 323.702125)scale(0.12 -0.12)">
       <defs>
        <path id="DejaVuSans-Bold-33" d="M 2981 2516 
Q 3453 2394 3698 2092 
Q 3944 1791 3944 1325 
Q 3944 631 3412 270 
Q 2881 -91 1863 -91 
Q 1503 -91 1142 -33 
Q 781 25 428 141 
L 428 1069 
Q 766 900 1098 814 
Q 1431 728 1753 728 
Q 2231 728 2486 893 
Q 2741 1059 2741 1369 
Q 2741 1688 2480 1852 
Q 2219 2016 1709 2016 
L 1228 2016 
L 1228 2791 
L 1734 2791 
Q 2188 2791 2409 2933 
Q 2631 3075 2631 3366 
Q 2631 3634 2415 3781 
Q 2200 3928 1806 3928 
Q 1516 3928 1219 3862 
Q 922 3797 628 3669 
L 628 4550 
Q 984 4650 1334 4700 
Q 1684 4750 2022 4750 
Q 2931 4750 3382 4451 
Q 3834 4153 3834 3553 
Q 3834 3144 3618 2883 
Q 3403 2622 2981 2516 
z
" transform="scale(0.015625)"/>
       </defs>
       <use xlink:href="#DejaVuSans-Bold-33"/>
       <use xlink:href="#DejaVuSans-Bold-30" x="69.580078"/>
       <use xlink:href="#DejaVuSans-Bold-2e" x="139.160156"/>
       <use xlink:href="#DejaVuSans-Bold-30" x="177.148438"/>
      </g>
     </g>
    </g>
    <g id="text_8">
     <!-- Epoch -->
     <g transform="translate(212.425625 340.835562)scale(0.14 -0.14)">
      <defs>
       <path id="DejaVuSans-Bold-45" d="M 588 4666 
L 3834 4666 
L 3834 3756 
L 1791 3756 
L 1791 2888 
L 3713 2888 
L 3713 1978 
L 1791 1978 
L 1791 909 
L 3903 909 
L 3903 0 
L 588 0 
L 588 4666 
z
" transform="scale(0.015625)"/>
       <path id="DejaVuSans-Bold-70" d="M 1656 506 
L 1656 -1331 
L 538 -1331 
L 538 3500 
L 1656 3500 
L 1656 2988 
Q 1888 3294 2169 3439 
Q 2450 3584 2816 3584 
Q 3463 3584 3878 3070 
Q 4294 2556 4294 1747 
Q 4294 938 3878 423 
Q 3463 -91 2816 -91 
Q 2450 -91 2169 54 
Q 1888 200 1656 506 
z
M 2400 2772 
Q 2041 2772 1848 2508 
Q 1656 2244 1656 1747 
Q 1656 1250 1848 986 
Q 2041 722 2400 722 
Q 2759 722 2948 984 
Q 3138 1247 3138 1747 
Q 3138 2247 2948 2509 
Q 2759 2772 2400 2772 
z
" transform="scale(0.015625)"/>
       <path id="DejaVuSans-Bold-6f" d="M 2203 2784 
Q 1831 2784 1636 2517 
Q 1441 2250 1441 1747 
Q 1441 1244 1636 976 
Q 1831 709 2203 709 
Q 2569 709 2762 976 
Q 2956 1244 2956 1747 
Q 2956 2250 2762 2517 
Q 2569 2784 2203 2784 
z
M 2203 3584 
Q 3106 3584 3614 3096 
Q 4122 2609 4122 1747 
Q 4122 884 3614 396 
Q 3106 -91 2203 -91 
Q 1297 -91 786 396 
Q 275 884 275 1747 
Q 275 2609 786 3096 
Q 1297 3584 2203 3584 
z
" transform="scale(0.015625)"/>
       <path id="DejaVuSans-Bold-63" d="M 3366 3391 
L 3366 2478 
Q 3138 2634 2908 2709 
Q 2678 2784 2431 2784 
Q 1963 2784 1702 2511 
Q 1441 2238 1441 1747 
Q 1441 1256 1702 982 
Q 1963 709 2431 709 
Q 2694 709 2930 787 
Q 3166 866 3366 1019 
L 3366 103 
Q 3103 6 2833 -42 
Q 2563 -91 2291 -91 
Q 1344 -91 809 395 
Q 275 881 275 1747 
Q 275 2613 809 3098 
Q 1344 3584 2291 3584 
Q 2566 3584 2833 3536 
Q 3100 3488 3366 3391 
z
" transform="scale(0.015625)"/>
       <path id="DejaVuSans-Bold-68" d="M 4056 2131 
L 4056 0 
L 2931 0 
L 2931 347 
L 2931 1625 
Q 2931 2084 2911 2256 
Q 2891 2428 2841 2509 
Q 2775 2619 2662 2680 
Q 2550 2741 2406 2741 
Q 2056 2741 1856 2470 
Q 1656 2200 1656 1722 
L 1656 0 
L 538 0 
L 538 4863 
L 1656 4863 
L 1656 2988 
Q 1909 3294 2193 3439 
Q 2478 3584 2822 3584 
Q 3428 3584 3742 3212 
Q 4056 2841 4056 2131 
z
" transform="scale(0.015625)"/>
      </defs>
      <use xlink:href="#DejaVuSans-Bold-45"/>
      <use xlink:href="#DejaVuSans-Bold-70" x="68.310547"/>
      <use xlink:href="#DejaVuSans-Bold-6f" x="139.892578"/>
      <use xlink:href="#DejaVuSans-Bold-63" x="208.59375"/>
      <use xlink:href="#DejaVuSans-Bold-68" x="267.871094"/>
     </g>
    </g>
   </g>
   <g id="matplotlib.axis_2">
    <g id="ytick_1">
     <g id="line2d_8">
      <defs>
       <path id="m38c9b73ba8" d="M 0 0 
L -3.5 0 
" style="stroke: #000000; stroke-width: 0.8"/>
      </defs>
      <g>
       <use xlink:href="#m38c9b73ba8" x="57.6" y="303.39796" style="stroke: #000000; stroke-width: 0.8"/>
      </g>
     </g>
     <g id="text_9">
      <!-- 0.003 -->
      <g transform="translate(12.644375 307.957023)scale(0.12 -0.12)">
       <use xlink:href="#DejaVuSans-Bold-30"/>
       <use xlink:href="#DejaVuSans-Bold-2e" x="69.580078"/>
       <use xlink:href="#DejaVuSans-Bold-30" x="107.568359"/>
       <use xlink:href="#DejaVuSans-Bold-30" x="177.148438"/>
       <use xlink:href="#DejaVuSans-Bold-33" x="246.728516"/>
      </g>
     </g>
    </g>
    <g id="ytick_2">
     <g id="line2d_9">
      <g>
       <use xlink:href="#m38c9b73ba8" x="57.6" y="273.767347" style="stroke: #000000; stroke-width: 0.8"/>
      </g>
     </g>
     <g id="text_10">
      <!-- 0.0035 -->
      <g transform="translate(4.295 278.326409)scale(0.12 -0.12)">
       <use xlink:href="#DejaVuSans-Bold-30"/>
       <use xlink:href="#DejaVuSans-Bold-2e" x="69.580078"/>
       <use xlink:href="#DejaVuSans-Bold-30" x="107.568359"/>
       <use xlink:href="#DejaVuSans-Bold-30" x="177.148438"/>
       <use xlink:href="#DejaVuSans-Bold-33" x="246.728516"/>
       <use xlink:href="#DejaVuSans-Bold-35" x="316.308594"/>
      </g>
     </g>
    </g>
    <g id="ytick_3">
     <g id="line2d_10">
      <g>
       <use xlink:href="#m38c9b73ba8" x="57.6" y="244.136733" style="stroke: #000000; stroke-width: 0.8"/>
      </g>
     </g>
     <g id="text_11">
      <!-- 0.004 -->
      <g transform="translate(12.644375 248.695796)scale(0.12 -0.12)">
       <defs>
        <path id="DejaVuSans-Bold-34" d="M 2356 3675 
L 1038 1722 
L 2356 1722 
L 2356 3675 
z
M 2156 4666 
L 3494 4666 
L 3494 1722 
L 4159 1722 
L 4159 850 
L 3494 850 
L 3494 0 
L 2356 0 
L 2356 850 
L 288 850 
L 288 1881 
L 2156 4666 
z
" transform="scale(0.015625)"/>
       </defs>
       <use xlink:href="#DejaVuSans-Bold-30"/>
       <use xlink:href="#DejaVuSans-Bold-2e" x="69.580078"/>
       <use xlink:href="#DejaVuSans-Bold-30" x="107.568359"/>
       <use xlink:href="#DejaVuSans-Bold-30" x="177.148438"/>
       <use xlink:href="#DejaVuSans-Bold-34" x="246.728516"/>
      </g>
     </g>
    </g>
    <g id="ytick_4">
     <g id="line2d_11">
      <g>
       <use xlink:href="#m38c9b73ba8" x="57.6" y="214.50612" style="stroke: #000000; stroke-width: 0.8"/>
      </g>
     </g>
     <g id="text_12">
      <!-- 0.0045 -->
      <g transform="translate(4.295 219.065182)scale(0.12 -0.12)">
       <use xlink:href="#DejaVuSans-Bold-30"/>
       <use xlink:href="#DejaVuSans-Bold-2e" x="69.580078"/>
       <use xlink:href="#DejaVuSans-Bold-30" x="107.568359"/>
       <use xlink:href="#DejaVuSans-Bold-30" x="177.148438"/>
       <use xlink:href="#DejaVuSans-Bold-34" x="246.728516"/>
       <use xlink:href="#DejaVuSans-Bold-35" x="316.308594"/>
      </g>
     </g>
    </g>
    <g id="ytick_5">
     <g id="line2d_12">
      <g>
       <use xlink:href="#m38c9b73ba8" x="57.6" y="184.875506" style="stroke: #000000; stroke-width: 0.8"/>
      </g>
     </g>
     <g id="text_13">
      <!-- 0.005 -->
      <g transform="translate(12.644375 189.434569)scale(0.12 -0.12)">
       <use xlink:href="#DejaVuSans-Bold-30"/>
       <use xlink:href="#DejaVuSans-Bold-2e" x="69.580078"/>
       <use xlink:href="#DejaVuSans-Bold-30" x="107.568359"/>
       <use xlink:href="#DejaVuSans-Bold-30" x="177.148438"/>
       <use xlink:href="#DejaVuSans-Bold-35" x="246.728516"/>
      </g>
     </g>
    </g>
    <g id="ytick_6">
     <g id="line2d_13">
      <g>
       <use xlink:href="#m38c9b73ba8" x="57.6" y="155.244893" style="stroke: #000000; stroke-width: 0.8"/>
      </g>
     </g>
     <g id="text_14">
      <!-- 0.0055 -->
      <g transform="translate(4.295 159.803956)scale(0.12 -0.12)">
       <use xlink:href="#DejaVuSans-Bold-30"/>
       <use xlink:href="#DejaVuSans-Bold-2e" x="69.580078"/>
       <use xlink:href="#DejaVuSans-Bold-30" x="107.568359"/>
       <use xlink:href="#DejaVuSans-Bold-30" x="177.148438"/>
       <use xlink:href="#DejaVuSans-Bold-35" x="246.728516"/>
       <use xlink:href="#DejaVuSans-Bold-35" x="316.308594"/>
      </g>
     </g>
    </g>
    <g id="ytick_7">
     <g id="line2d_14">
      <g>
       <use xlink:href="#m38c9b73ba8" x="57.6" y="125.61428" style="stroke: #000000; stroke-width: 0.8"/>
      </g>
     </g>
     <g id="text_15">
      <!-- 0.006 -->
      <g transform="translate(12.644375 130.173342)scale(0.12 -0.12)">
       <defs>
        <path id="DejaVuSans-Bold-36" d="M 2316 2303 
Q 2000 2303 1842 2098 
Q 1684 1894 1684 1484 
Q 1684 1075 1842 870 
Q 2000 666 2316 666 
Q 2634 666 2792 870 
Q 2950 1075 2950 1484 
Q 2950 1894 2792 2098 
Q 2634 2303 2316 2303 
z
M 3803 4544 
L 3803 3681 
Q 3506 3822 3243 3889 
Q 2981 3956 2731 3956 
Q 2194 3956 1894 3657 
Q 1594 3359 1544 2772 
Q 1750 2925 1990 3001 
Q 2231 3078 2516 3078 
Q 3231 3078 3670 2659 
Q 4109 2241 4109 1563 
Q 4109 813 3618 361 
Q 3128 -91 2303 -91 
Q 1394 -91 895 523 
Q 397 1138 397 2266 
Q 397 3422 980 4083 
Q 1563 4744 2578 4744 
Q 2900 4744 3203 4694 
Q 3506 4644 3803 4544 
z
" transform="scale(0.015625)"/>
       </defs>
       <use xlink:href="#DejaVuSans-Bold-30"/>
       <use xlink:href="#DejaVuSans-Bold-2e" x="69.580078"/>
       <use xlink:href="#DejaVuSans-Bold-30" x="107.568359"/>
       <use xlink:href="#DejaVuSans-Bold-30" x="177.148438"/>
       <use xlink:href="#DejaVuSans-Bold-36" x="246.728516"/>
      </g>
     </g>
    </g>
    <g id="ytick_8">
     <g id="line2d_15">
      <g>
       <use xlink:href="#m38c9b73ba8" x="57.6" y="95.983666" style="stroke: #000000; stroke-width: 0.8"/>
      </g>
     </g>
     <g id="text_16">
      <!-- 0.0065 -->
      <g transform="translate(4.295 100.542729)scale(0.12 -0.12)">
       <use xlink:href="#DejaVuSans-Bold-30"/>
       <use xlink:href="#DejaVuSans-Bold-2e" x="69.580078"/>
       <use xlink:href="#DejaVuSans-Bold-30" x="107.568359"/>
       <use xlink:href="#DejaVuSans-Bold-30" x="177.148438"/>
       <use xlink:href="#DejaVuSans-Bold-36" x="246.728516"/>
       <use xlink:href="#DejaVuSans-Bold-35" x="316.308594"/>
      </g>
     </g>
    </g>
    <g id="ytick_9">
     <g id="line2d_16">
      <g>
       <use xlink:href="#m38c9b73ba8" x="57.6" y="66.353053" style="stroke: #000000; stroke-width: 0.8"/>
      </g>
     </g>
     <g id="text_17">
      <!-- 0.007 -->
      <g transform="translate(12.644375 70.912115)scale(0.12 -0.12)">
       <defs>
        <path id="DejaVuSans-Bold-37" d="M 428 4666 
L 3944 4666 
L 3944 3988 
L 2125 0 
L 953 0 
L 2675 3781 
L 428 3781 
L 428 4666 
z
" transform="scale(0.015625)"/>
       </defs>
       <use xlink:href="#DejaVuSans-Bold-30"/>
       <use xlink:href="#DejaVuSans-Bold-2e" x="69.580078"/>
       <use xlink:href="#DejaVuSans-Bold-30" x="107.568359"/>
       <use xlink:href="#DejaVuSans-Bold-30" x="177.148438"/>
       <use xlink:href="#DejaVuSans-Bold-37" x="246.728516"/>
      </g>
     </g>
    </g>
    <g id="text_18">
     <!-- Error (a.u.) -->
     <g transform="translate(-2.616563 218.334875)rotate(-90)scale(0.14 -0.14)">
      <defs>
       <path id="DejaVuSans-Bold-72" d="M 3138 2547 
Q 2991 2616 2845 2648 
Q 2700 2681 2553 2681 
Q 2122 2681 1889 2404 
Q 1656 2128 1656 1613 
L 1656 0 
L 538 0 
L 538 3500 
L 1656 3500 
L 1656 2925 
Q 1872 3269 2151 3426 
Q 2431 3584 2822 3584 
Q 2878 3584 2943 3579 
Q 3009 3575 3134 3559 
L 3138 2547 
z
" transform="scale(0.015625)"/>
       <path id="DejaVuSans-Bold-20" transform="scale(0.015625)"/>
       <path id="DejaVuSans-Bold-28" d="M 2413 -844 
L 1484 -844 
Q 1006 -72 778 623 
Q 550 1319 550 2003 
Q 550 2688 779 3389 
Q 1009 4091 1484 4856 
L 2413 4856 
Q 2013 4116 1813 3408 
Q 1613 2700 1613 2009 
Q 1613 1319 1811 609 
Q 2009 -100 2413 -844 
z
" transform="scale(0.015625)"/>
       <path id="DejaVuSans-Bold-61" d="M 2106 1575 
Q 1756 1575 1579 1456 
Q 1403 1338 1403 1106 
Q 1403 894 1545 773 
Q 1688 653 1941 653 
Q 2256 653 2472 879 
Q 2688 1106 2688 1447 
L 2688 1575 
L 2106 1575 
z
M 3816 1997 
L 3816 0 
L 2688 0 
L 2688 519 
Q 2463 200 2181 54 
Q 1900 -91 1497 -91 
Q 953 -91 614 226 
Q 275 544 275 1050 
Q 275 1666 698 1953 
Q 1122 2241 2028 2241 
L 2688 2241 
L 2688 2328 
Q 2688 2594 2478 2717 
Q 2269 2841 1825 2841 
Q 1466 2841 1156 2769 
Q 847 2697 581 2553 
L 581 3406 
Q 941 3494 1303 3539 
Q 1666 3584 2028 3584 
Q 2975 3584 3395 3211 
Q 3816 2838 3816 1997 
z
" transform="scale(0.015625)"/>
       <path id="DejaVuSans-Bold-75" d="M 500 1363 
L 500 3500 
L 1625 3500 
L 1625 3150 
Q 1625 2866 1622 2436 
Q 1619 2006 1619 1863 
Q 1619 1441 1641 1255 
Q 1663 1069 1716 984 
Q 1784 875 1895 815 
Q 2006 756 2150 756 
Q 2500 756 2700 1025 
Q 2900 1294 2900 1772 
L 2900 3500 
L 4019 3500 
L 4019 0 
L 2900 0 
L 2900 506 
Q 2647 200 2364 54 
Q 2081 -91 1741 -91 
Q 1134 -91 817 281 
Q 500 653 500 1363 
z
" transform="scale(0.015625)"/>
       <path id="DejaVuSans-Bold-29" d="M 513 -844 
Q 913 -100 1113 609 
Q 1313 1319 1313 2009 
Q 1313 2700 1113 3408 
Q 913 4116 513 4856 
L 1441 4856 
Q 1916 4091 2145 3389 
Q 2375 2688 2375 2003 
Q 2375 1319 2147 623 
Q 1919 -72 1441 -844 
L 513 -844 
z
" transform="scale(0.015625)"/>
      </defs>
      <use xlink:href="#DejaVuSans-Bold-45"/>
      <use xlink:href="#DejaVuSans-Bold-72" x="68.310547"/>
      <use xlink:href="#DejaVuSans-Bold-72" x="117.626953"/>
      <use xlink:href="#DejaVuSans-Bold-6f" x="166.943359"/>
      <use xlink:href="#DejaVuSans-Bold-72" x="235.644531"/>
      <use xlink:href="#DejaVuSans-Bold-20" x="284.960938"/>
      <use xlink:href="#DejaVuSans-Bold-28" x="319.775391"/>
      <use xlink:href="#DejaVuSans-Bold-61" x="365.478516"/>
      <use xlink:href="#DejaVuSans-Bold-2e" x="432.958984"/>
      <use xlink:href="#DejaVuSans-Bold-75" x="470.947266"/>
      <use xlink:href="#DejaVuSans-Bold-2e" x="542.138672"/>
      <use xlink:href="#DejaVuSans-Bold-29" x="580.126953"/>
     </g>
    </g>
   </g>
   <g id="line2d_17">
    <path d="M 73.832727 53.568 
L 74.918528 88.917459 
L 76.00433 99.092237 
L 77.090131 104.800985 
L 78.175932 119.714249 
L 79.261733 125.537434 
L 80.347534 136.773691 
L 81.433335 145.809804 
L 82.519137 148.938668 
L 85.77654 176.60044 
L 86.862341 183.406735 
L 87.948142 185.815762 
L 89.033943 194.352279 
L 90.119745 194.872479 
L 91.205546 199.989725 
L 92.291347 203.301851 
L 93.377148 202.167576 
L 97.720353 220.034748 
L 98.806154 219.963471 
L 99.891955 225.707218 
L 100.977756 224.14435 
L 102.063557 227.14463 
L 103.149358 228.88752 
L 104.23516 226.319223 
L 106.406762 231.581604 
L 107.492563 235.551387 
L 108.578364 238.764525 
L 109.664165 237.222326 
L 110.749967 242.674968 
L 111.835768 239.993887 
L 112.921569 242.171022 
L 114.00737 243.253361 
L 115.093171 240.093823 
L 116.178972 242.212467 
L 117.264773 243.648802 
L 118.350575 247.133325 
L 119.436376 249.960712 
L 120.522177 248.105468 
L 121.607978 253.263177 
L 122.693779 250.153655 
L 123.77958 252.000462 
L 124.865382 252.279803 
L 125.951183 249.07206 
L 127.036984 250.820483 
L 128.122785 251.893214 
L 129.208586 255.342604 
L 130.294387 257.820515 
L 131.380189 255.878574 
L 132.46599 260.566133 
L 133.551791 257.511374 
L 134.637592 259.096843 
L 135.723393 259.163805 
L 136.809194 255.90332 
L 137.894995 257.279784 
L 138.980797 258.461193 
L 140.066598 261.716589 
L 141.152399 263.844618 
L 142.2382 261.816064 
L 143.324001 266.249638 
L 144.409802 263.481845 
L 145.495604 264.85104 
L 146.581405 264.721554 
L 147.667206 261.483413 
L 148.753007 262.785511 
L 149.838808 263.659824 
L 150.924609 266.825908 
L 152.01041 268.806361 
L 153.096212 266.889594 
L 154.182013 271.083936 
L 155.267814 268.52192 
L 156.353615 269.520446 
L 157.439416 269.263501 
L 158.525217 266.242576 
L 159.611019 267.429479 
L 160.69682 268.037685 
L 161.782621 271.056749 
L 162.868422 273.069373 
L 163.954223 271.316139 
L 165.040024 275.267745 
L 166.125825 272.65273 
L 167.211627 273.653151 
L 168.297428 273.091739 
L 169.383229 270.257981 
L 170.46903 271.061145 
L 171.554831 271.695504 
L 172.640632 274.377272 
L 173.726434 276.365484 
L 174.812235 274.531631 
L 175.898036 278.406914 
L 176.983837 275.637305 
L 178.069638 276.488796 
L 179.155439 275.842212 
L 180.24124 273.089819 
L 182.412843 274.160579 
L 183.498644 276.663251 
L 184.584445 278.671074 
L 185.670246 276.943682 
L 186.756047 280.624167 
L 187.841849 277.846861 
L 188.92765 278.577892 
L 190.013451 278.097828 
L 191.099252 275.280648 
L 193.270854 276.286045 
L 195.442457 280.842641 
L 196.528258 278.902993 
L 197.614059 282.638828 
L 198.69986 279.743089 
L 199.785661 280.547976 
L 200.871462 280.074497 
L 201.957264 277.207022 
L 204.128866 278.079457 
L 206.300468 282.681594 
L 207.386269 280.585111 
L 208.472071 284.186641 
L 209.557872 281.486408 
L 210.643673 282.121129 
L 211.729474 281.707892 
L 212.815275 278.890962 
L 214.986877 279.752665 
L 217.15848 284.27153 
L 218.244281 282.140332 
L 219.330082 285.739815 
L 220.415883 283.066837 
L 221.501684 283.526936 
L 222.587486 283.154229 
L 223.673287 280.341434 
L 224.759088 280.571288 
L 225.844889 281.114738 
L 228.016491 285.446125 
L 229.102292 283.346877 
L 230.188094 286.946834 
L 231.273895 284.224116 
L 232.359696 284.767656 
L 233.445497 284.106393 
L 234.531298 281.413783 
L 235.617099 281.625337 
L 236.702901 282.193202 
L 238.874503 286.54423 
L 239.960304 284.402731 
L 241.046105 288.022819 
L 242.131906 285.239502 
L 243.217708 285.77185 
L 244.303509 285.089037 
L 245.38931 282.482123 
L 246.475111 282.598935 
L 247.560912 283.162425 
L 249.732514 287.523195 
L 250.818316 285.395063 
L 251.904117 288.976062 
L 252.989918 286.153121 
L 254.075719 286.563602 
L 255.16152 285.99588 
L 256.247321 283.317478 
L 257.333123 283.534176 
L 258.418924 284.064522 
L 260.590526 288.36136 
L 261.676327 286.209688 
L 262.762128 289.831835 
L 263.847929 286.948318 
L 264.933731 287.424356 
L 266.019532 286.786014 
L 267.105333 284.085489 
L 268.191134 284.270529 
L 269.276935 284.799787 
L 270.362736 287.112952 
L 271.448538 289.164143 
L 272.534339 286.921931 
L 273.62014 290.465917 
L 274.705941 287.765497 
L 275.791742 288.152877 
L 276.877543 287.578005 
L 277.963344 284.728973 
L 279.049146 284.885526 
L 280.134947 285.636913 
L 282.306549 289.921845 
L 283.39235 287.612437 
L 284.478151 291.139262 
L 285.563953 288.480787 
L 286.649754 288.834579 
L 287.735555 288.307539 
L 288.821356 285.470406 
L 289.907157 285.64386 
L 290.992958 286.409241 
L 293.164561 290.555077 
L 294.250362 288.323139 
L 295.336163 291.69145 
L 296.421964 289.182923 
L 297.507765 289.555473 
L 298.593566 288.989705 
L 299.679368 286.104225 
L 300.765169 286.225238 
L 301.85097 287.030997 
L 304.022572 291.233387 
L 305.108373 288.860833 
L 306.194175 292.192318 
L 307.279976 289.806897 
L 308.365777 290.161044 
L 309.451578 289.69124 
L 310.537379 286.733349 
L 311.62318 286.807963 
L 312.708981 287.607508 
L 314.880584 291.838357 
L 315.966385 289.426943 
L 317.052186 292.685482 
L 318.137987 290.348637 
L 319.223788 290.795571 
L 320.30959 290.271543 
L 321.395391 287.343258 
L 322.481192 287.304288 
L 323.566993 288.152189 
L 325.738595 292.359306 
L 326.824396 289.993951 
L 327.910198 293.222729 
L 328.995999 290.951285 
L 330.0818 291.329308 
L 331.167601 290.901721 
L 332.253402 287.931358 
L 333.339203 287.81352 
L 334.425005 288.654524 
L 336.596607 292.868913 
L 337.682408 290.55969 
L 338.768209 293.780123 
L 339.85401 291.520249 
L 340.939811 291.935094 
L 342.025613 291.299145 
L 343.111414 288.473256 
L 344.197215 288.26381 
L 345.283016 289.110282 
L 347.454618 293.316045 
L 348.54042 290.955919 
L 349.626221 294.217487 
L 350.712022 291.966276 
L 351.797823 292.384795 
L 352.883624 291.708338 
L 353.969425 288.814314 
L 355.055227 288.636891 
L 356.141028 289.515257 
L 357.226829 291.715965 
L 358.31263 293.619407 
L 359.398431 291.375418 
L 360.484232 294.546826 
L 361.570033 292.383961 
L 362.655835 292.784556 
L 363.741636 291.991726 
L 364.827437 289.150341 
L 365.913238 288.962282 
L 366.999039 289.878277 
L 368.08484 292.079413 
L 369.170642 294.001329 
L 370.256443 291.776913 
L 371.342244 294.937885 
L 372.428045 292.709079 
L 373.513846 293.08368 
L 374.599647 292.338323 
L 375.685448 289.511059 
L 376.77125 289.263759 
L 377.857051 290.138888 
L 378.942852 292.40349 
L 380.028653 294.257181 
L 381.114454 292.0072 
L 382.200255 295.201487 
L 383.286057 292.989461 
L 384.371858 293.382114 
L 385.457659 292.606159 
L 386.54346 289.762375 
L 387.629261 289.489115 
L 388.715062 290.410955 
L 389.800863 292.752309 
L 390.886665 294.562339 
L 391.972466 292.272383 
L 393.058267 295.488 
L 394.144068 293.273895 
L 395.229869 293.689082 
L 396.31567 292.85039 
L 397.401472 290.123048 
L 398.487273 289.739503 
L 398.487273 289.739503 
" clip-path="url(#p547313796b)" style="fill: none; stroke: #1f77b4; stroke-width: 3; stroke-linecap: square"/>
   </g>
   <g id="patch_3">
    <path d="M 57.6 307.584 
L 57.6 41.472 
" style="fill: none; stroke: #000000; stroke-width: 3; stroke-linejoin: miter; stroke-linecap: square"/>
   </g>
   <g id="patch_4">
    <path d="M 414.72 307.584 
L 414.72 41.472 
" style="fill: none; stroke: #000000; stroke-width: 3; stroke-linejoin: miter; stroke-linecap: square"/>
   </g>
   <g id="patch_5">
    <path d="M 57.6 307.584 
L 414.72 307.584 
" style="fill: none; stroke: #000000; stroke-width: 3; stroke-linejoin: miter; stroke-linecap: square"/>
   </g>
   <g id="patch_6">
    <path d="M 57.6 41.472 
L 414.72 41.472 
" style="fill: none; stroke: #000000; stroke-width: 3; stroke-linejoin: miter; stroke-linecap: square"/>
   </g>
   <g id="text_19">
    <!-- Error plot sparsity:70 batchsize:6000_with_NesterovMomentum -->
    <g transform="translate(-51.1325 35.472)scale(0.16 -0.16)">
     <defs>
      <path id="DejaVuSans-Bold-6c" d="M 538 4863 
L 1656 4863 
L 1656 0 
L 538 0 
L 538 4863 
z
" transform="scale(0.015625)"/>
      <path id="DejaVuSans-Bold-74" d="M 1759 4494 
L 1759 3500 
L 2913 3500 
L 2913 2700 
L 1759 2700 
L 1759 1216 
Q 1759 972 1856 886 
Q 1953 800 2241 800 
L 2816 800 
L 2816 0 
L 1856 0 
Q 1194 0 917 276 
Q 641 553 641 1216 
L 641 2700 
L 84 2700 
L 84 3500 
L 641 3500 
L 641 4494 
L 1759 4494 
z
" transform="scale(0.015625)"/>
      <path id="DejaVuSans-Bold-73" d="M 3272 3391 
L 3272 2541 
Q 2913 2691 2578 2766 
Q 2244 2841 1947 2841 
Q 1628 2841 1473 2761 
Q 1319 2681 1319 2516 
Q 1319 2381 1436 2309 
Q 1553 2238 1856 2203 
L 2053 2175 
Q 2913 2066 3209 1816 
Q 3506 1566 3506 1031 
Q 3506 472 3093 190 
Q 2681 -91 1863 -91 
Q 1516 -91 1145 -36 
Q 775 19 384 128 
L 384 978 
Q 719 816 1070 734 
Q 1422 653 1784 653 
Q 2113 653 2278 743 
Q 2444 834 2444 1013 
Q 2444 1163 2330 1236 
Q 2216 1309 1875 1350 
L 1678 1375 
Q 931 1469 631 1722 
Q 331 1975 331 2491 
Q 331 3047 712 3315 
Q 1094 3584 1881 3584 
Q 2191 3584 2531 3537 
Q 2872 3491 3272 3391 
z
" transform="scale(0.015625)"/>
      <path id="DejaVuSans-Bold-69" d="M 538 3500 
L 1656 3500 
L 1656 0 
L 538 0 
L 538 3500 
z
M 538 4863 
L 1656 4863 
L 1656 3950 
L 538 3950 
L 538 4863 
z
" transform="scale(0.015625)"/>
      <path id="DejaVuSans-Bold-79" d="M 78 3500 
L 1197 3500 
L 2138 1125 
L 2938 3500 
L 4056 3500 
L 2584 -331 
Q 2363 -916 2067 -1148 
Q 1772 -1381 1288 -1381 
L 641 -1381 
L 641 -647 
L 991 -647 
Q 1275 -647 1404 -556 
Q 1534 -466 1606 -231 
L 1638 -134 
L 78 3500 
z
" transform="scale(0.015625)"/>
      <path id="DejaVuSans-Bold-3a" d="M 716 3500 
L 1844 3500 
L 1844 2291 
L 716 2291 
L 716 3500 
z
M 716 1209 
L 1844 1209 
L 1844 0 
L 716 0 
L 716 1209 
z
" transform="scale(0.015625)"/>
      <path id="DejaVuSans-Bold-62" d="M 2400 722 
Q 2759 722 2948 984 
Q 3138 1247 3138 1747 
Q 3138 2247 2948 2509 
Q 2759 2772 2400 2772 
Q 2041 2772 1848 2508 
Q 1656 2244 1656 1747 
Q 1656 1250 1848 986 
Q 2041 722 2400 722 
z
M 1656 2988 
Q 1888 3294 2169 3439 
Q 2450 3584 2816 3584 
Q 3463 3584 3878 3070 
Q 4294 2556 4294 1747 
Q 4294 938 3878 423 
Q 3463 -91 2816 -91 
Q 2450 -91 2169 54 
Q 1888 200 1656 506 
L 1656 0 
L 538 0 
L 538 4863 
L 1656 4863 
L 1656 2988 
z
" transform="scale(0.015625)"/>
      <path id="DejaVuSans-Bold-7a" d="M 366 3500 
L 3419 3500 
L 3419 2719 
L 1575 800 
L 3419 800 
L 3419 0 
L 288 0 
L 288 781 
L 2131 2700 
L 366 2700 
L 366 3500 
z
" transform="scale(0.015625)"/>
      <path id="DejaVuSans-Bold-65" d="M 4031 1759 
L 4031 1441 
L 1416 1441 
Q 1456 1047 1700 850 
Q 1944 653 2381 653 
Q 2734 653 3104 758 
Q 3475 863 3866 1075 
L 3866 213 
Q 3469 63 3072 -14 
Q 2675 -91 2278 -91 
Q 1328 -91 801 392 
Q 275 875 275 1747 
Q 275 2603 792 3093 
Q 1309 3584 2216 3584 
Q 3041 3584 3536 3087 
Q 4031 2591 4031 1759 
z
M 2881 2131 
Q 2881 2450 2695 2645 
Q 2509 2841 2209 2841 
Q 1884 2841 1681 2658 
Q 1478 2475 1428 2131 
L 2881 2131 
z
" transform="scale(0.015625)"/>
      <path id="DejaVuSans-Bold-5f" d="M 3200 -916 
L 3200 -1509 
L 0 -1509 
L 0 -916 
L 3200 -916 
z
" transform="scale(0.015625)"/>
      <path id="DejaVuSans-Bold-77" d="M 225 3500 
L 1313 3500 
L 1900 1088 
L 2491 3500 
L 3425 3500 
L 4013 1113 
L 4603 3500 
L 5691 3500 
L 4769 0 
L 3547 0 
L 2956 2406 
L 2369 0 
L 1147 0 
L 225 3500 
z
" transform="scale(0.015625)"/>
      <path id="DejaVuSans-Bold-4e" d="M 588 4666 
L 1931 4666 
L 3628 1466 
L 3628 4666 
L 4769 4666 
L 4769 0 
L 3425 0 
L 1728 3200 
L 1728 0 
L 588 0 
L 588 4666 
z
" transform="scale(0.015625)"/>
      <path id="DejaVuSans-Bold-76" d="M 97 3500 
L 1216 3500 
L 2088 1081 
L 2956 3500 
L 4078 3500 
L 2700 0 
L 1472 0 
L 97 3500 
z
" transform="scale(0.015625)"/>
      <path id="DejaVuSans-Bold-4d" d="M 588 4666 
L 2119 4666 
L 3181 2169 
L 4250 4666 
L 5778 4666 
L 5778 0 
L 4641 0 
L 4641 3413 
L 3566 897 
L 2803 897 
L 1728 3413 
L 1728 0 
L 588 0 
L 588 4666 
z
" transform="scale(0.015625)"/>
      <path id="DejaVuSans-Bold-6d" d="M 3781 2919 
Q 3994 3244 4286 3414 
Q 4578 3584 4928 3584 
Q 5531 3584 5847 3212 
Q 6163 2841 6163 2131 
L 6163 0 
L 5038 0 
L 5038 1825 
Q 5041 1866 5042 1909 
Q 5044 1953 5044 2034 
Q 5044 2406 4934 2573 
Q 4825 2741 4581 2741 
Q 4263 2741 4089 2478 
Q 3916 2216 3909 1719 
L 3909 0 
L 2784 0 
L 2784 1825 
Q 2784 2406 2684 2573 
Q 2584 2741 2328 2741 
Q 2006 2741 1831 2477 
Q 1656 2213 1656 1722 
L 1656 0 
L 531 0 
L 531 3500 
L 1656 3500 
L 1656 2988 
Q 1863 3284 2130 3434 
Q 2397 3584 2719 3584 
Q 3081 3584 3359 3409 
Q 3638 3234 3781 2919 
z
" transform="scale(0.015625)"/>
      <path id="DejaVuSans-Bold-6e" d="M 4056 2131 
L 4056 0 
L 2931 0 
L 2931 347 
L 2931 1631 
Q 2931 2084 2911 2256 
Q 2891 2428 2841 2509 
Q 2775 2619 2662 2680 
Q 2550 2741 2406 2741 
Q 2056 2741 1856 2470 
Q 1656 2200 1656 1722 
L 1656 0 
L 538 0 
L 538 3500 
L 1656 3500 
L 1656 2988 
Q 1909 3294 2193 3439 
Q 2478 3584 2822 3584 
Q 3428 3584 3742 3212 
Q 4056 2841 4056 2131 
z
" transform="scale(0.015625)"/>
     </defs>
     <use xlink:href="#DejaVuSans-Bold-45"/>
     <use xlink:href="#DejaVuSans-Bold-72" x="68.310547"/>
     <use xlink:href="#DejaVuSans-Bold-72" x="117.626953"/>
     <use xlink:href="#DejaVuSans-Bold-6f" x="166.943359"/>
     <use xlink:href="#DejaVuSans-Bold-72" x="235.644531"/>
     <use xlink:href="#DejaVuSans-Bold-20" x="284.960938"/>
     <use xlink:href="#DejaVuSans-Bold-70" x="319.775391"/>
     <use xlink:href="#DejaVuSans-Bold-6c" x="391.357422"/>
     <use xlink:href="#DejaVuSans-Bold-6f" x="425.634766"/>
     <use xlink:href="#DejaVuSans-Bold-74" x="494.335938"/>
     <use xlink:href="#DejaVuSans-Bold-20" x="542.138672"/>
     <use xlink:href="#DejaVuSans-Bold-73" x="576.953125"/>
     <use xlink:href="#DejaVuSans-Bold-70" x="636.474609"/>
     <use xlink:href="#DejaVuSans-Bold-61" x="708.056641"/>
     <use xlink:href="#DejaVuSans-Bold-72" x="775.537109"/>
     <use xlink:href="#DejaVuSans-Bold-73" x="824.853516"/>
     <use xlink:href="#DejaVuSans-Bold-69" x="884.375"/>
     <use xlink:href="#DejaVuSans-Bold-74" x="918.652344"/>
     <use xlink:href="#DejaVuSans-Bold-79" x="966.455078"/>
     <use xlink:href="#DejaVuSans-Bold-3a" x="1031.640625"/>
     <use xlink:href="#DejaVuSans-Bold-37" x="1071.630859"/>
     <use xlink:href="#DejaVuSans-Bold-30" x="1141.210938"/>
     <use xlink:href="#DejaVuSans-Bold-20" x="1210.791016"/>
     <use xlink:href="#DejaVuSans-Bold-62" x="1245.605469"/>
     <use xlink:href="#DejaVuSans-Bold-61" x="1317.1875"/>
     <use xlink:href="#DejaVuSans-Bold-74" x="1384.667969"/>
     <use xlink:href="#DejaVuSans-Bold-63" x="1432.470703"/>
     <use xlink:href="#DejaVuSans-Bold-68" x="1491.748047"/>
     <use xlink:href="#DejaVuSans-Bold-73" x="1562.939453"/>
     <use xlink:href="#DejaVuSans-Bold-69" x="1622.460938"/>
     <use xlink:href="#DejaVuSans-Bold-7a" x="1656.738281"/>
     <use xlink:href="#DejaVuSans-Bold-65" x="1714.941406"/>
     <use xlink:href="#DejaVuSans-Bold-3a" x="1782.763672"/>
     <use xlink:href="#DejaVuSans-Bold-36" x="1822.753906"/>
     <use xlink:href="#DejaVuSans-Bold-30" x="1892.333984"/>
     <use xlink:href="#DejaVuSans-Bold-30" x="1961.914062"/>
     <use xlink:href="#DejaVuSans-Bold-30" x="2031.494141"/>
     <use xlink:href="#DejaVuSans-Bold-5f" x="2101.074219"/>
     <use xlink:href="#DejaVuSans-Bold-77" x="2151.074219"/>
     <use xlink:href="#DejaVuSans-Bold-69" x="2243.457031"/>
     <use xlink:href="#DejaVuSans-Bold-74" x="2277.734375"/>
     <use xlink:href="#DejaVuSans-Bold-68" x="2325.537109"/>
     <use xlink:href="#DejaVuSans-Bold-5f" x="2396.728516"/>
     <use xlink:href="#DejaVuSans-Bold-4e" x="2446.728516"/>
     <use xlink:href="#DejaVuSans-Bold-65" x="2530.419922"/>
     <use xlink:href="#DejaVuSans-Bold-73" x="2598.242188"/>
     <use xlink:href="#DejaVuSans-Bold-74" x="2657.763672"/>
     <use xlink:href="#DejaVuSans-Bold-65" x="2705.566406"/>
     <use xlink:href="#DejaVuSans-Bold-72" x="2773.388672"/>
     <use xlink:href="#DejaVuSans-Bold-6f" x="2822.705078"/>
     <use xlink:href="#DejaVuSans-Bold-76" x="2891.40625"/>
     <use xlink:href="#DejaVuSans-Bold-4d" x="2956.591797"/>
     <use xlink:href="#DejaVuSans-Bold-6f" x="3056.103516"/>
     <use xlink:href="#DejaVuSans-Bold-6d" x="3124.804688"/>
     <use xlink:href="#DejaVuSans-Bold-65" x="3229.003906"/>
     <use xlink:href="#DejaVuSans-Bold-6e" x="3296.826172"/>
     <use xlink:href="#DejaVuSans-Bold-74" x="3368.017578"/>
     <use xlink:href="#DejaVuSans-Bold-75" x="3415.820312"/>
     <use xlink:href="#DejaVuSans-Bold-6d" x="3487.011719"/>
    </g>
   </g>
  </g>
 </g>
 <defs>
  <clipPath id="p547313796b">
   <rect x="57.6" y="41.472" width="357.12" height="266.112"/>
  </clipPath>
 </defs>
</svg>
