<?xml version="1.0" encoding="utf-8" standalone="no"?>
<!DOCTYPE svg PUBLIC "-//W3C//DTD SVG 1.1//EN"
  "http://www.w3.org/Graphics/SVG/1.1/DTD/svg11.dtd">
<svg xmlns:xlink="http://www.w3.org/1999/xlink" width="460.8pt" height="345.6pt" viewBox="0 0 460.8 345.6" xmlns="http://www.w3.org/2000/svg" version="1.1">
 <metadata>
  <rdf:RDF xmlns:dc="http://purl.org/dc/elements/1.1/" xmlns:cc="http://creativecommons.org/ns#" xmlns:rdf="http://www.w3.org/1999/02/22-rdf-syntax-ns#">
   <cc:Work>
    <dc:type rdf:resource="http://purl.org/dc/dcmitype/StillImage"/>
    <dc:date>2023-08-16T12:49:39.234288</dc:date>
    <dc:format>image/svg+xml</dc:format>
    <dc:creator>
     <cc:Agent>
      <dc:title>Matplotlib v3.5.3, https://matplotlib.org/</dc:title>
     </cc:Agent>
    </dc:creator>
   </cc:Work>
  </rdf:RDF>
 </metadata>
 <defs>
  <style type="text/css">*{stroke-linejoin: round; stroke-linecap: butt}</style>
 </defs>
 <g id="figure_1">
  <g id="patch_1">
   <path d="M 0 345.6 
L 460.8 345.6 
L 460.8 0 
L 0 0 
z
" style="fill: #ffffff"/>
  </g>
  <g id="axes_1">
   <g id="patch_2">
    <path d="M 57.6 307.584 
L 414.72 307.584 
L 414.72 41.472 
L 57.6 41.472 
z
" style="fill: #ffffff"/>
   </g>
   <g id="matplotlib.axis_1">
    <g id="xtick_1">
     <g id="line2d_1">
      <defs>
       <path id="m0b002a4ed5" d="M 0 0 
L 0 3.5 
" style="stroke: #000000; stroke-width: 0.8"/>
      </defs>
      <g>
       <use xlink:href="#m0b002a4ed5" x="73.832727" y="307.584" style="stroke: #000000; stroke-width: 0.8"/>
      </g>
     </g>
     <g id="text_1">
      <!-- 0.0 -->
      <g transform="translate(63.20429 323.702125)scale(0.12 -0.12)">
       <defs>
        <path id="DejaVuSans-Bold-30" d="M 2944 2338 
Q 2944 3213 2780 3570 
Q 2616 3928 2228 3928 
Q 1841 3928 1675 3570 
Q 1509 3213 1509 2338 
Q 1509 1453 1675 1090 
Q 1841 728 2228 728 
Q 2613 728 2778 1090 
Q 2944 1453 2944 2338 
z
M 4147 2328 
Q 4147 1169 3647 539 
Q 3147 -91 2228 -91 
Q 1306 -91 806 539 
Q 306 1169 306 2328 
Q 306 3491 806 4120 
Q 1306 4750 2228 4750 
Q 3147 4750 3647 4120 
Q 4147 3491 4147 2328 
z
" transform="scale(0.015625)"/>
        <path id="DejaVuSans-Bold-2e" d="M 653 1209 
L 1778 1209 
L 1778 0 
L 653 0 
L 653 1209 
z
" transform="scale(0.015625)"/>
       </defs>
       <use xlink:href="#DejaVuSans-Bold-30"/>
       <use xlink:href="#DejaVuSans-Bold-2e" x="69.580078"/>
       <use xlink:href="#DejaVuSans-Bold-30" x="107.568359"/>
      </g>
     </g>
    </g>
    <g id="xtick_2">
     <g id="line2d_2">
      <g>
       <use xlink:href="#m0b002a4ed5" x="127.941818" y="307.584" style="stroke: #000000; stroke-width: 0.8"/>
      </g>
     </g>
     <g id="text_2">
      <!-- 5.0 -->
      <g transform="translate(117.313381 323.702125)scale(0.12 -0.12)">
       <defs>
        <path id="DejaVuSans-Bold-35" d="M 678 4666 
L 3669 4666 
L 3669 3781 
L 1638 3781 
L 1638 3059 
Q 1775 3097 1914 3117 
Q 2053 3138 2203 3138 
Q 3056 3138 3531 2711 
Q 4006 2284 4006 1522 
Q 4006 766 3489 337 
Q 2972 -91 2053 -91 
Q 1656 -91 1267 -14 
Q 878 63 494 219 
L 494 1166 
Q 875 947 1217 837 
Q 1559 728 1863 728 
Q 2300 728 2551 942 
Q 2803 1156 2803 1522 
Q 2803 1891 2551 2103 
Q 2300 2316 1863 2316 
Q 1603 2316 1309 2248 
Q 1016 2181 678 2041 
L 678 4666 
z
" transform="scale(0.015625)"/>
       </defs>
       <use xlink:href="#DejaVuSans-Bold-35"/>
       <use xlink:href="#DejaVuSans-Bold-2e" x="69.580078"/>
       <use xlink:href="#DejaVuSans-Bold-30" x="107.568359"/>
      </g>
     </g>
    </g>
    <g id="xtick_3">
     <g id="line2d_3">
      <g>
       <use xlink:href="#m0b002a4ed5" x="182.050909" y="307.584" style="stroke: #000000; stroke-width: 0.8"/>
      </g>
     </g>
     <g id="text_3">
      <!-- 10.0 -->
      <g transform="translate(167.247784 323.702125)scale(0.12 -0.12)">
       <defs>
        <path id="DejaVuSans-Bold-31" d="M 750 831 
L 1813 831 
L 1813 3847 
L 722 3622 
L 722 4441 
L 1806 4666 
L 2950 4666 
L 2950 831 
L 4013 831 
L 4013 0 
L 750 0 
L 750 831 
z
" transform="scale(0.015625)"/>
       </defs>
       <use xlink:href="#DejaVuSans-Bold-31"/>
       <use xlink:href="#DejaVuSans-Bold-30" x="69.580078"/>
       <use xlink:href="#DejaVuSans-Bold-2e" x="139.160156"/>
       <use xlink:href="#DejaVuSans-Bold-30" x="177.148438"/>
      </g>
     </g>
    </g>
    <g id="xtick_4">
     <g id="line2d_4">
      <g>
       <use xlink:href="#m0b002a4ed5" x="236.16" y="307.584" style="stroke: #000000; stroke-width: 0.8"/>
      </g>
     </g>
     <g id="text_4">
      <!-- 15.0 -->
      <g transform="translate(221.356875 323.702125)scale(0.12 -0.12)">
       <use xlink:href="#DejaVuSans-Bold-31"/>
       <use xlink:href="#DejaVuSans-Bold-35" x="69.580078"/>
       <use xlink:href="#DejaVuSans-Bold-2e" x="139.160156"/>
       <use xlink:href="#DejaVuSans-Bold-30" x="177.148438"/>
      </g>
     </g>
    </g>
    <g id="xtick_5">
     <g id="line2d_5">
      <g>
       <use xlink:href="#m0b002a4ed5" x="290.269091" y="307.584" style="stroke: #000000; stroke-width: 0.8"/>
      </g>
     </g>
     <g id="text_5">
      <!-- 20.0 -->
      <g transform="translate(275.465966 323.702125)scale(0.12 -0.12)">
       <defs>
        <path id="DejaVuSans-Bold-32" d="M 1844 884 
L 3897 884 
L 3897 0 
L 506 0 
L 506 884 
L 2209 2388 
Q 2438 2594 2547 2791 
Q 2656 2988 2656 3200 
Q 2656 3528 2436 3728 
Q 2216 3928 1850 3928 
Q 1569 3928 1234 3808 
Q 900 3688 519 3450 
L 519 4475 
Q 925 4609 1322 4679 
Q 1719 4750 2100 4750 
Q 2938 4750 3402 4381 
Q 3866 4013 3866 3353 
Q 3866 2972 3669 2642 
Q 3472 2313 2841 1759 
L 1844 884 
z
" transform="scale(0.015625)"/>
       </defs>
       <use xlink:href="#DejaVuSans-Bold-32"/>
       <use xlink:href="#DejaVuSans-Bold-30" x="69.580078"/>
       <use xlink:href="#DejaVuSans-Bold-2e" x="139.160156"/>
       <use xlink:href="#DejaVuSans-Bold-30" x="177.148438"/>
      </g>
     </g>
    </g>
    <g id="xtick_6">
     <g id="line2d_6">
      <g>
       <use xlink:href="#m0b002a4ed5" x="344.378182" y="307.584" style="stroke: #000000; stroke-width: 0.8"/>
      </g>
     </g>
     <g id="text_6">
      <!-- 25.0 -->
      <g transform="translate(329.575057 323.702125)scale(0.12 -0.12)">
       <use xlink:href="#DejaVuSans-Bold-32"/>
       <use xlink:href="#DejaVuSans-Bold-35" x="69.580078"/>
       <use xlink:href="#DejaVuSans-Bold-2e" x="139.160156"/>
       <use xlink:href="#DejaVuSans-Bold-30" x="177.148438"/>
      </g>
     </g>
    </g>
    <g id="xtick_7">
     <g id="line2d_7">
      <g>
       <use xlink:href="#m0b002a4ed5" x="398.487273" y="307.584" style="stroke: #000000; stroke-width: 0.8"/>
      </g>
     </g>
     <g id="text_7">
      <!-- 30.0 -->
      <g transform="translate(383.684148 323.702125)scale(0.12 -0.12)">
       <defs>
        <path id="DejaVuSans-Bold-33" d="M 2981 2516 
Q 3453 2394 3698 2092 
Q 3944 1791 3944 1325 
Q 3944 631 3412 270 
Q 2881 -91 1863 -91 
Q 1503 -91 1142 -33 
Q 781 25 428 141 
L 428 1069 
Q 766 900 1098 814 
Q 1431 728 1753 728 
Q 2231 728 2486 893 
Q 2741 1059 2741 1369 
Q 2741 1688 2480 1852 
Q 2219 2016 1709 2016 
L 1228 2016 
L 1228 2791 
L 1734 2791 
Q 2188 2791 2409 2933 
Q 2631 3075 2631 3366 
Q 2631 3634 2415 3781 
Q 2200 3928 1806 3928 
Q 1516 3928 1219 3862 
Q 922 3797 628 3669 
L 628 4550 
Q 984 4650 1334 4700 
Q 1684 4750 2022 4750 
Q 2931 4750 3382 4451 
Q 3834 4153 3834 3553 
Q 3834 3144 3618 2883 
Q 3403 2622 2981 2516 
z
" transform="scale(0.015625)"/>
       </defs>
       <use xlink:href="#DejaVuSans-Bold-33"/>
       <use xlink:href="#DejaVuSans-Bold-30" x="69.580078"/>
       <use xlink:href="#DejaVuSans-Bold-2e" x="139.160156"/>
       <use xlink:href="#DejaVuSans-Bold-30" x="177.148438"/>
      </g>
     </g>
    </g>
    <g id="text_8">
     <!-- Epoch -->
     <g transform="translate(212.425625 340.835562)scale(0.14 -0.14)">
      <defs>
       <path id="DejaVuSans-Bold-45" d="M 588 4666 
L 3834 4666 
L 3834 3756 
L 1791 3756 
L 1791 2888 
L 3713 2888 
L 3713 1978 
L 1791 1978 
L 1791 909 
L 3903 909 
L 3903 0 
L 588 0 
L 588 4666 
z
" transform="scale(0.015625)"/>
       <path id="DejaVuSans-Bold-70" d="M 1656 506 
L 1656 -1331 
L 538 -1331 
L 538 3500 
L 1656 3500 
L 1656 2988 
Q 1888 3294 2169 3439 
Q 2450 3584 2816 3584 
Q 3463 3584 3878 3070 
Q 4294 2556 4294 1747 
Q 4294 938 3878 423 
Q 3463 -91 2816 -91 
Q 2450 -91 2169 54 
Q 1888 200 1656 506 
z
M 2400 2772 
Q 2041 2772 1848 2508 
Q 1656 2244 1656 1747 
Q 1656 1250 1848 986 
Q 2041 722 2400 722 
Q 2759 722 2948 984 
Q 3138 1247 3138 1747 
Q 3138 2247 2948 2509 
Q 2759 2772 2400 2772 
z
" transform="scale(0.015625)"/>
       <path id="DejaVuSans-Bold-6f" d="M 2203 2784 
Q 1831 2784 1636 2517 
Q 1441 2250 1441 1747 
Q 1441 1244 1636 976 
Q 1831 709 2203 709 
Q 2569 709 2762 976 
Q 2956 1244 2956 1747 
Q 2956 2250 2762 2517 
Q 2569 2784 2203 2784 
z
M 2203 3584 
Q 3106 3584 3614 3096 
Q 4122 2609 4122 1747 
Q 4122 884 3614 396 
Q 3106 -91 2203 -91 
Q 1297 -91 786 396 
Q 275 884 275 1747 
Q 275 2609 786 3096 
Q 1297 3584 2203 3584 
z
" transform="scale(0.015625)"/>
       <path id="DejaVuSans-Bold-63" d="M 3366 3391 
L 3366 2478 
Q 3138 2634 2908 2709 
Q 2678 2784 2431 2784 
Q 1963 2784 1702 2511 
Q 1441 2238 1441 1747 
Q 1441 1256 1702 982 
Q 1963 709 2431 709 
Q 2694 709 2930 787 
Q 3166 866 3366 1019 
L 3366 103 
Q 3103 6 2833 -42 
Q 2563 -91 2291 -91 
Q 1344 -91 809 395 
Q 275 881 275 1747 
Q 275 2613 809 3098 
Q 1344 3584 2291 3584 
Q 2566 3584 2833 3536 
Q 3100 3488 3366 3391 
z
" transform="scale(0.015625)"/>
       <path id="DejaVuSans-Bold-68" d="M 4056 2131 
L 4056 0 
L 2931 0 
L 2931 347 
L 2931 1625 
Q 2931 2084 2911 2256 
Q 2891 2428 2841 2509 
Q 2775 2619 2662 2680 
Q 2550 2741 2406 2741 
Q 2056 2741 1856 2470 
Q 1656 2200 1656 1722 
L 1656 0 
L 538 0 
L 538 4863 
L 1656 4863 
L 1656 2988 
Q 1909 3294 2193 3439 
Q 2478 3584 2822 3584 
Q 3428 3584 3742 3212 
Q 4056 2841 4056 2131 
z
" transform="scale(0.015625)"/>
      </defs>
      <use xlink:href="#DejaVuSans-Bold-45"/>
      <use xlink:href="#DejaVuSans-Bold-70" x="68.310547"/>
      <use xlink:href="#DejaVuSans-Bold-6f" x="139.892578"/>
      <use xlink:href="#DejaVuSans-Bold-63" x="208.59375"/>
      <use xlink:href="#DejaVuSans-Bold-68" x="267.871094"/>
     </g>
    </g>
   </g>
   <g id="matplotlib.axis_2">
    <g id="ytick_1">
     <g id="line2d_8">
      <defs>
       <path id="m246004d51d" d="M 0 0 
L -3.5 0 
" style="stroke: #000000; stroke-width: 0.8"/>
      </defs>
      <g>
       <use xlink:href="#m246004d51d" x="57.6" y="298.777282" style="stroke: #000000; stroke-width: 0.8"/>
      </g>
     </g>
     <g id="text_9">
      <!-- 0.0045 -->
      <g transform="translate(4.295 303.336345)scale(0.12 -0.12)">
       <defs>
        <path id="DejaVuSans-Bold-34" d="M 2356 3675 
L 1038 1722 
L 2356 1722 
L 2356 3675 
z
M 2156 4666 
L 3494 4666 
L 3494 1722 
L 4159 1722 
L 4159 850 
L 3494 850 
L 3494 0 
L 2356 0 
L 2356 850 
L 288 850 
L 288 1881 
L 2156 4666 
z
" transform="scale(0.015625)"/>
       </defs>
       <use xlink:href="#DejaVuSans-Bold-30"/>
       <use xlink:href="#DejaVuSans-Bold-2e" x="69.580078"/>
       <use xlink:href="#DejaVuSans-Bold-30" x="107.568359"/>
       <use xlink:href="#DejaVuSans-Bold-30" x="177.148438"/>
       <use xlink:href="#DejaVuSans-Bold-34" x="246.728516"/>
       <use xlink:href="#DejaVuSans-Bold-35" x="316.308594"/>
      </g>
     </g>
    </g>
    <g id="ytick_2">
     <g id="line2d_9">
      <g>
       <use xlink:href="#m246004d51d" x="57.6" y="260.130261" style="stroke: #000000; stroke-width: 0.8"/>
      </g>
     </g>
     <g id="text_10">
      <!-- 0.005 -->
      <g transform="translate(12.644375 264.689324)scale(0.12 -0.12)">
       <use xlink:href="#DejaVuSans-Bold-30"/>
       <use xlink:href="#DejaVuSans-Bold-2e" x="69.580078"/>
       <use xlink:href="#DejaVuSans-Bold-30" x="107.568359"/>
       <use xlink:href="#DejaVuSans-Bold-30" x="177.148438"/>
       <use xlink:href="#DejaVuSans-Bold-35" x="246.728516"/>
      </g>
     </g>
    </g>
    <g id="ytick_3">
     <g id="line2d_10">
      <g>
       <use xlink:href="#m246004d51d" x="57.6" y="221.48324" style="stroke: #000000; stroke-width: 0.8"/>
      </g>
     </g>
     <g id="text_11">
      <!-- 0.0055 -->
      <g transform="translate(4.295 226.042303)scale(0.12 -0.12)">
       <use xlink:href="#DejaVuSans-Bold-30"/>
       <use xlink:href="#DejaVuSans-Bold-2e" x="69.580078"/>
       <use xlink:href="#DejaVuSans-Bold-30" x="107.568359"/>
       <use xlink:href="#DejaVuSans-Bold-30" x="177.148438"/>
       <use xlink:href="#DejaVuSans-Bold-35" x="246.728516"/>
       <use xlink:href="#DejaVuSans-Bold-35" x="316.308594"/>
      </g>
     </g>
    </g>
    <g id="ytick_4">
     <g id="line2d_11">
      <g>
       <use xlink:href="#m246004d51d" x="57.6" y="182.836219" style="stroke: #000000; stroke-width: 0.8"/>
      </g>
     </g>
     <g id="text_12">
      <!-- 0.006 -->
      <g transform="translate(12.644375 187.395282)scale(0.12 -0.12)">
       <defs>
        <path id="DejaVuSans-Bold-36" d="M 2316 2303 
Q 2000 2303 1842 2098 
Q 1684 1894 1684 1484 
Q 1684 1075 1842 870 
Q 2000 666 2316 666 
Q 2634 666 2792 870 
Q 2950 1075 2950 1484 
Q 2950 1894 2792 2098 
Q 2634 2303 2316 2303 
z
M 3803 4544 
L 3803 3681 
Q 3506 3822 3243 3889 
Q 2981 3956 2731 3956 
Q 2194 3956 1894 3657 
Q 1594 3359 1544 2772 
Q 1750 2925 1990 3001 
Q 2231 3078 2516 3078 
Q 3231 3078 3670 2659 
Q 4109 2241 4109 1563 
Q 4109 813 3618 361 
Q 3128 -91 2303 -91 
Q 1394 -91 895 523 
Q 397 1138 397 2266 
Q 397 3422 980 4083 
Q 1563 4744 2578 4744 
Q 2900 4744 3203 4694 
Q 3506 4644 3803 4544 
z
" transform="scale(0.015625)"/>
       </defs>
       <use xlink:href="#DejaVuSans-Bold-30"/>
       <use xlink:href="#DejaVuSans-Bold-2e" x="69.580078"/>
       <use xlink:href="#DejaVuSans-Bold-30" x="107.568359"/>
       <use xlink:href="#DejaVuSans-Bold-30" x="177.148438"/>
       <use xlink:href="#DejaVuSans-Bold-36" x="246.728516"/>
      </g>
     </g>
    </g>
    <g id="ytick_5">
     <g id="line2d_12">
      <g>
       <use xlink:href="#m246004d51d" x="57.6" y="144.189198" style="stroke: #000000; stroke-width: 0.8"/>
      </g>
     </g>
     <g id="text_13">
      <!-- 0.0065 -->
      <g transform="translate(4.295 148.748261)scale(0.12 -0.12)">
       <use xlink:href="#DejaVuSans-Bold-30"/>
       <use xlink:href="#DejaVuSans-Bold-2e" x="69.580078"/>
       <use xlink:href="#DejaVuSans-Bold-30" x="107.568359"/>
       <use xlink:href="#DejaVuSans-Bold-30" x="177.148438"/>
       <use xlink:href="#DejaVuSans-Bold-36" x="246.728516"/>
       <use xlink:href="#DejaVuSans-Bold-35" x="316.308594"/>
      </g>
     </g>
    </g>
    <g id="ytick_6">
     <g id="line2d_13">
      <g>
       <use xlink:href="#m246004d51d" x="57.6" y="105.542177" style="stroke: #000000; stroke-width: 0.8"/>
      </g>
     </g>
     <g id="text_14">
      <!-- 0.007 -->
      <g transform="translate(12.644375 110.101239)scale(0.12 -0.12)">
       <defs>
        <path id="DejaVuSans-Bold-37" d="M 428 4666 
L 3944 4666 
L 3944 3988 
L 2125 0 
L 953 0 
L 2675 3781 
L 428 3781 
L 428 4666 
z
" transform="scale(0.015625)"/>
       </defs>
       <use xlink:href="#DejaVuSans-Bold-30"/>
       <use xlink:href="#DejaVuSans-Bold-2e" x="69.580078"/>
       <use xlink:href="#DejaVuSans-Bold-30" x="107.568359"/>
       <use xlink:href="#DejaVuSans-Bold-30" x="177.148438"/>
       <use xlink:href="#DejaVuSans-Bold-37" x="246.728516"/>
      </g>
     </g>
    </g>
    <g id="ytick_7">
     <g id="line2d_14">
      <g>
       <use xlink:href="#m246004d51d" x="57.6" y="66.895156" style="stroke: #000000; stroke-width: 0.8"/>
      </g>
     </g>
     <g id="text_15">
      <!-- 0.0075 -->
      <g transform="translate(4.295 71.454218)scale(0.12 -0.12)">
       <use xlink:href="#DejaVuSans-Bold-30"/>
       <use xlink:href="#DejaVuSans-Bold-2e" x="69.580078"/>
       <use xlink:href="#DejaVuSans-Bold-30" x="107.568359"/>
       <use xlink:href="#DejaVuSans-Bold-30" x="177.148438"/>
       <use xlink:href="#DejaVuSans-Bold-37" x="246.728516"/>
       <use xlink:href="#DejaVuSans-Bold-35" x="316.308594"/>
      </g>
     </g>
    </g>
    <g id="text_16">
     <!-- Error (a.u.) -->
     <g transform="translate(-2.616563 218.334875)rotate(-90)scale(0.14 -0.14)">
      <defs>
       <path id="DejaVuSans-Bold-72" d="M 3138 2547 
Q 2991 2616 2845 2648 
Q 2700 2681 2553 2681 
Q 2122 2681 1889 2404 
Q 1656 2128 1656 1613 
L 1656 0 
L 538 0 
L 538 3500 
L 1656 3500 
L 1656 2925 
Q 1872 3269 2151 3426 
Q 2431 3584 2822 3584 
Q 2878 3584 2943 3579 
Q 3009 3575 3134 3559 
L 3138 2547 
z
" transform="scale(0.015625)"/>
       <path id="DejaVuSans-Bold-20" transform="scale(0.015625)"/>
       <path id="DejaVuSans-Bold-28" d="M 2413 -844 
L 1484 -844 
Q 1006 -72 778 623 
Q 550 1319 550 2003 
Q 550 2688 779 3389 
Q 1009 4091 1484 4856 
L 2413 4856 
Q 2013 4116 1813 3408 
Q 1613 2700 1613 2009 
Q 1613 1319 1811 609 
Q 2009 -100 2413 -844 
z
" transform="scale(0.015625)"/>
       <path id="DejaVuSans-Bold-61" d="M 2106 1575 
Q 1756 1575 1579 1456 
Q 1403 1338 1403 1106 
Q 1403 894 1545 773 
Q 1688 653 1941 653 
Q 2256 653 2472 879 
Q 2688 1106 2688 1447 
L 2688 1575 
L 2106 1575 
z
M 3816 1997 
L 3816 0 
L 2688 0 
L 2688 519 
Q 2463 200 2181 54 
Q 1900 -91 1497 -91 
Q 953 -91 614 226 
Q 275 544 275 1050 
Q 275 1666 698 1953 
Q 1122 2241 2028 2241 
L 2688 2241 
L 2688 2328 
Q 2688 2594 2478 2717 
Q 2269 2841 1825 2841 
Q 1466 2841 1156 2769 
Q 847 2697 581 2553 
L 581 3406 
Q 941 3494 1303 3539 
Q 1666 3584 2028 3584 
Q 2975 3584 3395 3211 
Q 3816 2838 3816 1997 
z
" transform="scale(0.015625)"/>
       <path id="DejaVuSans-Bold-75" d="M 500 1363 
L 500 3500 
L 1625 3500 
L 1625 3150 
Q 1625 2866 1622 2436 
Q 1619 2006 1619 1863 
Q 1619 1441 1641 1255 
Q 1663 1069 1716 984 
Q 1784 875 1895 815 
Q 2006 756 2150 756 
Q 2500 756 2700 1025 
Q 2900 1294 2900 1772 
L 2900 3500 
L 4019 3500 
L 4019 0 
L 2900 0 
L 2900 506 
Q 2647 200 2364 54 
Q 2081 -91 1741 -91 
Q 1134 -91 817 281 
Q 500 653 500 1363 
z
" transform="scale(0.015625)"/>
       <path id="DejaVuSans-Bold-29" d="M 513 -844 
Q 913 -100 1113 609 
Q 1313 1319 1313 2009 
Q 1313 2700 1113 3408 
Q 913 4116 513 4856 
L 1441 4856 
Q 1916 4091 2145 3389 
Q 2375 2688 2375 2003 
Q 2375 1319 2147 623 
Q 1919 -72 1441 -844 
L 513 -844 
z
" transform="scale(0.015625)"/>
      </defs>
      <use xlink:href="#DejaVuSans-Bold-45"/>
      <use xlink:href="#DejaVuSans-Bold-72" x="68.310547"/>
      <use xlink:href="#DejaVuSans-Bold-72" x="117.626953"/>
      <use xlink:href="#DejaVuSans-Bold-6f" x="166.943359"/>
      <use xlink:href="#DejaVuSans-Bold-72" x="235.644531"/>
      <use xlink:href="#DejaVuSans-Bold-20" x="284.960938"/>
      <use xlink:href="#DejaVuSans-Bold-28" x="319.775391"/>
      <use xlink:href="#DejaVuSans-Bold-61" x="365.478516"/>
      <use xlink:href="#DejaVuSans-Bold-2e" x="432.958984"/>
      <use xlink:href="#DejaVuSans-Bold-75" x="470.947266"/>
      <use xlink:href="#DejaVuSans-Bold-2e" x="542.138672"/>
      <use xlink:href="#DejaVuSans-Bold-29" x="580.126953"/>
     </g>
    </g>
   </g>
   <g id="line2d_15">
    <path d="M 73.832727 90.687369 
L 74.013191 83.515606 
L 74.193655 53.568 
L 74.374119 65.109723 
L 74.554583 65.410084 
L 74.915511 103.912862 
L 75.095975 110.087655 
L 75.276438 112.085232 
L 75.456902 109.031828 
L 75.637366 120.399727 
L 75.81783 113.418688 
L 75.998294 155.486937 
L 76.178758 146.654633 
L 76.359222 146.561069 
L 76.539686 133.710138 
L 76.900613 146.441375 
L 77.081077 141.453027 
L 77.261541 164.84007 
L 77.442005 164.083366 
L 77.622469 164.254238 
L 77.802933 176.019892 
L 77.983397 166.496042 
L 78.163861 187.091859 
L 78.344325 184.48454 
L 78.524789 194.664128 
L 78.885716 177.559868 
L 79.06618 181.885535 
L 79.246644 192.063846 
L 79.427108 181.832871 
L 79.607572 193.421845 
L 79.788036 184.961082 
L 79.9685 184.618847 
L 80.148964 194.245998 
L 80.329427 181.505843 
L 80.509891 202.691525 
L 80.690355 199.557932 
L 80.870819 218.0822 
L 81.051283 200.931527 
L 81.231747 201.053171 
L 81.412211 194.297508 
L 81.592675 203.686127 
L 81.773139 199.191512 
L 81.953603 217.472079 
L 82.134066 221.471797 
L 82.31453 220.779806 
L 82.494994 202.150139 
L 82.675458 200.09436 
L 82.855922 204.903891 
L 83.036386 204.652536 
L 83.397314 219.543417 
L 83.577778 206.705184 
L 83.758241 216.901483 
L 83.938705 214.903842 
L 84.119169 202.99844 
L 84.299633 222.622936 
L 84.480097 214.283129 
L 84.660561 220.910727 
L 84.841025 219.285636 
L 85.021489 211.220705 
L 85.201953 216.554347 
L 85.382416 213.501161 
L 85.743344 234.885258 
L 85.923808 233.311635 
L 86.104272 230.30255 
L 86.284736 220.505192 
L 86.4652 228.299358 
L 86.645664 217.222928 
L 86.826128 250.422413 
L 87.006592 240.941763 
L 87.187055 237.485862 
L 87.367519 220.98803 
L 87.728447 229.903821 
L 87.908911 219.149219 
L 88.089375 239.555892 
L 88.269839 232.776635 
L 88.450303 234.350755 
L 88.630767 243.088275 
L 88.81123 229.537776 
L 88.991694 248.297062 
L 89.172158 242.81791 
L 89.352622 249.135344 
L 89.71355 230.240822 
L 90.074478 244.007155 
L 90.254942 233.019317 
L 90.435406 241.593507 
L 90.796333 229.066056 
L 90.976797 237.793584 
L 91.157261 224.62042 
L 91.337725 245.398843 
L 91.518189 238.799406 
L 91.698653 256.7276 
L 91.879117 239.820581 
L 92.059581 237.5125 
L 92.240044 230.541593 
L 92.420508 239.150367 
L 92.600972 232.975179 
L 92.781436 249.899444 
L 92.9619 252.489234 
L 93.142364 252.808116 
L 93.322828 234.53421 
L 93.503292 229.922894 
L 93.683756 234.704452 
L 93.86422 234.777886 
L 94.225147 246.068134 
L 94.405611 231.036127 
L 94.586075 241.942199 
L 94.766539 237.923907 
L 94.947003 229.006927 
L 95.127467 247.25371 
L 95.307931 238.034516 
L 95.488395 246.204933 
L 95.668858 243.65147 
L 95.849322 235.970654 
L 96.029786 237.697279 
L 96.21025 236.858494 
L 96.390714 250.993744 
L 96.571178 255.418793 
L 96.751642 255.11366 
L 96.932106 252.6337 
L 97.11257 241.861527 
L 97.293034 248.23583 
L 97.473497 238.65526 
L 97.653961 267.959183 
L 97.834425 257.648943 
L 98.014889 254.142816 
L 98.195353 239.241017 
L 98.556281 248.055135 
L 98.736745 235.36288 
L 98.917209 256.188602 
L 99.097672 251.849295 
L 99.278136 250.296528 
L 99.4586 259.576732 
L 99.639064 246.77152 
L 99.819528 263.799255 
L 99.999992 257.186748 
L 100.180456 262.655282 
L 100.541384 243.175837 
L 100.902311 257.794632 
L 101.082775 245.393575 
L 101.263239 255.430137 
L 101.443703 246.494119 
L 101.624167 243.459996 
L 101.804631 252.652583 
L 101.985095 237.758464 
L 102.165559 258.063881 
L 102.346023 251.578193 
L 102.526486 269.35371 
L 102.70695 251.996379 
L 102.887414 251.407538 
L 103.067878 243.784797 
L 103.248342 250.382643 
L 103.428806 243.5224 
L 103.60927 260.327167 
L 103.789734 263.751171 
L 103.970198 264.100613 
L 104.150661 245.811166 
L 104.331125 241.448498 
L 104.872517 251.964794 
L 105.052981 258.939038 
L 105.233445 242.382391 
L 105.413909 252.106586 
L 105.594373 248.972382 
L 105.774837 239.240541 
L 105.9553 258.11533 
L 106.135764 248.53993 
L 106.316228 255.380607 
L 106.496692 253.386457 
L 106.677156 246.35138 
L 106.85762 246.82897 
L 107.038084 245.768793 
L 107.218548 260.222956 
L 107.399012 264.77027 
L 107.579475 264.48584 
L 107.759939 261.612868 
L 107.940403 250.641755 
L 108.120867 256.942282 
L 108.301331 249.204805 
L 108.481795 277.554941 
L 108.662259 266.918755 
L 108.842723 263.520785 
L 109.023187 247.546346 
L 109.384114 256.537706 
L 109.564578 244.003694 
L 109.745042 265.579137 
L 109.925506 259.795617 
L 110.10597 259.471788 
L 110.286434 268.111339 
L 110.466898 254.784531 
L 110.647362 271.633462 
L 110.827826 265.932639 
L 111.008289 271.891457 
L 111.369217 252.305534 
L 111.730145 265.898406 
L 111.910609 253.490904 
L 112.091073 262.501401 
L 112.271537 253.371335 
L 112.452001 250.221253 
L 112.632465 259.234584 
L 112.812928 245.42164 
L 112.993392 265.59159 
L 113.173856 258.584415 
L 113.35432 276.713073 
L 113.534784 258.710489 
L 113.715248 257.969783 
L 113.895712 250.875332 
L 114.076176 258.607265 
L 114.25664 250.645377 
L 114.437103 267.660149 
L 114.798031 271.050576 
L 114.978495 253.018274 
L 115.158959 247.182163 
L 115.339423 251.936767 
L 115.519887 252.635266 
L 115.880815 265.387737 
L 116.061278 249.836535 
L 116.241742 259.48953 
L 116.422206 255.311312 
L 116.60267 245.618101 
L 116.783134 263.569773 
L 116.963598 254.875415 
L 117.144062 261.228529 
L 117.324526 258.768396 
L 117.50499 251.284832 
L 117.685454 253.869426 
L 117.865917 252.166328 
L 118.046381 266.783663 
L 118.226845 272.190452 
L 118.587773 267.159709 
L 118.768237 255.384905 
L 118.948701 264.210682 
L 119.129165 254.152761 
L 119.309629 283.563732 
L 119.85102 254.571803 
L 120.211948 261.646947 
L 120.392412 251.086711 
L 120.572876 269.442706 
L 120.75334 266.131198 
L 120.933804 266.646787 
L 121.114268 273.450437 
L 121.294731 259.844156 
L 121.475195 275.768167 
L 121.655659 269.790743 
L 121.836123 275.776674 
L 122.197051 257.614569 
L 122.557979 268.726176 
L 122.738443 256.977168 
L 122.918906 266.561656 
L 123.279834 253.529401 
L 123.460298 263.025839 
L 123.640762 248.401056 
L 123.821226 268.788298 
L 124.00169 261.253781 
L 124.182154 279.026985 
L 124.362618 262.325978 
L 124.543082 260.989307 
L 124.723545 253.647643 
L 124.904009 261.249782 
L 125.084473 252.437295 
L 125.264937 270.520373 
L 125.445401 272.517771 
L 125.625865 273.003056 
L 125.986793 249.109102 
L 126.708648 267.496595 
L 126.889112 251.782952 
L 127.069576 262.389129 
L 127.25004 259.016341 
L 127.430504 247.516133 
L 127.610968 265.53107 
L 127.791432 256.93303 
L 127.971895 262.1215 
L 128.152359 260.635992 
L 128.332823 253.815268 
L 128.513287 255.507198 
L 128.693751 252.941485 
L 129.054679 273.564112 
L 129.415607 268.529423 
L 129.596071 257.75773 
L 129.776534 264.30896 
L 129.956998 256.814204 
L 130.137462 284.245223 
L 130.317926 274.264215 
L 130.49839 270.493312 
L 130.678854 255.410915 
L 131.039782 262.358864 
L 131.220246 249.931246 
L 131.400709 270.23327 
L 131.581173 267.284825 
L 131.761637 267.300888 
L 131.942101 274.906108 
L 132.122565 261.023054 
L 132.303029 276.959325 
L 132.483493 272.484605 
L 132.663957 277.670402 
L 133.024885 258.651693 
L 133.385812 271.597093 
L 133.566276 259.163892 
L 133.74674 268.902753 
L 134.107668 254.947057 
L 134.288132 265.025745 
L 134.468596 250.304083 
L 134.64906 269.495628 
L 134.829523 262.688453 
L 135.009987 279.731035 
L 135.190451 263.244243 
L 135.370915 262.237379 
L 135.551379 257.335501 
L 135.731843 262.935652 
L 135.912307 256.326593 
L 136.092771 271.695991 
L 136.273235 275.539849 
L 136.453699 274.826377 
L 136.634162 257.616027 
L 136.814626 251.816717 
L 136.99509 257.220027 
L 137.175554 258.950214 
L 137.536482 269.810979 
L 137.716946 253.537219 
L 137.89741 264.293973 
L 138.077874 261.527716 
L 138.258337 248.942449 
L 138.438801 267.476089 
L 138.619265 258.749761 
L 138.799729 264.10688 
L 138.980193 262.302572 
L 139.160657 254.947937 
L 139.341121 257.383343 
L 139.521585 255.067182 
L 139.882513 275.73754 
L 140.24344 269.071399 
L 140.423904 258.978857 
L 140.604368 265.524822 
L 140.784832 256.850917 
L 140.965296 285.795692 
L 141.506688 256.729064 
L 141.867615 265.48013 
L 142.048079 250.423319 
L 142.228543 272.119673 
L 142.409007 267.700876 
L 142.589471 267.345859 
L 142.769935 275.734239 
L 142.950399 262.445191 
L 143.130863 277.707332 
L 143.311326 274.76722 
L 143.49179 280.03565 
L 143.852718 260.067301 
L 144.213646 272.896635 
L 144.39411 261.792332 
L 144.574574 271.308717 
L 144.935502 257.077346 
L 145.115965 266.595011 
L 145.296429 251.937203 
L 145.476893 271.636822 
L 145.657357 263.703715 
L 145.837821 282.19884 
L 146.018285 266.237349 
L 146.379213 258.962801 
L 146.559677 263.268154 
L 146.74014 256.433041 
L 146.920604 274.038794 
L 147.101068 277.826931 
L 147.281532 277.082281 
L 147.461996 259.609839 
L 147.64246 254.131236 
L 147.822924 258.590983 
L 148.003388 259.330524 
L 148.364316 269.803253 
L 148.544779 255.125176 
L 148.725243 265.375701 
L 148.905707 262.686136 
L 149.086171 250.299034 
L 149.266635 269.050177 
L 149.447099 261.659476 
L 149.627563 266.29143 
L 149.808027 264.43511 
L 149.988491 257.29675 
L 150.168954 258.831825 
L 150.349418 256.835161 
L 150.710346 276.717925 
L 151.071274 270.855701 
L 151.251738 261.512878 
L 151.432202 267.402202 
L 151.612666 258.870329 
L 151.79313 286.680031 
L 152.334521 258.824249 
L 152.695449 267.927711 
L 152.875913 253.53782 
L 153.056377 273.335205 
L 153.236841 269.461411 
L 153.417305 269.798935 
L 153.597768 277.377772 
L 153.778232 263.935861 
L 153.958696 280.273777 
L 154.13916 276.900997 
L 154.319624 281.086427 
L 154.680552 262.198803 
L 155.04148 274.849501 
L 155.221944 262.971716 
L 155.402407 271.883983 
L 155.582871 262.462775 
L 155.763335 259.762448 
L 155.943799 268.750886 
L 156.124263 253.159022 
L 156.304727 275.12067 
L 156.485191 267.556452 
L 156.665655 284.33474 
L 156.846119 267.176772 
L 157.026582 265.29871 
L 157.207046 258.910358 
L 157.38751 264.607751 
L 157.567974 258.144856 
L 157.748438 276.145304 
L 157.928902 279.47979 
L 158.109366 278.440354 
L 158.28983 261.371564 
L 158.470294 256.241993 
L 158.650757 260.59102 
L 158.831221 261.221272 
L 159.192149 271.661789 
L 159.372613 256.459391 
L 159.553077 266.946997 
L 159.733541 263.46223 
L 159.914005 251.530757 
L 160.094469 271.38473 
L 160.274933 263.075184 
L 160.455396 267.52445 
L 160.63586 264.469847 
L 160.816324 258.394832 
L 160.996788 260.396013 
L 161.177252 257.914919 
L 161.53818 277.206989 
L 161.718644 275.528013 
L 161.899108 271.68533 
L 162.079571 261.339105 
L 162.260035 267.223462 
L 162.440499 258.852502 
L 162.620963 287.627393 
L 163.162355 260.122847 
L 163.523283 268.193412 
L 163.703747 255.224091 
L 163.88421 274.96073 
L 164.064674 269.94658 
L 164.245138 270.334726 
L 164.425602 276.94961 
L 164.606066 263.872067 
L 164.78653 280.428042 
L 164.966994 277.433276 
L 165.147458 282.490922 
L 165.508385 262.320056 
L 165.869313 274.846137 
L 166.049777 263.393358 
L 166.230241 273.298351 
L 166.410705 262.395238 
L 166.591169 259.955829 
L 166.771633 270.127784 
L 166.952097 254.613291 
L 167.132561 274.572813 
L 167.313024 267.803096 
L 167.493488 285.466848 
L 167.673952 269.142658 
L 168.03488 260.916484 
L 168.215344 266.197463 
L 168.395808 258.181383 
L 168.576272 276.683626 
L 168.756736 280.681877 
L 168.937199 279.520858 
L 169.117663 262.418503 
L 169.298127 256.475384 
L 170.019983 271.595042 
L 170.200447 256.713514 
L 170.380911 267.770473 
L 170.561375 264.43094 
L 170.741838 253.483332 
L 170.922302 272.148311 
L 171.102766 264.326526 
L 171.28323 269.336012 
L 171.644158 260.679414 
L 171.824622 261.877957 
L 172.005086 258.257681 
L 172.366013 279.508417 
L 172.726941 272.930776 
L 172.907405 263.266275 
L 173.087869 268.478177 
L 173.268333 260.030655 
L 173.448797 289.466584 
L 173.629261 278.058991 
L 173.809725 274.550365 
L 173.990188 260.325742 
L 174.351116 268.092801 
L 174.53158 256.153365 
L 174.712044 276.249721 
L 174.892508 271.181736 
L 175.072972 271.702137 
L 175.253436 279.548392 
L 175.4339 265.658068 
L 175.614364 281.734451 
L 175.794827 278.108527 
L 175.975291 282.88487 
L 176.336219 263.253209 
L 176.697147 276.183564 
L 176.877611 264.658682 
L 177.058075 274.571125 
L 177.238539 264.191609 
L 177.419002 260.722251 
L 177.599466 272.06542 
L 177.77993 255.485928 
L 177.960394 275.873955 
L 178.140858 268.572897 
L 178.321322 285.810499 
L 178.501786 268.622219 
L 178.68225 267.257685 
L 178.862714 261.409002 
L 179.043178 267.043424 
L 179.223641 259.418444 
L 179.404105 278.407246 
L 179.584569 280.95894 
L 179.765033 280.66365 
L 180.125961 256.115416 
L 180.306425 261.995219 
L 180.486889 263.370739 
L 180.847816 272.960539 
L 181.02828 258.867462 
L 181.208744 268.617708 
L 181.389208 265.10203 
L 181.569672 254.394539 
L 181.750136 273.222025 
L 181.9306 265.074134 
L 182.111064 270.728752 
L 182.291528 267.011966 
L 182.471992 260.558437 
L 182.652455 263.1895 
L 182.832919 259.576633 
L 183.193847 280.836836 
L 183.554775 273.888047 
L 183.735239 263.916601 
L 183.915703 270.285487 
L 184.096167 261.853574 
L 184.27663 290.462404 
L 184.818022 261.206494 
L 185.17895 269.955607 
L 185.359414 256.484842 
L 185.539878 278.059839 
L 185.720342 272.733101 
L 185.900805 272.061969 
L 186.081269 280.400579 
L 186.261733 267.635172 
L 186.442197 283.191147 
L 186.622661 278.315372 
L 186.803125 283.323869 
L 187.164053 263.619855 
L 187.524981 276.934414 
L 187.705444 265.313651 
L 187.885908 274.817052 
L 188.066372 264.83039 
L 188.246836 262.937966 
L 188.4273 271.611317 
L 188.607764 256.772699 
L 188.788228 275.529005 
L 188.968692 270.216658 
L 189.149156 287.225522 
L 189.329619 269.247177 
L 189.510083 268.93551 
L 189.690547 262.496615 
L 189.871011 268.089106 
L 190.051475 261.63523 
L 190.231939 279.080572 
L 190.412403 282.17045 
L 190.592867 281.839486 
L 190.773331 264.209736 
L 190.953795 258.449478 
L 191.134258 264.650607 
L 191.314722 262.939779 
L 191.67565 274.402068 
L 191.856114 257.67702 
L 192.036578 268.358315 
L 192.217042 265.167228 
L 192.397506 256.351717 
L 192.57797 274.236944 
L 192.758433 265.509448 
L 192.938897 272.338189 
L 193.299825 261.957256 
L 193.480289 264.003312 
L 193.660753 261.578036 
L 194.021681 282.290645 
L 194.382609 275.93801 
L 194.563072 265.237885 
L 194.743536 271.542889 
L 194.924 263.160413 
L 195.104464 290.827249 
L 195.284928 280.73414 
L 195.465392 277.425186 
L 195.645856 262.663249 
L 196.006784 269.970787 
L 196.187247 257.535376 
L 196.367711 278.137646 
L 196.548175 274.328153 
L 196.728639 273.535003 
L 196.909103 281.347879 
L 197.089567 267.632306 
L 197.270031 284.063714 
L 197.450495 279.563201 
L 197.630959 284.47064 
L 197.991886 266.562056 
L 198.352814 278.876218 
L 198.533278 266.838578 
L 198.713742 275.634114 
L 198.894206 267.160212 
L 199.07467 264.64245 
L 199.255134 271.891096 
L 199.435598 257.201502 
L 199.616061 278.012605 
L 199.796525 271.23271 
L 199.976989 288.350774 
L 200.157453 271.696903 
L 200.337917 269.611796 
L 200.518381 263.674893 
L 200.698845 269.528854 
L 200.879309 263.09701 
L 201.059773 279.417104 
L 201.240236 281.997525 
L 201.4207 282.814701 
L 201.601164 263.990708 
L 201.781628 259.33213 
L 201.962092 264.31917 
L 202.142556 264.455119 
L 202.503484 275.567277 
L 202.683948 260.937919 
L 202.864412 270.693444 
L 203.044875 267.510862 
L 203.225339 256.476067 
L 203.405803 275.519492 
L 203.586267 265.770226 
L 203.766731 273.114657 
L 204.127659 262.121987 
L 204.308123 265.154821 
L 204.488587 262.048123 
L 204.849514 282.006123 
L 205.210442 275.947752 
L 205.390906 265.831399 
L 205.57137 272.575563 
L 205.751834 263.109271 
L 205.932298 291.340449 
L 206.473689 262.497146 
L 206.834617 271.905473 
L 207.015081 257.780411 
L 207.195545 279.266642 
L 207.376009 275.370626 
L 207.556473 274.006776 
L 207.736937 281.67064 
L 207.917401 268.781452 
L 208.097864 285.958177 
L 208.278328 280.262811 
L 208.458792 285.455285 
L 208.81972 265.397375 
L 209.180648 278.935315 
L 209.361112 266.500772 
L 209.541576 276.890469 
L 209.72204 267.91525 
L 209.902503 265.335594 
L 210.082967 272.639319 
L 210.263431 258.772559 
L 210.443895 278.567582 
L 210.624359 270.801506 
L 210.804823 289.549889 
L 210.985287 272.516514 
L 211.165751 270.547843 
L 211.346215 264.792928 
L 211.526678 270.7447 
L 211.707142 263.12694 
L 211.887606 279.676135 
L 212.06807 282.969401 
L 212.248534 283.878445 
L 212.428998 265.233026 
L 212.609462 260.16133 
L 212.789926 265.320462 
L 212.97039 263.673698 
L 213.331317 275.995844 
L 213.511781 260.496134 
L 213.692245 270.018027 
L 213.872709 267.02479 
L 214.053173 256.875798 
L 214.233637 276.22925 
L 214.414101 267.640426 
L 214.594565 273.605512 
L 214.775029 269.39853 
L 214.955492 262.381588 
L 215.135956 264.247285 
L 215.31642 262.711774 
L 215.677348 283.282588 
L 216.038276 276.479713 
L 216.21874 266.273399 
L 216.399204 273.042466 
L 216.579667 264.189745 
L 216.760131 292.032017 
L 217.301523 263.15907 
L 217.662451 273.27517 
L 217.842915 258.960412 
L 218.023379 278.499665 
L 218.203843 274.805214 
L 218.384306 274.474723 
L 218.56477 282.569621 
L 218.745234 269.151989 
L 218.925698 285.515018 
L 219.106162 281.649491 
L 219.286626 285.865192 
L 219.647554 265.145385 
L 220.008481 279.618864 
L 220.188945 267.265286 
L 220.369409 277.362362 
L 220.549873 268.225383 
L 220.730337 265.156493 
L 220.910801 273.365958 
L 221.091265 258.02714 
L 221.271729 278.578732 
L 221.452193 273.398585 
L 221.632657 289.90248 
L 221.81312 272.912391 
L 221.993584 271.964416 
L 222.174048 265.476251 
L 222.354512 270.732884 
L 222.534976 263.610424 
L 222.71544 279.155145 
L 222.895904 283.573387 
L 223.076368 283.449144 
L 223.256832 264.973185 
L 223.437295 260.100872 
L 223.617759 265.639177 
L 223.798223 264.297928 
L 224.159151 275.832231 
L 224.339615 260.339016 
L 224.520079 270.333196 
L 224.700543 268.140301 
L 224.881007 257.444228 
L 225.061471 275.643009 
L 225.241934 266.661555 
L 225.422398 274.315284 
L 225.783326 263.708156 
L 225.96379 266.160371 
L 226.144254 262.774887 
L 226.505182 283.548192 
L 226.866109 277.554876 
L 227.046573 267.10012 
L 227.227037 272.351669 
L 227.407501 264.490965 
L 227.587965 291.957911 
L 228.129357 263.28747 
L 228.490285 273.082235 
L 228.670748 259.507768 
L 228.851212 279.291443 
L 229.031676 275.718649 
L 229.21214 274.514121 
L 229.392604 282.521538 
L 229.573068 269.712843 
L 229.753532 285.600426 
L 229.933996 282.102669 
L 230.11446 286.158837 
L 230.475387 266.021355 
L 230.836315 280.282851 
L 231.016779 267.768011 
L 231.197243 277.654797 
L 231.377707 268.10947 
L 231.558171 265.247644 
L 231.738635 272.960436 
L 231.919098 259.496147 
L 232.099562 278.842447 
L 232.280026 273.991227 
L 232.46049 290.05301 
L 232.640954 272.996506 
L 232.821418 271.552585 
L 233.001882 264.596891 
L 233.182346 270.691533 
L 233.36281 263.366656 
L 233.543274 280.515781 
L 233.723737 283.6019 
L 233.904201 283.089484 
L 234.084665 266.541459 
L 234.265129 260.80719 
L 234.445593 266.303212 
L 234.626057 265.643864 
L 234.986985 277.085493 
L 235.167449 262.471608 
L 235.347912 271.816498 
L 235.528376 269.696347 
L 235.70884 259.369348 
L 235.889304 276.076214 
L 236.069768 267.916967 
L 236.250232 275.331148 
L 236.430696 271.438285 
L 236.61116 263.519381 
L 236.791624 266.808544 
L 236.972088 264.811756 
L 237.333015 286.002252 
L 237.693943 277.927013 
L 237.874407 266.482798 
L 238.054871 272.912776 
L 238.235335 263.856991 
L 238.415799 291.949057 
L 238.95719 264.121348 
L 239.318118 272.609742 
L 239.498582 259.777391 
L 239.679046 279.933234 
L 239.85951 276.137696 
L 240.039974 275.711065 
L 240.220438 283.951803 
L 240.400902 270.904897 
L 240.581365 286.574158 
L 240.761829 282.466134 
L 240.942293 285.935404 
L 241.303221 267.068739 
L 241.664149 281.32722 
L 241.844613 268.368746 
L 242.025077 278.093307 
L 242.20554 268.188545 
L 242.386004 266.20049 
L 242.566468 273.814425 
L 242.746932 259.398592 
L 242.927396 279.324991 
L 243.10786 273.987326 
L 243.288324 291.060033 
L 243.468788 273.715393 
L 243.649252 271.732948 
L 243.829715 266.183013 
L 244.010179 272.144078 
L 244.190643 264.32131 
L 244.371107 280.01876 
L 244.551571 283.78268 
L 244.732035 283.200786 
L 244.912499 265.799535 
L 245.092963 262.068711 
L 245.273427 267.437853 
L 245.453891 266.567993 
L 245.814818 276.682091 
L 245.995282 261.441831 
L 246.175746 273.064055 
L 246.35621 269.266433 
L 246.536674 259.32832 
L 246.717138 276.360857 
L 246.897602 266.595613 
L 247.078066 275.413191 
L 247.258529 271.733039 
L 247.438993 262.518868 
L 247.619457 267.611011 
L 247.799921 264.864327 
L 248.160849 284.910312 
L 248.521777 279.120106 
L 248.702241 267.423829 
L 248.882705 273.213834 
L 249.063168 265.714368 
L 249.243632 293.518042 
L 249.785024 265.598409 
L 250.145952 274.254191 
L 250.326416 260.048339 
L 250.50688 280.451907 
L 250.687343 276.00643 
L 250.867807 274.702794 
L 251.048271 283.307547 
L 251.228735 270.52063 
L 251.409199 285.791304 
L 251.589663 282.19009 
L 251.770127 285.284432 
L 252.131055 267.002658 
L 252.491982 280.984114 
L 252.672446 268.462356 
L 252.85291 278.96988 
L 253.033374 267.951593 
L 253.213838 265.659839 
L 253.394302 273.909553 
L 253.574766 260.127624 
L 253.75523 279.606591 
L 253.935694 273.571766 
L 254.116157 289.717244 
L 254.296621 273.291552 
L 254.477085 271.959787 
L 254.657549 265.515129 
L 254.838013 272.961355 
L 255.018477 265.675907 
L 255.198941 280.663574 
L 255.379405 284.426841 
L 255.559869 284.672261 
L 255.740333 266.370142 
L 255.920796 260.454914 
L 256.10126 266.265101 
L 256.281724 266.01903 
L 256.642652 275.916498 
L 256.823116 261.907351 
L 257.00358 272.121841 
L 257.184044 269.44048 
L 257.364508 259.280158 
L 257.544971 275.933677 
L 257.725435 266.744371 
L 257.905899 275.358013 
L 258.086363 270.947241 
L 258.266827 263.643199 
L 258.447291 267.442589 
L 258.627755 264.656569 
L 258.988683 284.945242 
L 259.34961 278.589844 
L 259.530074 265.579941 
L 259.710538 273.250332 
L 259.891002 264.760731 
L 260.071466 292.562382 
L 260.612858 265.38165 
L 260.973785 272.816477 
L 261.154249 259.882824 
L 261.334713 280.669735 
L 261.515177 276.441005 
L 261.695641 275.475217 
L 261.876105 283.423092 
L 262.056569 270.34574 
L 262.237033 286.14913 
L 262.417497 283.017841 
L 262.59796 286.097003 
L 262.958888 268.036358 
L 263.319816 280.691971 
L 263.50028 270.218608 
L 263.680744 279.590258 
L 263.861208 269.279571 
L 264.041672 266.960919 
L 264.222136 275.105529 
L 264.402599 261.4128 
L 264.583063 280.839167 
L 264.763527 273.867388 
L 264.943991 290.559302 
L 265.124455 273.90851 
L 265.304919 271.856294 
L 265.485383 267.102381 
L 265.665847 273.643793 
L 265.846311 266.59307 
L 266.026774 281.775593 
L 266.207238 285.085731 
L 266.387702 284.794891 
L 266.568166 267.00234 
L 266.74863 261.01697 
L 266.929094 266.62484 
L 267.109558 266.258935 
L 267.470486 276.898925 
L 267.65095 262.3522 
L 267.831413 272.996283 
L 268.011877 269.41374 
L 268.192341 259.231687 
L 268.372805 276.303957 
L 268.553269 267.060761 
L 268.733733 274.64323 
L 268.914197 271.596901 
L 269.094661 263.985719 
L 269.275125 266.257907 
L 269.455588 264.48931 
L 269.816516 285.162517 
L 270.177444 279.170665 
L 270.357908 266.454236 
L 270.538372 273.974047 
L 270.718836 265.344219 
L 270.8993 292.516619 
L 271.440691 265.233987 
L 271.801619 273.094817 
L 271.982083 260.147788 
L 272.162547 280.557693 
L 272.343011 276.088381 
L 272.523475 276.820499 
L 272.703939 284.136025 
L 272.884402 271.076001 
L 273.064866 285.951277 
L 273.24533 282.128256 
L 273.425794 286.197095 
L 273.786722 267.440552 
L 274.14765 281.695162 
L 274.328114 268.604155 
L 274.508577 278.718427 
L 274.689041 269.009247 
L 274.869505 266.519773 
L 275.049969 274.538837 
L 275.230433 260.240851 
L 275.410897 280.17531 
L 275.591361 273.983692 
L 275.771825 290.524395 
L 275.952289 273.481663 
L 276.132753 273.180557 
L 276.313216 265.354204 
L 276.49368 273.043919 
L 276.674144 265.765268 
L 276.854608 280.456707 
L 277.035072 285.005524 
L 277.215536 285.41036 
L 277.396 266.263349 
L 277.576464 260.959426 
L 277.756928 267.063666 
L 277.937391 265.559564 
L 278.298319 277.205481 
L 278.478783 260.961157 
L 278.659247 273.098078 
L 278.839711 270.353083 
L 279.020175 259.404179 
L 279.200639 275.8025 
L 279.381103 266.613151 
L 279.561567 275.926168 
L 279.922494 263.699739 
L 280.102958 266.165896 
L 280.283422 264.446139 
L 280.64435 284.902847 
L 281.005278 279.408999 
L 281.185742 267.007778 
L 281.366205 274.424233 
L 281.546669 266.088422 
L 281.727133 294.019471 
L 282.268525 264.540008 
L 282.629453 273.879575 
L 282.809917 260.393716 
L 282.990381 280.75153 
L 283.170844 277.054856 
L 283.351308 277.118993 
L 283.531772 285.269357 
L 283.712236 271.574123 
L 283.8927 286.497826 
L 284.073164 282.510031 
L 284.253628 286.284323 
L 284.614556 267.68592 
L 284.975483 282.242685 
L 285.155947 269.572256 
L 285.336411 279.087541 
L 285.516875 269.740524 
L 285.697339 267.039684 
L 285.877803 274.832069 
L 286.058267 261.38079 
L 286.238731 280.28523 
L 286.419195 273.505033 
L 286.599658 291.389672 
L 286.780122 272.437467 
L 286.960586 272.553902 
L 287.14105 266.642037 
L 287.321514 272.25042 
L 287.501978 265.069457 
L 287.682442 281.657909 
L 287.862906 283.946889 
L 288.04337 284.786769 
L 288.223833 265.838631 
L 288.404297 261.485826 
L 288.584761 267.208453 
L 288.765225 266.705992 
L 289.126153 277.672092 
L 289.306617 261.728709 
L 289.487081 272.349354 
L 289.667545 270.159189 
L 289.848008 259.843476 
L 290.028472 276.048011 
L 290.208936 266.505187 
L 290.3894 275.10272 
L 290.750328 263.53179 
L 290.930792 265.836076 
L 291.111256 263.698771 
L 291.472184 284.791517 
L 291.833111 277.994895 
L 292.013575 266.65748 
L 292.194039 273.304476 
L 292.374503 265.986578 
L 292.554967 292.81011 
L 292.735431 282.767631 
L 292.915895 279.818328 
L 293.096359 264.711589 
L 293.457286 273.987229 
L 293.63775 259.837628 
L 293.818214 280.562817 
L 293.998678 276.385249 
L 294.179142 275.391092 
L 294.359606 284.08019 
L 294.54007 271.28094 
L 294.720534 286.21995 
L 294.900998 283.295789 
L 295.081461 284.969523 
L 295.442389 267.004412 
L 295.803317 280.414001 
L 295.983781 268.064121 
L 296.164245 278.458883 
L 296.344709 268.510063 
L 296.525173 267.224932 
L 296.705636 275.714994 
L 296.8861 260.325544 
L 297.066564 279.818634 
L 297.247028 274.478685 
L 297.427492 290.576619 
L 297.607956 272.458944 
L 297.78842 271.625943 
L 297.968884 266.474062 
L 298.149348 272.54573 
L 298.329812 263.903344 
L 298.510275 281.135052 
L 298.690739 284.437885 
L 298.871203 285.340614 
L 299.051667 266.532356 
L 299.232131 261.10469 
L 299.412595 268.315047 
L 299.593059 266.448766 
L 299.953987 278.418497 
L 300.13445 261.146995 
L 300.314914 272.204006 
L 300.495378 269.209321 
L 300.675842 259.816546 
L 300.856306 276.639922 
L 301.03677 266.615886 
L 301.217234 275.384943 
L 301.397698 271.102847 
L 301.578162 263.73061 
L 301.758625 265.607354 
L 301.939089 263.674802 
L 302.300017 285.593449 
L 302.480481 279.998923 
L 302.660945 279.023857 
L 302.841409 267.188203 
L 303.021873 273.241204 
L 303.202337 266.904249 
L 303.382801 294.152371 
L 303.563264 283.265774 
L 303.743728 279.773619 
L 303.924192 265.878828 
L 304.28512 274.720085 
L 304.465584 261.335943 
L 304.646048 281.132121 
L 304.826512 276.84198 
L 305.006976 275.206455 
L 305.187439 283.384239 
L 305.367903 270.156849 
L 305.548367 286.469372 
L 305.728831 281.906382 
L 305.909295 286.070764 
L 306.270223 268.422285 
L 306.631151 280.969871 
L 306.811615 269.206169 
L 306.992078 278.763217 
L 307.172542 269.077289 
L 307.353006 266.606894 
L 307.53347 274.441524 
L 307.713934 261.183201 
L 307.894398 281.131527 
L 308.074862 275.212607 
L 308.255326 290.584204 
L 308.43579 273.847384 
L 308.616253 271.633967 
L 308.796717 267.027962 
L 308.977181 273.129125 
L 309.157645 265.628306 
L 309.338109 280.969876 
L 309.518573 285.228436 
L 309.699037 284.890286 
L 309.879501 266.238129 
L 310.059965 261.059849 
L 310.240429 267.69257 
L 310.420892 266.756016 
L 310.78182 277.386005 
L 310.962284 261.39134 
L 311.142748 272.519439 
L 311.323212 270.191429 
L 311.503676 259.844688 
L 311.68414 276.786339 
L 311.864604 267.360811 
L 312.045067 276.629942 
L 312.405995 263.937231 
L 312.586459 266.087338 
L 312.766923 263.439494 
L 313.127851 284.462131 
L 313.488779 279.147984 
L 313.669243 267.076893 
L 313.849706 274.933329 
L 314.03017 265.839299 
L 314.210634 294.45733 
L 314.391098 283.666401 
L 314.571562 281.095285 
L 314.752026 266.482134 
L 315.112954 274.444757 
L 315.293418 261.02182 
L 315.473881 281.359614 
L 315.834809 275.553069 
L 316.015273 284.38068 
L 316.195737 271.110821 
L 316.376201 287.171188 
L 316.556665 282.339739 
L 316.737129 286.282591 
L 317.098056 268.686215 
L 317.458984 281.961561 
L 317.639448 269.955709 
L 317.819912 278.895768 
L 318.000376 269.112991 
L 318.18084 267.660349 
L 318.361304 275.803118 
L 318.541768 261.410362 
L 318.722232 281.015744 
L 318.902695 273.773588 
L 319.083159 291.323054 
L 319.263623 274.104676 
L 319.444087 272.213922 
L 319.624551 267.10463 
L 319.805015 273.09126 
L 319.985479 264.770206 
L 320.165943 280.94597 
L 320.346407 285.25417 
L 320.52687 285.883731 
L 320.707334 267.59629 
L 320.887798 262.46788 
L 321.068262 269.005668 
L 321.248726 267.482948 
L 321.609654 277.846622 
L 321.790118 263.01601 
L 321.970582 273.260782 
L 322.151046 270.092684 
L 322.331509 260.807844 
L 322.511973 277.306237 
L 322.692437 267.170182 
L 322.872901 276.541147 
L 323.053365 271.704238 
L 323.233829 263.510978 
L 323.414293 266.912354 
L 323.594757 264.975652 
L 323.955684 285.58326 
L 324.316612 278.568846 
L 324.497076 267.818572 
L 324.67754 274.38705 
L 324.858004 266.737272 
L 325.038468 294.064269 
L 325.218932 283.605653 
L 325.399396 280.798507 
L 325.57986 266.742954 
L 325.940787 274.014296 
L 326.121251 261.862825 
L 326.301715 282.27602 
L 326.662643 275.914162 
L 326.843107 284.650444 
L 327.023571 272.204499 
L 327.204035 285.890916 
L 327.384498 282.660725 
L 327.564962 287.431079 
L 327.92589 269.125653 
L 328.286818 282.080126 
L 328.467282 270.434469 
L 328.647746 280.428156 
L 328.82821 269.467216 
L 329.008674 267.795744 
L 329.189137 276.169199 
L 329.369601 263.283655 
L 329.550065 281.119466 
L 329.730529 275.475694 
L 329.910993 291.811901 
L 330.091457 274.643101 
L 330.271921 274.789875 
L 330.452385 267.347324 
L 330.632849 273.368885 
L 330.813312 266.497644 
L 330.993776 281.52752 
L 331.17424 285.783796 
L 331.354704 286.023502 
L 331.535168 268.116115 
L 331.715632 261.506124 
L 331.896096 267.671815 
L 332.07656 267.125765 
L 332.437487 277.398035 
L 332.617951 262.517814 
L 332.798415 273.237764 
L 332.978879 270.090104 
L 333.159343 259.66987 
L 333.339807 277.36348 
L 333.520271 267.592194 
L 333.700735 276.101648 
L 334.061663 264.381518 
L 334.242126 266.455333 
L 334.42259 264.560104 
L 334.783518 286.688592 
L 334.963982 280.866164 
L 335.144446 279.341143 
L 335.32491 267.730108 
L 335.505374 273.25845 
L 335.685838 266.665882 
L 335.866301 294.323093 
L 336.046765 283.832086 
L 336.227229 280.272488 
L 336.407693 266.999012 
L 336.768621 273.921851 
L 336.949085 261.228108 
L 337.129549 281.988383 
L 337.310013 277.144433 
L 337.490477 276.267732 
L 337.67094 284.931066 
L 337.851404 272.369547 
L 338.031868 287.626785 
L 338.212332 283.134976 
L 338.392796 288.072185 
L 338.753724 269.649029 
L 339.114652 283.027387 
L 339.295115 270.529234 
L 339.475579 280.423409 
L 339.656043 270.780296 
L 339.836507 268.559095 
L 340.016971 275.337576 
L 340.197435 262.029428 
L 340.377899 281.656927 
L 340.558363 275.204222 
L 340.738827 291.435238 
L 340.919291 275.279066 
L 341.099754 274.069348 
L 341.280218 268.077183 
L 341.460682 273.086004 
L 341.641146 265.952151 
L 341.82161 282.089874 
L 342.002074 285.987126 
L 342.182538 286.285762 
L 342.363002 267.210462 
L 342.543466 262.761486 
L 342.723929 269.460582 
L 342.904393 267.011247 
L 343.265321 278.131694 
L 343.445785 262.360719 
L 343.626249 273.511356 
L 343.806713 270.96474 
L 343.987177 259.925843 
L 344.167641 277.55084 
L 344.348105 268.57574 
L 344.528568 276.246948 
L 344.709032 271.91961 
L 344.889496 264.832311 
L 345.06996 267.570738 
L 345.250424 264.754377 
L 345.611352 285.912595 
L 345.97228 278.682961 
L 346.152743 267.875855 
L 346.333207 274.747485 
L 346.513671 266.287237 
L 346.694135 295.22607 
L 346.874599 284.137588 
L 347.055063 280.571771 
L 347.235527 265.996849 
L 347.596455 274.320627 
L 347.776918 261.783867 
L 347.957382 281.244914 
L 348.137846 275.671214 
L 348.31831 276.322656 
L 348.498774 284.27534 
L 348.679238 272.154992 
L 348.859702 287.635945 
L 349.040166 283.3104 
L 349.22063 289.03672 
L 349.581557 269.449405 
L 349.942485 283.227002 
L 350.122949 270.06662 
L 350.303413 280.006394 
L 350.664341 267.493417 
L 350.844805 275.131528 
L 351.025269 260.919449 
L 351.205732 280.907097 
L 351.386196 275.271928 
L 351.56666 291.207568 
L 351.747124 274.954056 
L 351.927588 273.500511 
L 352.108052 267.773988 
L 352.288516 273.115698 
L 352.46898 266.691494 
L 352.649444 282.929469 
L 353.010371 286.686571 
L 353.190835 267.629609 
L 353.371299 262.178705 
L 353.551763 267.811462 
L 353.732227 267.036916 
L 354.093155 278.749734 
L 354.273619 262.775787 
L 354.454083 273.433602 
L 354.634546 270.6281 
L 354.81501 260.834495 
L 354.995474 278.186855 
L 355.175938 268.440465 
L 355.356402 276.288792 
L 355.536866 272.866083 
L 355.71733 264.746165 
L 355.897794 267.883762 
L 356.078258 265.501461 
L 356.439185 286.371832 
L 356.800113 279.003757 
L 356.980577 268.66829 
L 357.161041 274.686502 
L 357.341505 266.733789 
L 357.521969 295.488 
L 357.702433 283.602591 
L 357.882897 281.536676 
L 358.06336 267.210808 
L 358.243824 273.185946 
L 358.424288 274.34954 
L 358.604752 261.031731 
L 358.785216 281.126511 
L 358.96568 277.281263 
L 359.146144 277.581565 
L 359.326608 284.970609 
L 359.507072 272.426972 
L 359.687535 287.488833 
L 359.867999 283.451105 
L 360.048463 288.729894 
L 360.409391 269.221904 
L 360.770319 282.803556 
L 360.950783 271.493401 
L 361.131247 280.23256 
L 361.311711 271.454313 
L 361.492174 268.307259 
L 361.672638 275.66396 
L 361.853102 262.172464 
L 362.033566 281.472074 
L 362.21403 275.913455 
L 362.394494 292.036074 
L 362.574958 275.615145 
L 362.755422 273.863123 
L 362.935886 268.304929 
L 363.116349 274.441761 
L 363.296813 266.8647 
L 363.477277 283.05453 
L 363.838205 287.331562 
L 364.018669 268.355415 
L 364.199133 262.644479 
L 364.379597 268.750345 
L 364.560061 268.54118 
L 364.920988 277.908383 
L 365.101452 262.401958 
L 365.281916 273.974576 
L 365.46238 270.464034 
L 365.642844 260.721928 
L 365.823308 278.768708 
L 366.003772 268.283965 
L 366.184236 275.963927 
L 366.3647 271.759234 
L 366.545163 264.161665 
L 366.725627 266.804587 
L 366.906091 265.603845 
L 367.267019 285.495245 
L 367.627947 278.889346 
L 367.808411 267.772648 
L 367.988875 275.081355 
L 368.169339 265.670294 
L 368.349802 294.70872 
L 368.530266 283.759649 
L 368.71073 281.053471 
L 368.891194 266.983495 
L 369.252122 274.94725 
L 369.432586 261.276455 
L 369.61305 281.704156 
L 369.793514 277.139067 
L 369.973977 277.44901 
L 370.154441 285.070917 
L 370.334905 271.978833 
L 370.515369 287.843979 
L 370.695833 283.320786 
L 370.876297 288.615997 
L 371.237225 269.986552 
L 371.598153 283.196751 
L 371.778616 271.013657 
L 371.95908 280.164291 
L 372.139544 270.040102 
L 372.320008 267.375874 
L 372.500472 274.836138 
L 372.680936 261.509459 
L 372.8614 280.915258 
L 373.041864 274.998982 
L 373.222328 290.873885 
L 373.402791 274.457205 
L 373.583255 274.065512 
L 373.763719 268.905883 
L 373.944183 273.372968 
L 374.124647 266.087327 
L 374.305111 281.724183 
L 374.485575 285.589533 
L 374.666039 286.690465 
L 374.846503 267.181092 
L 375.026966 262.113579 
L 375.20743 267.652125 
L 375.387894 268.278986 
L 375.748822 277.290353 
L 375.929286 262.83745 
L 376.10975 274.285798 
L 376.290214 271.01551 
L 376.470678 259.790489 
L 376.651142 278.154407 
L 376.831605 268.099878 
L 377.012069 275.064377 
L 377.192533 271.835268 
L 377.372997 264.456929 
L 377.553461 267.227052 
L 377.733925 265.579698 
L 378.094853 285.482064 
L 378.45578 279.155574 
L 378.636244 267.671226 
L 378.816708 274.290794 
L 378.997172 266.424897 
L 379.177636 294.764712 
L 379.719028 266.944998 
L 380.079956 274.033423 
L 380.260419 261.728455 
L 380.440883 282.238079 
L 380.621347 277.53403 
L 380.801811 277.326923 
L 380.982275 284.226066 
L 381.162739 272.685742 
L 381.343203 287.232209 
L 381.523667 283.904446 
L 381.704131 288.501375 
L 382.065058 269.210348 
L 382.425986 283.041775 
L 382.60645 270.805837 
L 382.786914 279.539234 
L 382.967378 269.644047 
L 383.147842 268.0884 
L 383.328306 275.838466 
L 383.50877 261.737133 
L 383.689233 280.884961 
L 383.869697 275.339601 
L 384.050161 291.335355 
L 384.230625 274.531898 
L 384.411089 273.850059 
L 384.591553 268.745029 
L 384.772017 274.188706 
L 384.952481 266.660835 
L 385.132945 282.047114 
L 385.313408 285.198645 
L 385.493872 286.335317 
L 385.674336 267.080955 
L 385.8548 261.636348 
L 386.035264 268.057851 
L 386.215728 268.317422 
L 386.576656 277.867542 
L 386.75712 261.488461 
L 386.937584 274.501686 
L 387.118047 270.697901 
L 387.298511 260.228583 
L 387.478975 278.930275 
L 387.659439 268.11797 
L 387.839903 275.688584 
L 388.020367 272.35731 
L 388.200831 265.226162 
L 388.381295 266.712794 
L 388.561759 265.021294 
L 388.922686 286.170802 
L 389.283614 279.166483 
L 389.464078 268.4072 
L 389.644542 274.594378 
L 389.825006 266.261843 
L 390.00547 294.401216 
L 390.546861 267.125552 
L 390.907789 273.864718 
L 391.088253 261.134624 
L 391.268717 281.258422 
L 391.449181 277.786969 
L 391.629645 277.888865 
L 391.810109 285.203945 
L 391.990573 272.40819 
L 392.171036 288.26433 
L 392.3515 284.346466 
L 392.531964 288.526629 
L 392.892892 269.490879 
L 393.25382 282.792015 
L 393.434284 270.548148 
L 393.614748 280.568689 
L 393.795211 270.755474 
L 393.975675 268.318337 
L 394.156139 275.356077 
L 394.336603 261.603222 
L 394.517067 280.434741 
L 394.697531 274.844084 
L 394.877995 291.408178 
L 395.058459 274.550092 
L 395.238923 273.140672 
L 395.419387 268.757224 
L 395.59985 272.970437 
L 395.780314 265.559784 
L 395.960778 283.406526 
L 396.321706 286.086128 
L 396.50217 266.348015 
L 396.682634 262.153006 
L 396.863098 267.588239 
L 397.043562 268.019873 
L 397.404489 277.684794 
L 397.584953 262.242809 
L 397.765417 274.186752 
L 397.945881 270.151607 
L 398.126345 260.399534 
L 398.306809 278.270275 
L 398.487273 267.489308 
L 398.487273 267.489308 
" clip-path="url(#p498de9067f)" style="fill: none; stroke: #1f77b4; stroke-width: 3; stroke-linecap: square"/>
   </g>
   <g id="patch_3">
    <path d="M 57.6 307.584 
L 57.6 41.472 
" style="fill: none; stroke: #000000; stroke-width: 3; stroke-linejoin: miter; stroke-linecap: square"/>
   </g>
   <g id="patch_4">
    <path d="M 414.72 307.584 
L 414.72 41.472 
" style="fill: none; stroke: #000000; stroke-width: 3; stroke-linejoin: miter; stroke-linecap: square"/>
   </g>
   <g id="patch_5">
    <path d="M 57.6 307.584 
L 414.72 307.584 
" style="fill: none; stroke: #000000; stroke-width: 3; stroke-linejoin: miter; stroke-linecap: square"/>
   </g>
   <g id="patch_6">
    <path d="M 57.6 41.472 
L 414.72 41.472 
" style="fill: none; stroke: #000000; stroke-width: 3; stroke-linejoin: miter; stroke-linecap: square"/>
   </g>
   <g id="text_17">
    <!-- Error plot sparsity:70 batchsize:1000_with_NesterovMomentum -->
    <g transform="translate(-51.1325 35.472)scale(0.16 -0.16)">
     <defs>
      <path id="DejaVuSans-Bold-6c" d="M 538 4863 
L 1656 4863 
L 1656 0 
L 538 0 
L 538 4863 
z
" transform="scale(0.015625)"/>
      <path id="DejaVuSans-Bold-74" d="M 1759 4494 
L 1759 3500 
L 2913 3500 
L 2913 2700 
L 1759 2700 
L 1759 1216 
Q 1759 972 1856 886 
Q 1953 800 2241 800 
L 2816 800 
L 2816 0 
L 1856 0 
Q 1194 0 917 276 
Q 641 553 641 1216 
L 641 2700 
L 84 2700 
L 84 3500 
L 641 3500 
L 641 4494 
L 1759 4494 
z
" transform="scale(0.015625)"/>
      <path id="DejaVuSans-Bold-73" d="M 3272 3391 
L 3272 2541 
Q 2913 2691 2578 2766 
Q 2244 2841 1947 2841 
Q 1628 2841 1473 2761 
Q 1319 2681 1319 2516 
Q 1319 2381 1436 2309 
Q 1553 2238 1856 2203 
L 2053 2175 
Q 2913 2066 3209 1816 
Q 3506 1566 3506 1031 
Q 3506 472 3093 190 
Q 2681 -91 1863 -91 
Q 1516 -91 1145 -36 
Q 775 19 384 128 
L 384 978 
Q 719 816 1070 734 
Q 1422 653 1784 653 
Q 2113 653 2278 743 
Q 2444 834 2444 1013 
Q 2444 1163 2330 1236 
Q 2216 1309 1875 1350 
L 1678 1375 
Q 931 1469 631 1722 
Q 331 1975 331 2491 
Q 331 3047 712 3315 
Q 1094 3584 1881 3584 
Q 2191 3584 2531 3537 
Q 2872 3491 3272 3391 
z
" transform="scale(0.015625)"/>
      <path id="DejaVuSans-Bold-69" d="M 538 3500 
L 1656 3500 
L 1656 0 
L 538 0 
L 538 3500 
z
M 538 4863 
L 1656 4863 
L 1656 3950 
L 538 3950 
L 538 4863 
z
" transform="scale(0.015625)"/>
      <path id="DejaVuSans-Bold-79" d="M 78 3500 
L 1197 3500 
L 2138 1125 
L 2938 3500 
L 4056 3500 
L 2584 -331 
Q 2363 -916 2067 -1148 
Q 1772 -1381 1288 -1381 
L 641 -1381 
L 641 -647 
L 991 -647 
Q 1275 -647 1404 -556 
Q 1534 -466 1606 -231 
L 1638 -134 
L 78 3500 
z
" transform="scale(0.015625)"/>
      <path id="DejaVuSans-Bold-3a" d="M 716 3500 
L 1844 3500 
L 1844 2291 
L 716 2291 
L 716 3500 
z
M 716 1209 
L 1844 1209 
L 1844 0 
L 716 0 
L 716 1209 
z
" transform="scale(0.015625)"/>
      <path id="DejaVuSans-Bold-62" d="M 2400 722 
Q 2759 722 2948 984 
Q 3138 1247 3138 1747 
Q 3138 2247 2948 2509 
Q 2759 2772 2400 2772 
Q 2041 2772 1848 2508 
Q 1656 2244 1656 1747 
Q 1656 1250 1848 986 
Q 2041 722 2400 722 
z
M 1656 2988 
Q 1888 3294 2169 3439 
Q 2450 3584 2816 3584 
Q 3463 3584 3878 3070 
Q 4294 2556 4294 1747 
Q 4294 938 3878 423 
Q 3463 -91 2816 -91 
Q 2450 -91 2169 54 
Q 1888 200 1656 506 
L 1656 0 
L 538 0 
L 538 4863 
L 1656 4863 
L 1656 2988 
z
" transform="scale(0.015625)"/>
      <path id="DejaVuSans-Bold-7a" d="M 366 3500 
L 3419 3500 
L 3419 2719 
L 1575 800 
L 3419 800 
L 3419 0 
L 288 0 
L 288 781 
L 2131 2700 
L 366 2700 
L 366 3500 
z
" transform="scale(0.015625)"/>
      <path id="DejaVuSans-Bold-65" d="M 4031 1759 
L 4031 1441 
L 1416 1441 
Q 1456 1047 1700 850 
Q 1944 653 2381 653 
Q 2734 653 3104 758 
Q 3475 863 3866 1075 
L 3866 213 
Q 3469 63 3072 -14 
Q 2675 -91 2278 -91 
Q 1328 -91 801 392 
Q 275 875 275 1747 
Q 275 2603 792 3093 
Q 1309 3584 2216 3584 
Q 3041 3584 3536 3087 
Q 4031 2591 4031 1759 
z
M 2881 2131 
Q 2881 2450 2695 2645 
Q 2509 2841 2209 2841 
Q 1884 2841 1681 2658 
Q 1478 2475 1428 2131 
L 2881 2131 
z
" transform="scale(0.015625)"/>
      <path id="DejaVuSans-Bold-5f" d="M 3200 -916 
L 3200 -1509 
L 0 -1509 
L 0 -916 
L 3200 -916 
z
" transform="scale(0.015625)"/>
      <path id="DejaVuSans-Bold-77" d="M 225 3500 
L 1313 3500 
L 1900 1088 
L 2491 3500 
L 3425 3500 
L 4013 1113 
L 4603 3500 
L 5691 3500 
L 4769 0 
L 3547 0 
L 2956 2406 
L 2369 0 
L 1147 0 
L 225 3500 
z
" transform="scale(0.015625)"/>
      <path id="DejaVuSans-Bold-4e" d="M 588 4666 
L 1931 4666 
L 3628 1466 
L 3628 4666 
L 4769 4666 
L 4769 0 
L 3425 0 
L 1728 3200 
L 1728 0 
L 588 0 
L 588 4666 
z
" transform="scale(0.015625)"/>
      <path id="DejaVuSans-Bold-76" d="M 97 3500 
L 1216 3500 
L 2088 1081 
L 2956 3500 
L 4078 3500 
L 2700 0 
L 1472 0 
L 97 3500 
z
" transform="scale(0.015625)"/>
      <path id="DejaVuSans-Bold-4d" d="M 588 4666 
L 2119 4666 
L 3181 2169 
L 4250 4666 
L 5778 4666 
L 5778 0 
L 4641 0 
L 4641 3413 
L 3566 897 
L 2803 897 
L 1728 3413 
L 1728 0 
L 588 0 
L 588 4666 
z
" transform="scale(0.015625)"/>
      <path id="DejaVuSans-Bold-6d" d="M 3781 2919 
Q 3994 3244 4286 3414 
Q 4578 3584 4928 3584 
Q 5531 3584 5847 3212 
Q 6163 2841 6163 2131 
L 6163 0 
L 5038 0 
L 5038 1825 
Q 5041 1866 5042 1909 
Q 5044 1953 5044 2034 
Q 5044 2406 4934 2573 
Q 4825 2741 4581 2741 
Q 4263 2741 4089 2478 
Q 3916 2216 3909 1719 
L 3909 0 
L 2784 0 
L 2784 1825 
Q 2784 2406 2684 2573 
Q 2584 2741 2328 2741 
Q 2006 2741 1831 2477 
Q 1656 2213 1656 1722 
L 1656 0 
L 531 0 
L 531 3500 
L 1656 3500 
L 1656 2988 
Q 1863 3284 2130 3434 
Q 2397 3584 2719 3584 
Q 3081 3584 3359 3409 
Q 3638 3234 3781 2919 
z
" transform="scale(0.015625)"/>
      <path id="DejaVuSans-Bold-6e" d="M 4056 2131 
L 4056 0 
L 2931 0 
L 2931 347 
L 2931 1631 
Q 2931 2084 2911 2256 
Q 2891 2428 2841 2509 
Q 2775 2619 2662 2680 
Q 2550 2741 2406 2741 
Q 2056 2741 1856 2470 
Q 1656 2200 1656 1722 
L 1656 0 
L 538 0 
L 538 3500 
L 1656 3500 
L 1656 2988 
Q 1909 3294 2193 3439 
Q 2478 3584 2822 3584 
Q 3428 3584 3742 3212 
Q 4056 2841 4056 2131 
z
" transform="scale(0.015625)"/>
     </defs>
     <use xlink:href="#DejaVuSans-Bold-45"/>
     <use xlink:href="#DejaVuSans-Bold-72" x="68.310547"/>
     <use xlink:href="#DejaVuSans-Bold-72" x="117.626953"/>
     <use xlink:href="#DejaVuSans-Bold-6f" x="166.943359"/>
     <use xlink:href="#DejaVuSans-Bold-72" x="235.644531"/>
     <use xlink:href="#DejaVuSans-Bold-20" x="284.960938"/>
     <use xlink:href="#DejaVuSans-Bold-70" x="319.775391"/>
     <use xlink:href="#DejaVuSans-Bold-6c" x="391.357422"/>
     <use xlink:href="#DejaVuSans-Bold-6f" x="425.634766"/>
     <use xlink:href="#DejaVuSans-Bold-74" x="494.335938"/>
     <use xlink:href="#DejaVuSans-Bold-20" x="542.138672"/>
     <use xlink:href="#DejaVuSans-Bold-73" x="576.953125"/>
     <use xlink:href="#DejaVuSans-Bold-70" x="636.474609"/>
     <use xlink:href="#DejaVuSans-Bold-61" x="708.056641"/>
     <use xlink:href="#DejaVuSans-Bold-72" x="775.537109"/>
     <use xlink:href="#DejaVuSans-Bold-73" x="824.853516"/>
     <use xlink:href="#DejaVuSans-Bold-69" x="884.375"/>
     <use xlink:href="#DejaVuSans-Bold-74" x="918.652344"/>
     <use xlink:href="#DejaVuSans-Bold-79" x="966.455078"/>
     <use xlink:href="#DejaVuSans-Bold-3a" x="1031.640625"/>
     <use xlink:href="#DejaVuSans-Bold-37" x="1071.630859"/>
     <use xlink:href="#DejaVuSans-Bold-30" x="1141.210938"/>
     <use xlink:href="#DejaVuSans-Bold-20" x="1210.791016"/>
     <use xlink:href="#DejaVuSans-Bold-62" x="1245.605469"/>
     <use xlink:href="#DejaVuSans-Bold-61" x="1317.1875"/>
     <use xlink:href="#DejaVuSans-Bold-74" x="1384.667969"/>
     <use xlink:href="#DejaVuSans-Bold-63" x="1432.470703"/>
     <use xlink:href="#DejaVuSans-Bold-68" x="1491.748047"/>
     <use xlink:href="#DejaVuSans-Bold-73" x="1562.939453"/>
     <use xlink:href="#DejaVuSans-Bold-69" x="1622.460938"/>
     <use xlink:href="#DejaVuSans-Bold-7a" x="1656.738281"/>
     <use xlink:href="#DejaVuSans-Bold-65" x="1714.941406"/>
     <use xlink:href="#DejaVuSans-Bold-3a" x="1782.763672"/>
     <use xlink:href="#DejaVuSans-Bold-31" x="1822.753906"/>
     <use xlink:href="#DejaVuSans-Bold-30" x="1892.333984"/>
     <use xlink:href="#DejaVuSans-Bold-30" x="1961.914062"/>
     <use xlink:href="#DejaVuSans-Bold-30" x="2031.494141"/>
     <use xlink:href="#DejaVuSans-Bold-5f" x="2101.074219"/>
     <use xlink:href="#DejaVuSans-Bold-77" x="2151.074219"/>
     <use xlink:href="#DejaVuSans-Bold-69" x="2243.457031"/>
     <use xlink:href="#DejaVuSans-Bold-74" x="2277.734375"/>
     <use xlink:href="#DejaVuSans-Bold-68" x="2325.537109"/>
     <use xlink:href="#DejaVuSans-Bold-5f" x="2396.728516"/>
     <use xlink:href="#DejaVuSans-Bold-4e" x="2446.728516"/>
     <use xlink:href="#DejaVuSans-Bold-65" x="2530.419922"/>
     <use xlink:href="#DejaVuSans-Bold-73" x="2598.242188"/>
     <use xlink:href="#DejaVuSans-Bold-74" x="2657.763672"/>
     <use xlink:href="#DejaVuSans-Bold-65" x="2705.566406"/>
     <use xlink:href="#DejaVuSans-Bold-72" x="2773.388672"/>
     <use xlink:href="#DejaVuSans-Bold-6f" x="2822.705078"/>
     <use xlink:href="#DejaVuSans-Bold-76" x="2891.40625"/>
     <use xlink:href="#DejaVuSans-Bold-4d" x="2956.591797"/>
     <use xlink:href="#DejaVuSans-Bold-6f" x="3056.103516"/>
     <use xlink:href="#DejaVuSans-Bold-6d" x="3124.804688"/>
     <use xlink:href="#DejaVuSans-Bold-65" x="3229.003906"/>
     <use xlink:href="#DejaVuSans-Bold-6e" x="3296.826172"/>
     <use xlink:href="#DejaVuSans-Bold-74" x="3368.017578"/>
     <use xlink:href="#DejaVuSans-Bold-75" x="3415.820312"/>
     <use xlink:href="#DejaVuSans-Bold-6d" x="3487.011719"/>
    </g>
   </g>
  </g>
 </g>
 <defs>
  <clipPath id="p498de9067f">
   <rect x="57.6" y="41.472" width="357.12" height="266.112"/>
  </clipPath>
 </defs>
</svg>
